<svg width="420" height="600" viewBox="0 0 420 600" fill="none" xmlns="http://www.w3.org/2000/svg">
<g filter="url(#filter0_i_40_1011)">
<path d="M400 0H20C8.9543 0 0 8.9543 0 20V580C0 591.046 8.9543 600 20 600H400C411.046 600 420 591.046 420 580V20C420 8.9543 411.046 0 400 0Z" fill="#F2FCFF"/>
<path d="M400 0.5H20C9.23045 0.5 0.5 9.23045 0.5 20V580C0.5 590.77 9.23045 599.5 20 599.5H400C410.77 599.5 419.5 590.77 419.5 580V20C419.5 9.23045 410.77 0.5 400 0.5Z" stroke="black"/>
</g>
<defs>
<filter id="filter0_i_40_1011" x="0" y="0" width="420" height="604" filterUnits="userSpaceOnUse" color-interpolation-filters="sRGB">
<feFlood flood-opacity="0" result="BackgroundImageFix"/>
<feBlend mode="normal" in="SourceGraphic" in2="BackgroundImageFix" result="shape"/>
<feColorMatrix in="SourceAlpha" type="matrix" values="0 0 0 0 0 0 0 0 0 0 0 0 0 0 0 0 0 0 127 0" result="hardAlpha"/>
<feOffset dy="4"/>
<feGaussianBlur stdDeviation="2"/>
<feComposite in2="hardAlpha" operator="arithmetic" k2="-1" k3="1"/>
<feColorMatrix type="matrix" values="0 0 0 0 0 0 0 0 0 0 0 0 0 0 0 0 0 0 0.25 0"/>
<feBlend mode="normal" in2="shape" result="effect1_innerShadow_40_1011"/>
</filter>
</defs>
</svg>
