<svg width="39" height="16" viewBox="0 0 39 16" fill="none" xmlns="http://www.w3.org/2000/svg">
<path d="M0.760986 0.454498H2.86398L7.80699 12.528H7.97699L12.92 0.454498H15.023V15H13.375V3.949H13.233L8.68799 15H7.09698L2.55098 3.949H2.40898V15H0.760986V0.454498ZM21.537 15.256C20.846 15.256 20.219 15.125 19.655 14.865C19.092 14.6 18.644 14.219 18.313 13.722C17.981 13.22 17.816 12.614 17.816 11.903C17.816 11.278 17.939 10.772 18.185 10.384C18.431 9.991 18.76 9.683 19.172 9.46C19.584 9.238 20.039 9.072 20.536 8.963C21.038 8.849 21.542 8.759 22.049 8.693C22.712 8.608 23.249 8.544 23.661 8.501C24.078 8.454 24.381 8.376 24.57 8.267C24.764 8.158 24.861 7.969 24.861 7.699V7.642C24.861 6.941 24.669 6.397 24.286 6.009C23.907 5.62 23.332 5.426 22.56 5.426C21.76 5.426 21.132 5.601 20.678 5.952C20.223 6.302 19.904 6.676 19.719 7.074L18.128 6.506C18.412 5.843 18.791 5.327 19.265 4.957C19.743 4.583 20.264 4.323 20.827 4.176C21.395 4.025 21.954 3.949 22.503 3.949C22.854 3.949 23.256 3.991 23.711 4.077C24.17 4.157 24.613 4.325 25.039 4.581C25.47 4.837 25.827 5.223 26.111 5.739C26.395 6.255 26.537 6.946 26.537 7.812V15H24.861V13.523H24.776C24.662 13.759 24.473 14.013 24.208 14.283C23.943 14.553 23.59 14.782 23.15 14.972C22.709 15.161 22.172 15.256 21.537 15.256ZM21.793 13.75C22.456 13.75 23.015 13.62 23.469 13.359C23.928 13.099 24.274 12.763 24.506 12.351C24.743 11.939 24.861 11.506 24.861 11.051V9.517C24.79 9.602 24.634 9.68 24.392 9.751C24.156 9.818 23.881 9.877 23.569 9.929C23.261 9.976 22.96 10.019 22.667 10.057C22.378 10.09 22.143 10.118 21.963 10.142C21.528 10.199 21.121 10.291 20.742 10.419C20.368 10.542 20.065 10.729 19.833 10.98C19.605 11.226 19.492 11.562 19.492 11.989C19.492 12.571 19.707 13.011 20.138 13.31C20.574 13.603 21.125 13.75 21.793 13.75ZM31.273 8.438V15H29.597V4.091H31.216V5.795H31.358C31.614 5.241 32.002 4.796 32.523 4.46C33.044 4.119 33.716 3.949 34.54 3.949C35.278 3.949 35.925 4.1 36.479 4.403C37.033 4.702 37.464 5.156 37.771 5.767C38.079 6.373 38.233 7.14 38.233 8.068V15H36.557V8.182C36.557 7.325 36.334 6.657 35.889 6.179C35.444 5.696 34.833 5.455 34.057 5.455C33.522 5.455 33.044 5.571 32.622 5.803C32.205 6.035 31.876 6.373 31.635 6.818C31.393 7.263 31.273 7.803 31.273 8.438Z" fill="black"/>
</svg>
