<svg width="310" height="31" viewBox="0 0 310 31" fill="none" xmlns="http://www.w3.org/2000/svg">
<path d="M294.5 1H15.5C7.49187 1 1 7.49187 1 15.5C1 23.5081 7.49187 30 15.5 30H294.5C302.508 30 309 23.5081 309 15.5C309 7.49187 302.508 1 294.5 1Z" fill="#FFA4A4" stroke="black"/>
<path d="M117.403 22L113.426 7.4545H115.216L118.256 19.3011H118.398L121.494 7.4545H123.483L126.58 19.3011H126.722L129.761 7.4545H131.551L127.574 22H125.756L122.545 10.4091H122.432L119.222 22H117.403ZM135.713 22.2557C135.022 22.2557 134.394 22.1255 133.831 21.8651C133.268 21.5999 132.82 21.2188 132.489 20.7216C132.157 20.2197 131.991 19.6136 131.991 18.9034C131.991 18.2784 132.115 17.7718 132.361 17.3835C132.607 16.9905 132.936 16.6828 133.348 16.4602C133.76 16.2377 134.214 16.072 134.712 15.9631C135.214 15.8494 135.718 15.7595 136.224 15.6932C136.887 15.608 137.425 15.544 137.837 15.5014C138.253 15.4541 138.556 15.3759 138.746 15.267C138.94 15.1581 139.037 14.9687 139.037 14.6989V14.642C139.037 13.9413 138.845 13.3968 138.462 13.0085C138.083 12.6203 137.508 12.4261 136.736 12.4261C135.936 12.4261 135.308 12.6013 134.854 12.9517C134.399 13.3021 134.08 13.6761 133.895 14.0739L132.304 13.5057C132.588 12.8428 132.967 12.3267 133.44 11.9574C133.919 11.5833 134.439 11.3229 135.003 11.1761C135.571 11.0246 136.13 10.9489 136.679 10.9489C137.029 10.9489 137.432 10.9915 137.886 11.0767C138.346 11.1572 138.788 11.3253 139.214 11.581C139.645 11.8366 140.003 12.2225 140.287 12.7386C140.571 13.2547 140.713 13.946 140.713 14.8125V22H139.037V20.5227H138.952C138.838 20.7595 138.649 21.0128 138.384 21.2827C138.118 21.5526 137.766 21.7822 137.325 21.9716C136.885 22.161 136.348 22.2557 135.713 22.2557ZM135.969 20.75C136.632 20.75 137.19 20.6198 137.645 20.3594C138.104 20.099 138.45 19.7628 138.682 19.3509C138.919 18.9389 139.037 18.5057 139.037 18.0511V16.517C138.966 16.6023 138.81 16.6804 138.568 16.7514C138.331 16.8177 138.057 16.8769 137.744 16.929C137.437 16.9763 137.136 17.0189 136.842 17.0568C136.554 17.09 136.319 17.1184 136.139 17.142C135.704 17.1989 135.296 17.2912 134.918 17.419C134.544 17.5421 134.241 17.7292 134.009 17.9801C133.781 18.2263 133.668 18.5625 133.668 18.9886C133.668 19.571 133.883 20.0114 134.314 20.3097C134.75 20.6032 135.301 20.75 135.969 20.75ZM143.772 22V11.0909H145.392V12.7386H145.505C145.704 12.1989 146.064 11.7609 146.585 11.4247C147.106 11.0885 147.693 10.9205 148.346 10.9205C148.469 10.9205 148.623 10.9228 148.808 10.9276C148.993 10.9323 149.132 10.9394 149.227 10.9489V12.6534C149.17 12.6392 149.04 12.6179 148.836 12.5895C148.637 12.5563 148.427 12.5398 148.204 12.5398C147.674 12.5398 147.2 12.651 146.784 12.8736C146.372 13.0914 146.045 13.3944 145.804 13.7827C145.567 14.1662 145.449 14.6042 145.449 15.0966V22H143.772ZM161.697 11.0909V12.5114H155.816V11.0909H161.697ZM157.577 22V9.5852C157.577 8.9602 157.724 8.4394 158.018 8.0227C158.311 7.6061 158.692 7.2936 159.161 7.0852C159.63 6.8769 160.125 6.7727 160.646 6.7727C161.058 6.7727 161.394 6.8059 161.654 6.8722C161.915 6.9384 162.109 7 162.237 7.0568L161.754 8.5057C161.668 8.4773 161.55 8.4418 161.398 8.3991C161.252 8.3565 161.058 8.3352 160.816 8.3352C160.262 8.3352 159.862 8.4749 159.616 8.7543C159.374 9.0336 159.254 9.4432 159.254 9.983V22H157.577ZM168.028 22.2273C167.044 22.2273 166.179 21.9929 165.436 21.5241C164.697 21.0554 164.12 20.3996 163.703 19.5568C163.291 18.714 163.085 17.7292 163.085 16.6023C163.085 15.4659 163.291 14.474 163.703 13.6264C164.12 12.7789 164.697 12.1207 165.436 11.652C166.179 11.1832 167.044 10.9489 168.028 10.9489C169.013 10.9489 169.875 11.1832 170.614 11.652C171.357 12.1207 171.935 12.7789 172.347 13.6264C172.763 14.474 172.972 15.4659 172.972 16.6023C172.972 17.7292 172.763 18.714 172.347 19.5568C171.935 20.3996 171.357 21.0554 170.614 21.5241C169.875 21.9929 169.013 22.2273 168.028 22.2273ZM168.028 20.7216C168.777 20.7216 169.392 20.5298 169.875 20.1463C170.358 19.7628 170.715 19.2585 170.947 18.6335C171.179 18.0085 171.295 17.3314 171.295 16.6023C171.295 15.8731 171.179 15.1937 170.947 14.5639C170.715 13.9342 170.358 13.4252 169.875 13.0369C169.392 12.6487 168.777 12.4545 168.028 12.4545C167.28 12.4545 166.665 12.6487 166.182 13.0369C165.699 13.4252 165.341 13.9342 165.109 14.5639C164.877 15.1937 164.761 15.8731 164.761 16.6023C164.761 17.3314 164.877 18.0085 165.109 18.6335C165.341 19.2585 165.699 19.7628 166.182 20.1463C166.665 20.5298 167.28 20.7216 168.028 20.7216ZM175.53 22V11.0909H177.15V12.7386H177.263C177.462 12.1989 177.822 11.7609 178.343 11.4247C178.864 11.0885 179.451 10.9205 180.104 10.9205C180.227 10.9205 180.381 10.9228 180.566 10.9276C180.75 10.9323 180.89 10.9394 180.985 10.9489V12.6534C180.928 12.6392 180.798 12.6179 180.594 12.5895C180.395 12.5563 180.185 12.5398 179.962 12.5398C179.432 12.5398 178.958 12.651 178.542 12.8736C178.13 13.0914 177.803 13.3944 177.561 13.7827C177.325 14.1662 177.206 14.6042 177.206 15.0966V22H175.53ZM182.972 22V11.0909H184.591V12.7955H184.733C184.96 12.2131 185.327 11.7609 185.834 11.4389C186.34 11.1122 186.949 10.9489 187.659 10.9489C188.379 10.9489 188.978 11.1122 189.456 11.4389C189.939 11.7609 190.315 12.2131 190.585 12.7955H190.699C190.978 12.232 191.397 11.7846 191.956 11.4531C192.515 11.117 193.185 10.9489 193.966 10.9489C194.941 10.9489 195.739 11.2543 196.359 11.8651C196.98 12.4711 197.29 13.4157 197.29 14.6989V22H195.614V14.6989C195.614 13.8939 195.393 13.3187 194.953 12.973C194.513 12.6274 193.994 12.4545 193.398 12.4545C192.631 12.4545 192.036 12.6866 191.615 13.1506C191.194 13.6098 190.983 14.1922 190.983 14.8977V22H189.278V14.5284C189.278 13.9081 189.077 13.4086 188.675 13.0298C188.272 12.6463 187.754 12.4545 187.119 12.4545C186.684 12.4545 186.277 12.5705 185.898 12.8026C185.524 13.0346 185.221 13.3565 184.989 13.7685C184.761 14.1757 184.648 14.6468 184.648 15.1818V22H182.972Z" fill="black"/>
</svg>
