<svg width="428" height="608" viewBox="0 0 428 608" fill="none" xmlns="http://www.w3.org/2000/svg">
<g filter="url(#filter0_d_4_195)">
<rect x="4" width="420" height="600" rx="20" fill="#F2FCFF"/>
<rect x="4.5" y="0.5" width="419" height="599" rx="19.5" stroke="black"/>
</g>
<rect x="60.5" y="27.5" width="308" height="29" rx="14.5" fill="#FFA4A4" stroke="black"/>
<rect x="60.5" y="27.5" width="308" height="29" rx="14.5" fill="#FFA4A4" stroke="black"/>
<path d="M115.295 273.455V288H113.591L105.665 276.58H105.523V288H103.761V273.455H105.466L113.42 284.903H113.562V273.455H115.295ZM121.803 288.256C121.112 288.256 120.484 288.125 119.921 287.865C119.357 287.6 118.91 287.219 118.578 286.722C118.247 286.22 118.081 285.614 118.081 284.903C118.081 284.278 118.204 283.772 118.451 283.384C118.697 282.991 119.026 282.683 119.438 282.46C119.85 282.238 120.304 282.072 120.801 281.963C121.303 281.849 121.808 281.759 122.314 281.693C122.977 281.608 123.515 281.544 123.926 281.501C124.343 281.454 124.646 281.376 124.836 281.267C125.03 281.158 125.127 280.969 125.127 280.699V280.642C125.127 279.941 124.935 279.397 124.551 279.009C124.173 278.62 123.597 278.426 122.826 278.426C122.025 278.426 121.398 278.601 120.944 278.952C120.489 279.302 120.169 279.676 119.985 280.074L118.394 279.506C118.678 278.843 119.057 278.327 119.53 277.957C120.008 277.583 120.529 277.323 121.093 277.176C121.661 277.025 122.22 276.949 122.769 276.949C123.119 276.949 123.522 276.991 123.976 277.077C124.435 277.157 124.878 277.325 125.304 277.581C125.735 277.837 126.093 278.223 126.377 278.739C126.661 279.255 126.803 279.946 126.803 280.812V288H125.127V286.523H125.042C124.928 286.759 124.739 287.013 124.473 287.283C124.208 287.553 123.855 287.782 123.415 287.972C122.975 288.161 122.437 288.256 121.803 288.256ZM122.059 286.75C122.721 286.75 123.28 286.62 123.735 286.359C124.194 286.099 124.54 285.763 124.772 285.351C125.008 284.939 125.127 284.506 125.127 284.051V282.517C125.056 282.602 124.9 282.68 124.658 282.751C124.421 282.818 124.147 282.877 123.834 282.929C123.526 282.976 123.226 283.019 122.932 283.057C122.643 283.09 122.409 283.118 122.229 283.142C121.793 283.199 121.386 283.291 121.007 283.419C120.633 283.542 120.33 283.729 120.098 283.98C119.871 284.226 119.757 284.562 119.757 284.989C119.757 285.571 119.973 286.011 120.404 286.31C120.839 286.603 121.391 286.75 122.059 286.75ZM129.862 288V277.091H131.482V278.795H131.624C131.851 278.213 132.218 277.761 132.724 277.439C133.231 277.112 133.839 276.949 134.55 276.949C135.269 276.949 135.868 277.112 136.347 277.439C136.83 277.761 137.206 278.213 137.476 278.795H137.589C137.869 278.232 138.288 277.785 138.847 277.453C139.405 277.117 140.075 276.949 140.857 276.949C141.832 276.949 142.63 277.254 143.25 277.865C143.87 278.471 144.18 279.416 144.18 280.699V288H142.504V280.699C142.504 279.894 142.284 279.319 141.844 278.973C141.403 278.627 140.885 278.455 140.288 278.455C139.521 278.455 138.927 278.687 138.506 279.151C138.084 279.61 137.874 280.192 137.874 280.898V288H136.169V280.528C136.169 279.908 135.968 279.409 135.565 279.03C135.163 278.646 134.644 278.455 134.01 278.455C133.574 278.455 133.167 278.571 132.788 278.803C132.414 279.035 132.111 279.357 131.879 279.768C131.652 280.176 131.538 280.647 131.538 281.182V288H129.862ZM151.819 288.227C150.768 288.227 149.861 287.995 149.099 287.531C148.341 287.062 147.756 286.409 147.344 285.571C146.937 284.728 146.734 283.748 146.734 282.631C146.734 281.513 146.937 280.528 147.344 279.676C147.756 278.819 148.329 278.152 149.063 277.673C149.802 277.19 150.664 276.949 151.648 276.949C152.217 276.949 152.778 277.044 153.332 277.233C153.886 277.422 154.39 277.73 154.844 278.156C155.299 278.578 155.661 279.136 155.931 279.832C156.201 280.528 156.336 281.385 156.336 282.403V283.114H147.927V281.665H154.631C154.631 281.049 154.508 280.5 154.262 280.017C154.021 279.534 153.675 279.153 153.225 278.874C152.78 278.594 152.254 278.455 151.648 278.455C150.981 278.455 150.403 278.62 149.915 278.952C149.433 279.278 149.061 279.705 148.8 280.23C148.54 280.756 148.41 281.319 148.41 281.92V282.886C148.41 283.71 148.552 284.409 148.836 284.982C149.125 285.55 149.525 285.983 150.036 286.281C150.548 286.575 151.142 286.722 151.819 286.722C152.259 286.722 152.657 286.66 153.012 286.537C153.372 286.409 153.682 286.22 153.942 285.969C154.203 285.713 154.404 285.396 154.546 285.017L156.165 285.472C155.995 286.021 155.709 286.504 155.306 286.92C154.904 287.332 154.406 287.654 153.815 287.886C153.223 288.114 152.558 288.227 151.819 288.227Z" fill="black"/>
<path d="M115.466 368H113.705C113.6 367.493 113.418 367.048 113.158 366.665C112.902 366.281 112.589 365.959 112.22 365.699C111.856 365.434 111.451 365.235 111.006 365.102C110.561 364.97 110.097 364.903 109.614 364.903C108.733 364.903 107.935 365.126 107.22 365.571C106.51 366.016 105.944 366.672 105.523 367.538C105.106 368.405 104.898 369.468 104.898 370.727C104.898 371.987 105.106 373.05 105.523 373.916C105.944 374.783 106.51 375.438 107.22 375.884C107.935 376.329 108.733 376.551 109.614 376.551C110.097 376.551 110.561 376.485 111.006 376.352C111.451 376.22 111.856 376.023 112.22 375.763C112.589 375.498 112.902 375.173 113.158 374.79C113.418 374.402 113.6 373.956 113.705 373.455H115.466C115.333 374.198 115.092 374.863 114.741 375.45C114.391 376.037 113.955 376.537 113.435 376.949C112.914 377.356 112.329 377.666 111.68 377.879C111.036 378.092 110.348 378.199 109.614 378.199C108.373 378.199 107.27 377.896 106.304 377.29C105.338 376.684 104.578 375.822 104.024 374.705C103.47 373.587 103.193 372.261 103.193 370.727C103.193 369.193 103.47 367.867 104.024 366.75C104.578 365.633 105.338 364.771 106.304 364.165C107.27 363.559 108.373 363.256 109.614 363.256C110.348 363.256 111.036 363.362 111.68 363.575C112.329 363.788 112.914 364.101 113.435 364.513C113.955 364.92 114.391 365.417 114.741 366.004C115.092 366.587 115.333 367.252 115.466 368ZM122.517 378.227C121.532 378.227 120.668 377.993 119.924 377.524C119.186 377.055 118.608 376.4 118.191 375.557C117.779 374.714 117.574 373.729 117.574 372.602C117.574 371.466 117.779 370.474 118.191 369.626C118.608 368.779 119.186 368.121 119.924 367.652C120.668 367.183 121.532 366.949 122.517 366.949C123.502 366.949 124.363 367.183 125.102 367.652C125.845 368.121 126.423 368.779 126.835 369.626C127.252 370.474 127.46 371.466 127.46 372.602C127.46 373.729 127.252 374.714 126.835 375.557C126.423 376.4 125.845 377.055 125.102 377.524C124.363 377.993 123.502 378.227 122.517 378.227ZM122.517 376.722C123.265 376.722 123.88 376.53 124.363 376.146C124.846 375.763 125.204 375.259 125.436 374.634C125.668 374.009 125.784 373.331 125.784 372.602C125.784 371.873 125.668 371.194 125.436 370.564C125.204 369.934 124.846 369.425 124.363 369.037C123.88 368.649 123.265 368.455 122.517 368.455C121.769 368.455 121.153 368.649 120.67 369.037C120.187 369.425 119.83 369.934 119.598 370.564C119.366 371.194 119.25 371.873 119.25 372.602C119.25 373.331 119.366 374.009 119.598 374.634C119.83 375.259 120.187 375.763 120.67 376.146C121.153 376.53 121.769 376.722 122.517 376.722ZM131.695 371.438V378H130.018V367.091H131.638V368.795H131.78C132.036 368.241 132.424 367.796 132.945 367.46C133.465 367.119 134.138 366.949 134.962 366.949C135.7 366.949 136.347 367.1 136.901 367.403C137.455 367.702 137.885 368.156 138.193 368.767C138.501 369.373 138.655 370.14 138.655 371.068V378H136.979V371.182C136.979 370.325 136.756 369.657 136.311 369.179C135.866 368.696 135.255 368.455 134.479 368.455C133.944 368.455 133.465 368.571 133.044 368.803C132.627 369.035 132.298 369.373 132.057 369.818C131.815 370.263 131.695 370.803 131.695 371.438ZM146.462 367.091V368.511H140.809V367.091H146.462ZM142.456 364.477H144.132V374.875C144.132 375.348 144.201 375.704 144.338 375.94C144.48 376.172 144.66 376.329 144.878 376.409C145.101 376.485 145.335 376.523 145.581 376.523C145.766 376.523 145.917 376.513 146.036 376.494C146.154 376.471 146.249 376.452 146.32 376.438L146.661 377.943C146.547 377.986 146.389 378.028 146.185 378.071C145.981 378.118 145.723 378.142 145.411 378.142C144.937 378.142 144.473 378.04 144.019 377.837C143.569 377.633 143.195 377.323 142.897 376.906C142.603 376.49 142.456 375.964 142.456 375.33V364.477ZM152.194 378.256C151.502 378.256 150.875 378.125 150.311 377.865C149.748 377.6 149.301 377.219 148.969 376.722C148.638 376.22 148.472 375.614 148.472 374.903C148.472 374.278 148.595 373.772 148.841 373.384C149.087 372.991 149.417 372.683 149.828 372.46C150.24 372.238 150.695 372.072 151.192 371.963C151.694 371.849 152.198 371.759 152.705 371.693C153.368 371.608 153.905 371.544 154.317 371.501C154.734 371.454 155.037 371.376 155.226 371.267C155.42 371.158 155.517 370.969 155.517 370.699V370.642C155.517 369.941 155.326 369.397 154.942 369.009C154.563 368.62 153.988 368.426 153.216 368.426C152.416 368.426 151.789 368.601 151.334 368.952C150.88 369.302 150.56 369.676 150.375 370.074L148.784 369.506C149.069 368.843 149.447 368.327 149.921 367.957C150.399 367.583 150.92 367.323 151.483 367.176C152.051 367.025 152.61 366.949 153.159 366.949C153.51 366.949 153.912 366.991 154.367 367.077C154.826 367.157 155.269 367.325 155.695 367.581C156.126 367.837 156.483 368.223 156.767 368.739C157.051 369.255 157.194 369.946 157.194 370.812V378H155.517V376.523H155.432C155.319 376.759 155.129 377.013 154.864 377.283C154.599 377.553 154.246 377.782 153.806 377.972C153.365 378.161 152.828 378.256 152.194 378.256ZM152.449 376.75C153.112 376.75 153.671 376.62 154.125 376.359C154.585 376.099 154.93 375.763 155.162 375.351C155.399 374.939 155.517 374.506 155.517 374.051V372.517C155.446 372.602 155.29 372.68 155.049 372.751C154.812 372.818 154.537 372.877 154.225 372.929C153.917 372.976 153.616 373.019 153.323 373.057C153.034 373.09 152.8 373.118 152.62 373.142C152.184 373.199 151.777 373.291 151.398 373.419C151.024 373.542 150.721 373.729 150.489 373.98C150.262 374.226 150.148 374.562 150.148 374.989C150.148 375.571 150.364 376.011 150.794 376.31C151.23 376.603 151.782 376.75 152.449 376.75ZM164.685 378.227C163.662 378.227 162.781 377.986 162.043 377.503C161.304 377.02 160.736 376.355 160.338 375.507C159.94 374.66 159.741 373.691 159.741 372.602C159.741 371.494 159.945 370.517 160.352 369.669C160.764 368.817 161.337 368.152 162.071 367.673C162.81 367.19 163.671 366.949 164.656 366.949C165.423 366.949 166.115 367.091 166.73 367.375C167.346 367.659 167.85 368.057 168.243 368.568C168.636 369.08 168.88 369.676 168.974 370.358H167.298C167.17 369.861 166.886 369.42 166.446 369.037C166.01 368.649 165.423 368.455 164.685 368.455C164.031 368.455 163.458 368.625 162.966 368.966C162.478 369.302 162.097 369.778 161.822 370.393C161.553 371.004 161.418 371.722 161.418 372.545C161.418 373.388 161.55 374.122 161.815 374.747C162.085 375.372 162.464 375.857 162.952 376.203C163.444 376.549 164.022 376.722 164.685 376.722C165.12 376.722 165.516 376.646 165.871 376.494C166.226 376.343 166.527 376.125 166.773 375.841C167.019 375.557 167.194 375.216 167.298 374.818H168.974C168.88 375.462 168.645 376.042 168.271 376.558C167.902 377.07 167.412 377.477 166.801 377.78C166.195 378.078 165.49 378.227 164.685 378.227ZM176.169 367.091V368.511H170.516V367.091H176.169ZM172.163 364.477H173.839V374.875C173.839 375.348 173.908 375.704 174.045 375.94C174.188 376.172 174.367 376.329 174.585 376.409C174.808 376.485 175.042 376.523 175.288 376.523C175.473 376.523 175.625 376.513 175.743 376.494C175.861 376.471 175.956 376.452 176.027 376.438L176.368 377.943C176.254 377.986 176.096 378.028 175.892 378.071C175.688 378.118 175.43 378.142 175.118 378.142C174.644 378.142 174.18 378.04 173.726 377.837C173.276 377.633 172.902 377.323 172.604 376.906C172.31 376.49 172.163 375.964 172.163 375.33V364.477Z" fill="black"/>
<path d="M112.25 477H107.761V462.455H112.449C113.86 462.455 115.067 462.746 116.071 463.328C117.075 463.906 117.844 464.737 118.379 465.821C118.914 466.901 119.182 468.193 119.182 469.699C119.182 471.214 118.912 472.518 118.372 473.612C117.832 474.701 117.046 475.539 116.014 476.126C114.982 476.709 113.727 477 112.25 477ZM109.523 475.438H112.136C113.339 475.438 114.336 475.205 115.126 474.741C115.917 474.277 116.507 473.617 116.895 472.76C117.283 471.903 117.477 470.883 117.477 469.699C117.477 468.525 117.286 467.514 116.902 466.666C116.518 465.814 115.946 465.161 115.183 464.706C114.421 464.247 113.472 464.017 112.335 464.017H109.523V475.438ZM125.119 477.256C124.428 477.256 123.801 477.125 123.237 476.865C122.674 476.6 122.226 476.219 121.895 475.722C121.563 475.22 121.398 474.614 121.398 473.903C121.398 473.278 121.521 472.772 121.767 472.384C122.013 471.991 122.342 471.683 122.754 471.46C123.166 471.238 123.621 471.072 124.118 470.963C124.62 470.849 125.124 470.759 125.631 470.693C126.294 470.608 126.831 470.544 127.243 470.501C127.66 470.454 127.963 470.376 128.152 470.267C128.346 470.158 128.443 469.969 128.443 469.699V469.642C128.443 468.941 128.251 468.397 127.868 468.009C127.489 467.62 126.914 467.426 126.142 467.426C125.342 467.426 124.714 467.601 124.26 467.952C123.805 468.302 123.486 468.676 123.301 469.074L121.71 468.506C121.994 467.843 122.373 467.327 122.847 466.957C123.325 466.583 123.846 466.323 124.409 466.176C124.977 466.025 125.536 465.949 126.085 465.949C126.436 465.949 126.838 465.991 127.293 466.077C127.752 466.157 128.195 466.325 128.621 466.581C129.052 466.837 129.409 467.223 129.693 467.739C129.977 468.255 130.119 468.946 130.119 469.812V477H128.443V475.523H128.358C128.244 475.759 128.055 476.013 127.79 476.283C127.525 476.553 127.172 476.782 126.732 476.972C126.291 477.161 125.754 477.256 125.119 477.256ZM125.375 475.75C126.038 475.75 126.597 475.62 127.051 475.359C127.51 475.099 127.856 474.763 128.088 474.351C128.325 473.939 128.443 473.506 128.443 473.051V471.517C128.372 471.602 128.216 471.68 127.974 471.751C127.738 471.818 127.463 471.877 127.151 471.929C126.843 471.976 126.542 472.019 126.249 472.057C125.96 472.09 125.725 472.118 125.545 472.142C125.11 472.199 124.703 472.291 124.324 472.419C123.95 472.542 123.647 472.729 123.415 472.98C123.188 473.226 123.074 473.562 123.074 473.989C123.074 474.571 123.289 475.011 123.72 475.31C124.156 475.603 124.707 475.75 125.375 475.75ZM137.923 466.091V467.511H132.27V466.091H137.923ZM133.917 463.477H135.593V473.875C135.593 474.348 135.662 474.704 135.799 474.94C135.941 475.172 136.121 475.329 136.339 475.409C136.562 475.485 136.796 475.523 137.042 475.523C137.227 475.523 137.378 475.513 137.497 475.494C137.615 475.471 137.71 475.452 137.781 475.438L138.122 476.943C138.008 476.986 137.85 477.028 137.646 477.071C137.442 477.118 137.184 477.142 136.872 477.142C136.398 477.142 135.934 477.04 135.48 476.837C135.03 476.633 134.656 476.323 134.358 475.906C134.064 475.49 133.917 474.964 133.917 474.33V463.477ZM144.901 477.227C143.85 477.227 142.943 476.995 142.181 476.531C141.423 476.062 140.838 475.409 140.426 474.571C140.019 473.728 139.816 472.748 139.816 471.631C139.816 470.513 140.019 469.528 140.426 468.676C140.838 467.819 141.411 467.152 142.145 466.673C142.884 466.19 143.746 465.949 144.73 465.949C145.299 465.949 145.86 466.044 146.414 466.233C146.968 466.422 147.472 466.73 147.926 467.156C148.381 467.578 148.743 468.136 149.013 468.832C149.283 469.528 149.418 470.385 149.418 471.403V472.114H141.009V470.665H147.713C147.713 470.049 147.59 469.5 147.344 469.017C147.103 468.534 146.757 468.153 146.307 467.874C145.862 467.594 145.337 467.455 144.73 467.455C144.063 467.455 143.485 467.62 142.998 467.952C142.515 468.278 142.143 468.705 141.882 469.23C141.622 469.756 141.492 470.319 141.492 470.92V471.886C141.492 472.71 141.634 473.409 141.918 473.982C142.207 474.55 142.607 474.983 143.118 475.281C143.63 475.575 144.224 475.722 144.901 475.722C145.341 475.722 145.739 475.66 146.094 475.537C146.454 475.409 146.764 475.22 147.025 474.969C147.285 474.713 147.486 474.396 147.628 474.017L149.248 474.472C149.077 475.021 148.791 475.504 148.388 475.92C147.986 476.332 147.489 476.654 146.897 476.886C146.305 477.114 145.64 477.227 144.901 477.227ZM162.025 477.227C161.04 477.227 160.176 476.993 159.432 476.524C158.694 476.055 158.116 475.4 157.699 474.557C157.287 473.714 157.081 472.729 157.081 471.602C157.081 470.466 157.287 469.474 157.699 468.626C158.116 467.779 158.694 467.121 159.432 466.652C160.176 466.183 161.04 465.949 162.025 465.949C163.009 465.949 163.871 466.183 164.61 466.652C165.353 467.121 165.931 467.779 166.343 468.626C166.759 469.474 166.968 470.466 166.968 471.602C166.968 472.729 166.759 473.714 166.343 474.557C165.931 475.4 165.353 476.055 164.61 476.524C163.871 476.993 163.009 477.227 162.025 477.227ZM162.025 475.722C162.773 475.722 163.388 475.53 163.871 475.146C164.354 474.763 164.712 474.259 164.944 473.634C165.176 473.009 165.292 472.331 165.292 471.602C165.292 470.873 165.176 470.194 164.944 469.564C164.712 468.934 164.354 468.425 163.871 468.037C163.388 467.649 162.773 467.455 162.025 467.455C161.276 467.455 160.661 467.649 160.178 468.037C159.695 468.425 159.337 468.934 159.105 469.564C158.873 470.194 158.757 470.873 158.757 471.602C158.757 472.331 158.873 473.009 159.105 473.634C159.337 474.259 159.695 474.763 160.178 475.146C160.661 475.53 161.276 475.722 162.025 475.722ZM174.384 466.091V467.511H168.504V466.091H174.384ZM170.265 477V464.585C170.265 463.96 170.412 463.439 170.705 463.023C170.999 462.606 171.38 462.294 171.849 462.085C172.317 461.877 172.812 461.773 173.333 461.773C173.745 461.773 174.081 461.806 174.342 461.872C174.602 461.938 174.796 462 174.924 462.057L174.441 463.506C174.356 463.477 174.237 463.442 174.086 463.399C173.939 463.357 173.745 463.335 173.504 463.335C172.95 463.335 172.549 463.475 172.303 463.754C172.062 464.034 171.941 464.443 171.941 464.983V477H170.265ZM182.586 477V462.455H184.262V467.824H184.404C184.527 467.634 184.697 467.393 184.915 467.099C185.138 466.801 185.455 466.536 185.867 466.304C186.283 466.067 186.847 465.949 187.557 465.949C188.476 465.949 189.285 466.179 189.986 466.638C190.687 467.097 191.234 467.748 191.627 468.591C192.02 469.434 192.216 470.428 192.216 471.574C192.216 472.729 192.02 473.731 191.627 474.578C191.234 475.421 190.689 476.074 189.993 476.538C189.297 476.998 188.495 477.227 187.586 477.227C186.885 477.227 186.324 477.111 185.902 476.879C185.481 476.643 185.157 476.375 184.929 476.077C184.702 475.774 184.527 475.523 184.404 475.324H184.205V477H182.586ZM184.233 471.545C184.233 472.369 184.354 473.096 184.596 473.726C184.837 474.351 185.19 474.841 185.654 475.196C186.118 475.546 186.686 475.722 187.358 475.722C188.059 475.722 188.644 475.537 189.113 475.168C189.586 474.794 189.941 474.292 190.178 473.662C190.419 473.027 190.54 472.322 190.54 471.545C190.54 470.778 190.422 470.087 190.185 469.472C189.953 468.851 189.6 468.361 189.127 468.001C188.658 467.637 188.069 467.455 187.358 467.455C186.676 467.455 186.104 467.627 185.64 467.973C185.176 468.314 184.825 468.792 184.588 469.408C184.352 470.018 184.233 470.731 184.233 471.545ZM194.78 477V466.091H196.456V477H194.78ZM195.632 464.273C195.306 464.273 195.024 464.161 194.787 463.939C194.555 463.716 194.439 463.449 194.439 463.136C194.439 462.824 194.555 462.556 194.787 462.334C195.024 462.111 195.306 462 195.632 462C195.959 462 196.239 462.111 196.471 462.334C196.707 462.556 196.826 462.824 196.826 463.136C196.826 463.449 196.707 463.716 196.471 463.939C196.239 464.161 195.959 464.273 195.632 464.273ZM199.526 477V466.091H201.146V467.739H201.259C201.458 467.199 201.818 466.761 202.339 466.425C202.86 466.089 203.447 465.92 204.1 465.92C204.223 465.92 204.377 465.923 204.562 465.928C204.746 465.932 204.886 465.939 204.981 465.949V467.653C204.924 467.639 204.794 467.618 204.59 467.589C204.391 467.556 204.181 467.54 203.958 467.54C203.428 467.54 202.954 467.651 202.538 467.874C202.126 468.091 201.799 468.394 201.558 468.783C201.321 469.166 201.202 469.604 201.202 470.097V477H199.526ZM212.396 466.091V467.511H206.742V466.091H212.396ZM208.39 463.477H210.066V473.875C210.066 474.348 210.135 474.704 210.272 474.94C210.414 475.172 210.594 475.329 210.812 475.409C211.034 475.485 211.269 475.523 211.515 475.523C211.7 475.523 211.851 475.513 211.969 475.494C212.088 475.471 212.183 475.452 212.254 475.438L212.594 476.943C212.481 476.986 212.322 477.028 212.119 477.071C211.915 477.118 211.657 477.142 211.344 477.142C210.871 477.142 210.407 477.04 209.952 476.837C209.503 476.633 209.129 476.323 208.83 475.906C208.537 475.49 208.39 474.964 208.39 474.33V463.477ZM216.827 470.438V477H215.151V462.455H216.827V467.795H216.969C217.225 467.232 217.609 466.785 218.12 466.453C218.636 466.117 219.323 465.949 220.18 465.949C220.923 465.949 221.574 466.098 222.133 466.396C222.692 466.69 223.125 467.142 223.433 467.753C223.745 468.359 223.901 469.131 223.901 470.068V477H222.225V470.182C222.225 469.315 222 468.645 221.55 468.172C221.105 467.694 220.487 467.455 219.697 467.455C219.147 467.455 218.655 467.571 218.219 467.803C217.789 468.035 217.448 468.373 217.197 468.818C216.951 469.263 216.827 469.803 216.827 470.438Z" fill="black"/>
<path d="M175.403 49L171.426 34.4545H173.216L176.256 46.3011H176.398L179.494 34.4545H181.483L184.58 46.3011H184.722L187.761 34.4545H189.551L185.574 49H183.756L180.545 37.4091H180.432L177.222 49H175.403ZM193.713 49.2557C193.022 49.2557 192.394 49.1255 191.831 48.8651C191.268 48.5999 190.82 48.2188 190.489 47.7216C190.157 47.2197 189.991 46.6136 189.991 45.9034C189.991 45.2784 190.115 44.7718 190.361 44.3835C190.607 43.9905 190.936 43.6828 191.348 43.4602C191.76 43.2377 192.214 43.072 192.712 42.9631C193.214 42.8494 193.718 42.7595 194.224 42.6932C194.887 42.608 195.425 42.544 195.837 42.5014C196.253 42.4541 196.556 42.3759 196.746 42.267C196.94 42.1581 197.037 41.9687 197.037 41.6989V41.642C197.037 40.9413 196.845 40.3968 196.462 40.0085C196.083 39.6203 195.508 39.4261 194.736 39.4261C193.936 39.4261 193.308 39.6013 192.854 39.9517C192.399 40.3021 192.08 40.6761 191.895 41.0739L190.304 40.5057C190.588 39.8428 190.967 39.3267 191.44 38.9574C191.919 38.5833 192.439 38.3229 193.003 38.1761C193.571 38.0246 194.13 37.9489 194.679 37.9489C195.029 37.9489 195.432 37.9915 195.886 38.0767C196.346 38.1572 196.788 38.3253 197.214 38.581C197.645 38.8366 198.003 39.2225 198.287 39.7386C198.571 40.2547 198.713 40.946 198.713 41.8125V49H197.037V47.5227H196.952C196.838 47.7595 196.649 48.0128 196.384 48.2827C196.118 48.5526 195.766 48.7822 195.325 48.9716C194.885 49.161 194.348 49.2557 193.713 49.2557ZM193.969 47.75C194.632 47.75 195.19 47.6198 195.645 47.3594C196.104 47.099 196.45 46.7628 196.682 46.3509C196.919 45.9389 197.037 45.5057 197.037 45.0511V43.517C196.966 43.6023 196.81 43.6804 196.568 43.7514C196.331 43.8177 196.057 43.8769 195.744 43.929C195.437 43.9763 195.136 44.0189 194.842 44.0568C194.554 44.09 194.319 44.1184 194.139 44.142C193.704 44.1989 193.296 44.2912 192.918 44.419C192.544 44.5421 192.241 44.7292 192.009 44.9801C191.781 45.2263 191.668 45.5625 191.668 45.9886C191.668 46.571 191.883 47.0114 192.314 47.3097C192.75 47.6032 193.301 47.75 193.969 47.75ZM201.772 49V38.0909H203.392V39.7386H203.505C203.704 39.1989 204.064 38.7609 204.585 38.4247C205.106 38.0885 205.693 37.9205 206.346 37.9205C206.469 37.9205 206.623 37.9228 206.808 37.9276C206.993 37.9323 207.132 37.9394 207.227 37.9489V39.6534C207.17 39.6392 207.04 39.6179 206.836 39.5895C206.637 39.5563 206.427 39.5398 206.204 39.5398C205.674 39.5398 205.2 39.651 204.784 39.8736C204.372 40.0914 204.045 40.3944 203.804 40.7827C203.567 41.1662 203.449 41.6042 203.449 42.0966V49H201.772ZM219.697 38.0909V39.5114H213.816V38.0909H219.697ZM215.577 49V36.5852C215.577 35.9602 215.724 35.4394 216.018 35.0227C216.311 34.6061 216.692 34.2936 217.161 34.0852C217.63 33.8769 218.125 33.7727 218.646 33.7727C219.058 33.7727 219.394 33.8059 219.654 33.8722C219.915 33.9384 220.109 34 220.237 34.0568L219.754 35.5057C219.668 35.4773 219.55 35.4418 219.398 35.3991C219.252 35.3565 219.058 35.3352 218.816 35.3352C218.262 35.3352 217.862 35.4749 217.616 35.7543C217.374 36.0336 217.254 36.4432 217.254 36.983V49H215.577ZM226.028 49.2273C225.044 49.2273 224.179 48.9929 223.436 48.5241C222.697 48.0554 222.12 47.3996 221.703 46.5568C221.291 45.714 221.085 44.7292 221.085 43.6023C221.085 42.4659 221.291 41.474 221.703 40.6264C222.12 39.7789 222.697 39.1207 223.436 38.652C224.179 38.1832 225.044 37.9489 226.028 37.9489C227.013 37.9489 227.875 38.1832 228.614 38.652C229.357 39.1207 229.935 39.7789 230.347 40.6264C230.763 41.474 230.972 42.4659 230.972 43.6023C230.972 44.7292 230.763 45.714 230.347 46.5568C229.935 47.3996 229.357 48.0554 228.614 48.5241C227.875 48.9929 227.013 49.2273 226.028 49.2273ZM226.028 47.7216C226.777 47.7216 227.392 47.5298 227.875 47.1463C228.358 46.7628 228.715 46.2585 228.947 45.6335C229.179 45.0085 229.295 44.3314 229.295 43.6023C229.295 42.8731 229.179 42.1937 228.947 41.5639C228.715 40.9342 228.358 40.4252 227.875 40.0369C227.392 39.6487 226.777 39.4545 226.028 39.4545C225.28 39.4545 224.665 39.6487 224.182 40.0369C223.699 40.4252 223.341 40.9342 223.109 41.5639C222.877 42.1937 222.761 42.8731 222.761 43.6023C222.761 44.3314 222.877 45.0085 223.109 45.6335C223.341 46.2585 223.699 46.7628 224.182 47.1463C224.665 47.5298 225.28 47.7216 226.028 47.7216ZM233.53 49V38.0909H235.15V39.7386H235.263C235.462 39.1989 235.822 38.7609 236.343 38.4247C236.864 38.0885 237.451 37.9205 238.104 37.9205C238.227 37.9205 238.381 37.9228 238.566 37.9276C238.75 37.9323 238.89 37.9394 238.985 37.9489V39.6534C238.928 39.6392 238.798 39.6179 238.594 39.5895C238.395 39.5563 238.185 39.5398 237.962 39.5398C237.432 39.5398 236.958 39.651 236.542 39.8736C236.13 40.0914 235.803 40.3944 235.561 40.7827C235.325 41.1662 235.206 41.6042 235.206 42.0966V49H233.53ZM240.972 49V38.0909H242.591V39.7955H242.733C242.96 39.2131 243.327 38.7609 243.834 38.4389C244.34 38.1122 244.949 37.9489 245.659 37.9489C246.379 37.9489 246.978 38.1122 247.456 38.4389C247.939 38.7609 248.315 39.2131 248.585 39.7955H248.699C248.978 39.232 249.397 38.7846 249.956 38.4531C250.515 38.117 251.185 37.9489 251.966 37.9489C252.941 37.9489 253.739 38.2543 254.359 38.8651C254.98 39.4711 255.29 40.4157 255.29 41.6989V49H253.614V41.6989C253.614 40.8939 253.393 40.3187 252.953 39.973C252.513 39.6274 251.994 39.4545 251.398 39.4545C250.631 39.4545 250.036 39.6866 249.615 40.1506C249.194 40.6098 248.983 41.1922 248.983 41.8977V49H247.278V41.5284C247.278 40.9081 247.077 40.4086 246.675 40.0298C246.272 39.6463 245.754 39.4545 245.119 39.4545C244.684 39.4545 244.277 39.5705 243.898 39.8026C243.524 40.0346 243.221 40.3565 242.989 40.7685C242.761 41.1757 242.648 41.6468 242.648 42.1818V49H240.972Z" fill="black"/>
<path d="M78 465V461M86 465V461M77 469H87M75 479H89C89.5304 479 90.0391 478.789 90.4142 478.414C90.7893 478.039 91 477.53 91 477V465C91 464.47 90.7893 463.961 90.4142 463.586C90.0391 463.211 89.5304 463 89 463H75C74.4696 463 73.9609 463.211 73.5858 463.586C73.2107 463.961 73 464.47 73 465V477C73 477.53 73.2107 478.039 73.5858 478.414C73.9609 478.789 74.4696 479 75 479Z" stroke="black" stroke-width="2" stroke-linecap="round" stroke-linejoin="round"/>
<path d="M69 363C69 362.735 69.1054 362.48 69.2929 362.293C69.4804 362.105 69.7348 362 70 362H72.153C72.3897 362 72.6187 362.084 72.7992 362.237C72.9798 362.39 73.1002 362.602 73.139 362.836L73.879 367.271C73.9144 367.482 73.881 367.699 73.7838 367.89C73.6866 368.081 73.5306 368.235 73.339 368.331L71.791 369.104C72.3461 370.48 73.1728 371.729 74.2218 372.778C75.2707 373.827 76.5203 374.654 77.896 375.209L78.67 373.661C78.7655 373.47 78.9199 373.314 79.1106 373.217C79.3012 373.119 79.5179 373.086 79.729 373.121L84.164 373.861C84.3975 373.9 84.6097 374.02 84.7627 374.201C84.9158 374.381 84.9999 374.61 85 374.847V377C85 377.265 84.8946 377.52 84.7071 377.707C84.5196 377.895 84.2652 378 84 378H82C74.82 378 69 372.18 69 365V363Z" fill="black"/>
<path d="M79.7614 118.455H81.8636L86.8068 130.528H86.9773L91.9205 118.455H94.0227V133H92.375V121.949H92.233L87.6875 133H86.0966L81.5511 121.949H81.4091V133H79.7614V118.455ZM100.537 133.256C99.846 133.256 99.2186 133.125 98.6552 132.865C98.0917 132.6 97.6443 132.219 97.3129 131.722C96.9814 131.22 96.8157 130.614 96.8157 129.903C96.8157 129.278 96.9388 128.772 97.185 128.384C97.4312 127.991 97.7603 127.683 98.1722 127.46C98.5842 127.238 99.0387 127.072 99.5359 126.963C100.038 126.849 100.542 126.759 101.049 126.693C101.712 126.608 102.249 126.544 102.661 126.501C103.078 126.454 103.381 126.376 103.57 126.267C103.764 126.158 103.861 125.969 103.861 125.699V125.642C103.861 124.941 103.669 124.397 103.286 124.009C102.907 123.62 102.332 123.426 101.56 123.426C100.76 123.426 100.132 123.601 99.6779 123.952C99.2234 124.302 98.9038 124.676 98.7191 125.074L97.1282 124.506C97.4123 123.843 97.7911 123.327 98.2646 122.957C98.7428 122.583 99.2636 122.323 99.8271 122.176C100.395 122.025 100.954 121.949 101.503 121.949C101.854 121.949 102.256 121.991 102.711 122.077C103.17 122.157 103.613 122.325 104.039 122.581C104.47 122.837 104.827 123.223 105.111 123.739C105.395 124.255 105.537 124.946 105.537 125.812V133H103.861V131.523H103.776C103.662 131.759 103.473 132.013 103.208 132.283C102.943 132.553 102.59 132.782 102.15 132.972C101.709 133.161 101.172 133.256 100.537 133.256ZM100.793 131.75C101.456 131.75 102.015 131.62 102.469 131.359C102.928 131.099 103.274 130.763 103.506 130.351C103.743 129.939 103.861 129.506 103.861 129.051V127.517C103.79 127.602 103.634 127.68 103.392 127.751C103.156 127.818 102.881 127.877 102.569 127.929C102.261 127.976 101.96 128.019 101.667 128.057C101.378 128.09 101.143 128.118 100.963 128.142C100.528 128.199 100.121 128.291 99.7418 128.419C99.3678 128.542 99.0647 128.729 98.8327 128.98C98.6055 129.226 98.4918 129.562 98.4918 129.989C98.4918 130.571 98.7073 131.011 99.1381 131.31C99.5737 131.603 100.125 131.75 100.793 131.75ZM110.273 126.438V133H108.597V122.091H110.216V123.795H110.358C110.614 123.241 111.002 122.796 111.523 122.46C112.044 122.119 112.716 121.949 113.54 121.949C114.278 121.949 114.925 122.1 115.479 122.403C116.033 122.702 116.464 123.156 116.771 123.767C117.079 124.373 117.233 125.14 117.233 126.068V133H115.557V126.182C115.557 125.325 115.334 124.657 114.889 124.179C114.444 123.696 113.833 123.455 113.057 123.455C112.522 123.455 112.044 123.571 111.622 123.803C111.205 124.035 110.876 124.373 110.635 124.818C110.393 125.263 110.273 125.803 110.273 126.438Z" fill="black"/>
<path d="M295.403 133L291.426 118.455H293.216L296.256 130.301H296.398L299.494 118.455H301.483L304.58 130.301H304.722L307.761 118.455H309.551L305.574 133H303.756L300.545 121.409H300.432L297.222 133H295.403ZM314.935 133.227C313.95 133.227 313.086 132.993 312.342 132.524C311.604 132.055 311.026 131.4 310.609 130.557C310.197 129.714 309.991 128.729 309.991 127.602C309.991 126.466 310.197 125.474 310.609 124.626C311.026 123.779 311.604 123.121 312.342 122.652C313.086 122.183 313.95 121.949 314.935 121.949C315.92 121.949 316.781 122.183 317.52 122.652C318.263 123.121 318.841 123.779 319.253 124.626C319.67 125.474 319.878 126.466 319.878 127.602C319.878 128.729 319.67 129.714 319.253 130.557C318.841 131.4 318.263 132.055 317.52 132.524C316.781 132.993 315.92 133.227 314.935 133.227ZM314.935 131.722C315.683 131.722 316.298 131.53 316.781 131.146C317.264 130.763 317.622 130.259 317.854 129.634C318.086 129.009 318.202 128.331 318.202 127.602C318.202 126.873 318.086 126.194 317.854 125.564C317.622 124.934 317.264 124.425 316.781 124.037C316.298 123.649 315.683 123.455 314.935 123.455C314.187 123.455 313.571 123.649 313.088 124.037C312.605 124.425 312.248 124.934 312.016 125.564C311.784 126.194 311.668 126.873 311.668 127.602C311.668 128.331 311.784 129.009 312.016 129.634C312.248 130.259 312.605 130.763 313.088 131.146C313.571 131.53 314.187 131.722 314.935 131.722ZM322.436 133V122.091H324.056V123.795H324.198C324.425 123.213 324.792 122.761 325.299 122.439C325.805 122.112 326.414 121.949 327.124 121.949C327.844 121.949 328.443 122.112 328.921 122.439C329.404 122.761 329.78 123.213 330.05 123.795H330.164C330.443 123.232 330.862 122.785 331.421 122.453C331.98 122.117 332.65 121.949 333.431 121.949C334.406 121.949 335.204 122.254 335.824 122.865C336.444 123.471 336.755 124.416 336.755 125.699V133H335.078V125.699C335.078 124.894 334.858 124.319 334.418 123.973C333.978 123.627 333.459 123.455 332.863 123.455C332.096 123.455 331.501 123.687 331.08 124.151C330.658 124.61 330.448 125.192 330.448 125.898V133H328.743V125.528C328.743 124.908 328.542 124.409 328.14 124.03C327.737 123.646 327.219 123.455 326.584 123.455C326.149 123.455 325.741 123.571 325.363 123.803C324.989 124.035 324.685 124.357 324.453 124.768C324.226 125.176 324.113 125.647 324.113 126.182V133H322.436ZM343.029 133.256C342.338 133.256 341.711 133.125 341.147 132.865C340.584 132.6 340.136 132.219 339.805 131.722C339.474 131.22 339.308 130.614 339.308 129.903C339.308 129.278 339.431 128.772 339.677 128.384C339.923 127.991 340.252 127.683 340.664 127.46C341.076 127.238 341.531 127.072 342.028 126.963C342.53 126.849 343.034 126.759 343.541 126.693C344.204 126.608 344.741 126.544 345.153 126.501C345.57 126.454 345.873 126.376 346.062 126.267C346.256 126.158 346.353 125.969 346.353 125.699V125.642C346.353 124.941 346.162 124.397 345.778 124.009C345.399 123.62 344.824 123.426 344.052 123.426C343.252 123.426 342.625 123.601 342.17 123.952C341.716 124.302 341.396 124.676 341.211 125.074L339.62 124.506C339.904 123.843 340.283 123.327 340.757 122.957C341.235 122.583 341.756 122.323 342.319 122.176C342.887 122.025 343.446 121.949 343.995 121.949C344.346 121.949 344.748 121.991 345.203 122.077C345.662 122.157 346.105 122.325 346.531 122.581C346.962 122.837 347.319 123.223 347.603 123.739C347.887 124.255 348.029 124.946 348.029 125.812V133H346.353V131.523H346.268C346.154 131.759 345.965 132.013 345.7 132.283C345.435 132.553 345.082 132.782 344.642 132.972C344.201 133.161 343.664 133.256 343.029 133.256ZM343.285 131.75C343.948 131.75 344.507 131.62 344.961 131.359C345.421 131.099 345.766 130.763 345.998 130.351C346.235 129.939 346.353 129.506 346.353 129.051V127.517C346.282 127.602 346.126 127.68 345.885 127.751C345.648 127.818 345.373 127.877 345.061 127.929C344.753 127.976 344.452 128.019 344.159 128.057C343.87 128.09 343.636 128.118 343.456 128.142C343.02 128.199 342.613 128.291 342.234 128.419C341.86 128.542 341.557 128.729 341.325 128.98C341.098 129.226 340.984 129.562 340.984 129.989C340.984 130.571 341.199 131.011 341.63 131.31C342.066 131.603 342.618 131.75 343.285 131.75ZM352.765 126.438V133H351.089V122.091H352.708V123.795H352.85C353.106 123.241 353.494 122.796 354.015 122.46C354.536 122.119 355.208 121.949 356.032 121.949C356.771 121.949 357.417 122.1 357.971 122.403C358.525 122.702 358.956 123.156 359.263 123.767C359.571 124.373 359.725 125.14 359.725 126.068V133H358.049V126.182C358.049 125.325 357.826 124.657 357.381 124.179C356.936 123.696 356.326 123.455 355.549 123.455C355.014 123.455 354.536 123.571 354.114 123.803C353.698 124.035 353.369 124.373 353.127 124.818C352.886 125.263 352.765 125.803 352.765 126.438Z" fill="black"/>
<path d="M137.466 75H135.705C135.6 74.4934 135.418 74.0483 135.158 73.6648C134.902 73.2812 134.589 72.9593 134.22 72.6989C133.856 72.4337 133.451 72.2348 133.006 72.1023C132.561 71.9697 132.097 71.9034 131.614 71.9034C130.733 71.9034 129.935 72.1259 129.22 72.571C128.51 73.0161 127.944 73.6719 127.523 74.5384C127.106 75.4048 126.898 76.4678 126.898 77.7273C126.898 78.9867 127.106 80.0497 127.523 80.9162C127.944 81.7827 128.51 82.4384 129.22 82.8835C129.935 83.3286 130.733 83.5511 131.614 83.5511C132.097 83.5511 132.561 83.4848 133.006 83.3523C133.451 83.2197 133.856 83.0232 134.22 82.7628C134.589 82.4976 134.902 82.1733 135.158 81.7898C135.418 81.4015 135.6 80.9564 135.705 80.4545H137.466C137.333 81.1979 137.092 81.8632 136.741 82.4503C136.391 83.0374 135.955 83.5369 135.435 83.9489C134.914 84.3561 134.329 84.6662 133.68 84.8793C133.036 85.0923 132.348 85.1989 131.614 85.1989C130.373 85.1989 129.27 84.8958 128.304 84.2898C127.338 83.6837 126.578 82.822 126.024 81.7045C125.47 80.5871 125.193 79.2614 125.193 77.7273C125.193 76.1932 125.47 74.8674 126.024 73.75C126.578 72.6326 127.338 71.7708 128.304 71.1648C129.27 70.5587 130.373 70.2557 131.614 70.2557C132.348 70.2557 133.036 70.3622 133.68 70.5753C134.329 70.7884 134.914 71.1009 135.435 71.5128C135.955 71.92 136.391 72.4171 136.741 73.0043C137.092 73.5866 137.333 74.2519 137.466 75ZM141.761 78.4375V85H140.085V70.4545H141.761V75.7955H141.903C142.159 75.232 142.542 74.7846 143.054 74.4531C143.57 74.117 144.256 73.9489 145.113 73.9489C145.857 73.9489 146.508 74.098 147.066 74.3963C147.625 74.6899 148.058 75.142 148.366 75.7528C148.679 76.3589 148.835 77.1307 148.835 78.0682V85H147.159V78.1818C147.159 77.3153 146.934 76.6454 146.484 76.1719C146.039 75.6937 145.421 75.4545 144.63 75.4545C144.081 75.4545 143.589 75.5705 143.153 75.8026C142.722 76.0346 142.381 76.3731 142.13 76.8182C141.884 77.2633 141.761 77.803 141.761 78.4375ZM156.333 85.2273C155.348 85.2273 154.484 84.9929 153.741 84.5241C153.002 84.0554 152.424 83.3996 152.008 82.5568C151.596 81.714 151.39 80.7292 151.39 79.6023C151.39 78.4659 151.596 77.474 152.008 76.6264C152.424 75.7789 153.002 75.1207 153.741 74.652C154.484 74.1832 155.348 73.9489 156.333 73.9489C157.318 73.9489 158.18 74.1832 158.918 74.652C159.662 75.1207 160.239 75.7789 160.651 76.6264C161.068 77.474 161.276 78.4659 161.276 79.6023C161.276 80.7292 161.068 81.714 160.651 82.5568C160.239 83.3996 159.662 84.0554 158.918 84.5241C158.18 84.9929 157.318 85.2273 156.333 85.2273ZM156.333 83.7216C157.081 83.7216 157.697 83.5298 158.18 83.1463C158.663 82.7628 159.02 82.2585 159.252 81.6335C159.484 81.0085 159.6 80.3314 159.6 79.6023C159.6 78.8731 159.484 78.1937 159.252 77.5639C159.02 76.9342 158.663 76.4252 158.18 76.0369C157.697 75.6487 157.081 75.4545 156.333 75.4545C155.585 75.4545 154.969 75.6487 154.487 76.0369C154.004 76.4252 153.646 76.9342 153.414 77.5639C153.182 78.1937 153.066 78.8731 153.066 79.6023C153.066 80.3314 153.182 81.0085 153.414 81.6335C153.646 82.2585 154.004 82.7628 154.487 83.1463C154.969 83.5298 155.585 83.7216 156.333 83.7216ZM168.267 85.2273C167.282 85.2273 166.418 84.9929 165.674 84.5241C164.936 84.0554 164.358 83.3996 163.941 82.5568C163.529 81.714 163.324 80.7292 163.324 79.6023C163.324 78.4659 163.529 77.474 163.941 76.6264C164.358 75.7789 164.936 75.1207 165.674 74.652C166.418 74.1832 167.282 73.9489 168.267 73.9489C169.252 73.9489 170.113 74.1832 170.852 74.652C171.595 75.1207 172.173 75.7789 172.585 76.6264C173.002 77.474 173.21 78.4659 173.21 79.6023C173.21 80.7292 173.002 81.714 172.585 82.5568C172.173 83.3996 171.595 84.0554 170.852 84.5241C170.113 84.9929 169.252 85.2273 168.267 85.2273ZM168.267 83.7216C169.015 83.7216 169.63 83.5298 170.113 83.1463C170.596 82.7628 170.954 82.2585 171.186 81.6335C171.418 81.0085 171.534 80.3314 171.534 79.6023C171.534 78.8731 171.418 78.1937 171.186 77.5639C170.954 76.9342 170.596 76.4252 170.113 76.0369C169.63 75.6487 169.015 75.4545 168.267 75.4545C167.519 75.4545 166.903 75.6487 166.42 76.0369C165.937 76.4252 165.58 76.9342 165.348 77.5639C165.116 78.1937 165 78.8731 165 79.6023C165 80.3314 165.116 81.0085 165.348 81.6335C165.58 82.2585 165.937 82.7628 166.42 83.1463C166.903 83.5298 167.519 83.7216 168.267 83.7216ZM183.496 76.5341L181.99 76.9602C181.895 76.7093 181.756 76.4654 181.571 76.2287C181.391 75.9872 181.145 75.7884 180.832 75.6321C180.52 75.4759 180.12 75.3977 179.632 75.3977C178.964 75.3977 178.408 75.5516 177.963 75.8594C177.523 76.1624 177.303 76.5483 177.303 77.017C177.303 77.4337 177.454 77.7628 177.757 78.0043C178.06 78.2457 178.534 78.447 179.178 78.608L180.797 79.0057C181.772 79.2424 182.499 79.6046 182.977 80.0923C183.455 80.5753 183.695 81.1979 183.695 81.9602C183.695 82.5852 183.515 83.1439 183.155 83.6364C182.8 84.1288 182.303 84.517 181.663 84.8011C181.024 85.0852 180.281 85.2273 179.433 85.2273C178.321 85.2273 177.4 84.9858 176.67 84.5028C175.941 84.0199 175.48 83.3144 175.286 82.3864L176.876 81.9886C177.028 82.5758 177.314 83.0161 177.736 83.3097C178.162 83.6032 178.718 83.75 179.405 83.75C180.186 83.75 180.806 83.5843 181.266 83.2528C181.73 82.9167 181.962 82.5142 181.962 82.0455C181.962 81.6667 181.829 81.3494 181.564 81.0938C181.299 80.8333 180.892 80.6392 180.342 80.5114L178.524 80.0852C177.525 79.8485 176.791 79.4815 176.322 78.9844C175.858 78.4825 175.626 77.8551 175.626 77.1023C175.626 76.4867 175.799 75.9422 176.145 75.4688C176.495 74.9953 176.971 74.6236 177.572 74.3537C178.179 74.0838 178.865 73.9489 179.632 73.9489C180.712 73.9489 181.559 74.1856 182.175 74.6591C182.795 75.1326 183.235 75.7576 183.496 76.5341ZM190.792 85.2273C189.74 85.2273 188.834 84.9953 188.071 84.5312C187.314 84.0625 186.729 83.4091 186.317 82.571C185.91 81.7282 185.706 80.7481 185.706 79.6307C185.706 78.5133 185.91 77.5284 186.317 76.6761C186.729 75.8191 187.302 75.1515 188.036 74.6733C188.775 74.1903 189.636 73.9489 190.621 73.9489C191.189 73.9489 191.75 74.0436 192.304 74.233C192.858 74.4223 193.363 74.7301 193.817 75.1562C194.272 75.5777 194.634 76.1364 194.904 76.8324C195.174 77.5284 195.309 78.3854 195.309 79.4034V80.1136H186.9V78.6648H193.604C193.604 78.0492 193.481 77.5 193.235 77.017C192.993 76.5341 192.648 76.1529 192.198 75.8736C191.753 75.5942 191.227 75.4545 190.621 75.4545C189.953 75.4545 189.376 75.6203 188.888 75.9517C188.405 76.2784 188.033 76.7045 187.773 77.2301C187.513 77.7557 187.382 78.3191 187.382 78.9205V79.8864C187.382 80.7102 187.525 81.4086 187.809 81.9815C188.097 82.5497 188.498 82.983 189.009 83.2812C189.52 83.5748 190.114 83.7216 190.792 83.7216C191.232 83.7216 191.63 83.66 191.985 83.5369C192.345 83.4091 192.655 83.2197 192.915 82.9688C193.176 82.7131 193.377 82.3958 193.519 82.017L195.138 82.4716C194.968 83.0208 194.681 83.5038 194.279 83.9205C193.876 84.3324 193.379 84.6544 192.787 84.8864C192.195 85.1136 191.53 85.2273 190.792 85.2273ZM204.563 89.0909C204.279 89.0909 204.025 89.0672 203.803 89.0199C203.58 88.9773 203.426 88.9347 203.341 88.892L203.767 87.4148C204.175 87.5189 204.534 87.5568 204.847 87.5284C205.159 87.5 205.436 87.3603 205.678 87.1094C205.924 86.8632 206.149 86.4631 206.353 85.9091L206.665 85.0568L202.631 74.0909H204.449L207.461 82.7841H207.574L210.586 74.0909H212.404L207.773 86.5909C207.565 87.1544 207.307 87.6207 206.999 87.9901C206.691 88.3641 206.334 88.6411 205.926 88.821C205.524 89.0009 205.069 89.0909 204.563 89.0909ZM218.657 85.2273C217.672 85.2273 216.808 84.9929 216.065 84.5241C215.326 84.0554 214.749 83.3996 214.332 82.5568C213.92 81.714 213.714 80.7292 213.714 79.6023C213.714 78.4659 213.92 77.474 214.332 76.6264C214.749 75.7789 215.326 75.1207 216.065 74.652C216.808 74.1832 217.672 73.9489 218.657 73.9489C219.642 73.9489 220.504 74.1832 221.243 74.652C221.986 75.1207 222.564 75.7789 222.975 76.6264C223.392 77.474 223.6 78.4659 223.6 79.6023C223.6 80.7292 223.392 81.714 222.975 82.5568C222.564 83.3996 221.986 84.0554 221.243 84.5241C220.504 84.9929 219.642 85.2273 218.657 85.2273ZM218.657 83.7216C219.405 83.7216 220.021 83.5298 220.504 83.1463C220.987 82.7628 221.344 82.2585 221.576 81.6335C221.808 81.0085 221.924 80.3314 221.924 79.6023C221.924 78.8731 221.808 78.1937 221.576 77.5639C221.344 76.9342 220.987 76.4252 220.504 76.0369C220.021 75.6487 219.405 75.4545 218.657 75.4545C217.909 75.4545 217.294 75.6487 216.811 76.0369C216.328 76.4252 215.97 76.9342 215.738 77.5639C215.506 78.1937 215.39 78.8731 215.39 79.6023C215.39 80.3314 215.506 81.0085 215.738 81.6335C215.97 82.2585 216.328 82.7628 216.811 83.1463C217.294 83.5298 217.909 83.7216 218.657 83.7216ZM233.034 80.5398V74.0909H234.71V85H233.034V83.1534H232.92C232.665 83.7074 232.267 84.1785 231.727 84.5668C231.188 84.9503 230.506 85.142 229.682 85.142C229 85.142 228.394 84.9929 227.864 84.6946C227.333 84.3916 226.917 83.937 226.614 83.331C226.311 82.7202 226.159 81.9508 226.159 81.0227V74.0909H227.835V80.9091C227.835 81.7045 228.058 82.339 228.503 82.8125C228.953 83.286 229.526 83.5227 230.222 83.5227C230.638 83.5227 231.062 83.4162 231.493 83.2031C231.929 82.9901 232.293 82.6634 232.587 82.223C232.885 81.7827 233.034 81.2216 233.034 80.5398ZM237.78 85V74.0909H239.4V75.7386H239.513C239.712 75.1989 240.072 74.7609 240.593 74.4247C241.114 74.0885 241.701 73.9205 242.354 73.9205C242.477 73.9205 242.631 73.9228 242.816 73.9276C243 73.9323 243.14 73.9394 243.235 73.9489V75.6534C243.178 75.6392 243.048 75.6179 242.844 75.5895C242.645 75.5563 242.435 75.5398 242.212 75.5398C241.682 75.5398 241.208 75.651 240.792 75.8736C240.38 76.0914 240.053 76.3944 239.811 76.7827C239.575 77.1662 239.456 77.6042 239.456 78.0966V85H237.78ZM255.25 89.3182C254.44 89.3182 253.744 89.214 253.162 89.0057C252.58 88.8021 252.094 88.5322 251.706 88.196C251.322 87.8646 251.017 87.5095 250.79 87.1307L252.125 86.1932C252.277 86.392 252.468 86.6193 252.7 86.875C252.932 87.1354 253.25 87.3603 253.652 87.5497C254.059 87.7438 254.592 87.8409 255.25 87.8409C256.131 87.8409 256.857 87.6278 257.43 87.2017C258.003 86.7756 258.29 86.108 258.29 85.1989V82.983H258.148C258.025 83.1818 257.849 83.428 257.622 83.7216C257.4 84.0104 257.078 84.2685 256.656 84.4957C256.24 84.7183 255.676 84.8295 254.966 84.8295C254.085 84.8295 253.295 84.6212 252.594 84.2045C251.898 83.7879 251.346 83.1818 250.939 82.3864C250.536 81.5909 250.335 80.625 250.335 79.4886C250.335 78.3712 250.532 77.3982 250.925 76.5696C251.318 75.7363 251.865 75.0923 252.565 74.6378C253.266 74.1785 254.076 73.9489 254.994 73.9489C255.705 73.9489 256.268 74.0672 256.685 74.304C257.106 74.536 257.428 74.8011 257.651 75.0994C257.878 75.393 258.053 75.6345 258.176 75.8239H258.347V74.0909H259.966V85.3125C259.966 86.25 259.753 87.0123 259.327 87.5994C258.905 88.1913 258.337 88.6245 257.622 88.8991C256.912 89.1785 256.121 89.3182 255.25 89.3182ZM255.193 83.3239C255.866 83.3239 256.434 83.17 256.898 82.8622C257.362 82.5545 257.714 82.1117 257.956 81.5341C258.197 80.9564 258.318 80.2652 258.318 79.4602C258.318 78.6742 258.2 77.9806 257.963 77.3793C257.726 76.7779 257.376 76.3068 256.912 75.9659C256.448 75.625 255.875 75.4545 255.193 75.4545C254.483 75.4545 253.891 75.6345 253.418 75.9943C252.949 76.3542 252.596 76.8371 252.359 77.4432C252.127 78.0492 252.011 78.7216 252.011 79.4602C252.011 80.2178 252.13 80.8878 252.366 81.4702C252.608 82.0478 252.963 82.5024 253.432 82.8338C253.905 83.1605 254.492 83.3239 255.193 83.3239ZM267.608 85.2273C266.557 85.2273 265.65 84.9953 264.888 84.5312C264.13 84.0625 263.545 83.4091 263.134 82.571C262.726 81.7282 262.523 80.7481 262.523 79.6307C262.523 78.5133 262.726 77.5284 263.134 76.6761C263.545 75.8191 264.118 75.1515 264.852 74.6733C265.591 74.1903 266.453 73.9489 267.438 73.9489C268.006 73.9489 268.567 74.0436 269.121 74.233C269.675 74.4223 270.179 74.7301 270.634 75.1562C271.088 75.5777 271.45 76.1364 271.72 76.8324C271.99 77.5284 272.125 78.3854 272.125 79.4034V80.1136H263.716V78.6648H270.42C270.42 78.0492 270.297 77.5 270.051 77.017C269.81 76.5341 269.464 76.1529 269.014 75.8736C268.569 75.5942 268.044 75.4545 267.438 75.4545C266.77 75.4545 266.192 75.6203 265.705 75.9517C265.222 76.2784 264.85 76.7045 264.589 77.2301C264.329 77.7557 264.199 78.3191 264.199 78.9205V79.8864C264.199 80.7102 264.341 81.4086 264.625 81.9815C264.914 82.5497 265.314 82.983 265.825 83.2812C266.337 83.5748 266.931 83.7216 267.608 83.7216C268.048 83.7216 268.446 83.66 268.801 83.5369C269.161 83.4091 269.471 83.2197 269.732 82.9688C269.992 82.7131 270.193 82.3958 270.335 82.017L271.955 82.4716C271.784 83.0208 271.498 83.5038 271.095 83.9205C270.693 84.3324 270.196 84.6544 269.604 84.8864C269.012 85.1136 268.347 85.2273 267.608 85.2273ZM276.351 78.4375V85H274.675V74.0909H276.294V75.7955H276.436C276.692 75.2415 277.08 74.7964 277.601 74.4602C278.122 74.1193 278.794 73.9489 279.618 73.9489C280.357 73.9489 281.003 74.1004 281.557 74.4034C282.111 74.7017 282.542 75.1562 282.849 75.767C283.157 76.3731 283.311 77.1402 283.311 78.0682V85H281.635V78.1818C281.635 77.3248 281.412 76.6572 280.967 76.179C280.522 75.696 279.911 75.4545 279.135 75.4545C278.6 75.4545 278.122 75.5705 277.7 75.8026C277.284 76.0346 276.955 76.3731 276.713 76.8182C276.472 77.2633 276.351 77.803 276.351 78.4375ZM290.493 85.2273C289.584 85.2273 288.782 84.9976 288.086 84.5384C287.39 84.0743 286.845 83.4209 286.452 82.5781C286.059 81.7306 285.863 80.7292 285.863 79.5739C285.863 78.428 286.059 77.4337 286.452 76.5909C286.845 75.7481 287.392 75.0971 288.093 74.6378C288.793 74.1785 289.603 73.9489 290.522 73.9489C291.232 73.9489 291.793 74.0672 292.205 74.304C292.622 74.536 292.939 74.8011 293.157 75.0994C293.379 75.393 293.552 75.6345 293.675 75.8239H293.817V70.4545H295.493V85H293.874V83.3239H293.675C293.552 83.5227 293.377 83.7737 293.15 84.0767C292.922 84.375 292.598 84.6425 292.176 84.8793C291.755 85.1113 291.194 85.2273 290.493 85.2273ZM290.721 83.7216C291.393 83.7216 291.961 83.5464 292.425 83.196C292.889 82.8409 293.242 82.3509 293.483 81.7259C293.725 81.0961 293.846 80.3693 293.846 79.5455C293.846 78.7311 293.727 78.0185 293.49 77.4077C293.254 76.7921 292.903 76.3139 292.439 75.973C291.975 75.6274 291.402 75.4545 290.721 75.4545C290.01 75.4545 289.418 75.6368 288.945 76.0014C288.476 76.3613 288.123 76.8513 287.887 77.4716C287.655 78.0871 287.539 78.7784 287.539 79.5455C287.539 80.322 287.657 81.0275 287.894 81.6619C288.135 82.2917 288.49 82.7936 288.959 83.1676C289.433 83.5369 290.02 83.7216 290.721 83.7216ZM303.37 85.2273C302.319 85.2273 301.412 84.9953 300.65 84.5312C299.892 84.0625 299.307 83.4091 298.895 82.571C298.488 81.7282 298.284 80.7481 298.284 79.6307C298.284 78.5133 298.488 77.5284 298.895 76.6761C299.307 75.8191 299.88 75.1515 300.614 74.6733C301.353 74.1903 302.214 73.9489 303.199 73.9489C303.767 73.9489 304.328 74.0436 304.882 74.233C305.436 74.4223 305.941 74.7301 306.395 75.1562C306.85 75.5777 307.212 76.1364 307.482 76.8324C307.752 77.5284 307.887 78.3854 307.887 79.4034V80.1136H299.478V78.6648H306.182C306.182 78.0492 306.059 77.5 305.813 77.017C305.571 76.5341 305.226 76.1529 304.776 75.8736C304.331 75.5942 303.805 75.4545 303.199 75.4545C302.532 75.4545 301.954 75.6203 301.466 75.9517C300.983 76.2784 300.612 76.7045 300.351 77.2301C300.091 77.7557 299.961 78.3191 299.961 78.9205V79.8864C299.961 80.7102 300.103 81.4086 300.387 81.9815C300.676 82.5497 301.076 82.983 301.587 83.2812C302.098 83.5748 302.693 83.7216 303.37 83.7216C303.81 83.7216 304.208 83.66 304.563 83.5369C304.923 83.4091 305.233 83.2197 305.493 82.9688C305.754 82.7131 305.955 82.3958 306.097 82.017L307.716 82.4716C307.546 83.0208 307.259 83.5038 306.857 83.9205C306.454 84.3324 305.957 84.6544 305.365 84.8864C304.774 85.1136 304.108 85.2273 303.37 85.2273ZM310.436 85V74.0909H312.056V75.7386H312.169C312.368 75.1989 312.728 74.7609 313.249 74.4247C313.77 74.0885 314.357 73.9205 315.01 73.9205C315.133 73.9205 315.287 73.9228 315.472 73.9276C315.657 73.9323 315.796 73.9394 315.891 73.9489V75.6534C315.834 75.6392 315.704 75.6179 315.5 75.5895C315.301 75.5563 315.091 75.5398 314.868 75.5398C314.338 75.5398 313.864 75.651 313.448 75.8736C313.036 76.0914 312.709 76.3944 312.468 76.7827C312.231 77.1662 312.113 77.6042 312.113 78.0966V85H310.436Z" fill="black"/>
<path d="M80 279C80 280.061 79.5786 281.078 78.8284 281.828C78.0783 282.579 77.0609 283 76 283C74.9391 283 73.9217 282.579 73.1716 281.828C72.4214 281.078 72 280.061 72 279C72 277.939 72.4214 276.922 73.1716 276.172C73.9217 275.421 74.9391 275 76 275C77.0609 275 78.0783 275.421 78.8284 276.172C79.5786 276.922 80 277.939 80 279ZM76 286C74.1435 286 72.363 286.737 71.0503 288.05C69.7375 289.363 69 291.143 69 293H83C83 291.143 82.2625 289.363 80.9497 288.05C79.637 286.737 77.8565 286 76 286Z" stroke="black" stroke-width="2" stroke-linecap="round" stroke-linejoin="round"/>
<defs>
<filter id="filter0_d_4_195" x="0" y="0" width="428" height="608" filterUnits="userSpaceOnUse" color-interpolation-filters="sRGB">
<feFlood flood-opacity="0" result="BackgroundImageFix"/>
<feColorMatrix in="SourceAlpha" type="matrix" values="0 0 0 0 0 0 0 0 0 0 0 0 0 0 0 0 0 0 127 0" result="hardAlpha"/>
<feOffset dy="4"/>
<feGaussianBlur stdDeviation="2"/>
<feComposite in2="hardAlpha" operator="out"/>
<feColorMatrix type="matrix" values="0 0 0 0 0 0 0 0 0 0 0 0 0 0 0 0 0 0 0.25 0"/>
<feBlend mode="normal" in2="BackgroundImageFix" result="effect1_dropShadow_4_195"/>
<feBlend mode="normal" in="SourceGraphic" in2="effect1_dropShadow_4_195" result="shape"/>
</filter>
</defs>
</svg>
