<svg width="470" height="501" viewBox="0 0 470 501" fill="none" xmlns="http://www.w3.org/2000/svg">
<ellipse cx="233.513" cy="237.37" rx="194.594" ry="210.382" fill="#1C1C20"/>
<path d="M330.541 82.1991L308.005 405.323L66.4544 263.595L330.541 82.1991Z" fill="#92C131"/>
<path d="M330.81 81.6875L328.326 116.611L325.842 151.114L322.115 204.551L271.19 198.66L240.965 184.775L217.366 157.425L274.502 120.819L330.81 81.6875Z" fill="#BAFFA9"/>
<path d="M291.754 147.809L272.709 340.42L137.141 260.876L291.754 147.809Z" fill="#1C1C20"/>
<path d="M224.142 269.725L220.727 314.936L187.323 295.336L224.142 269.725Z" fill="#92C131"/>
<rect width="41.61" height="40.6443" transform="matrix(0.994344 0.10621 -0.102873 0.994694 285.806 200.343)" fill="#1C1C20"/>
<rect width="41.8835" height="40.3838" transform="matrix(0.760906 -0.648862 0.63669 0.77112 184.657 182.077)" fill="#1C1C20"/>
</svg>
