<svg width="16" height="15" viewBox="0 0 16 15" fill="none" xmlns="http://www.w3.org/2000/svg">
<path d="M8 9.08334L9.5 7.50001L8 9.08334ZM9.5 7.50001L11 5.91668L9.5 7.50001ZM9.5 7.50001L8 5.91668L9.5 7.50001ZM9.5 7.50001L11 9.08334L9.5 7.50001ZM1.25 7.50001L6.0605 12.5778C6.34174 12.8747 6.72321 13.0416 7.121 13.0417H13.25C13.6478 13.0417 14.0294 12.8749 14.3107 12.5779C14.592 12.281 14.75 11.8783 14.75 11.4583V3.54168C14.75 3.12175 14.592 2.71902 14.3107 2.42209C14.0294 2.12516 13.6478 1.95834 13.25 1.95834H7.121C6.72321 1.95843 6.34174 2.12531 6.0605 2.42226L1.25 7.50001Z" stroke="#D5830A" stroke-opacity="0.8" stroke-width="2" stroke-linecap="round" stroke-linejoin="round"/>
</svg>
