<svg width="57" height="52" viewBox="0 0 57 52" fill="none" xmlns="http://www.w3.org/2000/svg">
<rect x="0.5" y="0.5" width="56" height="51" rx="14.5" fill="#850000" stroke="#8F8F8F"/>
<path d="M38.5455 23H35.7273C35.5606 22.1894 35.2689 21.4773 34.8523 20.8636C34.4432 20.25 33.9432 19.7348 33.3523 19.3182C32.7689 18.8939 32.1212 18.5758 31.4091 18.3636C30.697 18.1515 29.9545 18.0455 29.1818 18.0455C27.7727 18.0455 26.4962 18.4015 25.3523 19.1136C24.2159 19.8258 23.3106 20.875 22.6364 22.2614C21.9697 23.6477 21.6364 25.3485 21.6364 27.3636C21.6364 29.3788 21.9697 31.0795 22.6364 32.4659C23.3106 33.8523 24.2159 34.9015 25.3523 35.6136C26.4962 36.3258 27.7727 36.6818 29.1818 36.6818C29.9545 36.6818 30.697 36.5758 31.4091 36.3636C32.1212 36.1515 32.7689 35.8371 33.3523 35.4205C33.9432 34.9962 34.4432 34.4773 34.8523 33.8636C35.2689 33.2424 35.5606 32.5303 35.7273 31.7273H38.5455C38.3333 32.9167 37.947 33.9811 37.3864 34.9205C36.8258 35.8598 36.1288 36.6591 35.2955 37.3182C34.4621 37.9697 33.5265 38.4659 32.4886 38.8068C31.4583 39.1477 30.3561 39.3182 29.1818 39.3182C27.197 39.3182 25.4318 38.8333 23.8864 37.8636C22.3409 36.8939 21.125 35.5152 20.2386 33.7273C19.3523 31.9394 18.9091 29.8182 18.9091 27.3636C18.9091 24.9091 19.3523 22.7879 20.2386 21C21.125 19.2121 22.3409 17.8333 23.8864 16.8636C25.4318 15.8939 27.197 15.4091 29.1818 15.4091C30.3561 15.4091 31.4583 15.5795 32.4886 15.9205C33.5265 16.2614 34.4621 16.7614 35.2955 17.4205C36.1288 18.072 36.8258 18.8674 37.3864 19.8068C37.947 20.7386 38.3333 21.803 38.5455 23Z" fill="white"/>
</svg>
