<svg width="57" height="52" viewBox="0 0 57 52" fill="none" xmlns="http://www.w3.org/2000/svg">
<rect x="0.5" y="0.5" width="56" height="51" rx="14.5" fill="#323232" stroke="#D4830A"/>
<path d="M29.3977 38.2386C28.2273 38.2386 27.1932 38.0312 26.2955 37.6165C25.4034 37.196 24.7074 36.6193 24.2074 35.8864C23.7074 35.1477 23.4602 34.3068 23.4659 33.3636C23.4602 32.625 23.6051 31.9432 23.9006 31.3182C24.196 30.6875 24.5994 30.1619 25.1108 29.7415C25.6278 29.3153 26.2045 29.0455 26.8409 28.9318V28.8295C26.0057 28.6136 25.3409 28.1449 24.8466 27.4233C24.3523 26.696 24.108 25.8693 24.1136 24.9432C24.108 24.0568 24.3324 23.2642 24.7869 22.5653C25.2415 21.8665 25.8665 21.3153 26.6619 20.9119C27.4631 20.5085 28.375 20.3068 29.3977 20.3068C30.4091 20.3068 31.3125 20.5085 32.108 20.9119C32.9034 21.3153 33.5284 21.8665 33.983 22.5653C34.4432 23.2642 34.6761 24.0568 34.6818 24.9432C34.6761 25.8693 34.4233 26.696 33.9233 27.4233C33.429 28.1449 32.7727 28.6136 31.9545 28.8295V28.9318C32.5852 29.0455 33.1534 29.3153 33.6591 29.7415C34.1648 30.1619 34.5682 30.6875 34.8693 31.3182C35.1705 31.9432 35.3239 32.625 35.3295 33.3636C35.3239 34.3068 35.0682 35.1477 34.5625 35.8864C34.0625 36.6193 33.3665 37.196 32.4744 37.6165C31.5881 38.0312 30.5625 38.2386 29.3977 38.2386ZM29.3977 36.3636C30.1875 36.3636 30.8693 36.2358 31.4432 35.9801C32.017 35.7244 32.4602 35.3636 32.7727 34.8977C33.0852 34.4318 33.2443 33.8864 33.25 33.2614C33.2443 32.6023 33.0739 32.0199 32.7386 31.5142C32.4034 31.0085 31.946 30.6108 31.3665 30.321C30.7926 30.0312 30.1364 29.8864 29.3977 29.8864C28.6534 29.8864 27.9886 30.0312 27.4034 30.321C26.8239 30.6108 26.3665 31.0085 26.0312 31.5142C25.7017 32.0199 25.5398 32.6023 25.5455 33.2614C25.5398 33.8864 25.6903 34.4318 25.9972 34.8977C26.3097 35.3636 26.7557 35.7244 27.3352 35.9801C27.9148 36.2358 28.6023 36.3636 29.3977 36.3636ZM29.3977 28.0795C30.0227 28.0795 30.5767 27.9545 31.0597 27.7045C31.5483 27.4545 31.9318 27.1051 32.2102 26.6562C32.4886 26.2074 32.6307 25.6818 32.6364 25.0795C32.6307 24.4886 32.4915 23.9744 32.2188 23.5369C31.946 23.0937 31.5682 22.7528 31.0852 22.5142C30.6023 22.2699 30.0398 22.1477 29.3977 22.1477C28.7443 22.1477 28.1733 22.2699 27.6847 22.5142C27.196 22.7528 26.8182 23.0937 26.5511 23.5369C26.2841 23.9744 26.1534 24.4886 26.1591 25.0795C26.1534 25.6818 26.2869 26.2074 26.5597 26.6562C26.8381 27.1051 27.2216 27.4545 27.7102 27.7045C28.1989 27.9545 28.7614 28.0795 29.3977 28.0795Z" fill="white"/>
</svg>
