<svg width="57" height="52" viewBox="0 0 57 52" fill="none" xmlns="http://www.w3.org/2000/svg">
<rect x="0.5" y="0.5" width="56" height="51" rx="14.5" fill="#323232" stroke="#D4830A"/>
<path d="M29.2614 38.2386C28.2614 38.2386 27.3608 38.0398 26.5597 37.642C25.7585 37.2443 25.1165 36.6989 24.6335 36.0057C24.1506 35.3125 23.8864 34.5227 23.8409 33.6364H25.8864C25.9659 34.4261 26.3239 35.0795 26.9602 35.5966C27.6023 36.108 28.3693 36.3636 29.2614 36.3636C29.9773 36.3636 30.6136 36.196 31.1705 35.8608C31.733 35.5256 32.1733 35.0653 32.4915 34.4801C32.8153 33.8892 32.9773 33.2216 32.9773 32.4773C32.9773 31.7159 32.8097 31.0369 32.4744 30.4403C32.1449 29.8381 31.6903 29.3636 31.1108 29.017C30.5313 28.6705 29.8693 28.4943 29.125 28.4886C28.5909 28.483 28.0426 28.5653 27.4801 28.7358C26.9176 28.9006 26.4545 29.1136 26.0909 29.375L24.1136 29.1364L25.1705 20.5455H34.2386V22.4205H26.9432L26.3295 27.5682H26.4318C26.7898 27.2841 27.2386 27.0483 27.7784 26.8608C28.3182 26.6733 28.8807 26.5795 29.4659 26.5795C30.5341 26.5795 31.4858 26.8352 32.321 27.3466C33.1619 27.8523 33.821 28.5455 34.2983 29.4261C34.7812 30.3068 35.0227 31.3125 35.0227 32.4432C35.0227 33.5568 34.7727 34.5511 34.2727 35.4261C33.7784 36.2955 33.0966 36.983 32.2273 37.4886C31.358 37.9886 30.3693 38.2386 29.2614 38.2386Z" fill="white"/>
</svg>
