<svg width="57" height="52" viewBox="0 0 57 52" fill="none" xmlns="http://www.w3.org/2000/svg">
<rect x="0.5" y="0.5" width="56" height="51" rx="14.5" fill="#323232" stroke="#D4830A"/>
<path d="M31.3636 20.3068C32.0795 20.3125 32.7955 20.4489 33.5114 20.7159C34.2273 20.983 34.8807 21.4261 35.4716 22.0455C36.0625 22.6591 36.5369 23.4972 36.8949 24.5597C37.2528 25.6222 37.4318 26.9545 37.4318 28.5568C37.4318 30.108 37.2841 31.4858 36.9886 32.6903C36.6989 33.8892 36.2784 34.9006 35.7273 35.7244C35.1818 36.5483 34.517 37.1733 33.733 37.5994C32.9545 38.0256 32.0739 38.2386 31.0909 38.2386C30.1136 38.2386 29.2415 38.0455 28.4744 37.6591C27.7131 37.267 27.0881 36.7244 26.5994 36.0312C26.1165 35.3324 25.8068 34.5227 25.6705 33.6023H27.75C27.9375 34.4034 28.3097 35.0653 28.8665 35.5881C29.429 36.1051 30.1705 36.3636 31.0909 36.3636C32.4375 36.3636 33.5 35.7756 34.2784 34.5994C35.0625 33.4233 35.4545 31.7614 35.4545 29.6136H35.3182C35 30.0909 34.6222 30.5028 34.1847 30.8494C33.7472 31.196 33.2614 31.4631 32.7273 31.6506C32.1932 31.8381 31.625 31.9318 31.0227 31.9318C30.0227 31.9318 29.1051 31.6847 28.2699 31.1903C27.4403 30.6903 26.7756 30.0057 26.2756 29.1364C25.7812 28.2614 25.5341 27.2614 25.5341 26.1364C25.5341 25.0682 25.7727 24.0909 26.25 23.2045C26.733 22.3125 27.4091 21.6023 28.2784 21.0739C29.1534 20.5455 30.1818 20.2898 31.3636 20.3068ZM31.3636 22.1818C30.6477 22.1818 30.0028 22.3608 29.429 22.7188C28.8608 23.071 28.4091 23.5483 28.0739 24.1506C27.7443 24.7472 27.5795 25.4091 27.5795 26.1364C27.5795 26.8636 27.7386 27.5256 28.0568 28.1222C28.3807 28.7131 28.821 29.1847 29.3778 29.5369C29.9403 29.8835 30.5795 30.0568 31.2955 30.0568C31.8352 30.0568 32.3381 29.9517 32.804 29.7415C33.2699 29.5256 33.6761 29.233 34.0227 28.8636C34.375 28.4886 34.6506 28.0653 34.8494 27.5938C35.0483 27.1165 35.1477 26.6193 35.1477 26.1023C35.1477 25.4205 34.983 24.7812 34.6534 24.1847C34.3295 23.5881 33.8807 23.1051 33.3068 22.7358C32.7386 22.3665 32.0909 22.1818 31.3636 22.1818Z" fill="white"/>
</svg>
