<svg width="57" height="53" viewBox="0 0 57 53" fill="none" xmlns="http://www.w3.org/2000/svg">
<rect x="0.5" y="1.5" width="56" height="51" rx="14.5" fill="#151515" stroke="#D4830A"/>
<path d="M28.4091 31.1818C27.8485 31.1818 27.3674 30.9811 26.9659 30.5795C26.5644 30.178 26.3636 29.697 26.3636 29.1364C26.3636 28.5758 26.5644 28.0947 26.9659 27.6932C27.3674 27.2917 27.8485 27.0909 28.4091 27.0909C28.9697 27.0909 29.4508 27.2917 29.8523 27.6932C30.2538 28.0947 30.4545 28.5758 30.4545 29.1364C30.4545 29.5076 30.3598 29.8485 30.1705 30.1591C29.9886 30.4697 29.7424 30.7197 29.4318 30.9091C29.1288 31.0909 28.7879 31.1818 28.4091 31.1818Z" fill="white"/>
</svg>
