<svg width="57" height="52" viewBox="0 0 57 52" fill="none" xmlns="http://www.w3.org/2000/svg">
<rect x="0.5" y="0.5" width="56" height="51" rx="14.5" fill="#151515" stroke="#D4830A"/>
<path d="M29.2727 34.6364V33.4091C29.2727 32.5606 29.447 31.7841 29.7955 31.0795C30.1515 30.3674 30.6667 29.7992 31.3409 29.375C32.0227 28.9432 32.8485 28.7273 33.8182 28.7273C34.803 28.7273 35.6288 28.9432 36.2955 29.375C36.9621 29.7992 37.4659 30.3674 37.8068 31.0795C38.1477 31.7841 38.3182 32.5606 38.3182 33.4091V34.6364C38.3182 35.4848 38.1439 36.2652 37.7955 36.9773C37.4545 37.6818 36.947 38.25 36.2727 38.6818C35.6061 39.1061 34.7879 39.3182 33.8182 39.3182C32.8333 39.3182 32.0038 39.1061 31.3295 38.6818C30.6553 38.25 30.1439 37.6818 29.7955 36.9773C29.447 36.2652 29.2727 35.4848 29.2727 34.6364ZM31.5909 33.4091V34.6364C31.5909 35.3409 31.7576 35.9735 32.0909 36.5341C32.4242 37.0871 33 37.3636 33.8182 37.3636C34.6136 37.3636 35.1742 37.0871 35.5 36.5341C35.8333 35.9735 36 35.3409 36 34.6364V33.4091C36 32.7045 35.8409 32.0758 35.5227 31.5227C35.2045 30.9621 34.6364 30.6818 33.8182 30.6818C33.0227 30.6818 32.4508 30.9621 32.1023 31.5227C31.7614 32.0758 31.5909 32.7045 31.5909 33.4091ZM17.6818 21.3182V20.0909C17.6818 19.2424 17.8561 18.4659 18.2045 17.7614C18.5606 17.0492 19.0758 16.4811 19.75 16.0568C20.4318 15.625 21.2576 15.4091 22.2273 15.4091C23.2121 15.4091 24.0379 15.625 24.7045 16.0568C25.3712 16.4811 25.875 17.0492 26.2159 17.7614C26.5568 18.4659 26.7273 19.2424 26.7273 20.0909V21.3182C26.7273 22.1667 26.553 22.947 26.2045 23.6591C25.8636 24.3636 25.3561 24.9318 24.6818 25.3636C24.0152 25.7879 23.197 26 22.2273 26C21.2424 26 20.4129 25.7879 19.7386 25.3636C19.0644 24.9318 18.553 24.3636 18.2045 23.6591C17.8561 22.947 17.6818 22.1667 17.6818 21.3182ZM20 20.0909V21.3182C20 22.0227 20.1667 22.6553 20.5 23.2159C20.8333 23.7689 21.4091 24.0455 22.2273 24.0455C23.0227 24.0455 23.5833 23.7689 23.9091 23.2159C24.2424 22.6553 24.4091 22.0227 24.4091 21.3182V20.0909C24.4091 19.3864 24.25 18.7576 23.9318 18.2045C23.6136 17.6439 23.0455 17.3636 22.2273 17.3636C21.4318 17.3636 20.8598 17.6439 20.5114 18.2045C20.1705 18.7576 20 19.3864 20 20.0909ZM18.5455 39L34.5455 15.7273H37.1364L21.1364 39H18.5455Z" fill="white"/>
</svg>
