<svg width="57" height="52" viewBox="0 0 57 52" fill="none" xmlns="http://www.w3.org/2000/svg">
<rect x="0.5" y="0.5" width="56" height="51" rx="14.5" fill="#323232" stroke="#D4830A"/>
<path d="M31.6023 38.2386C30.8864 38.2273 30.1705 38.0909 29.4545 37.8295C28.7386 37.5682 28.0852 37.1278 27.4943 36.5085C26.9034 35.8835 26.429 35.0398 26.071 33.9773C25.7131 32.9091 25.5341 31.5682 25.5341 29.9545C25.5341 28.4091 25.679 27.0398 25.9688 25.8466C26.2585 24.6477 26.679 23.6392 27.2301 22.821C27.7813 21.9972 28.446 21.3722 29.2244 20.946C30.0085 20.5199 30.892 20.3068 31.875 20.3068C32.8523 20.3068 33.7216 20.5028 34.483 20.8949C35.25 21.2812 35.875 21.821 36.358 22.5142C36.8409 23.2074 37.1534 24.0057 37.2955 24.9091H35.2159C35.0227 24.125 34.6477 23.4744 34.0909 22.9574C33.5341 22.4403 32.7955 22.1818 31.875 22.1818C30.5227 22.1818 29.4574 22.7699 28.679 23.946C27.9063 25.1222 27.517 26.7727 27.5114 28.8977H27.6477C27.9659 28.4148 28.3438 28.0028 28.7812 27.6619C29.2244 27.3153 29.7131 27.0483 30.2472 26.8608C30.7813 26.6733 31.3466 26.5795 31.9432 26.5795C32.9432 26.5795 33.858 26.8295 34.6875 27.3295C35.517 27.8239 36.1818 28.5085 36.6818 29.3835C37.1818 30.2528 37.4318 31.25 37.4318 32.375C37.4318 33.4545 37.1903 34.4432 36.7074 35.3409C36.2244 36.233 35.5455 36.9432 34.6705 37.4716C33.8011 37.9943 32.7784 38.25 31.6023 38.2386ZM31.6023 36.3636C32.3182 36.3636 32.9602 36.1847 33.5284 35.8267C34.1023 35.4687 34.554 34.9886 34.8835 34.3864C35.2188 33.7841 35.3864 33.1136 35.3864 32.375C35.3864 31.6534 35.2244 30.9972 34.9006 30.4062C34.5824 29.8097 34.142 29.3352 33.5795 28.983C33.0227 28.6307 32.3864 28.4545 31.6705 28.4545C31.1307 28.4545 30.6278 28.5625 30.1619 28.7784C29.696 28.9886 29.2869 29.2784 28.9347 29.6477C28.5881 30.017 28.3153 30.4403 28.1165 30.9176C27.9176 31.3892 27.8182 31.8864 27.8182 32.4091C27.8182 33.1023 27.9801 33.75 28.304 34.3523C28.6335 34.9545 29.0824 35.4403 29.6506 35.8097C30.2244 36.179 30.875 36.3636 31.6023 36.3636Z" fill="white"/>
</svg>
