<svg width="57" height="52" viewBox="0 0 57 52" fill="none" xmlns="http://www.w3.org/2000/svg">
<rect x="0.5" y="0.5" width="56" height="51" rx="14.5" fill="#323232" stroke="#D4830A"/>
<path d="M31.7045 35.2386C30.5795 35.2386 29.5767 35.0455 28.696 34.6591C27.821 34.2727 27.125 33.7358 26.608 33.0483C26.0966 32.3551 25.8182 31.5511 25.7727 30.6364H27.9205C27.9659 31.1989 28.1591 31.6847 28.5 32.0938C28.8409 32.4972 29.2869 32.8097 29.8381 33.0312C30.3892 33.2528 31 33.3636 31.6705 33.3636C32.4205 33.3636 33.0852 33.233 33.6648 32.9716C34.2443 32.7102 34.6989 32.3466 35.0284 31.8807C35.358 31.4148 35.5227 30.875 35.5227 30.2614C35.5227 29.6193 35.3636 29.054 35.0455 28.5653C34.7273 28.071 34.2614 27.6847 33.6477 27.4062C33.0341 27.1278 32.2841 26.9886 31.3977 26.9886H30V25.1136H31.3977C32.0909 25.1136 32.6989 24.9886 33.2216 24.7386C33.75 24.4886 34.1619 24.1364 34.4574 23.6818C34.7585 23.2273 34.9091 22.6932 34.9091 22.0795C34.9091 21.4886 34.7784 20.9744 34.517 20.5369C34.2557 20.0994 33.8864 19.7585 33.4091 19.5142C32.9375 19.2699 32.3807 19.1477 31.7386 19.1477C31.1364 19.1477 30.5682 19.2585 30.0341 19.4801C29.5057 19.696 29.0739 20.0114 28.7386 20.4261C28.4034 20.8352 28.2216 21.3295 28.1932 21.9091H26.1477C26.1818 20.9943 26.4574 20.1932 26.9744 19.5057C27.4915 18.8125 28.1676 18.2727 29.0028 17.8864C29.8438 17.5 30.767 17.3068 31.7727 17.3068C32.8523 17.3068 33.7784 17.5256 34.5511 17.9631C35.3239 18.3949 35.9176 18.9659 36.3324 19.6761C36.7472 20.3864 36.9545 21.1534 36.9545 21.9773C36.9545 22.9602 36.696 23.7983 36.179 24.4915C35.6676 25.1847 34.9716 25.6648 34.0909 25.9318V26.0682C35.1932 26.25 36.054 26.7187 36.6733 27.4744C37.2926 28.2244 37.6023 29.1534 37.6023 30.2614C37.6023 31.2102 37.3438 32.0625 36.8267 32.8182C36.3153 33.5682 35.6165 34.1591 34.7301 34.5909C33.8438 35.0227 32.8352 35.2386 31.7045 35.2386Z" fill="white"/>
</svg>
