<svg width="57" height="52" viewBox="0 0 57 52" fill="none" xmlns="http://www.w3.org/2000/svg">
<rect x="0.5" y="0.5" width="56" height="51" rx="14.5" fill="#323232" stroke="#D4830A"/>
<path d="M23.8068 35V33.4659L29.5682 27.1591C30.2443 26.4205 30.8011 25.7784 31.2386 25.233C31.6761 24.6818 32 24.1648 32.2102 23.6818C32.4261 23.1932 32.5341 22.6818 32.5341 22.1477C32.5341 21.5341 32.3864 21.0028 32.0909 20.554C31.8011 20.1051 31.4034 19.7585 30.8977 19.5142C30.392 19.2699 29.8239 19.1477 29.1932 19.1477C28.5227 19.1477 27.9375 19.2869 27.4375 19.5653C26.9432 19.8381 26.5597 20.2216 26.2869 20.7159C26.0199 21.2102 25.8864 21.7898 25.8864 22.4545H23.875C23.875 21.4318 24.1108 20.5341 24.5824 19.7614C25.054 18.9886 25.696 18.3864 26.5085 17.9545C27.3267 17.5227 28.2443 17.3068 29.2614 17.3068C30.2841 17.3068 31.1903 17.5227 31.9801 17.9545C32.7699 18.3864 33.3892 18.9687 33.8381 19.7017C34.2869 20.4347 34.5114 21.25 34.5114 22.1477C34.5114 22.7898 34.3949 23.4176 34.1619 24.0312C33.9347 24.6392 33.5369 25.3182 32.9688 26.0682C32.4062 26.8125 31.625 27.7216 30.625 28.7955L26.7045 32.9886V33.125H34.8182V35H23.8068Z" fill="white"/>
</svg>
