<svg width="57" height="52" viewBox="0 0 57 52" fill="none" xmlns="http://www.w3.org/2000/svg">
<rect x="0.5" y="0.5" width="56" height="51" rx="14.5" fill="#323232" stroke="#D4830A"/>
<path d="M28.5 36.2386C27.2159 36.2386 26.1222 35.8892 25.2188 35.1903C24.3153 34.4858 23.625 33.4659 23.1477 32.1307C22.6705 30.7898 22.4318 29.1705 22.4318 27.2727C22.4318 25.3864 22.6705 23.7756 23.1477 22.4403C23.6307 21.0994 24.3239 20.0767 25.2273 19.3722C26.1364 18.6619 27.2273 18.3068 28.5 18.3068C29.7727 18.3068 30.8608 18.6619 31.7642 19.3722C32.6733 20.0767 33.3665 21.0994 33.8438 22.4403C34.3267 23.7756 34.5682 25.3864 34.5682 27.2727C34.5682 29.1705 34.3295 30.7898 33.8523 32.1307C33.375 33.4659 32.6847 34.4858 31.7812 35.1903C30.8778 35.8892 29.7841 36.2386 28.5 36.2386ZM28.5 34.3636C29.7727 34.3636 30.7614 33.75 31.4659 32.5227C32.1705 31.2955 32.5227 29.5455 32.5227 27.2727C32.5227 25.7614 32.3608 24.4744 32.0369 23.4119C31.7188 22.3494 31.2585 21.5398 30.6562 20.983C30.0597 20.4261 29.3409 20.1477 28.5 20.1477C27.2386 20.1477 26.2528 20.7699 25.5426 22.0142C24.8324 23.2528 24.4773 25.0057 24.4773 27.2727C24.4773 28.7841 24.6364 30.0682 24.9545 31.125C25.2727 32.1818 25.7301 32.9858 26.3267 33.5369C26.929 34.0881 27.6534 34.3636 28.5 34.3636Z" fill="white"/>
</svg>
