<svg width="68" height="68" viewBox="0 0 68 68" fill="none" xmlns="http://www.w3.org/2000/svg">
<circle cx="34" cy="34" r="34" fill="#C4C4C4"/>
<path d="M21.665 19.504C21.2132 19.2026 20.688 19.0294 20.1456 19.0031C19.6031 18.9767 19.0636 19.0981 18.5847 19.3544C18.1058 19.6106 17.7055 19.992 17.4264 20.458C17.1473 20.9239 16.9999 21.4569 17 22V46C16.9999 46.5431 17.1473 47.0761 17.4264 47.542C17.7055 48.008 18.1058 48.3894 18.5847 48.6456C19.0636 48.9018 19.6031 49.0233 20.1456 48.9969C20.688 48.9706 21.2132 48.7974 21.665 48.496L38 37.606V46C37.9999 46.5431 38.1473 47.0761 38.4264 47.542C38.7055 48.008 39.1058 48.3894 39.5847 48.6456C40.0636 48.9018 40.6031 49.0233 41.1455 48.9969C41.688 48.9706 42.2132 48.7974 42.665 48.496L60.665 36.496C61.0759 36.222 61.4128 35.8509 61.6458 35.4154C61.8788 34.98 62.0007 34.4938 62.0007 34C62.0007 33.5062 61.8788 33.02 61.6458 32.5845C61.4128 32.1491 61.0759 31.778 60.665 31.504L42.665 19.504C42.2132 19.2026 41.688 19.0294 41.1455 19.0031C40.6031 18.9767 40.0636 19.0981 39.5847 19.3544C39.1058 19.6106 38.7055 19.992 38.4264 20.458C38.1473 20.9239 37.9999 21.4569 38 22V30.394L21.665 19.504Z" fill="black"/>
</svg>
