<svg width="68" height="68" viewBox="0 0 68 68" fill="none" xmlns="http://www.w3.org/2000/svg">
<circle cx="34" cy="34" r="34" fill="#C4C4C4"/>
<path fill-rule="evenodd" clip-rule="evenodd" d="M34 58C40.3652 58 46.4697 55.4714 50.9706 50.9706C55.4714 46.4697 58 40.3652 58 34C58 27.6348 55.4714 21.5303 50.9706 17.0294C46.4697 12.5286 40.3652 10 34 10C27.6348 10 21.5303 12.5286 17.0294 17.0294C12.5286 21.5303 10 27.6348 10 34C10 40.3652 12.5286 46.4697 17.0294 50.9706C21.5303 55.4714 27.6348 58 34 58V58ZM32.665 25.504C32.2132 25.2026 31.688 25.0294 31.1455 25.0031C30.6031 24.9767 30.0636 25.0981 29.5847 25.3544C29.1058 25.6106 28.7055 25.992 28.4264 26.458C28.1473 26.9239 27.9999 27.4569 28 28V40C27.9999 40.5431 28.1473 41.0761 28.4264 41.542C28.7055 42.008 29.1058 42.3894 29.5847 42.6456C30.0636 42.9018 30.6031 43.0233 31.1455 42.9969C31.688 42.9706 32.2132 42.7974 32.665 42.496L41.665 36.496C42.0759 36.222 42.4128 35.8509 42.6458 35.4155C42.8788 34.98 43.0007 34.4938 43.0007 34C43.0007 33.5062 42.8788 33.02 42.6458 32.5845C42.4128 32.1491 42.0759 31.778 41.665 31.504L32.665 25.504V25.504Z" fill="black"/>
</svg>
