<svg width="65" height="65" viewBox="0 0 65 65" fill="none" xmlns="http://www.w3.org/2000/svg">
<g style="mix-blend-mode:multiply">
<path d="M56.2022 43.2023C51.3874 45.3801 46.0232 46.0391 40.8244 45.0914C35.6256 44.1437 30.839 41.6344 27.1023 37.8977C23.3656 34.161 20.8563 29.3744 19.9086 24.1756C18.9609 18.9768 19.6199 13.6126 21.7977 8.79776C17.9646 10.53 14.6088 13.1664 12.0185 16.4806C9.42815 19.7949 7.68048 23.688 6.92544 27.8261C6.1704 31.9643 6.43053 36.2238 7.6835 40.2393C8.93648 44.2547 11.1449 47.9063 14.1193 50.8807C17.0937 53.8551 20.7453 56.0635 24.7607 57.3165C28.7762 58.5695 33.0357 58.8296 37.1739 58.0746C41.312 57.3195 45.2051 55.5719 48.5194 52.9815C51.8336 50.3911 54.4699 47.0354 56.2022 43.2023V43.2023Z" fill="black"/>
</g>
</svg>
