<svg width="68" height="68" viewBox="0 0 68 68" fill="none" xmlns="http://www.w3.org/2000/svg">
<circle cx="34" cy="34" r="34" fill="#C4C4C4"/>
<path fill-rule="evenodd" clip-rule="evenodd" d="M52.879 10.879C53.4448 10.3325 54.2026 10.0301 54.9892 10.037C55.7758 10.0438 56.5282 10.3593 57.0845 10.9155C57.6407 11.4718 57.9562 12.2242 57.963 13.0108C57.9699 13.7974 57.6675 14.5552 57.121 15.121L15.121 57.121C14.5552 57.6675 13.7974 57.9699 13.0108 57.963C12.2242 57.9562 11.4718 57.6407 10.9155 57.0845C10.3593 56.5282 10.0438 55.7758 10.037 54.9892C10.0301 54.2026 10.3325 53.4448 10.879 52.879L15.298 48.46C10.6254 44.7343 7.17015 39.6998 5.374 34C9.196 21.829 20.566 13 34 13C38.7027 12.9936 43.3405 14.0976 47.536 16.222L52.876 10.879H52.879ZM40.096 23.659L35.554 28.204C34.5367 27.9339 33.4663 27.9356 32.45 28.2092C31.4336 28.4827 30.5069 29.0184 29.7627 29.7627C29.0184 30.5069 28.4827 31.4336 28.2092 32.45C27.9356 33.4664 27.9339 34.5367 28.204 35.554L23.662 40.096C22.309 37.8041 21.7564 35.1274 22.091 32.487C22.4257 29.8467 23.6286 27.3925 25.5105 25.5105C27.3925 23.6286 29.8467 22.4257 32.487 22.091C35.1274 21.7564 37.8041 22.309 40.096 23.662V23.659Z" fill="black"/>
<path d="M26.638 54.091L34.75 45.976C37.6669 45.7933 40.4169 44.5523 42.4838 42.4859C44.5507 40.4195 45.7925 37.6699 45.976 34.753L56.995 23.734C59.5294 26.7521 61.443 30.2408 62.626 34C58.804 46.171 47.431 55 34 55C31.459 55 28.993 54.685 26.638 54.091Z" fill="black"/>
</svg>
