<svg width="68" height="68" viewBox="0 0 68 68" fill="none" xmlns="http://www.w3.org/2000/svg">
<circle cx="34" cy="34" r="34" fill="#C4C4C4"/>
<path fill-rule="evenodd" clip-rule="evenodd" d="M35 58C41.3652 58 47.4697 55.4714 51.9706 50.9706C56.4714 46.4697 59 40.3652 59 34C59 27.6348 56.4714 21.5303 51.9706 17.0294C47.4697 12.5286 41.3652 10 35 10C28.6348 10 22.5303 12.5286 18.0294 17.0294C13.5286 21.5303 11 27.6348 11 34C11 40.3652 13.5286 46.4697 18.0294 50.9706C22.5303 55.4714 28.6348 58 35 58V58ZM29 25C28.2044 25 27.4413 25.3161 26.8787 25.8787C26.3161 26.4413 26 27.2044 26 28V40C26 40.7956 26.3161 41.5587 26.8787 42.1213C27.4413 42.6839 28.2044 43 29 43H41C41.7956 43 42.5587 42.6839 43.1213 42.1213C43.6839 41.5587 44 40.7956 44 40V28C44 27.2044 43.6839 26.4413 43.1213 25.8787C42.5587 25.3161 41.7956 25 41 25H29Z" fill="black"/>
</svg>
