<svg width="68" height="68" viewBox="0 0 68 68" fill="none" xmlns="http://www.w3.org/2000/svg">
<circle cx="34" cy="34" r="34" fill="#C4C4C4"/>
<path d="M29.335 48.496C29.7868 48.7974 30.312 48.9706 30.8545 48.9969C31.3969 49.0233 31.9364 48.9018 32.4153 48.6456C32.8942 48.3894 33.2945 48.008 33.5736 47.542C33.8527 47.0761 34.0001 46.5431 34 46V37.606L50.335 48.496C50.7868 48.7974 51.312 48.9706 51.8545 48.9969C52.3969 49.0233 52.9364 48.9018 53.4153 48.6456C53.8942 48.3894 54.2945 48.008 54.5736 47.542C54.8527 47.0761 55.0001 46.5431 55 46V22C55.0001 21.4569 54.8527 20.9239 54.5736 20.458C54.2945 19.992 53.8942 19.6106 53.4153 19.3544C52.9364 19.0981 52.3969 18.9767 51.8545 19.0031C51.312 19.0294 50.7868 19.2026 50.335 19.504L34 30.394V22C34.0001 21.4569 33.8527 20.9239 33.5736 20.458C33.2945 19.992 32.8942 19.6106 32.4153 19.3544C31.9364 19.0981 31.3969 18.9767 30.8545 19.0031C30.312 19.0294 29.7868 19.2026 29.335 19.504L11.335 31.504C10.9241 31.778 10.5872 32.1491 10.3542 32.5845C10.1212 33.02 9.99933 33.5062 9.99933 34C9.99933 34.4938 10.1212 34.98 10.3542 35.4154C10.5872 35.8509 10.9241 36.222 11.335 36.496L29.335 48.496V48.496Z" fill="black"/>
</svg>
