<svg width="68" height="69" viewBox="0 0 68 69" fill="none" xmlns="http://www.w3.org/2000/svg">
<circle cx="34" cy="35" r="34" fill="#797979"/>
<path d="M58.1254 41.5837C53.6925 43.3664 48.8334 43.8069 44.1521 42.8505C39.4709 41.8941 35.174 39.583 31.7955 36.2045C28.4169 32.826 26.1059 28.5291 25.1495 23.8478C24.1931 19.1666 24.6336 14.3075 26.4162 9.87457C21.1667 11.9891 16.8162 15.8638 14.1105 20.8344C11.4047 25.8051 10.5123 31.5622 11.5862 37.1188C12.6602 42.6753 15.6335 47.6853 19.9965 51.2898C24.3596 54.8943 29.8406 56.8689 35.5 56.875C40.3666 56.8751 45.122 55.419 49.1542 52.6939C53.1863 49.9688 56.3107 46.0994 58.1254 41.5837Z" stroke="black" stroke-width="2" stroke-linecap="round" stroke-linejoin="round"/>
</svg>
