<svg width="420" height="700" viewBox="0 0 420 700" fill="none" xmlns="http://www.w3.org/2000/svg">
<rect width="420" height="700" rx="20" fill="#494949"/>
<rect x="87" y="30" width="246" height="56" rx="18" fill="#797979" stroke="#5EE7A5" stroke-width="4"/>
<rect x="24" y="135" width="176" height="56" rx="8" fill="#797979" stroke="#5EE7A5" stroke-width="4"/>
<rect x="218" y="212" width="176" height="56" rx="8" fill="#797979" stroke="#5EE7A5" stroke-width="4"/>
<rect x="218" y="135" width="176" height="56" rx="8" fill="#797979" stroke="#5EE7A5" stroke-width="4"/>
<rect x="24" y="212" width="176" height="56" rx="8" fill="#797979" stroke="#5EE7A5" stroke-width="4"/>
<rect x="24" y="287" width="370" height="276" rx="8" fill="#797979" stroke="#5EE7A5" stroke-width="4"/>
<rect x="22" y="580" width="70" height="18" rx="9" fill="#5EE7A5"/>
<path d="M28.0568 584.273H29.3182L32.2841 591.517H32.3864L35.3523 584.273H36.6136V593H35.625V586.369H35.5398L32.8125 593H31.858L29.1307 586.369H29.0455V593H28.0568V584.273ZM38.7326 593V584.273H43.9996V585.21H39.7894V588.159H43.7269V589.097H39.7894V592.062H44.0678V593H38.7326ZM45.4272 585.21V584.273H51.9727V585.21H49.2283V593H48.1715V585.21H45.4272ZM53.6037 593V584.273H54.6605V588.159H59.3139V584.273H60.3707V593H59.3139V589.097H54.6605V593H53.6037ZM69.8501 588.636C69.8501 589.557 69.6839 590.352 69.3516 591.023C69.0192 591.693 68.5632 592.21 67.9837 592.574C67.4041 592.938 66.7422 593.119 65.9979 593.119C65.2536 593.119 64.5916 592.938 64.0121 592.574C63.4325 592.21 62.9766 591.693 62.6442 591.023C62.3118 590.352 62.1456 589.557 62.1456 588.636C62.1456 587.716 62.3118 586.92 62.6442 586.25C62.9766 585.58 63.4325 585.062 64.0121 584.699C64.5916 584.335 65.2536 584.153 65.9979 584.153C66.7422 584.153 67.4041 584.335 67.9837 584.699C68.5632 585.062 69.0192 585.58 69.3516 586.25C69.6839 586.92 69.8501 587.716 69.8501 588.636ZM68.8274 588.636C68.8274 587.881 68.701 587.243 68.4482 586.723C68.1982 586.203 67.8587 585.81 67.4297 585.543C67.0036 585.276 66.5263 585.142 65.9979 585.142C65.4695 585.142 64.9908 585.276 64.5618 585.543C64.1357 585.81 63.7962 586.203 63.5433 586.723C63.2933 587.243 63.1683 587.881 63.1683 588.636C63.1683 589.392 63.2933 590.03 63.5433 590.55C63.7962 591.07 64.1357 591.463 64.5618 591.73C64.9908 591.997 65.4695 592.131 65.9979 592.131C66.5263 592.131 67.0036 591.997 67.4297 591.73C67.8587 591.463 68.1982 591.07 68.4482 590.55C68.701 590.03 68.8274 589.392 68.8274 588.636ZM74.3203 593H71.6271V584.273H74.4396C75.2862 584.273 76.0107 584.447 76.6129 584.797C77.2152 585.143 77.6768 585.642 77.9979 586.293C78.3189 586.94 78.4794 587.716 78.4794 588.619C78.4794 589.528 78.3175 590.311 77.9936 590.967C77.6697 591.621 77.1982 592.124 76.5788 592.476C75.9595 592.825 75.2067 593 74.3203 593ZM72.6839 592.062H74.2521C74.9737 592.062 75.5717 591.923 76.0462 591.645C76.5206 591.366 76.8743 590.97 77.1072 590.456C77.3402 589.942 77.4567 589.33 77.4567 588.619C77.4567 587.915 77.3416 587.308 77.1115 586.8C76.8814 586.288 76.5376 585.896 76.0803 585.624C75.6229 585.348 75.0533 585.21 74.3714 585.21H72.6839V592.062ZM85.0249 586.455C84.9737 586.023 84.7663 585.688 84.4027 585.449C84.0391 585.21 83.593 585.091 83.0646 585.091C82.6783 585.091 82.3402 585.153 82.0504 585.278C81.7635 585.403 81.5391 585.575 81.3771 585.794C81.218 586.013 81.1385 586.261 81.1385 586.54C81.1385 586.773 81.1939 586.973 81.3047 587.141C81.4183 587.305 81.5632 587.443 81.7393 587.554C81.9155 587.662 82.1001 587.751 82.2933 587.822C82.4865 587.891 82.6641 587.946 82.826 587.989L83.7124 588.227C83.9396 588.287 84.1925 588.369 84.4709 588.474C84.7521 588.58 85.0206 588.723 85.2763 588.905C85.5348 589.084 85.7479 589.314 85.9155 589.595C86.0831 589.876 86.1669 590.222 86.1669 590.631C86.1669 591.102 86.0433 591.528 85.7962 591.909C85.5518 592.29 85.1939 592.592 84.7223 592.817C84.2536 593.041 83.6839 593.153 83.0135 593.153C82.3885 593.153 81.8473 593.053 81.3899 592.851C80.9354 592.649 80.5774 592.368 80.3161 592.007C80.0575 591.646 79.9112 591.227 79.8771 590.75H80.968C80.9964 591.08 81.1072 591.352 81.3004 591.568C81.4964 591.781 81.7436 591.94 82.0419 592.045C82.343 592.148 82.6669 592.199 83.0135 592.199C83.4169 592.199 83.7791 592.134 84.1001 592.003C84.4212 591.869 84.6754 591.685 84.8629 591.449C85.0504 591.21 85.1442 590.932 85.1442 590.614C85.1442 590.324 85.0632 590.088 84.9013 589.906C84.7393 589.724 84.5263 589.577 84.2621 589.463C83.9979 589.349 83.7124 589.25 83.4055 589.165L82.3317 588.858C81.6499 588.662 81.1101 588.382 80.7124 588.018C80.3146 587.655 80.1158 587.179 80.1158 586.591C80.1158 586.102 80.2479 585.676 80.5121 585.312C80.7791 584.946 81.1371 584.662 81.5859 584.46C82.0376 584.256 82.5419 584.153 83.0987 584.153C83.6612 584.153 84.1612 584.254 84.5987 584.456C85.0362 584.655 85.3828 584.928 85.6385 585.274C85.897 585.621 86.0334 586.014 86.0476 586.455H85.0249Z" fill="black"/>
<rect x="23" y="102" width="16" height="16" rx="8" fill="#797979" stroke="#5EE7A5" stroke-width="2"/>
<path d="M45.4148 115H44.3068L47.5114 106.273H48.6023L51.8068 115H50.6989L48.0909 107.653H48.0227L45.4148 115ZM45.8239 111.591H50.2898V112.528H45.8239V111.591ZM51.6694 107.21V106.273H58.2148V107.21H55.4705V115H54.4137V107.21H51.6694ZM59.3686 107.21V106.273H65.9141V107.21H63.1697V115H62.1129V107.21H59.3686ZM67.5451 115V106.273H70.494C71.1758 106.273 71.7354 106.389 72.1729 106.622C72.6104 106.852 72.9343 107.169 73.1445 107.572C73.3548 107.976 73.4599 108.435 73.4599 108.949C73.4599 109.463 73.3548 109.919 73.1445 110.317C72.9343 110.714 72.6119 111.027 72.1772 111.254C71.7425 111.479 71.1871 111.591 70.511 111.591H68.1246V110.636H70.4769C70.9428 110.636 71.3178 110.568 71.6019 110.432C71.8888 110.295 72.0962 110.102 72.2241 109.852C72.3548 109.599 72.4201 109.298 72.4201 108.949C72.4201 108.599 72.3548 108.294 72.2241 108.033C72.0934 107.771 71.8846 107.57 71.5977 107.428C71.3107 107.283 70.9315 107.21 70.4599 107.21H68.6019V115H67.5451ZM71.6531 111.08L73.8008 115H72.5735L70.4599 111.08H71.6531ZM76.2777 106.273V115H75.2209V106.273H76.2777ZM78.3967 115V106.273H81.4478C82.0558 106.273 82.5572 106.378 82.9521 106.588C83.3469 106.795 83.641 107.075 83.8342 107.428C84.0273 107.777 84.1239 108.165 84.1239 108.591C84.1239 108.966 84.0572 109.276 83.9237 109.52C83.793 109.764 83.6197 109.957 83.4038 110.099C83.1907 110.241 82.9592 110.347 82.7092 110.415V110.5C82.9762 110.517 83.2447 110.611 83.5146 110.781C83.7844 110.952 84.0103 111.196 84.1921 111.514C84.3739 111.832 84.4648 112.222 84.4648 112.682C84.4648 113.119 84.3654 113.513 84.1665 113.862C83.9677 114.212 83.6538 114.489 83.2248 114.693C82.7958 114.898 82.2376 115 81.5501 115H78.3967ZM79.4535 114.062H81.5501C82.2404 114.062 82.7305 113.929 83.0202 113.662C83.3129 113.392 83.4592 113.065 83.4592 112.682C83.4592 112.386 83.3839 112.114 83.2333 111.864C83.0827 111.611 82.8683 111.409 82.5898 111.259C82.3114 111.105 81.9819 111.028 81.6012 111.028H79.4535V114.062ZM79.4535 110.108H81.4137C81.7319 110.108 82.0188 110.045 82.2745 109.92C82.533 109.795 82.7376 109.619 82.8881 109.392C83.0415 109.165 83.1183 108.898 83.1183 108.591C83.1183 108.207 82.9847 107.882 82.7177 107.615C82.4506 107.345 82.0273 107.21 81.4478 107.21H79.4535V110.108ZM91.9286 106.273H92.9854V112.051C92.9854 112.648 92.8448 113.18 92.5636 113.649C92.2852 114.115 91.8917 114.483 91.3832 114.753C90.8746 115.02 90.2781 115.153 89.5934 115.153C88.9087 115.153 88.3121 115.02 87.8036 114.753C87.2951 114.483 86.9002 114.115 86.619 113.649C86.3406 113.18 86.2013 112.648 86.2013 112.051V106.273H87.2582V111.966C87.2582 112.392 87.3519 112.771 87.5394 113.104C87.7269 113.433 87.994 113.693 88.3406 113.884C88.69 114.071 89.1076 114.165 89.5934 114.165C90.0792 114.165 90.4968 114.071 90.8462 113.884C91.1957 113.693 91.4627 113.433 91.6474 113.104C91.8349 112.771 91.9286 112.392 91.9286 111.966V106.273ZM94.6186 107.21V106.273H101.164V107.21H98.4197V115H97.3629V107.21H94.6186ZM102.795 115V106.273H108.062V107.21H103.852V110.159H107.789V111.097H103.852V114.062H108.13V115H102.795ZM114.74 108.455C114.689 108.023 114.481 107.688 114.118 107.449C113.754 107.21 113.308 107.091 112.779 107.091C112.393 107.091 112.055 107.153 111.765 107.278C111.478 107.403 111.254 107.575 111.092 107.794C110.933 108.013 110.853 108.261 110.853 108.54C110.853 108.773 110.909 108.973 111.02 109.141C111.133 109.305 111.278 109.443 111.454 109.554C111.63 109.662 111.815 109.751 112.008 109.822C112.201 109.891 112.379 109.946 112.541 109.989L113.427 110.227C113.654 110.287 113.907 110.369 114.186 110.474C114.467 110.58 114.735 110.723 114.991 110.905C115.25 111.084 115.463 111.314 115.63 111.595C115.798 111.876 115.882 112.222 115.882 112.631C115.882 113.102 115.758 113.528 115.511 113.909C115.267 114.29 114.909 114.592 114.437 114.817C113.968 115.041 113.399 115.153 112.728 115.153C112.103 115.153 111.562 115.053 111.105 114.851C110.65 114.649 110.292 114.368 110.031 114.007C109.772 113.646 109.626 113.227 109.592 112.75H110.683C110.711 113.08 110.822 113.352 111.015 113.568C111.211 113.781 111.458 113.94 111.757 114.045C112.058 114.148 112.382 114.199 112.728 114.199C113.132 114.199 113.494 114.134 113.815 114.003C114.136 113.869 114.39 113.685 114.578 113.449C114.765 113.21 114.859 112.932 114.859 112.614C114.859 112.324 114.778 112.088 114.616 111.906C114.454 111.724 114.241 111.577 113.977 111.463C113.713 111.349 113.427 111.25 113.12 111.165L112.047 110.858C111.365 110.662 110.825 110.382 110.427 110.018C110.029 109.655 109.831 109.179 109.831 108.591C109.831 108.102 109.963 107.676 110.227 107.312C110.494 106.946 110.852 106.662 111.301 106.46C111.752 106.256 112.257 106.153 112.814 106.153C113.376 106.153 113.876 106.254 114.314 106.456C114.751 106.655 115.098 106.928 115.353 107.274C115.612 107.621 115.748 108.014 115.762 108.455H114.74ZM118.216 113.884C118.006 113.884 117.825 113.808 117.675 113.658C117.524 113.507 117.449 113.327 117.449 113.116C117.449 112.906 117.524 112.726 117.675 112.575C117.825 112.425 118.006 112.349 118.216 112.349C118.426 112.349 118.607 112.425 118.757 112.575C118.908 112.726 118.983 112.906 118.983 113.116C118.983 113.256 118.947 113.384 118.876 113.5C118.808 113.616 118.716 113.71 118.599 113.781C118.486 113.849 118.358 113.884 118.216 113.884ZM118.216 109.469C118.006 109.469 117.825 109.393 117.675 109.243C117.524 109.092 117.449 108.912 117.449 108.702C117.449 108.491 117.524 108.311 117.675 108.161C117.825 108.01 118.006 107.935 118.216 107.935C118.426 107.935 118.607 108.01 118.757 108.161C118.908 108.311 118.983 108.491 118.983 108.702C118.983 108.841 118.947 108.969 118.876 109.085C118.808 109.202 118.716 109.295 118.599 109.366C118.486 109.435 118.358 109.469 118.216 109.469Z" fill="black"/>
<path d="M32.0568 156V147.273H35.108C35.7159 147.273 36.2173 147.378 36.6122 147.588C37.0071 147.795 37.3011 148.075 37.4943 148.428C37.6875 148.777 37.7841 149.165 37.7841 149.591C37.7841 149.966 37.7173 150.276 37.5838 150.52C37.4531 150.764 37.2798 150.957 37.0639 151.099C36.8509 151.241 36.6193 151.347 36.3693 151.415V151.5C36.6364 151.517 36.9048 151.611 37.1747 151.781C37.4446 151.952 37.6705 152.196 37.8523 152.514C38.0341 152.832 38.125 153.222 38.125 153.682C38.125 154.119 38.0256 154.513 37.8267 154.862C37.6278 155.212 37.3139 155.489 36.8849 155.693C36.456 155.898 35.8977 156 35.2102 156H32.0568ZM33.1136 155.062H35.2102C35.9006 155.062 36.3906 154.929 36.6804 154.662C36.973 154.392 37.1193 154.065 37.1193 153.682C37.1193 153.386 37.044 153.114 36.8935 152.864C36.7429 152.611 36.5284 152.409 36.25 152.259C35.9716 152.105 35.642 152.028 35.2614 152.028H33.1136V155.062ZM33.1136 151.108H35.0739C35.392 151.108 35.679 151.045 35.9347 150.92C36.1932 150.795 36.3977 150.619 36.5483 150.392C36.7017 150.165 36.7784 149.898 36.7784 149.591C36.7784 149.207 36.6449 148.882 36.3778 148.615C36.1108 148.345 35.6875 148.21 35.108 148.21H33.1136V151.108ZM39.8615 156V147.273H42.8104C43.4922 147.273 44.0518 147.389 44.4893 147.622C44.9268 147.852 45.2507 148.169 45.4609 148.572C45.6712 148.976 45.7763 149.435 45.7763 149.949C45.7763 150.463 45.6712 150.919 45.4609 151.317C45.2507 151.714 44.9283 152.027 44.4936 152.254C44.0589 152.479 43.5036 152.591 42.8274 152.591H40.4411V151.636H42.7933C43.2592 151.636 43.6342 151.568 43.9183 151.432C44.2053 151.295 44.4126 151.102 44.5405 150.852C44.6712 150.599 44.7365 150.298 44.7365 149.949C44.7365 149.599 44.6712 149.294 44.5405 149.033C44.4098 148.771 44.201 148.57 43.9141 148.428C43.6271 148.283 43.2479 148.21 42.7763 148.21H40.9183V156H39.8615ZM43.9695 152.08L46.1172 156H44.8899L42.7763 152.08H43.9695ZM47.8952 156H46.7873L49.9918 147.273H51.0827L54.2873 156H53.1793L50.5714 148.653H50.5032L47.8952 156ZM48.3043 152.591H52.7702V153.528H48.3043V152.591ZM62.5671 147.273V156H61.5444L56.7887 149.148H56.7035V156H55.6467V147.273H56.6694L61.4421 154.142H61.5273V147.273H62.5671ZM67.375 156H64.6818V147.273H67.4943C68.3409 147.273 69.0653 147.447 69.6676 147.797C70.2699 148.143 70.7315 148.642 71.0526 149.293C71.3736 149.94 71.5341 150.716 71.5341 151.619C71.5341 152.528 71.3722 153.311 71.0483 153.967C70.7244 154.621 70.2528 155.124 69.6335 155.476C69.0142 155.825 68.2614 156 67.375 156ZM65.7386 155.062H67.3068C68.0284 155.062 68.6264 154.923 69.1009 154.645C69.5753 154.366 69.929 153.97 70.1619 153.456C70.3949 152.942 70.5114 152.33 70.5114 151.619C70.5114 150.915 70.3963 150.308 70.1662 149.8C69.9361 149.288 69.5923 148.896 69.1349 148.624C68.6776 148.348 68.108 148.21 67.4261 148.21H65.7386V155.062ZM73.9034 154.884C73.6932 154.884 73.5128 154.808 73.3622 154.658C73.2116 154.507 73.1364 154.327 73.1364 154.116C73.1364 153.906 73.2116 153.726 73.3622 153.575C73.5128 153.425 73.6932 153.349 73.9034 153.349C74.1136 153.349 74.294 153.425 74.4446 153.575C74.5952 153.726 74.6705 153.906 74.6705 154.116C74.6705 154.256 74.6349 154.384 74.5639 154.5C74.4957 154.616 74.4034 154.71 74.2869 154.781C74.1733 154.849 74.0455 154.884 73.9034 154.884ZM73.9034 150.469C73.6932 150.469 73.5128 150.393 73.3622 150.243C73.2116 150.092 73.1364 149.912 73.1364 149.702C73.1364 149.491 73.2116 149.311 73.3622 149.161C73.5128 149.01 73.6932 148.935 73.9034 148.935C74.1136 148.935 74.294 149.01 74.4446 149.161C74.5952 149.311 74.6705 149.491 74.6705 149.702C74.6705 149.841 74.6349 149.969 74.5639 150.085C74.4957 150.202 74.4034 150.295 74.2869 150.366C74.1733 150.435 74.0455 150.469 73.9034 150.469Z" fill="black"/>
<path d="M226.057 156V147.273H229.006C229.688 147.273 230.247 147.389 230.685 147.622C231.122 147.852 231.446 148.169 231.656 148.572C231.866 148.976 231.972 149.435 231.972 149.949C231.972 150.463 231.866 150.919 231.656 151.317C231.446 151.714 231.124 152.027 230.689 152.254C230.254 152.479 229.699 152.591 229.023 152.591H226.636V151.636H228.989C229.455 151.636 229.83 151.568 230.114 151.432C230.401 151.295 230.608 151.102 230.736 150.852C230.866 150.599 230.932 150.298 230.932 149.949C230.932 149.599 230.866 149.294 230.736 149.033C230.605 148.771 230.396 148.57 230.109 148.428C229.822 148.283 229.443 148.21 228.972 148.21H227.114V156H226.057ZM230.165 152.08L232.312 156H231.085L228.972 152.08H230.165ZM233.733 156V147.273H239V148.21H234.789V151.159H238.727V152.097H234.789V155.062H239.068V156H233.733ZM240.904 156V147.273H246.137V148.21H241.961V151.159H245.745V152.097H241.961V156H240.904ZM247.947 156V147.273H253.214V148.21H249.004V151.159H252.942V152.097H249.004V155.062H253.283V156H247.947ZM255.119 156V147.273H258.068C258.75 147.273 259.31 147.389 259.747 147.622C260.185 147.852 260.509 148.169 260.719 148.572C260.929 148.976 261.034 149.435 261.034 149.949C261.034 150.463 260.929 150.919 260.719 151.317C260.509 151.714 260.186 152.027 259.751 152.254C259.317 152.479 258.761 152.591 258.085 152.591H255.699V151.636H258.051C258.517 151.636 258.892 151.568 259.176 151.432C259.463 151.295 259.67 151.102 259.798 150.852C259.929 150.599 259.994 150.298 259.994 149.949C259.994 149.599 259.929 149.294 259.798 149.033C259.668 148.771 259.459 148.57 259.172 148.428C258.885 148.283 258.506 148.21 258.034 148.21H256.176V156H255.119ZM259.227 152.08L261.375 156H260.148L258.034 152.08H259.227ZM262.795 156V147.273H268.062V148.21H263.852V151.159H267.789V152.097H263.852V155.062H268.13V156H262.795ZM276.887 147.273V156H275.865L271.109 149.148H271.024V156H269.967V147.273H270.99L275.762 154.142H275.848V147.273H276.887ZM286.025 150H284.968C284.906 149.696 284.796 149.429 284.64 149.199C284.487 148.969 284.299 148.776 284.077 148.619C283.859 148.46 283.616 148.341 283.349 148.261C283.082 148.182 282.803 148.142 282.513 148.142C281.985 148.142 281.506 148.276 281.077 148.543C280.651 148.81 280.312 149.203 280.059 149.723C279.809 150.243 279.684 150.881 279.684 151.636C279.684 152.392 279.809 153.03 280.059 153.55C280.312 154.07 280.651 154.463 281.077 154.73C281.506 154.997 281.985 155.131 282.513 155.131C282.803 155.131 283.082 155.091 283.349 155.011C283.616 154.932 283.859 154.814 284.077 154.658C284.299 154.499 284.487 154.304 284.64 154.074C284.796 153.841 284.906 153.574 284.968 153.273H286.025C285.945 153.719 285.8 154.118 285.59 154.47C285.38 154.822 285.119 155.122 284.806 155.369C284.494 155.614 284.143 155.8 283.754 155.928C283.367 156.055 282.954 156.119 282.513 156.119C281.769 156.119 281.107 155.938 280.528 155.574C279.948 155.21 279.492 154.693 279.16 154.023C278.827 153.352 278.661 152.557 278.661 151.636C278.661 150.716 278.827 149.92 279.16 149.25C279.492 148.58 279.948 148.062 280.528 147.699C281.107 147.335 281.769 147.153 282.513 147.153C282.954 147.153 283.367 147.217 283.754 147.345C284.143 147.473 284.494 147.661 284.806 147.908C285.119 148.152 285.38 148.45 285.59 148.803C285.8 149.152 285.945 149.551 286.025 150ZM287.733 156V147.273H293V148.21H288.789V151.159H292.727V152.097H288.789V155.062H293.068V156H287.733ZM295.501 154.884C295.291 154.884 295.11 154.808 294.96 154.658C294.809 154.507 294.734 154.327 294.734 154.116C294.734 153.906 294.809 153.726 294.96 153.575C295.11 153.425 295.291 153.349 295.501 153.349C295.711 153.349 295.892 153.425 296.042 153.575C296.193 153.726 296.268 153.906 296.268 154.116C296.268 154.256 296.233 154.384 296.162 154.5C296.093 154.616 296.001 154.71 295.885 154.781C295.771 154.849 295.643 154.884 295.501 154.884ZM295.501 150.469C295.291 150.469 295.11 150.393 294.96 150.243C294.809 150.092 294.734 149.912 294.734 149.702C294.734 149.491 294.809 149.311 294.96 149.161C295.11 149.01 295.291 148.935 295.501 148.935C295.711 148.935 295.892 149.01 296.042 149.161C296.193 149.311 296.268 149.491 296.268 149.702C296.268 149.841 296.233 149.969 296.162 150.085C296.093 150.202 296.001 150.295 295.885 150.366C295.771 150.435 295.643 150.469 295.501 150.469Z" fill="black"/>
<path d="M31.0568 225.273H32.3182L35.2841 232.517H35.3864L38.3523 225.273H39.6136V234H38.625V227.369H38.5398L35.8125 234H34.858L32.1307 227.369H32.0455V234H31.0568V225.273ZM49.0962 229.636C49.0962 230.557 48.93 231.352 48.5977 232.023C48.2653 232.693 47.8093 233.21 47.2298 233.574C46.6502 233.938 45.9883 234.119 45.244 234.119C44.4996 234.119 43.8377 233.938 43.2582 233.574C42.6786 233.21 42.2227 232.693 41.8903 232.023C41.5579 231.352 41.3917 230.557 41.3917 229.636C41.3917 228.716 41.5579 227.92 41.8903 227.25C42.2227 226.58 42.6786 226.062 43.2582 225.699C43.8377 225.335 44.4996 225.153 45.244 225.153C45.9883 225.153 46.6502 225.335 47.2298 225.699C47.8093 226.062 48.2653 226.58 48.5977 227.25C48.93 227.92 49.0962 228.716 49.0962 229.636ZM48.0735 229.636C48.0735 228.881 47.9471 228.243 47.6942 227.723C47.4442 227.203 47.1048 226.81 46.6758 226.543C46.2496 226.276 45.7724 226.142 45.244 226.142C44.7156 226.142 44.2369 226.276 43.8079 226.543C43.3817 226.81 43.0423 227.203 42.7894 227.723C42.5394 228.243 42.4144 228.881 42.4144 229.636C42.4144 230.392 42.5394 231.03 42.7894 231.55C43.0423 232.07 43.3817 232.463 43.8079 232.73C44.2369 232.997 44.7156 233.131 45.244 233.131C45.7724 233.131 46.2496 232.997 46.6758 232.73C47.1048 232.463 47.4442 232.07 47.6942 231.55C47.9471 231.03 48.0735 230.392 48.0735 229.636ZM53.5664 234H50.8732V225.273H53.6857C54.5323 225.273 55.2567 225.447 55.859 225.797C56.4613 226.143 56.9229 226.642 57.244 227.293C57.565 227.94 57.7255 228.716 57.7255 229.619C57.7255 230.528 57.5636 231.311 57.2397 231.967C56.9158 232.621 56.4442 233.124 55.8249 233.476C55.2056 233.825 54.4528 234 53.5664 234ZM51.93 233.062H53.4982C54.2198 233.062 54.8178 232.923 55.2923 232.645C55.7667 232.366 56.1204 231.97 56.3533 231.456C56.5863 230.942 56.7028 230.33 56.7028 229.619C56.7028 228.915 56.5877 228.308 56.3576 227.8C56.1275 227.288 55.7837 226.896 55.3263 226.624C54.869 226.348 54.2994 226.21 53.6175 226.21H51.93V233.062ZM59.4982 234V225.273H64.7653V226.21H60.555V229.159H64.4925V230.097H60.555V233.062H64.8335V234H59.4982ZM66.6701 234V225.273H67.7269V233.062H71.7837V234H66.6701ZM74.0167 232.884C73.8065 232.884 73.6261 232.808 73.4755 232.658C73.3249 232.507 73.2496 232.327 73.2496 232.116C73.2496 231.906 73.3249 231.726 73.4755 231.575C73.6261 231.425 73.8065 231.349 74.0167 231.349C74.2269 231.349 74.4073 231.425 74.5579 231.575C74.7085 231.726 74.7837 231.906 74.7837 232.116C74.7837 232.256 74.7482 232.384 74.6772 232.5C74.609 232.616 74.5167 232.71 74.4002 232.781C74.2866 232.849 74.1587 232.884 74.0167 232.884ZM74.0167 228.469C73.8065 228.469 73.6261 228.393 73.4755 228.243C73.3249 228.092 73.2496 227.912 73.2496 227.702C73.2496 227.491 73.3249 227.311 73.4755 227.161C73.6261 227.01 73.8065 226.935 74.0167 226.935C74.2269 226.935 74.4073 227.01 74.5579 227.161C74.7085 227.311 74.7837 227.491 74.7837 227.702C74.7837 227.841 74.7482 227.969 74.6772 228.085C74.609 228.202 74.5167 228.295 74.4002 228.366C74.2866 228.435 74.1587 228.469 74.0167 228.469Z" fill="black"/>
<path d="M233.08 228H232.023C231.96 227.696 231.851 227.429 231.695 227.199C231.541 226.969 231.354 226.776 231.132 226.619C230.913 226.46 230.67 226.341 230.403 226.261C230.136 226.182 229.858 226.142 229.568 226.142C229.04 226.142 228.561 226.276 228.132 226.543C227.706 226.81 227.366 227.203 227.114 227.723C226.864 228.243 226.739 228.881 226.739 229.636C226.739 230.392 226.864 231.03 227.114 231.55C227.366 232.07 227.706 232.463 228.132 232.73C228.561 232.997 229.04 233.131 229.568 233.131C229.858 233.131 230.136 233.091 230.403 233.011C230.67 232.932 230.913 232.814 231.132 232.658C231.354 232.499 231.541 232.304 231.695 232.074C231.851 231.841 231.96 231.574 232.023 231.273H233.08C233 231.719 232.855 232.118 232.645 232.47C232.435 232.822 232.173 233.122 231.861 233.369C231.548 233.614 231.197 233.8 230.808 233.928C230.422 234.055 230.009 234.119 229.568 234.119C228.824 234.119 228.162 233.938 227.582 233.574C227.003 233.21 226.547 232.693 226.214 232.023C225.882 231.352 225.716 230.557 225.716 229.636C225.716 228.716 225.882 227.92 226.214 227.25C226.547 226.58 227.003 226.062 227.582 225.699C228.162 225.335 228.824 225.153 229.568 225.153C230.009 225.153 230.422 225.217 230.808 225.345C231.197 225.473 231.548 225.661 231.861 225.908C232.173 226.152 232.435 226.45 232.645 226.803C232.855 227.152 233 227.551 233.08 228ZM242.151 229.636C242.151 230.557 241.985 231.352 241.652 232.023C241.32 232.693 240.864 233.21 240.284 233.574C239.705 233.938 239.043 234.119 238.299 234.119C237.554 234.119 236.892 233.938 236.313 233.574C235.733 233.21 235.277 232.693 234.945 232.023C234.613 231.352 234.446 230.557 234.446 229.636C234.446 228.716 234.613 227.92 234.945 227.25C235.277 226.58 235.733 226.062 236.313 225.699C236.892 225.335 237.554 225.153 238.299 225.153C239.043 225.153 239.705 225.335 240.284 225.699C240.864 226.062 241.32 226.58 241.652 227.25C241.985 227.92 242.151 228.716 242.151 229.636ZM241.128 229.636C241.128 228.881 241.002 228.243 240.749 227.723C240.499 227.203 240.159 226.81 239.73 226.543C239.304 226.276 238.827 226.142 238.299 226.142C237.77 226.142 237.292 226.276 236.863 226.543C236.436 226.81 236.097 227.203 235.844 227.723C235.594 228.243 235.469 228.881 235.469 229.636C235.469 230.392 235.594 231.03 235.844 231.55C236.097 232.07 236.436 232.463 236.863 232.73C237.292 232.997 237.77 233.131 238.299 233.131C238.827 233.131 239.304 232.997 239.73 232.73C240.159 232.463 240.499 232.07 240.749 231.55C241.002 231.03 241.128 230.392 241.128 229.636ZM243.928 234V225.273H244.985V233.062H249.042V234H243.928ZM257.702 229.636C257.702 230.557 257.536 231.352 257.203 232.023C256.871 232.693 256.415 233.21 255.835 233.574C255.256 233.938 254.594 234.119 253.849 234.119C253.105 234.119 252.443 233.938 251.864 233.574C251.284 233.21 250.828 232.693 250.496 232.023C250.163 231.352 249.997 230.557 249.997 229.636C249.997 228.716 250.163 227.92 250.496 227.25C250.828 226.58 251.284 226.062 251.864 225.699C252.443 225.335 253.105 225.153 253.849 225.153C254.594 225.153 255.256 225.335 255.835 225.699C256.415 226.062 256.871 226.58 257.203 227.25C257.536 227.92 257.702 228.716 257.702 229.636ZM256.679 229.636C256.679 228.881 256.553 228.243 256.3 227.723C256.05 227.203 255.71 226.81 255.281 226.543C254.855 226.276 254.378 226.142 253.849 226.142C253.321 226.142 252.842 226.276 252.413 226.543C251.987 226.81 251.648 227.203 251.395 227.723C251.145 228.243 251.02 228.881 251.02 229.636C251.02 230.392 251.145 231.03 251.395 231.55C251.648 232.07 251.987 232.463 252.413 232.73C252.842 232.997 253.321 233.131 253.849 233.131C254.378 233.131 254.855 232.997 255.281 232.73C255.71 232.463 256.05 232.07 256.3 231.55C256.553 231.03 256.679 230.392 256.679 229.636ZM259.479 234V225.273H262.428C263.109 225.273 263.669 225.389 264.107 225.622C264.544 225.852 264.868 226.169 265.078 226.572C265.288 226.976 265.393 227.435 265.393 227.949C265.393 228.463 265.288 228.919 265.078 229.317C264.868 229.714 264.545 230.027 264.111 230.254C263.676 230.479 263.121 230.591 262.445 230.591H260.058V229.636H262.411C262.876 229.636 263.251 229.568 263.536 229.432C263.822 229.295 264.03 229.102 264.158 228.852C264.288 228.599 264.354 228.298 264.354 227.949C264.354 227.599 264.288 227.294 264.158 227.033C264.027 226.771 263.818 226.57 263.531 226.428C263.244 226.283 262.865 226.21 262.393 226.21H260.536V234H259.479ZM263.587 230.08L265.734 234H264.507L262.393 230.08H263.587ZM267.751 232.884C267.541 232.884 267.36 232.808 267.21 232.658C267.059 232.507 266.984 232.327 266.984 232.116C266.984 231.906 267.059 231.726 267.21 231.575C267.36 231.425 267.541 231.349 267.751 231.349C267.961 231.349 268.142 231.425 268.292 231.575C268.443 231.726 268.518 231.906 268.518 232.116C268.518 232.256 268.483 232.384 268.412 232.5C268.343 232.616 268.251 232.71 268.135 232.781C268.021 232.849 267.893 232.884 267.751 232.884ZM267.751 228.469C267.541 228.469 267.36 228.393 267.21 228.243C267.059 228.092 266.984 227.912 266.984 227.702C266.984 227.491 267.059 227.311 267.21 227.161C267.36 227.01 267.541 226.935 267.751 226.935C267.961 226.935 268.142 227.01 268.292 227.161C268.443 227.311 268.518 227.491 268.518 227.702C268.518 227.841 268.483 227.969 268.412 228.085C268.343 228.202 268.251 228.295 268.135 228.366C268.021 228.435 267.893 228.469 267.751 228.469Z" fill="black"/>
<path d="M140.034 57.7273C140.034 59.2614 139.757 60.5871 139.203 61.7045C138.649 62.822 137.889 63.6837 136.923 64.2898C135.957 64.8958 134.854 65.1989 133.614 65.1989C132.373 65.1989 131.27 64.8958 130.304 64.2898C129.338 63.6837 128.578 62.822 128.024 61.7045C127.47 60.5871 127.193 59.2614 127.193 57.7273C127.193 56.1932 127.47 54.8674 128.024 53.75C128.578 52.6326 129.338 51.7708 130.304 51.1648C131.27 50.5587 132.373 50.2557 133.614 50.2557C134.854 50.2557 135.957 50.5587 136.923 51.1648C137.889 51.7708 138.649 52.6326 139.203 53.75C139.757 54.8674 140.034 56.1932 140.034 57.7273ZM138.33 57.7273C138.33 56.4678 138.119 55.4048 137.697 54.5384C137.281 53.6719 136.715 53.0161 136 52.571C135.29 52.1259 134.494 51.9034 133.614 51.9034C132.733 51.9034 131.935 52.1259 131.22 52.571C130.51 53.0161 129.944 53.6719 129.523 54.5384C129.106 55.4048 128.898 56.4678 128.898 57.7273C128.898 58.9867 129.106 60.0497 129.523 60.9162C129.944 61.7827 130.51 62.4384 131.22 62.8835C131.935 63.3286 132.733 63.5511 133.614 63.5511C134.494 63.5511 135.29 63.3286 136 62.8835C136.715 62.4384 137.281 61.7827 137.697 60.9162C138.119 60.0497 138.33 58.9867 138.33 57.7273ZM142.996 65V50.4545H148.081C149.094 50.4545 149.93 50.6297 150.588 50.9801C151.246 51.3258 151.736 51.7921 152.058 52.3793C152.38 52.9616 152.541 53.608 152.541 54.3182C152.541 54.9432 152.43 55.4593 152.207 55.8665C151.99 56.2737 151.701 56.5956 151.341 56.8324C150.986 57.0691 150.6 57.2443 150.183 57.358V57.5C150.628 57.5284 151.076 57.6847 151.526 57.9688C151.975 58.2528 152.352 58.66 152.655 59.1903C152.958 59.7206 153.109 60.3693 153.109 61.1364C153.109 61.8655 152.944 62.5213 152.612 63.1037C152.281 63.6861 151.758 64.1477 151.043 64.4886C150.328 64.8295 149.397 65 148.251 65H142.996ZM144.757 63.4375H148.251C149.402 63.4375 150.219 63.215 150.702 62.7699C151.189 62.3201 151.433 61.7756 151.433 61.1364C151.433 60.6439 151.308 60.1894 151.057 59.7727C150.806 59.3513 150.448 59.0152 149.984 58.7642C149.52 58.5085 148.971 58.3807 148.337 58.3807H144.757V63.4375ZM144.757 56.8466H148.024C148.554 56.8466 149.033 56.7424 149.459 56.5341C149.89 56.3258 150.231 56.0322 150.482 55.6534C150.737 55.2746 150.865 54.8295 150.865 54.3182C150.865 53.679 150.643 53.1368 150.197 52.6918C149.752 52.242 149.047 52.017 148.081 52.017H144.757V56.8466ZM161.572 50.4545H163.333V60.8523C163.333 61.7803 163.163 62.5687 162.822 63.2173C162.481 63.866 162 64.3584 161.38 64.6946C160.76 65.0308 160.028 65.1989 159.185 65.1989C158.39 65.1989 157.682 65.0545 157.062 64.7656C156.442 64.4721 155.954 64.0554 155.599 63.5156C155.244 62.9759 155.066 62.3343 155.066 61.5909H156.799C156.799 62.0028 156.901 62.3627 157.104 62.6705C157.313 62.9735 157.597 63.2102 157.957 63.3807C158.317 63.5511 158.726 63.6364 159.185 63.6364C159.692 63.6364 160.123 63.5298 160.478 63.3168C160.833 63.1037 161.103 62.7912 161.288 62.3793C161.477 61.9626 161.572 61.4536 161.572 60.8523V50.4545ZM166.863 65V50.4545H175.641V52.017H168.624V56.9318H175.187V58.4943H168.624V63.4375H175.755V65H166.863ZM190.521 55H188.759C188.655 54.4934 188.473 54.0483 188.212 53.6648C187.957 53.2812 187.644 52.9593 187.275 52.6989C186.91 52.4337 186.505 52.2348 186.06 52.1023C185.615 51.9697 185.151 51.9034 184.668 51.9034C183.788 51.9034 182.99 52.1259 182.275 52.571C181.565 53.0161 180.999 53.6719 180.577 54.5384C180.161 55.4048 179.952 56.4678 179.952 57.7273C179.952 58.9867 180.161 60.0497 180.577 60.9162C180.999 61.7827 181.565 62.4384 182.275 62.8835C182.99 63.3286 183.788 63.5511 184.668 63.5511C185.151 63.5511 185.615 63.4848 186.06 63.3523C186.505 63.2197 186.91 63.0232 187.275 62.7628C187.644 62.4976 187.957 62.1733 188.212 61.7898C188.473 61.4015 188.655 60.9564 188.759 60.4545H190.521C190.388 61.1979 190.147 61.8632 189.796 62.4503C189.446 63.0374 189.01 63.5369 188.489 63.9489C187.969 64.3561 187.384 64.6662 186.735 64.8793C186.091 65.0923 185.402 65.1989 184.668 65.1989C183.428 65.1989 182.325 64.8958 181.359 64.2898C180.393 63.6837 179.633 62.822 179.079 61.7045C178.525 60.5871 178.248 59.2614 178.248 57.7273C178.248 56.1932 178.525 54.8674 179.079 53.75C179.633 52.6326 180.393 51.7708 181.359 51.1648C182.325 50.5587 183.428 50.2557 184.668 50.2557C185.402 50.2557 186.091 50.3622 186.735 50.5753C187.384 50.7884 187.969 51.1009 188.489 51.5128C189.01 51.92 189.446 52.4171 189.796 53.0043C190.147 53.5866 190.388 54.2519 190.521 55ZM192.571 52.017V50.4545H203.48V52.017H198.907V65H197.145V52.017H192.571Z" fill="black"/>
<path d="M212.42 50.4545L216.739 62.6989H216.909L221.227 50.4545H223.074L217.733 65H215.915L210.574 50.4545H212.42ZM225.339 65V50.4545H234.118V52.017H227.101V56.9318H233.663V58.4943H227.101V63.4375H234.232V65H225.339ZM237.293 65V50.4545H239.054V56.9318H246.81V50.4545H248.571V65H246.81V58.4943H239.054V65H237.293ZM253.859 50.4545V65H252.097V50.4545H253.859ZM269.095 55H267.333C267.229 54.4934 267.047 54.0483 266.787 53.6648C266.531 53.2812 266.218 52.9593 265.849 52.6989C265.484 52.4337 265.08 52.2348 264.635 52.1023C264.19 51.9697 263.725 51.9034 263.243 51.9034C262.362 51.9034 261.564 52.1259 260.849 52.571C260.139 53.0161 259.573 53.6719 259.152 54.5384C258.735 55.4048 258.527 56.4678 258.527 57.7273C258.527 58.9867 258.735 60.0497 259.152 60.9162C259.573 61.7827 260.139 62.4384 260.849 62.8835C261.564 63.3286 262.362 63.5511 263.243 63.5511C263.725 63.5511 264.19 63.4848 264.635 63.3523C265.08 63.2197 265.484 63.0232 265.849 62.7628C266.218 62.4976 266.531 62.1733 266.787 61.7898C267.047 61.4015 267.229 60.9564 267.333 60.4545H269.095C268.962 61.1979 268.721 61.8632 268.37 62.4503C268.02 63.0374 267.584 63.5369 267.064 63.9489C266.543 64.3561 265.958 64.6662 265.309 64.8793C264.665 65.0923 263.976 65.1989 263.243 65.1989C262.002 65.1989 260.899 64.8958 259.933 64.2898C258.967 63.6837 258.207 62.822 257.653 61.7045C257.099 60.5871 256.822 59.2614 256.822 57.7273C256.822 56.1932 257.099 54.8674 257.653 53.75C258.207 52.6326 258.967 51.7708 259.933 51.1648C260.899 50.5587 262.002 50.2557 263.243 50.2557C263.976 50.2557 264.665 50.3622 265.309 50.5753C265.958 50.7884 266.543 51.1009 267.064 51.5128C267.584 51.92 268.02 52.4171 268.37 53.0043C268.721 53.5866 268.962 54.2519 269.095 55ZM271.941 65V50.4545H273.702V63.4375H280.464V65H271.941ZM283.191 65V50.4545H291.969V52.017H284.952V56.9318H291.515V58.4943H284.952V63.4375H292.083V65H283.191Z" fill="#5EE7A5"/>
<g clip-path="url(#clip0_6_185)">
<path fill-rule="evenodd" clip-rule="evenodd" d="M20 29C20 28.7348 20.1505 28.4804 20.4184 28.2929C20.6863 28.1054 21.0497 28 21.4286 28H38.5714C38.9503 28 39.3137 28.1054 39.5816 28.2929C39.8495 28.4804 40 28.7348 40 29C40 29.2652 39.8495 29.5196 39.5816 29.7071C39.3137 29.8946 38.9503 30 38.5714 30H21.4286C21.0497 30 20.6863 29.8946 20.4184 29.7071C20.1505 29.5196 20 29.2652 20 29ZM20 34C20 33.7348 20.1505 33.4804 20.4184 33.2929C20.6863 33.1054 21.0497 33 21.4286 33H38.5714C38.9503 33 39.3137 33.1054 39.5816 33.2929C39.8495 33.4804 40 33.7348 40 34C40 34.2652 39.8495 34.5196 39.5816 34.7071C39.3137 34.8946 38.9503 35 38.5714 35H21.4286C21.0497 35 20.6863 34.8946 20.4184 34.7071C20.1505 34.5196 20 34.2652 20 34ZM20 39C20 38.7348 20.1505 38.4804 20.4184 38.2929C20.6863 38.1054 21.0497 38 21.4286 38H38.5714C38.9503 38 39.3137 38.1054 39.5816 38.2929C39.8495 38.4804 40 38.7348 40 39C40 39.2652 39.8495 39.5196 39.5816 39.7071C39.3137 39.8946 38.9503 40 38.5714 40H21.4286C21.0497 40 20.6863 39.8946 20.4184 39.7071C20.1505 39.5196 20 39.2652 20 39Z" fill="black"/>
</g>
<path d="M101 580C100.735 580 100.48 580.105 100.293 580.293C100.105 580.48 100 580.735 100 581C100 581.265 100.105 581.52 100.293 581.707C100.48 581.895 100.735 582 101 582H103C103.265 582 103.52 581.895 103.707 581.707C103.895 581.52 104 581.265 104 581C104 580.735 103.895 580.48 103.707 580.293C103.52 580.105 103.265 580 103 580H101Z" fill="black"/>
<path fill-rule="evenodd" clip-rule="evenodd" d="M96 583C96 582.47 96.2107 581.961 96.5858 581.586C96.9609 581.211 97.4696 581 98 581C98 581.796 98.3161 582.559 98.8787 583.121C99.4413 583.684 100.204 584 101 584H103C103.796 584 104.559 583.684 105.121 583.121C105.684 582.559 106 581.796 106 581C106.53 581 107.039 581.211 107.414 581.586C107.789 581.961 108 582.47 108 583V594C108 594.53 107.789 595.039 107.414 595.414C107.039 595.789 106.53 596 106 596H98C97.4696 596 96.9609 595.789 96.5858 595.414C96.2107 595.039 96 594.53 96 594V583ZM99 587C98.7348 587 98.4804 587.105 98.2929 587.293C98.1054 587.48 98 587.735 98 588C98 588.265 98.1054 588.52 98.2929 588.707C98.4804 588.895 98.7348 589 99 589H99.01C99.2752 589 99.5296 588.895 99.7171 588.707C99.9046 588.52 100.01 588.265 100.01 588C100.01 587.735 99.9046 587.48 99.7171 587.293C99.5296 587.105 99.2752 587 99.01 587H99ZM102 587C101.735 587 101.48 587.105 101.293 587.293C101.105 587.48 101 587.735 101 588C101 588.265 101.105 588.52 101.293 588.707C101.48 588.895 101.735 589 102 589H105C105.265 589 105.52 588.895 105.707 588.707C105.895 588.52 106 588.265 106 588C106 587.735 105.895 587.48 105.707 587.293C105.52 587.105 105.265 587 105 587H102ZM99 591C98.7348 591 98.4804 591.105 98.2929 591.293C98.1054 591.48 98 591.735 98 592C98 592.265 98.1054 592.52 98.2929 592.707C98.4804 592.895 98.7348 593 99 593H99.01C99.2752 593 99.5296 592.895 99.7171 592.707C99.9046 592.52 100.01 592.265 100.01 592C100.01 591.735 99.9046 591.48 99.7171 591.293C99.5296 591.105 99.2752 591 99.01 591H99ZM102 591C101.735 591 101.48 591.105 101.293 591.293C101.105 591.48 101 591.735 101 592C101 592.265 101.105 592.52 101.293 592.707C101.48 592.895 101.735 593 102 593H105C105.265 593 105.52 592.895 105.707 592.707C105.895 592.52 106 592.265 106 592C106 591.735 105.895 591.48 105.707 591.293C105.52 591.105 105.265 591 105 591H102Z" fill="black"/>
<defs>
<clipPath id="clip0_6_185">
<rect width="20" height="20" fill="white" transform="translate(17 24)"/>
</clipPath>
</defs>
</svg>
