<svg width="65" height="65" viewBox="0 0 65 65" fill="none" xmlns="http://www.w3.org/2000/svg">
<circle cx="32.5" cy="32.5" r="32.5" fill="#5EE7A5"/>
<path d="M35.4473 25.0919L43.2139 32.8585L35.4473 25.0919ZM43.2139 32.8585L35.4473 40.625L43.2139 32.8585ZM43.2139 32.8585H22.5031H43.2139ZM56.1581 32.8585C56.1581 35.9182 55.5554 38.948 54.3845 41.7748C53.2136 44.6017 51.4974 47.1702 49.3338 49.3338C47.1702 51.4974 44.6017 53.2136 41.7749 54.3845C38.948 55.5554 35.9182 56.1581 32.8585 56.1581C29.7987 56.1581 26.7689 55.5554 23.9421 54.3845C21.1152 53.2136 18.5467 51.4974 16.3831 49.3338C14.2196 47.1702 12.5033 44.6017 11.3324 41.7748C10.1615 38.948 9.55884 35.9182 9.55884 32.8585C9.55884 26.679 12.0136 20.7527 16.3831 16.3831C20.7527 12.0136 26.679 9.55882 32.8585 9.55882C39.0379 9.55882 44.9643 12.0136 49.3338 16.3831C53.7033 20.7527 56.1581 26.679 56.1581 32.8585Z" stroke="black" stroke-width="2" stroke-linecap="round" stroke-linejoin="round"/>
</svg>
