<svg width="68" height="68" viewBox="0 0 68 68" fill="none" xmlns="http://www.w3.org/2000/svg">
<circle cx="34" cy="34" r="34" fill="#5EE7A5"/>
<path d="M32.7917 41.625L24.6667 33.5L32.7917 41.625ZM24.6667 33.5L32.7917 25.375L24.6667 33.5ZM24.6667 33.5H46.3333H24.6667ZM11.125 33.5C11.125 30.299 11.7555 27.1294 12.9804 24.1721C14.2054 21.2148 16.0008 18.5277 18.2643 16.2643C20.5277 14.0008 23.2148 12.2054 26.1721 10.9804C29.1294 9.75548 32.299 9.125 35.5 9.125C38.701 9.125 41.8706 9.75548 44.8279 10.9804C47.7852 12.2054 50.4723 14.0008 52.7357 16.2643C54.9992 18.5277 56.7946 21.2148 58.0196 24.1721C59.2445 27.1294 59.875 30.299 59.875 33.5C59.875 39.9647 57.3069 46.1645 52.7357 50.7357C48.1645 55.3069 41.9647 57.875 35.5 57.875C29.0353 57.875 22.8355 55.3069 18.2643 50.7357C13.6931 46.1645 11.125 39.9647 11.125 33.5V33.5Z" stroke="black" stroke-width="2" stroke-linecap="round" stroke-linejoin="round"/>
</svg>
