<svg width="65" height="65" viewBox="0 0 65 65" fill="none" xmlns="http://www.w3.org/2000/svg">
<ellipse cx="32.5" cy="32.029" rx="32.5" ry="32.029" fill="#5EE7A5"/>
<path d="M55.4242 41.1753C51.1868 42.8546 46.5421 43.2696 42.0674 42.3686C37.5927 41.4677 33.4853 39.2906 30.2558 36.1079C27.0264 32.9253 24.8173 28.8774 23.9031 24.4676C22.9889 20.0577 23.41 15.4803 25.1139 11.3044C20.096 13.2963 15.9374 16.9463 13.3511 21.6289C10.7647 26.3114 9.91169 31.7347 10.9382 36.9692C11.9648 42.2036 14.8069 46.9231 18.9775 50.3187C23.148 53.7142 28.3872 55.5743 33.7969 55.5801C38.4489 55.5803 42.9945 54.2085 46.8487 51.6414C50.703 49.0742 53.6896 45.4292 55.4242 41.1753Z" stroke="white" stroke-width="2" stroke-linecap="round" stroke-linejoin="round"/>
</svg>
