<svg width="68" height="68" viewBox="0 0 68 68" fill="none" xmlns="http://www.w3.org/2000/svg">
<circle cx="34" cy="34" r="32" fill="#FFA9A9" stroke="#5EE7A5" stroke-width="4"/>
<path d="M50.7359 49.7358C55.3071 45.1646 57.8752 38.9647 57.8752 32.5C57.8752 26.0353 55.3071 19.8354 50.7359 15.2642C46.1646 10.6929 39.9647 8.12485 33.5 8.12485C27.0353 8.12485 20.8354 10.6929 16.2642 15.2642L50.7359 49.7358ZM50.7359 49.7358C46.1646 54.3071 39.9647 56.8751 33.5 56.8751C27.0353 56.8751 20.8354 54.3071 16.2642 49.7358C11.693 45.1646 9.12488 38.9647 9.12488 32.5C9.12488 26.0353 11.693 19.8354 16.2642 15.2642L50.7359 49.7358ZM50.7359 49.7358L16.2642 15.2642Z" fill="#FFA9A9"/>
<path d="M50.7359 49.7358L16.2642 15.2642M50.7359 49.7358C55.3071 45.1646 57.8752 38.9647 57.8752 32.5C57.8752 26.0353 55.3071 19.8354 50.7359 15.2642C46.1646 10.6929 39.9647 8.12485 33.5 8.12485C27.0353 8.12485 20.8354 10.6929 16.2642 15.2642L50.7359 49.7358ZM50.7359 49.7358C46.1646 54.3071 39.9647 56.8751 33.5 56.8751C27.0353 56.8751 20.8354 54.3071 16.2642 49.7358C11.693 45.1646 9.12488 38.9647 9.12488 32.5C9.12488 26.0353 11.693 19.8354 16.2642 15.2642L50.7359 49.7358Z" stroke="black" stroke-width="2" stroke-linecap="round" stroke-linejoin="round"/>
</svg>
