<svg width="68" height="68" viewBox="0 0 68 68" fill="none" xmlns="http://www.w3.org/2000/svg">
<circle cx="34" cy="34" r="32" fill="#B0D5FF" stroke="#5EE7A5" stroke-width="4"/>
<path d="M29.0833 25.375V41.625V25.375ZM39.9167 25.375V41.625V25.375ZM58.875 33.5C58.875 36.701 58.2445 39.8706 57.0196 42.8279C55.7946 45.7852 53.9992 48.4723 51.7357 50.7357C49.4723 52.9992 46.7852 54.7946 43.8279 56.0196C40.8706 57.2445 37.701 57.875 34.5 57.875C31.299 57.875 28.1294 57.2445 25.1721 56.0196C22.2148 54.7946 19.5277 52.9992 17.2643 50.7357C15.0008 48.4723 13.2054 45.7852 11.9804 42.8279C10.7555 39.8706 10.125 36.701 10.125 33.5C10.125 27.0353 12.6931 20.8355 17.2643 16.2643C21.8355 11.6931 28.0353 9.125 34.5 9.125C40.9647 9.125 47.1645 11.6931 51.7357 16.2643C56.3069 20.8355 58.875 27.0353 58.875 33.5Z" stroke="black" stroke-width="2" stroke-linecap="round" stroke-linejoin="round"/>
</svg>
