<svg width="40" height="40" viewBox="0 0 40 40" fill="none" xmlns="http://www.w3.org/2000/svg">
<path fill-rule="evenodd" clip-rule="evenodd" d="M20 40C25.3043 40 30.3914 37.8929 34.1421 34.1421C37.8929 30.3914 40 25.3043 40 20C40 14.6957 37.8929 9.60859 34.1421 5.85786C30.3914 2.10714 25.3043 0 20 0C14.6957 0 9.60859 2.10714 5.85786 5.85786C2.10714 9.60859 0 14.6957 0 20C0 25.3043 2.10714 30.3914 5.85786 34.1421C9.60859 37.8929 14.6957 40 20 40V40ZM21.7675 14.2675C22.2229 13.796 22.4749 13.1645 22.4692 12.509C22.4635 11.8535 22.2006 11.2265 21.737 10.763C21.2735 10.2994 20.6465 10.0365 19.991 10.0308C19.3355 10.0251 18.704 10.2771 18.2325 10.7325L10.7325 18.2325C10.2638 18.7013 10.0005 19.3371 10.0005 20C10.0005 20.6629 10.2638 21.2987 10.7325 21.7675L18.2325 29.2675C18.704 29.7229 19.3355 29.9749 19.991 29.9692C20.6465 29.9635 21.2735 29.7006 21.737 29.237C22.2006 28.7735 22.4635 28.1465 22.4692 27.491C22.4749 26.8355 22.2229 26.204 21.7675 25.7325L18.535 22.5H27.5C28.163 22.5 28.7989 22.2366 29.2678 21.7678C29.7366 21.2989 30 20.663 30 20C30 19.337 29.7366 18.7011 29.2678 18.2322C28.7989 17.7634 28.163 17.5 27.5 17.5H18.535L21.7675 14.2675V14.2675Z" fill="black"/>
</svg>
