<svg width="420" height="700" viewBox="0 0 420 700" fill="none" xmlns="http://www.w3.org/2000/svg">
<rect width="420" height="700" rx="20" fill="#FDFF95"/>
<rect x="85.5" y="13.5" width="249" height="59" rx="24.5" fill="#F4DC00" stroke="black"/>
<path d="M141.966 29.8182L146.108 51.858H146.415L157.819 29.8182H161.142L147.182 56H143.909L138.642 29.8182H141.966ZM160.874 56L165.221 29.8182H181.022L180.561 32.6307H167.931L166.448 41.4773H178.26L177.8 44.2898H165.988L164.505 53.1875H177.34L176.88 56H160.874ZM182.39 56L186.736 29.8182H189.907L187.963 41.4773H201.924L203.867 29.8182H207.037L202.691 56H199.52L201.463 44.2898H187.503L185.56 56H182.39ZM216.555 29.8182L212.208 56H209.038L213.385 29.8182H216.555ZM242.599 38H239.48C239.446 37.0881 239.259 36.2869 238.918 35.5966C238.577 34.9062 238.116 34.3267 237.537 33.858C236.966 33.3807 236.31 33.0227 235.568 32.7841C234.827 32.5455 234.034 32.4261 233.19 32.4261C231.571 32.4261 230.037 32.8395 228.588 33.6662C227.139 34.4844 225.899 35.6903 224.868 37.2841C223.837 38.8693 223.134 40.8125 222.759 43.1136C222.384 45.3466 222.439 47.2259 222.925 48.7514C223.411 50.277 224.216 51.4318 225.341 52.2159C226.466 53 227.804 53.392 229.355 53.392C230.25 53.392 231.128 53.2727 231.989 53.0341C232.858 52.7955 233.668 52.4418 234.418 51.973C235.176 51.4957 235.849 50.9119 236.438 50.2216C237.034 49.5227 237.503 48.7216 237.844 47.8182H241.014C240.545 49.1562 239.911 50.3537 239.109 51.4105C238.317 52.4673 237.401 53.3665 236.361 54.108C235.321 54.8409 234.2 55.3991 232.999 55.7827C231.797 56.1662 230.548 56.358 229.253 56.358C226.986 56.358 225.055 55.804 223.462 54.696C221.876 53.5795 220.743 52.0028 220.061 49.9659C219.388 47.9205 219.281 45.5 219.741 42.7045C220.202 39.9773 221.084 37.625 222.388 35.6477C223.692 33.6619 225.29 32.1364 227.182 31.071C229.074 29.9972 231.128 29.4602 233.344 29.4602C234.673 29.4602 235.896 29.652 237.013 30.0355C238.129 30.419 239.101 30.9815 239.928 31.723C240.754 32.456 241.398 33.3509 241.858 34.4077C242.327 35.456 242.574 36.6534 242.599 38ZM244.757 56L249.103 29.8182H252.274L248.387 53.1875H260.558L260.098 56H244.757ZM265.007 56L269.353 29.8182H285.154L284.694 32.6307H272.064L270.581 41.4773H282.393L281.933 44.2898H270.12L268.637 53.1875H281.473L281.012 56H265.007Z" fill="#9C5E00"/>
<rect x="50.5" y="115.5" width="149" height="49" rx="19.5" fill="#F4CD00" stroke="black"/>
<rect x="220.5" y="115.5" width="149" height="49" rx="19.5" fill="#F4CD00" stroke="black"/>
<rect x="50.5" y="185.5" width="149" height="49" rx="19.5" fill="#F4CD00" stroke="black"/>
<rect x="220.5" y="185.5" width="149" height="49" rx="19.5" fill="#F4CD00" stroke="black"/>
<rect x="50" y="89" width="15" height="15" fill="#E9EE00"/>
<path d="M75.8466 101.153C75.4318 101.153 75.0554 101.075 74.7173 100.919C74.3793 100.76 74.1108 100.531 73.9119 100.233C73.7131 99.9318 73.6136 99.5682 73.6136 99.142C73.6136 98.767 73.6875 98.4631 73.8352 98.2301C73.983 97.9943 74.1804 97.8097 74.4276 97.6761C74.6747 97.5426 74.9474 97.4432 75.2457 97.3778C75.5469 97.3097 75.8494 97.2557 76.1534 97.2159C76.5511 97.1648 76.8736 97.1264 77.1207 97.1009C77.3707 97.0724 77.5526 97.0256 77.6662 96.9602C77.7827 96.8949 77.8409 96.7812 77.8409 96.6193V96.5852C77.8409 96.1648 77.7259 95.8381 77.4957 95.6051C77.2685 95.3722 76.9233 95.2557 76.4602 95.2557C75.9801 95.2557 75.6037 95.3608 75.331 95.571C75.0582 95.7812 74.8665 96.0057 74.7557 96.2443L73.8011 95.9034C73.9716 95.5057 74.1989 95.196 74.483 94.9744C74.7699 94.75 75.0824 94.5937 75.4205 94.5057C75.7614 94.4148 76.0966 94.3693 76.4261 94.3693C76.6364 94.3693 76.8778 94.3949 77.1506 94.446C77.4261 94.4943 77.6918 94.5952 77.9474 94.7486C78.206 94.902 78.4205 95.1335 78.5909 95.4432C78.7614 95.7528 78.8466 96.1676 78.8466 96.6875V101H77.8409V100.114H77.7898C77.7216 100.256 77.608 100.408 77.4489 100.57C77.2898 100.732 77.0781 100.869 76.8139 100.983C76.5497 101.097 76.2273 101.153 75.8466 101.153ZM76 100.25C76.3977 100.25 76.733 100.172 77.0057 100.016C77.2813 99.8594 77.4886 99.6577 77.6278 99.4105C77.7699 99.1634 77.8409 98.9034 77.8409 98.6307V97.7102C77.7983 97.7614 77.7045 97.8082 77.5597 97.8509C77.4176 97.8906 77.2528 97.9261 77.0653 97.9574C76.8807 97.9858 76.7003 98.0114 76.5241 98.0341C76.3509 98.054 76.2102 98.071 76.1023 98.0852C75.8409 98.1193 75.5966 98.1747 75.3693 98.2514C75.1449 98.3253 74.9631 98.4375 74.8239 98.5881C74.6875 98.7358 74.6193 98.9375 74.6193 99.1932C74.6193 99.5426 74.7486 99.8068 75.0071 99.9858C75.2685 100.162 75.5994 100.25 76 100.25ZM83.5288 94.4545V95.3068H80.1367V94.4545H83.5288ZM81.1254 92.8864H82.131V99.125C82.131 99.4091 82.1722 99.6222 82.2546 99.7642C82.3398 99.9034 82.4478 99.9972 82.5785 100.045C82.712 100.091 82.8526 100.114 83.0004 100.114C83.1112 100.114 83.2021 100.108 83.2731 100.097C83.3441 100.082 83.4009 100.071 83.4435 100.062L83.6481 100.966C83.5799 100.991 83.4847 101.017 83.3626 101.043C83.2404 101.071 83.0856 101.085 82.8981 101.085C82.614 101.085 82.3356 101.024 82.0629 100.902C81.793 100.78 81.5685 100.594 81.3896 100.344C81.2134 100.094 81.1254 99.7784 81.1254 99.3977V92.8864ZM87.8881 94.4545V95.3068H84.4961V94.4545H87.8881ZM85.4847 92.8864H86.4904V99.125C86.4904 99.4091 86.5316 99.6222 86.614 99.7642C86.6992 99.9034 86.8072 99.9972 86.9379 100.045C87.0714 100.091 87.212 100.114 87.3597 100.114C87.4705 100.114 87.5614 100.108 87.6325 100.097C87.7035 100.082 87.7603 100.071 87.8029 100.062L88.0075 100.966C87.9393 100.991 87.8441 101.017 87.7219 101.043C87.5998 101.071 87.445 101.085 87.2575 101.085C86.9734 101.085 86.695 101.024 86.4222 100.902C86.1523 100.78 85.9279 100.594 85.7489 100.344C85.5728 100.094 85.4847 99.7784 85.4847 99.3977V92.8864ZM89.4009 101V94.4545H90.3725V95.4432H90.4407C90.56 95.1193 90.7759 94.8565 91.0884 94.6548C91.4009 94.4531 91.7532 94.3523 92.1452 94.3523C92.2191 94.3523 92.3114 94.3537 92.4222 94.3565C92.533 94.3594 92.6168 94.3636 92.6737 94.3693V95.392C92.6396 95.3835 92.5614 95.3707 92.4393 95.3537C92.32 95.3338 92.1935 95.3239 92.06 95.3239C91.7418 95.3239 91.4577 95.3906 91.2077 95.5241C90.9606 95.6548 90.7646 95.8366 90.6197 96.0696C90.4776 96.2997 90.4066 96.5625 90.4066 96.858V101H89.4009ZM93.8658 101V94.4545H94.8714V101H93.8658ZM94.3771 93.3636C94.1811 93.3636 94.0121 93.2969 93.87 93.1634C93.7308 93.0298 93.6612 92.8693 93.6612 92.6818C93.6612 92.4943 93.7308 92.3338 93.87 92.2003C94.0121 92.0668 94.1811 92 94.3771 92C94.5732 92 94.7408 92.0668 94.88 92.2003C95.022 92.3338 95.093 92.4943 95.093 92.6818C95.093 92.8693 95.022 93.0298 94.88 93.1634C94.7408 93.2969 94.5732 93.3636 94.3771 93.3636ZM96.8498 101V92.2727H97.8555V95.4943H97.9407C98.0146 95.3807 98.1168 95.2358 98.2475 95.0597C98.381 94.8807 98.5714 94.7216 98.8185 94.5824C99.0685 94.4403 99.4066 94.3693 99.8327 94.3693C100.384 94.3693 100.87 94.5071 101.29 94.7827C101.711 95.0582 102.039 95.4489 102.275 95.9545C102.51 96.4602 102.628 97.0568 102.628 97.7443C102.628 98.4375 102.51 99.0384 102.275 99.5469C102.039 100.053 101.712 100.445 101.294 100.723C100.877 100.999 100.395 101.136 99.8498 101.136C99.4293 101.136 99.0927 101.067 98.8398 100.928C98.587 100.786 98.3924 100.625 98.256 100.446C98.1197 100.264 98.0146 100.114 97.9407 99.9943H97.8214V101H96.8498ZM97.8384 97.7273C97.8384 98.2216 97.9109 98.6577 98.0558 99.0355C98.2006 99.4105 98.4123 99.7045 98.6907 99.9176C98.9691 100.128 99.31 100.233 99.7134 100.233C100.134 100.233 100.485 100.122 100.766 99.9006C101.05 99.6761 101.263 99.375 101.405 98.9972C101.55 98.6165 101.623 98.1932 101.623 97.7273C101.623 97.267 101.551 96.8523 101.409 96.483C101.27 96.1108 101.059 95.8168 100.775 95.6009C100.493 95.3821 100.14 95.2727 99.7134 95.2727C99.3043 95.2727 98.9606 95.3764 98.6822 95.5838C98.4038 95.7884 98.1935 96.0753 98.0515 96.4446C97.9094 96.8111 97.8384 97.2386 97.8384 97.7273ZM108.292 98.3239V94.4545H109.297V101H108.292V99.892H108.223C108.07 100.224 107.831 100.507 107.507 100.74C107.184 100.97 106.775 101.085 106.28 101.085C105.871 101.085 105.507 100.996 105.189 100.817C104.871 100.635 104.621 100.362 104.439 99.9986C104.257 99.6321 104.167 99.1705 104.167 98.6136V94.4545H105.172V98.5455C105.172 99.0227 105.306 99.4034 105.573 99.6875C105.843 99.9716 106.186 100.114 106.604 100.114C106.854 100.114 107.108 100.05 107.367 99.9219C107.628 99.794 107.847 99.598 108.023 99.3338C108.202 99.0696 108.292 98.733 108.292 98.3239ZM113.986 94.4545V95.3068H110.594V94.4545H113.986ZM111.582 92.8864H112.588V99.125C112.588 99.4091 112.629 99.6222 112.712 99.7642C112.797 99.9034 112.905 99.9972 113.036 100.045C113.169 100.091 113.31 100.114 113.457 100.114C113.568 100.114 113.659 100.108 113.73 100.097C113.801 100.082 113.858 100.071 113.901 100.062L114.105 100.966C114.037 100.991 113.942 101.017 113.82 101.043C113.697 101.071 113.543 101.085 113.355 101.085C113.071 101.085 112.793 101.024 112.52 100.902C112.25 100.78 112.026 100.594 111.847 100.344C111.67 100.094 111.582 99.7784 111.582 99.3977V92.8864ZM118.173 101.136C117.542 101.136 116.998 100.997 116.54 100.719C116.086 100.438 115.735 100.045 115.488 99.5426C115.244 99.0369 115.121 98.4489 115.121 97.7784C115.121 97.108 115.244 96.517 115.488 96.0057C115.735 95.4915 116.079 95.0909 116.519 94.804C116.962 94.5142 117.479 94.3693 118.07 94.3693C118.411 94.3693 118.748 94.4261 119.08 94.5398C119.413 94.6534 119.715 94.8381 119.988 95.0938C120.261 95.3466 120.478 95.6818 120.64 96.0994C120.802 96.517 120.883 97.0312 120.883 97.642V98.0682H115.837V97.1989H119.86C119.86 96.8295 119.786 96.5 119.638 96.2102C119.494 95.9205 119.286 95.6918 119.016 95.5241C118.749 95.3565 118.434 95.2727 118.07 95.2727C117.67 95.2727 117.323 95.3722 117.031 95.571C116.741 95.767 116.518 96.0227 116.362 96.3381C116.205 96.6534 116.127 96.9915 116.127 97.3523V97.9318C116.127 98.4261 116.212 98.8452 116.383 99.1889C116.556 99.5298 116.796 99.7898 117.103 99.9688C117.41 100.145 117.766 100.233 118.173 100.233C118.437 100.233 118.675 100.196 118.888 100.122C119.104 100.045 119.29 99.9318 119.447 99.7812C119.603 99.6278 119.724 99.4375 119.809 99.2102L120.781 99.483C120.678 99.8125 120.506 100.102 120.265 100.352C120.023 100.599 119.725 100.793 119.37 100.932C119.015 101.068 118.616 101.136 118.173 101.136ZM127.049 95.9205L126.146 96.1761C126.089 96.0256 126.005 95.8793 125.894 95.7372C125.786 95.5923 125.638 95.473 125.451 95.3793C125.263 95.2855 125.023 95.2386 124.731 95.2386C124.33 95.2386 123.996 95.331 123.729 95.5156C123.465 95.6974 123.333 95.929 123.333 96.2102C123.333 96.4602 123.424 96.6577 123.606 96.8026C123.788 96.9474 124.072 97.0682 124.458 97.1648L125.43 97.4034C126.015 97.5455 126.451 97.7628 126.738 98.0554C127.025 98.3452 127.168 98.7187 127.168 99.1761C127.168 99.5511 127.06 99.8864 126.844 100.182C126.631 100.477 126.333 100.71 125.95 100.881C125.566 101.051 125.12 101.136 124.612 101.136C123.944 101.136 123.391 100.991 122.954 100.702C122.516 100.412 122.239 99.9886 122.123 99.4318L123.077 99.1932C123.168 99.5455 123.34 99.8097 123.593 99.9858C123.849 100.162 124.183 100.25 124.594 100.25C125.063 100.25 125.435 100.151 125.711 99.9517C125.989 99.75 126.129 99.5085 126.129 99.2273C126.129 99 126.049 98.8097 125.89 98.6562C125.731 98.5 125.487 98.3835 125.157 98.3068L124.066 98.0511C123.467 97.9091 123.026 97.6889 122.745 97.3906C122.467 97.0895 122.327 96.7131 122.327 96.2614C122.327 95.892 122.431 95.5653 122.638 95.2812C122.849 94.9972 123.134 94.7741 123.495 94.6122C123.859 94.4503 124.271 94.3693 124.731 94.3693C125.379 94.3693 125.887 94.5114 126.256 94.7955C126.629 95.0795 126.893 95.4545 127.049 95.9205ZM129.415 101.068C129.205 101.068 129.025 100.993 128.874 100.842C128.723 100.692 128.648 100.511 128.648 100.301C128.648 100.091 128.723 99.9105 128.874 99.7599C129.025 99.6094 129.205 99.5341 129.415 99.5341C129.625 99.5341 129.806 99.6094 129.956 99.7599C130.107 99.9105 130.182 100.091 130.182 100.301C130.182 100.44 130.147 100.568 130.076 100.685C130.007 100.801 129.915 100.895 129.799 100.966C129.685 101.034 129.557 101.068 129.415 101.068ZM129.415 96.2102C129.205 96.2102 129.025 96.1349 128.874 95.9844C128.723 95.8338 128.648 95.6534 128.648 95.4432C128.648 95.233 128.723 95.0526 128.874 94.902C129.025 94.7514 129.205 94.6761 129.415 94.6761C129.625 94.6761 129.806 94.7514 129.956 94.902C130.107 95.0526 130.182 95.233 130.182 95.4432C130.182 95.5824 130.147 95.7102 130.076 95.8267C130.007 95.9432 129.915 96.0369 129.799 96.108C129.685 96.1761 129.557 96.2102 129.415 96.2102Z" fill="black"/>
<path d="M30 535H45V550H30V535Z" fill="#E9EE00"/>
<path d="M56.9205 547V540.455H57.892V541.477H57.9773C58.1136 541.128 58.3338 540.857 58.6378 540.663C58.9418 540.467 59.3068 540.369 59.733 540.369C60.1648 540.369 60.5241 540.467 60.8111 540.663C61.1009 540.857 61.3267 541.128 61.4886 541.477H61.5568C61.7244 541.139 61.9759 540.871 62.3111 540.672C62.6463 540.47 63.0483 540.369 63.517 540.369C64.1023 540.369 64.581 540.553 64.9531 540.919C65.3253 541.283 65.5114 541.849 65.5114 542.619V547H64.5057V542.619C64.5057 542.136 64.3736 541.791 64.1094 541.584C63.8452 541.376 63.5341 541.273 63.1761 541.273C62.7159 541.273 62.3594 541.412 62.1065 541.69C61.8537 541.966 61.7273 542.315 61.7273 542.739V547H60.7045V542.517C60.7045 542.145 60.5838 541.845 60.3423 541.618C60.1009 541.388 59.7898 541.273 59.4091 541.273C59.1477 541.273 58.9034 541.342 58.6761 541.482C58.4517 541.621 58.2699 541.814 58.1307 542.061C57.9943 542.305 57.9261 542.588 57.9261 542.909V547H56.9205ZM70.0945 547.136C69.4638 547.136 68.9197 546.997 68.4624 546.719C68.0078 546.438 67.657 546.045 67.4098 545.543C67.1655 545.037 67.0433 544.449 67.0433 543.778C67.0433 543.108 67.1655 542.517 67.4098 542.006C67.657 541.491 68.0007 541.091 68.4411 540.804C68.8842 540.514 69.4013 540.369 69.9922 540.369C70.3331 540.369 70.6697 540.426 71.0021 540.54C71.3345 540.653 71.6371 540.838 71.9098 541.094C72.1825 541.347 72.3999 541.682 72.5618 542.099C72.7237 542.517 72.8047 543.031 72.8047 543.642V544.068H67.7592V543.199H71.782C71.782 542.83 71.7081 542.5 71.5604 542.21C71.4155 541.92 71.2081 541.692 70.9382 541.524C70.6712 541.357 70.3558 541.273 69.9922 541.273C69.5916 541.273 69.245 541.372 68.9524 541.571C68.6626 541.767 68.4396 542.023 68.2834 542.338C68.1271 542.653 68.049 542.991 68.049 543.352V543.932C68.049 544.426 68.1342 544.845 68.3047 545.189C68.478 545.53 68.718 545.79 69.0249 545.969C69.3317 546.145 69.6882 546.233 70.0945 546.233C70.3587 546.233 70.5973 546.196 70.8104 546.122C71.0263 546.045 71.2124 545.932 71.3686 545.781C71.5249 545.628 71.6456 545.437 71.7308 545.21L72.7024 545.483C72.6001 545.812 72.4283 546.102 72.1868 546.352C71.9453 546.599 71.647 546.793 71.2919 546.932C70.9368 547.068 70.5376 547.136 70.0945 547.136ZM77.1811 540.455V541.307H73.7891V540.455H77.1811ZM74.7777 538.886H75.7834V545.125C75.7834 545.409 75.8246 545.622 75.907 545.764C75.9922 545.903 76.1001 545.997 76.2308 546.045C76.3643 546.091 76.505 546.114 76.6527 546.114C76.7635 546.114 76.8544 546.108 76.9254 546.097C76.9964 546.082 77.0533 546.071 77.0959 546.062L77.3004 546.966C77.2322 546.991 77.1371 547.017 77.0149 547.043C76.8928 547.071 76.7379 547.085 76.5504 547.085C76.2663 547.085 75.9879 547.024 75.7152 546.902C75.4453 546.78 75.2209 546.594 75.0419 546.344C74.8658 546.094 74.7777 545.778 74.7777 545.398V538.886ZM79.8402 543.062V547H78.8345V538.273H79.8402V541.477H79.9254C80.0788 541.139 80.3089 540.871 80.6158 540.672C80.9254 540.47 81.3374 540.369 81.8516 540.369C82.2976 540.369 82.6882 540.459 83.0234 540.638C83.3587 540.814 83.6186 541.085 83.8033 541.452C83.9908 541.815 84.0845 542.278 84.0845 542.841V547H83.0788V542.909C83.0788 542.389 82.9439 541.987 82.674 541.703C82.407 541.416 82.0362 541.273 81.5618 541.273C81.2322 541.273 80.9368 541.342 80.6754 541.482C80.4169 541.621 80.2124 541.824 80.0618 542.091C79.9141 542.358 79.8402 542.682 79.8402 543.062ZM88.5835 547.136C87.9925 547.136 87.4741 546.996 87.0281 546.714C86.5849 546.433 86.2383 546.04 85.9883 545.534C85.7411 545.028 85.6175 544.437 85.6175 543.761C85.6175 543.08 85.7411 542.484 85.9883 541.976C86.2383 541.467 86.5849 541.072 87.0281 540.791C87.4741 540.51 87.9925 540.369 88.5835 540.369C89.1744 540.369 89.6914 540.51 90.1346 540.791C90.5806 541.072 90.9272 541.467 91.1744 541.976C91.4244 542.484 91.5494 543.08 91.5494 543.761C91.5494 544.437 91.4244 545.028 91.1744 545.534C90.9272 546.04 90.5806 546.433 90.1346 546.714C89.6914 546.996 89.1744 547.136 88.5835 547.136ZM88.5835 546.233C89.0323 546.233 89.4016 546.118 89.6914 545.888C89.9812 545.658 90.1957 545.355 90.3349 544.98C90.4741 544.605 90.5437 544.199 90.5437 543.761C90.5437 543.324 90.4741 542.916 90.3349 542.538C90.1957 542.161 89.9812 541.855 89.6914 541.622C89.4016 541.389 89.0323 541.273 88.5835 541.273C88.1346 541.273 87.7653 541.389 87.4755 541.622C87.1857 541.855 86.9712 542.161 86.832 542.538C86.6928 542.916 86.6232 543.324 86.6232 543.761C86.6232 544.199 86.6928 544.605 86.832 544.98C86.9712 545.355 87.1857 545.658 87.4755 545.888C87.7653 546.118 88.1346 546.233 88.5835 546.233ZM95.5561 547.136C95.0107 547.136 94.5291 546.999 94.1115 546.723C93.6939 546.445 93.3672 546.053 93.1314 545.547C92.8956 545.038 92.7777 544.438 92.7777 543.744C92.7777 543.057 92.8956 542.46 93.1314 541.955C93.3672 541.449 93.6953 541.058 94.1158 540.783C94.5362 540.507 95.022 540.369 95.5732 540.369C95.9993 540.369 96.3359 540.44 96.5831 540.582C96.8331 540.722 97.0234 540.881 97.1541 541.06C97.2876 541.236 97.3913 541.381 97.4652 541.494H97.5504V538.273H98.5561V547H97.5845V545.994H97.4652C97.3913 546.114 97.2862 546.264 97.1499 546.446C97.0135 546.625 96.8189 546.786 96.5661 546.928C96.3132 547.067 95.9766 547.136 95.5561 547.136ZM95.6925 546.233C96.0959 546.233 96.4368 546.128 96.7152 545.918C96.9936 545.705 97.2053 545.411 97.3501 545.036C97.495 544.658 97.5675 544.222 97.5675 543.727C97.5675 543.239 97.4964 542.811 97.3544 542.445C97.2124 542.075 97.0021 541.788 96.7237 541.584C96.4453 541.376 96.1016 541.273 95.6925 541.273C95.2663 541.273 94.9112 541.382 94.6271 541.601C94.3459 541.817 94.1342 542.111 93.9922 542.483C93.853 542.852 93.7834 543.267 93.7834 543.727C93.7834 544.193 93.8544 544.616 93.9964 544.997C94.1413 545.375 94.3544 545.676 94.6357 545.901C94.9197 546.122 95.272 546.233 95.6925 546.233ZM105.174 541.92L104.271 542.176C104.214 542.026 104.13 541.879 104.019 541.737C103.911 541.592 103.763 541.473 103.576 541.379C103.388 541.286 103.148 541.239 102.856 541.239C102.455 541.239 102.121 541.331 101.854 541.516C101.59 541.697 101.458 541.929 101.458 542.21C101.458 542.46 101.549 542.658 101.731 542.803C101.913 542.947 102.197 543.068 102.583 543.165L103.555 543.403C104.14 543.545 104.576 543.763 104.863 544.055C105.15 544.345 105.293 544.719 105.293 545.176C105.293 545.551 105.185 545.886 104.969 546.182C104.756 546.477 104.458 546.71 104.075 546.881C103.691 547.051 103.245 547.136 102.737 547.136C102.069 547.136 101.516 546.991 101.079 546.702C100.641 546.412 100.364 545.989 100.248 545.432L101.202 545.193C101.293 545.545 101.465 545.81 101.718 545.986C101.974 546.162 102.308 546.25 102.719 546.25C103.188 546.25 103.56 546.151 103.836 545.952C104.114 545.75 104.254 545.509 104.254 545.227C104.254 545 104.174 544.81 104.015 544.656C103.856 544.5 103.612 544.384 103.282 544.307L102.191 544.051C101.592 543.909 101.151 543.689 100.87 543.391C100.592 543.089 100.452 542.713 100.452 542.261C100.452 541.892 100.556 541.565 100.763 541.281C100.974 540.997 101.259 540.774 101.62 540.612C101.984 540.45 102.396 540.369 102.856 540.369C103.504 540.369 104.012 540.511 104.381 540.795C104.754 541.08 105.018 541.455 105.174 541.92ZM107.54 547.068C107.33 547.068 107.15 546.993 106.999 546.842C106.848 546.692 106.773 546.511 106.773 546.301C106.773 546.091 106.848 545.911 106.999 545.76C107.15 545.609 107.33 545.534 107.54 545.534C107.75 545.534 107.931 545.609 108.081 545.76C108.232 545.911 108.307 546.091 108.307 546.301C108.307 546.44 108.272 546.568 108.201 546.685C108.132 546.801 108.04 546.895 107.924 546.966C107.81 547.034 107.682 547.068 107.54 547.068ZM107.54 542.21C107.33 542.21 107.15 542.135 106.999 541.984C106.848 541.834 106.773 541.653 106.773 541.443C106.773 541.233 106.848 541.053 106.999 540.902C107.15 540.751 107.33 540.676 107.54 540.676C107.75 540.676 107.931 540.751 108.081 540.902C108.232 541.053 108.307 541.233 108.307 541.443C108.307 541.582 108.272 541.71 108.201 541.827C108.132 541.943 108.04 542.037 107.924 542.108C107.81 542.176 107.682 542.21 107.54 542.21Z" fill="black"/>
<path d="M65.8303 136L67.7621 124.364H71.8303C72.6409 124.364 73.2867 124.504 73.7678 124.784C74.2488 125.061 74.5784 125.434 74.7564 125.903C74.9344 126.369 74.9742 126.886 74.8757 127.455C74.7924 127.955 74.6352 128.367 74.4041 128.693C74.1768 129.019 73.9041 129.277 73.5859 129.466C73.2715 129.655 72.9439 129.795 72.603 129.886L72.5803 130C72.9287 130.023 73.264 130.148 73.5859 130.375C73.9079 130.602 74.156 130.928 74.3303 131.352C74.5045 131.777 74.5424 132.295 74.4439 132.909C74.3454 133.492 74.1238 134.017 73.7791 134.483C73.4344 134.949 72.9534 135.318 72.3359 135.591C71.7185 135.864 70.9515 136 70.0348 136H65.8303ZM67.4439 134.75H70.2393C71.1598 134.75 71.8435 134.572 72.2905 134.216C72.7412 133.856 73.0121 133.42 73.103 132.909C73.1636 132.515 73.12 132.152 72.9723 131.818C72.8284 131.481 72.5878 131.212 72.2507 131.011C71.9174 130.807 71.4969 130.705 70.9893 130.705H68.1257L67.4439 134.75ZM68.3303 129.477H70.9439C71.3681 129.477 71.7659 129.394 72.1371 129.227C72.5083 129.061 72.8189 128.826 73.0689 128.523C73.3189 128.22 73.4742 127.864 73.5348 127.455C73.6257 126.943 73.5234 126.509 73.228 126.153C72.9325 125.794 72.3984 125.614 71.6257 125.614H68.9666L68.3303 129.477ZM76.0547 136L77.5092 127.273H78.8047L78.5774 128.591H78.6683C78.8956 128.159 79.2422 127.809 79.7081 127.54C80.174 127.271 80.6683 127.136 81.1911 127.136C81.2933 127.136 81.4164 127.138 81.5604 127.142C81.7043 127.142 81.8161 127.148 81.8956 127.159L81.6683 128.523C81.6229 128.511 81.5206 128.494 81.3615 128.472C81.2024 128.445 81.032 128.432 80.8501 128.432C80.4259 128.432 80.0339 128.521 79.674 128.699C79.3142 128.873 79.013 129.116 78.7706 129.426C78.5282 129.733 78.3729 130.083 78.3047 130.477L77.3956 136H76.0547ZM84.5845 136.205C84.0315 136.205 83.5466 136.1 83.13 135.892C82.7133 135.68 82.4046 135.375 82.2038 134.977C82.0031 134.576 81.9482 134.091 82.0391 133.523C82.1262 133.023 82.2947 132.617 82.5447 132.307C82.7947 131.992 83.0978 131.746 83.4538 131.568C83.8137 131.386 84.2 131.252 84.6129 131.165C85.0296 131.074 85.4444 131.004 85.8572 130.955C86.3951 130.886 86.8326 130.833 87.1697 130.795C87.5069 130.758 87.7607 130.695 87.9311 130.608C88.1016 130.521 88.2057 130.371 88.2436 130.159V130.114C88.3345 129.557 88.2607 129.123 88.022 128.812C87.7834 128.498 87.3572 128.341 86.7436 128.341C86.1072 128.341 85.575 128.481 85.147 128.761C84.719 129.042 84.4027 129.341 84.1982 129.659L83.0163 129.205C83.3269 128.674 83.6982 128.261 84.13 127.966C84.5618 127.667 85.0144 127.458 85.4879 127.341C85.9614 127.22 86.4179 127.159 86.8572 127.159C87.1375 127.159 87.4538 127.193 87.8061 127.261C88.1584 127.326 88.4879 127.46 88.7947 127.665C89.1054 127.869 89.3383 128.178 89.4936 128.591C89.6527 129.004 89.6754 129.557 89.5618 130.25L88.6072 136H87.2663L87.4709 134.818H87.4027C87.2815 135.008 87.0959 135.21 86.8459 135.426C86.5997 135.642 86.2872 135.826 85.9084 135.977C85.5334 136.129 85.0921 136.205 84.5845 136.205ZM84.9709 135C85.5012 135 85.9652 134.896 86.3629 134.688C86.7644 134.479 87.0864 134.21 87.3288 133.881C87.575 133.551 87.7285 133.205 87.7891 132.841L87.9936 131.614C87.9254 131.682 87.791 131.744 87.5902 131.801C87.3894 131.854 87.1622 131.902 86.9084 131.943C86.6584 131.981 86.4141 132.015 86.1754 132.045C85.9406 132.072 85.7512 132.095 85.6072 132.114C85.2512 132.159 84.9122 132.233 84.5902 132.335C84.272 132.434 84.0031 132.583 83.7834 132.784C83.5675 132.981 83.433 133.25 83.38 133.591C83.3004 134.057 83.4122 134.409 83.7152 134.648C84.0182 134.883 84.4368 135 84.9709 135ZM93.2592 130.75L92.3956 136H91.0547L92.5092 127.273H93.8047L93.5774 128.636H93.6911C93.9638 128.193 94.3331 127.837 94.799 127.568C95.2649 127.295 95.8274 127.159 96.4865 127.159C97.0698 127.159 97.5623 127.28 97.9638 127.523C98.3691 127.761 98.6551 128.125 98.8217 128.614C98.9922 129.098 99.0168 129.712 98.8956 130.455L97.9638 136H96.6229L97.532 130.545C97.6456 129.864 97.5566 129.33 97.2649 128.943C96.977 128.557 96.5206 128.364 95.8956 128.364C95.4638 128.364 95.0642 128.456 94.6967 128.642C94.3331 128.828 94.0244 129.098 93.7706 129.455C93.5206 129.811 93.3501 130.242 93.2592 130.75ZM103.698 136.182C102.967 136.182 102.353 135.998 101.857 135.631C101.361 135.259 101.011 134.737 100.806 134.062C100.605 133.384 100.581 132.583 100.732 131.659C100.888 130.742 101.177 129.947 101.602 129.273C102.03 128.598 102.554 128.078 103.175 127.71C103.797 127.343 104.475 127.159 105.21 127.159C105.778 127.159 106.211 127.254 106.511 127.443C106.814 127.629 107.033 127.841 107.17 128.08C107.306 128.314 107.41 128.508 107.482 128.659H107.596L108.312 124.364H109.653L107.721 136H106.425L106.653 134.659H106.494C106.369 134.818 106.194 135.019 105.971 135.261C105.747 135.5 105.452 135.714 105.085 135.903C104.721 136.089 104.259 136.182 103.698 136.182ZM104.028 134.977C104.566 134.977 105.047 134.837 105.471 134.557C105.899 134.273 106.255 133.881 106.539 133.381C106.823 132.877 107.02 132.295 107.13 131.636C107.24 130.985 107.236 130.415 107.119 129.926C107.001 129.434 106.776 129.051 106.442 128.778C106.109 128.502 105.668 128.364 105.119 128.364C104.554 128.364 104.064 128.509 103.647 128.801C103.23 129.089 102.891 129.481 102.63 129.977C102.369 130.47 102.187 131.023 102.085 131.636C101.982 132.258 101.98 132.822 102.079 133.33C102.177 133.833 102.386 134.235 102.704 134.534C103.026 134.83 103.467 134.977 104.028 134.977Z" fill="black"/>
<path d="M67.6839 194.364H69.3658L71.7294 204.023H71.8658L77.4112 194.364H79.093L77.1612 206H75.843L77.3203 197.159H77.2067L72.093 206H70.8203L68.6612 197.159H68.5476L67.0703 206H65.7521L67.6839 194.364ZM83.407 206.182C82.6039 206.182 81.9316 205.991 81.3899 205.608C80.8482 205.225 80.4657 204.689 80.2422 204C80.0225 203.311 79.9865 202.508 80.1342 201.591C80.2782 200.697 80.5642 199.919 80.9922 199.256C81.424 198.589 81.96 198.074 82.6001 197.71C83.2441 197.343 83.9524 197.159 84.7251 197.159C85.5282 197.159 86.1986 197.352 86.7365 197.739C87.2782 198.121 87.6607 198.659 87.8842 199.352C88.1077 200.042 88.1456 200.848 87.9979 201.773C87.8539 202.659 87.5642 203.434 87.1286 204.097C86.6967 204.756 86.1607 205.269 85.5206 205.636C84.8842 206 84.1797 206.182 83.407 206.182ZM83.4297 204.977C84.0433 204.977 84.5755 204.82 85.0263 204.506C85.4808 204.191 85.8482 203.777 86.1286 203.261C86.4126 202.746 86.6039 202.189 86.7024 201.591C86.7933 201.023 86.7895 200.494 86.6911 200.006C86.5926 199.513 86.3823 199.117 86.0604 198.818C85.7384 198.515 85.2857 198.364 84.7024 198.364C84.0888 198.364 83.5528 198.523 83.0945 198.841C82.6399 199.159 82.2725 199.578 81.9922 200.097C81.7119 200.616 81.5244 201.174 81.4297 201.773C81.3388 202.341 81.3407 202.869 81.4354 203.358C81.5339 203.843 81.7441 204.235 82.0661 204.534C82.3918 204.83 82.8464 204.977 83.4297 204.977ZM92.6357 206.182C91.9046 206.182 91.291 205.998 90.7947 205.631C90.2985 205.259 89.9482 204.737 89.7436 204.062C89.5429 203.384 89.5182 202.583 89.6697 201.659C89.825 200.742 90.1148 199.947 90.5391 199.273C90.9671 198.598 91.4917 198.078 92.1129 197.71C92.7341 197.343 93.4122 197.159 94.147 197.159C94.7152 197.159 95.1489 197.254 95.4482 197.443C95.7512 197.629 95.9709 197.841 96.1072 198.08C96.2436 198.314 96.3478 198.508 96.4197 198.659H96.5334L97.2493 194.364H98.5902L96.6584 206H95.3629L95.5902 204.659H95.4311C95.3061 204.818 95.1319 205.019 94.9084 205.261C94.6849 205.5 94.3894 205.714 94.022 205.903C93.6584 206.089 93.1963 206.182 92.6357 206.182ZM92.9652 204.977C93.5031 204.977 93.9841 204.837 94.4084 204.557C94.8364 204.273 95.1925 203.881 95.4766 203.381C95.7607 202.877 95.9576 202.295 96.0675 201.636C96.1773 200.985 96.1735 200.415 96.0561 199.926C95.9387 199.434 95.7133 199.051 95.38 198.778C95.0466 198.502 94.6054 198.364 94.0561 198.364C93.4917 198.364 93.0012 198.509 92.5845 198.801C92.1679 199.089 91.8288 199.481 91.5675 199.977C91.3061 200.47 91.1243 201.023 91.022 201.636C90.9197 202.258 90.9179 202.822 91.0163 203.33C91.1148 203.833 91.3232 204.235 91.6413 204.534C91.9633 204.83 92.4046 204.977 92.9652 204.977ZM102.925 206.182C102.088 206.182 101.397 205.996 100.852 205.625C100.306 205.25 99.9254 204.727 99.7095 204.057C99.4936 203.383 99.4595 202.598 99.6072 201.705C99.755 200.811 100.049 200.023 100.488 199.341C100.927 198.655 101.475 198.121 102.13 197.739C102.785 197.352 103.505 197.159 104.289 197.159C104.744 197.159 105.181 197.235 105.602 197.386C106.022 197.538 106.386 197.784 106.692 198.125C106.999 198.462 107.213 198.909 107.335 199.466C107.456 200.023 107.448 200.708 107.312 201.523L107.221 202.091H100.494L100.675 200.932H106.039C106.126 200.439 106.103 200 105.971 199.614C105.842 199.227 105.617 198.922 105.295 198.699C104.977 198.475 104.573 198.364 104.085 198.364C103.581 198.364 103.111 198.5 102.675 198.773C102.24 199.042 101.876 199.383 101.585 199.795C101.293 200.205 101.111 200.621 101.039 201.045L100.88 202.045C100.766 202.769 100.783 203.345 100.931 203.773C101.083 204.201 101.346 204.509 101.721 204.699C102.096 204.884 102.566 204.977 103.13 204.977C103.49 204.977 103.821 204.928 104.124 204.83C104.427 204.727 104.698 204.576 104.937 204.375C105.175 204.17 105.376 203.917 105.539 203.614L106.766 203.977C106.558 204.417 106.264 204.803 105.886 205.136C105.511 205.466 105.071 205.723 104.567 205.909C104.067 206.091 103.52 206.182 102.925 206.182ZM111.906 194.364L109.974 206H108.633L110.565 194.364H111.906Z" fill="black"/>
<path d="M244.606 198H243.219C243.204 197.595 243.121 197.239 242.969 196.932C242.818 196.625 242.613 196.367 242.356 196.159C242.102 195.947 241.81 195.788 241.481 195.682C241.151 195.576 240.799 195.523 240.424 195.523C239.704 195.523 239.022 195.706 238.379 196.074C237.735 196.437 237.183 196.973 236.725 197.682C236.267 198.386 235.954 199.25 235.788 200.273C235.621 201.265 235.646 202.1 235.862 202.778C236.077 203.456 236.435 203.97 236.935 204.318C237.435 204.667 238.03 204.841 238.719 204.841C239.117 204.841 239.507 204.788 239.89 204.682C240.276 204.576 240.636 204.419 240.969 204.21C241.307 203.998 241.606 203.739 241.867 203.432C242.132 203.121 242.341 202.765 242.492 202.364H243.901C243.693 202.958 243.411 203.491 243.055 203.96C242.702 204.43 242.295 204.83 241.833 205.159C241.371 205.485 240.873 205.733 240.339 205.903C239.805 206.074 239.25 206.159 238.674 206.159C237.666 206.159 236.808 205.913 236.1 205.42C235.396 204.924 234.892 204.223 234.589 203.318C234.29 202.409 234.242 201.333 234.447 200.091C234.651 198.879 235.043 197.833 235.623 196.955C236.202 196.072 236.913 195.394 237.754 194.92C238.594 194.443 239.507 194.205 240.492 194.205C241.083 194.205 241.627 194.29 242.123 194.46C242.619 194.631 243.051 194.881 243.418 195.21C243.786 195.536 244.072 195.934 244.276 196.403C244.485 196.869 244.594 197.402 244.606 198ZM248.985 206.182C248.182 206.182 247.51 205.991 246.968 205.608C246.426 205.225 246.044 204.689 245.82 204C245.601 203.311 245.565 202.508 245.712 201.591C245.856 200.697 246.142 199.919 246.57 199.256C247.002 198.589 247.538 198.074 248.178 197.71C248.822 197.343 249.531 197.159 250.303 197.159C251.106 197.159 251.777 197.352 252.315 197.739C252.856 198.121 253.239 198.659 253.462 199.352C253.686 200.042 253.724 200.848 253.576 201.773C253.432 202.659 253.142 203.434 252.707 204.097C252.275 204.756 251.739 205.269 251.099 205.636C250.462 206 249.758 206.182 248.985 206.182ZM249.008 204.977C249.621 204.977 250.154 204.82 250.604 204.506C251.059 204.191 251.426 203.777 251.707 203.261C251.991 202.746 252.182 202.189 252.281 201.591C252.371 201.023 252.368 200.494 252.269 200.006C252.171 199.513 251.96 199.117 251.638 198.818C251.317 198.515 250.864 198.364 250.281 198.364C249.667 198.364 249.131 198.523 248.673 198.841C248.218 199.159 247.851 199.578 247.57 200.097C247.29 200.616 247.103 201.174 247.008 201.773C246.917 202.341 246.919 202.869 247.013 203.358C247.112 203.843 247.322 204.235 247.644 204.534C247.97 204.83 248.424 204.977 249.008 204.977ZM258.202 194.364L256.271 206H254.93L256.862 194.364H258.202ZM262.329 206.182C261.526 206.182 260.853 205.991 260.312 205.608C259.77 205.225 259.388 204.689 259.164 204C258.944 203.311 258.908 202.508 259.056 201.591C259.2 200.697 259.486 199.919 259.914 199.256C260.346 198.589 260.882 198.074 261.522 197.71C262.166 197.343 262.874 197.159 263.647 197.159C264.45 197.159 265.121 197.352 265.658 197.739C266.2 198.121 266.583 198.659 266.806 199.352C267.03 200.042 267.067 200.848 266.92 201.773C266.776 202.659 266.486 203.434 266.05 204.097C265.619 204.756 265.083 205.269 264.442 205.636C263.806 206 263.102 206.182 262.329 206.182ZM262.352 204.977C262.965 204.977 263.497 204.82 263.948 204.506C264.403 204.191 264.77 203.777 265.05 203.261C265.335 202.746 265.526 202.189 265.624 201.591C265.715 201.023 265.711 200.494 265.613 200.006C265.514 199.513 265.304 199.117 264.982 198.818C264.66 198.515 264.208 198.364 263.624 198.364C263.011 198.364 262.475 198.523 262.016 198.841C261.562 199.159 261.194 199.578 260.914 200.097C260.634 200.616 260.446 201.174 260.352 201.773C260.261 202.341 260.263 202.869 260.357 203.358C260.456 203.843 260.666 204.235 260.988 204.534C261.314 204.83 261.768 204.977 262.352 204.977ZM268.273 206L269.728 197.273H271.023L270.796 198.591H270.887C271.114 198.159 271.461 197.809 271.927 197.54C272.393 197.271 272.887 197.136 273.41 197.136C273.512 197.136 273.635 197.138 273.779 197.142C273.923 197.142 274.035 197.148 274.114 197.159L273.887 198.523C273.842 198.511 273.739 198.494 273.58 198.472C273.421 198.445 273.251 198.432 273.069 198.432C272.645 198.432 272.253 198.521 271.893 198.699C271.533 198.873 271.232 199.116 270.989 199.426C270.747 199.733 270.592 200.083 270.523 200.477L269.614 206H268.273Z" fill="black"/>
<path d="M233.713 135L235.645 123.364H239.577C240.486 123.364 241.205 123.517 241.736 123.824C242.27 124.131 242.632 124.553 242.821 125.091C243.014 125.629 243.054 126.242 242.94 126.932C242.827 127.614 242.584 128.22 242.213 128.75C241.846 129.28 241.346 129.697 240.713 130C240.084 130.303 239.319 130.455 238.418 130.455H235.236L235.463 129.182H238.599C239.221 129.182 239.736 129.091 240.145 128.909C240.554 128.727 240.872 128.468 241.099 128.131C241.327 127.794 241.478 127.394 241.554 126.932C241.63 126.462 241.609 126.055 241.491 125.71C241.378 125.362 241.145 125.093 240.793 124.903C240.444 124.71 239.955 124.614 239.327 124.614H236.849L235.122 135H233.713ZM240.054 129.773L242.054 135H240.418L238.463 129.773H240.054ZM247.308 135.182C246.471 135.182 245.78 134.996 245.234 134.625C244.689 134.25 244.308 133.727 244.092 133.057C243.876 132.383 243.842 131.598 243.99 130.705C244.138 129.811 244.431 129.023 244.871 128.341C245.31 127.655 245.857 127.121 246.513 126.739C247.168 126.352 247.888 126.159 248.672 126.159C249.126 126.159 249.564 126.235 249.984 126.386C250.405 126.538 250.768 126.784 251.075 127.125C251.382 127.462 251.596 127.909 251.717 128.466C251.839 129.023 251.831 129.708 251.695 130.523L251.604 131.091H244.876L245.058 129.932H250.422C250.509 129.439 250.486 129 250.354 128.614C250.225 128.227 250 127.922 249.678 127.699C249.359 127.475 248.956 127.364 248.467 127.364C247.964 127.364 247.494 127.5 247.058 127.773C246.623 128.042 246.259 128.383 245.967 128.795C245.676 129.205 245.494 129.621 245.422 130.045L245.263 131.045C245.149 131.769 245.166 132.345 245.314 132.773C245.465 133.201 245.729 133.509 246.104 133.699C246.479 133.884 246.948 133.977 247.513 133.977C247.873 133.977 248.204 133.928 248.507 133.83C248.81 133.727 249.081 133.576 249.32 133.375C249.558 133.17 249.759 132.917 249.922 132.614L251.149 132.977C250.941 133.417 250.647 133.803 250.268 134.136C249.893 134.466 249.454 134.723 248.95 134.909C248.45 135.091 247.903 135.182 247.308 135.182ZM258.357 126.273L258.175 127.409H253.47L253.652 126.273H258.357ZM253.607 135L255.266 125.068C255.341 124.568 255.523 124.152 255.811 123.818C256.103 123.485 256.449 123.235 256.851 123.068C257.256 122.902 257.667 122.818 258.084 122.818C258.413 122.818 258.677 122.845 258.874 122.898C259.074 122.951 259.22 123 259.311 123.045L258.743 124.205C258.675 124.182 258.584 124.153 258.47 124.119C258.36 124.085 258.209 124.068 258.016 124.068C257.572 124.068 257.235 124.18 257.004 124.403C256.773 124.627 256.618 124.955 256.538 125.386L254.947 135H253.607ZM262.058 135.182C261.221 135.182 260.53 134.996 259.984 134.625C259.439 134.25 259.058 133.727 258.842 133.057C258.626 132.383 258.592 131.598 258.74 130.705C258.888 129.811 259.181 129.023 259.621 128.341C260.06 127.655 260.607 127.121 261.263 126.739C261.918 126.352 262.638 126.159 263.422 126.159C263.876 126.159 264.314 126.235 264.734 126.386C265.155 126.538 265.518 126.784 265.825 127.125C266.132 127.462 266.346 127.909 266.467 128.466C266.589 129.023 266.581 129.708 266.445 130.523L266.354 131.091H259.626L259.808 129.932H265.172C265.259 129.439 265.236 129 265.104 128.614C264.975 128.227 264.75 127.922 264.428 127.699C264.109 127.475 263.706 127.364 263.217 127.364C262.714 127.364 262.244 127.5 261.808 127.773C261.373 128.042 261.009 128.383 260.717 128.795C260.426 129.205 260.244 129.621 260.172 130.045L260.013 131.045C259.899 131.769 259.916 132.345 260.064 132.773C260.215 133.201 260.479 133.509 260.854 133.699C261.229 133.884 261.698 133.977 262.263 133.977C262.623 133.977 262.954 133.928 263.257 133.83C263.56 133.727 263.831 133.576 264.07 133.375C264.308 133.17 264.509 132.917 264.672 132.614L265.899 132.977C265.691 133.417 265.397 133.803 265.018 134.136C264.643 134.466 264.204 134.723 263.7 134.909C263.2 135.091 262.653 135.182 262.058 135.182ZM267.766 135L269.22 126.273H270.516L270.288 127.591H270.379C270.607 127.159 270.953 126.809 271.419 126.54C271.885 126.271 272.379 126.136 272.902 126.136C273.004 126.136 273.127 126.138 273.271 126.142C273.415 126.142 273.527 126.148 273.607 126.159L273.379 127.523C273.334 127.511 273.232 127.494 273.072 127.472C272.913 127.445 272.743 127.432 272.561 127.432C272.137 127.432 271.745 127.521 271.385 127.699C271.025 127.873 270.724 128.116 270.482 128.426C270.239 128.733 270.084 129.083 270.016 129.477L269.107 135H267.766ZM277.121 135.182C276.284 135.182 275.592 134.996 275.047 134.625C274.501 134.25 274.121 133.727 273.905 133.057C273.689 132.383 273.655 131.598 273.803 130.705C273.95 129.811 274.244 129.023 274.683 128.341C275.123 127.655 275.67 127.121 276.325 126.739C276.981 126.352 277.7 126.159 278.484 126.159C278.939 126.159 279.376 126.235 279.797 126.386C280.217 126.538 280.581 126.784 280.888 127.125C281.195 127.462 281.409 127.909 281.53 128.466C281.651 129.023 281.643 129.708 281.507 130.523L281.416 131.091H274.689L274.871 129.932H280.234C280.321 129.439 280.299 129 280.166 128.614C280.037 128.227 279.812 127.922 279.49 127.699C279.172 127.475 278.768 127.364 278.28 127.364C277.776 127.364 277.306 127.5 276.871 127.773C276.435 128.042 276.071 128.383 275.78 128.795C275.488 129.205 275.306 129.621 275.234 130.045L275.075 131.045C274.962 131.769 274.979 132.345 275.126 132.773C275.278 133.201 275.541 133.509 275.916 133.699C276.291 133.884 276.761 133.977 277.325 133.977C277.685 133.977 278.017 133.928 278.32 133.83C278.623 133.727 278.893 133.576 279.132 133.375C279.371 133.17 279.571 132.917 279.734 132.614L280.962 132.977C280.753 133.417 280.46 133.803 280.081 134.136C279.706 134.466 279.267 134.723 278.763 134.909C278.263 135.091 277.715 135.182 277.121 135.182ZM285.033 129.75L284.169 135H282.828L284.283 126.273H285.578L285.351 127.636H285.464C285.737 127.193 286.107 126.837 286.572 126.568C287.038 126.295 287.601 126.159 288.26 126.159C288.843 126.159 289.336 126.28 289.737 126.523C290.143 126.761 290.429 127.125 290.595 127.614C290.766 128.098 290.79 128.712 290.669 129.455L289.737 135H288.396L289.305 129.545C289.419 128.864 289.33 128.33 289.038 127.943C288.75 127.557 288.294 127.364 287.669 127.364C287.237 127.364 286.838 127.456 286.47 127.642C286.107 127.828 285.798 128.098 285.544 128.455C285.294 128.811 285.124 129.242 285.033 129.75ZM295.71 135.182C294.888 135.182 294.214 134.989 293.688 134.602C293.165 134.216 292.801 133.684 292.597 133.006C292.392 132.328 292.362 131.553 292.506 130.682C292.65 129.795 292.941 129.013 293.381 128.335C293.82 127.653 294.367 127.121 295.023 126.739C295.678 126.352 296.4 126.159 297.188 126.159C297.801 126.159 298.335 126.273 298.79 126.5C299.244 126.727 299.595 127.045 299.841 127.455C300.087 127.864 300.203 128.341 300.188 128.886H298.847C298.809 128.489 298.638 128.136 298.335 127.83C298.036 127.519 297.593 127.364 297.006 127.364C296.483 127.364 296.002 127.5 295.562 127.773C295.123 128.042 294.754 128.422 294.455 128.915C294.155 129.403 293.953 129.977 293.847 130.636C293.733 131.311 293.742 131.898 293.875 132.398C294.008 132.898 294.248 133.286 294.597 133.562C294.945 133.839 295.384 133.977 295.915 133.977C296.263 133.977 296.589 133.917 296.892 133.795C297.195 133.674 297.464 133.5 297.699 133.273C297.934 133.045 298.119 132.773 298.256 132.455H299.597C299.43 132.97 299.163 133.434 298.795 133.847C298.428 134.256 297.983 134.581 297.46 134.824C296.938 135.062 296.354 135.182 295.71 135.182ZM304.761 135.182C303.924 135.182 303.233 134.996 302.688 134.625C302.142 134.25 301.761 133.727 301.545 133.057C301.33 132.383 301.295 131.598 301.443 130.705C301.591 129.811 301.884 129.023 302.324 128.341C302.763 127.655 303.311 127.121 303.966 126.739C304.621 126.352 305.341 126.159 306.125 126.159C306.58 126.159 307.017 126.235 307.438 126.386C307.858 126.538 308.222 126.784 308.528 127.125C308.835 127.462 309.049 127.909 309.17 128.466C309.292 129.023 309.284 129.708 309.148 130.523L309.057 131.091H302.33L302.511 129.932H307.875C307.962 129.439 307.939 129 307.807 128.614C307.678 128.227 307.453 127.922 307.131 127.699C306.813 127.475 306.409 127.364 305.92 127.364C305.417 127.364 304.947 127.5 304.511 127.773C304.076 128.042 303.712 128.383 303.42 128.795C303.129 129.205 302.947 129.621 302.875 130.045L302.716 131.045C302.602 131.769 302.619 132.345 302.767 132.773C302.919 133.201 303.182 133.509 303.557 133.699C303.932 133.884 304.402 133.977 304.966 133.977C305.326 133.977 305.657 133.928 305.96 133.83C306.263 133.727 306.534 133.576 306.773 133.375C307.011 133.17 307.212 132.917 307.375 132.614L308.602 132.977C308.394 133.417 308.1 133.803 307.722 134.136C307.347 134.466 306.907 134.723 306.403 134.909C305.903 135.091 305.356 135.182 304.761 135.182Z" fill="black"/>
<rect x="30" y="246" width="360" height="280" fill="white"/>
</svg>
