<svg width="68" height="68" viewBox="0 0 68 68" fill="none" xmlns="http://www.w3.org/2000/svg">
<circle cx="34" cy="34" r="32" fill="#E9EE00" stroke="#ABAE00" stroke-width="4"/>
<path d="M56.5 34C56.5 36.9547 55.918 39.8806 54.7873 42.6104C53.6566 45.3402 51.9992 47.8206 49.9099 49.9099C47.8206 51.9992 45.3402 53.6566 42.6104 54.7873C39.8806 55.918 36.9547 56.5 34 56.5C31.0453 56.5 28.1194 55.918 25.3896 54.7873C22.6598 53.6566 20.1794 51.9992 18.0901 49.9099C16.0008 47.8206 14.3434 45.3402 13.2127 42.6104C12.082 39.8806 11.5 36.9547 11.5 34C11.5 28.0326 13.8705 22.3097 18.0901 18.0901C22.3097 13.8705 28.0326 11.5 34 11.5C39.9674 11.5 45.6903 13.8705 49.9099 18.0901C54.1295 22.3097 56.5 28.0326 56.5 34Z" stroke="black" stroke-width="2" stroke-linecap="round" stroke-linejoin="round"/>
<path d="M26.5 29C26.5 28.337 26.7634 27.7011 27.2322 27.2322C27.7011 26.7634 28.337 26.5 29 26.5H39C39.663 26.5 40.2989 26.7634 40.7678 27.2322C41.2366 27.7011 41.5 28.337 41.5 29V39C41.5 39.663 41.2366 40.2989 40.7678 40.7678C40.2989 41.2366 39.663 41.5 39 41.5H29C28.337 41.5 27.7011 41.2366 27.2322 40.7678C26.7634 40.2989 26.5 39.663 26.5 39V29Z" stroke="black" stroke-width="2" stroke-linecap="round" stroke-linejoin="round"/>
</svg>
