<svg width="50" height="50" viewBox="0 0 50 50" fill="none" xmlns="http://www.w3.org/2000/svg">
<circle cx="25" cy="25" r="24.5" fill="#91A1AC" stroke="#F4DC00"/>
<path d="M40.1637 31.7887C37.0948 33.0229 33.7308 33.3278 30.49 32.6657C27.2491 32.0036 24.2743 30.4036 21.9353 28.0647C19.5964 25.7257 17.9964 22.7509 17.3343 19.51C16.6722 16.2692 16.9771 12.9052 18.2113 9.83624C14.577 11.3001 11.5651 13.9826 9.69186 17.4238C7.81867 20.8651 7.20086 24.8508 7.94434 28.6976C8.68782 32.5445 10.7463 36.0129 13.7668 38.5083C16.7874 41.0038 20.582 42.3708 24.5 42.375C27.8692 42.3751 31.1614 41.367 33.9529 39.4804C36.7444 37.5938 38.9074 34.915 40.1637 31.7887Z" stroke="black" stroke-width="2" stroke-linecap="round" stroke-linejoin="round"/>
</svg>
