<svg width="68" height="68" viewBox="0 0 68 68" fill="none" xmlns="http://www.w3.org/2000/svg">
<circle cx="34" cy="34" r="32" fill="#E9EE00" stroke="#ABAE00" stroke-width="4"/>
<path d="M40.88 31.92L32.8875 26.59C32.5107 26.3386 32.0726 26.1943 31.62 26.1725C31.1675 26.1507 30.7176 26.2524 30.3184 26.4665C29.9191 26.6806 29.5856 26.9992 29.3534 27.3882C29.1212 27.7772 28.999 28.222 29 28.675V39.3325C28.9999 39.7851 29.1227 40.2292 29.3553 40.6175C29.5879 41.0058 29.9215 41.3237 30.3206 41.5372C30.7197 41.7507 31.1692 41.8519 31.6213 41.8299C32.0734 41.808 32.511 41.6637 32.8875 41.4125L40.88 36.0825C41.2224 35.8542 41.5031 35.5449 41.6973 35.182C41.8915 34.8192 41.9931 34.414 41.9931 34.0025C41.9931 33.591 41.8915 33.1858 41.6973 32.823C41.5031 32.4601 41.2224 32.1508 40.88 31.9225V31.92Z" stroke="black" stroke-width="2" stroke-linecap="round" stroke-linejoin="round"/>
<path d="M56.5 34C56.5 36.9547 55.918 39.8806 54.7873 42.6104C53.6566 45.3402 51.9992 47.8206 49.9099 49.9099C47.8206 51.9992 45.3402 53.6566 42.6104 54.7873C39.8806 55.918 36.9547 56.5 34 56.5C31.0453 56.5 28.1194 55.918 25.3896 54.7873C22.6598 53.6566 20.1794 51.9992 18.0901 49.9099C16.0008 47.8206 14.3434 45.3402 13.2127 42.6104C12.082 39.8806 11.5 36.9547 11.5 34C11.5 28.0326 13.8705 22.3097 18.0901 18.0901C22.3097 13.8705 28.0326 11.5 34 11.5C39.9674 11.5 45.6903 13.8705 49.9099 18.0901C54.1295 22.3097 56.5 28.0326 56.5 34Z" stroke="black" stroke-width="2" stroke-linecap="round" stroke-linejoin="round"/>
</svg>
