<svg width="1019" height="48" viewBox="0 0 1019 48" fill="none" xmlns="http://www.w3.org/2000/svg">
<path d="M1018 1H1V47H1018V1Z" fill="#333333" stroke="black" stroke-width="0.3"/>
<path d="M14 24.5V21H39V24.5H14Z" fill="#BC8700" stroke="black" stroke-width="0.3"/>
<path d="M314 24.5V21H339V24.5H314Z" fill="#BC8700" stroke="black" stroke-width="0.3"/>
<path d="M114 24.5V21H139V24.5H114Z" fill="#BC8700" stroke="black" stroke-width="0.3"/>
<path d="M414 24.5V21H439V24.5H414Z" fill="#BC8700" stroke="black" stroke-width="0.3"/>
<path d="M214 24.5V21H239V24.5H214Z" fill="#BC8700" stroke="black" stroke-width="0.3"/>
<path d="M514 24.5V21H539V24.5H514Z" fill="#BC8700" stroke="black" stroke-width="0.3"/>
<path d="M664 24.5V21H689V24.5H664Z" fill="#BC8700" stroke="black" stroke-width="0.3"/>
<path d="M814 24.5V21H839V24.5H814Z" fill="#BC8700" stroke="black" stroke-width="0.3"/>
<path d="M914 24.5V21H939V24.5H914Z" fill="#BC8700" stroke="black" stroke-width="0.3"/>
<path d="M64 24.5V21H89V24.5H64Z" fill="#BC8700" stroke="black" stroke-width="0.3"/>
<path d="M364 24.5V21H389V24.5H364Z" fill="#BC8700" stroke="black" stroke-width="0.3"/>
<path d="M164 24.5V21H189V24.5H164Z" fill="#BC8700" stroke="black" stroke-width="0.3"/>
<path d="M464 24.5V21H489V24.5H464Z" fill="#BC8700" stroke="black" stroke-width="0.3"/>
<path d="M614 24.5V21H639V24.5H614Z" fill="#BC8700" stroke="black" stroke-width="0.3"/>
<path d="M764 24.5V21H789V24.5H764Z" fill="#BC8700" stroke="black" stroke-width="0.3"/>
<path d="M264 24.5V21H289V24.5H264Z" fill="#BC8700" stroke="black" stroke-width="0.3"/>
<path d="M564 24.5V21H589V24.5H564Z" fill="#BC8700" stroke="black" stroke-width="0.3"/>
<path d="M714 24.5V21H739V24.5H714Z" fill="#BC8700" stroke="black" stroke-width="0.3"/>
<path d="M864 24.5V21H889V24.5H864Z" fill="#BC8700" stroke="black" stroke-width="0.3"/>
<path d="M964 24.5V21H989V24.5H964Z" fill="#BC8700" stroke="black" stroke-width="0.3"/>
</svg>
