<svg width="1021" height="191" viewBox="0 0 1021 191" fill="none" xmlns="http://www.w3.org/2000/svg">
<path d="M1020 189.5H1.59277V68L30.6393 72.5L41.9023 77L59.0931 84.5L87.5468 96L123.707 111L143.269 112.5L171.723 115L198.991 117L229.816 119.5C235.151 120.5 246.058 123 247.006 125C247.955 127 250.168 125.833 251.156 125L263.012 115C265.383 110.6 270.323 109.833 272.496 110C273.682 110.167 276.764 110.8 279.61 112C282.455 113.2 285.933 112.5 287.316 112L353.115 71.5L367.342 63C373.981 57 392.634 60.5 401.131 63L408.837 64.5L420.693 67C423.262 67.5 429.585 69 434.327 71C439.069 73 444.997 70.8333 447.368 69.5L453.889 64L478.786 45.5L503.09 28L538.657 2L557.627 13.5L620.462 50.5L653.658 70.5H656.622C657.57 70.5 659.388 68.1667 660.179 67C661.364 65.8333 663.972 63.5 664.921 63.5C665.869 63.5 667.687 64.5 668.478 65C677.369 70.6667 697.524 82 707.009 82C716.493 82 730.72 79 736.648 77.5C736.648 77.5 805.411 134.826 806.597 134C817.504 126.4 826.949 123.5 830.308 123L921.005 115L995.696 82L1018.81 79L1020 77.5V189.5Z" fill="#930F0F" stroke="black" stroke-width="2"/>
<path d="M999.252 189.5H1V90.356L29.4717 94.028L40.5117 97.7L57.3623 103.82L85.253 113.204L120.697 125.444L139.872 126.668L167.763 128.708L194.491 130.34L224.706 132.38C229.936 133.196 240.627 135.236 241.557 136.868C242.486 138.5 244.656 137.548 245.624 136.868L257.245 128.708C259.569 125.118 264.412 124.492 266.542 124.628C267.704 124.764 270.726 125.281 273.515 126.26C276.304 127.239 279.713 126.668 281.069 126.26L345.566 93.212L359.511 86.276C366.019 81.38 384.303 84.236 392.631 86.276L400.185 87.5L411.806 89.54C414.324 89.948 420.522 91.172 425.17 92.804C429.819 94.436 435.629 92.668 437.953 91.58L444.345 87.092L468.749 71.996L492.573 57.716L527.436 36.5L546.03 45.884L607.621 76.076L640.16 92.396H643.066C643.995 92.396 645.777 90.492 646.552 89.54C647.714 88.588 650.271 86.684 651.201 86.684C652.13 86.684 653.912 87.5 654.687 87.908C663.403 92.532 683.159 101.78 692.455 101.78C701.752 101.78 715.698 99.332 721.508 98.108C721.508 98.108 788.911 144.886 790.073 144.212C800.764 138.01 810.022 135.644 813.315 135.236L902.216 128.708L975.429 101.78L998.09 99.332L999.252 98.108V189.5Z" stroke="black" stroke-width="2"/>
<path d="M344.223 123C341.852 105.8 358.648 89.5 367.342 83.5L279.017 126.5H273.089C266.924 133.3 270.52 136.667 273.089 137.5L317.548 157L378.605 161.5L475.822 171L595.565 173L677.369 163.5L639.431 92L554.07 49C544.98 55.3333 526.802 69.4 526.802 75C526.802 80.6 522.455 87 520.281 89.5C512.219 91.5 512.97 80.6667 514.353 75C521.664 68.3333 536.049 53.8 535.101 49C534.152 44.2 529.173 39 526.802 37L453.889 83.5C448.554 87.5 436.58 95.3 431.363 94.5C426.146 93.7 415.358 90.8333 410.615 89.5L344.223 123Z" fill="#5C1717" stroke="black" stroke-width="2"/>
<path d="M15.2269 93L1 91V171L238.115 176L171.723 127.5H141.49C147.181 134.7 143.862 140.5 141.49 142.5L75.6911 110V127.5L25.3042 93V112L15.2269 93Z" fill="#5C1717"/>
<path d="M766.287 153L712.937 100C706.416 100.667 692.782 102.2 690.411 103C688.04 103.8 662.945 92.3333 650.694 86.5L640.617 93L677.369 162.5L766.287 153Z" fill="#5C1717"/>
<path d="M882.474 131L823.195 174.5L998.067 168.5V100L960.721 131L956.572 117L903.814 143.5L908.556 126L901.443 129L882.474 131Z" fill="#5C1717"/>
<path d="M15.2269 93L1 91V171L238.115 176L171.723 127.5H141.49C147.181 134.7 143.862 140.5 141.49 142.5L75.6911 110V127.5L25.3042 93V112L15.2269 93Z" stroke="black" stroke-width="2"/>
<path d="M766.287 153L712.937 100C706.416 100.667 692.782 102.2 690.411 103C688.04 103.8 662.945 92.3333 650.694 86.5L640.617 93L677.369 162.5L766.287 153Z" stroke="black" stroke-width="2"/>
<path d="M882.474 131L823.195 174.5L998.067 168.5V100L960.721 131L956.572 117L903.814 143.5L908.556 126L901.443 129L882.474 131Z" stroke="black" stroke-width="2"/>
</svg>
