<svg width="812" height="111" viewBox="0 0 812 111" fill="none" xmlns="http://www.w3.org/2000/svg">
<g filter="url(#filter0_d_9_35)">
<path d="M197.789 4.51807L197.681 4.69879L197.501 4.55422H196.709L196.493 4.62651L196.205 4.91566L196.097 5.16867L196.061 5.09639L195.845 4.98795L195.593 4.91566H194.693L194.44 4.98795L194.044 5.16867L193.756 5.3494L193.504 5.56626L193.324 5.74699L193.144 5.92771L193.036 6.10843L193 6.28916V7.08434L193.072 7.26506L193.144 7.40964L193.252 7.62651L193.432 7.87952L193.828 8.20482L194.08 8.3494L194.26 8.45783H194.44L194.548 8.53012L195.629 8.56627L195.737 8.45783H196.133H196.277L196.313 8.53012H196.529L196.565 8.60241H196.745L196.853 8.6747H197.213L197.357 8.74699L197.934 8.78313L198.078 8.85542H199.446L199.554 8.78313H200.13L200.238 8.71084L200.598 8.60241H200.994H201.175L201.319 8.6747H201.499L201.607 8.74699H201.967L202.183 8.81928H203.911L204.307 8.92771H204.848L204.992 9H207.44L208.017 8.92771L208.449 8.85542L208.809 8.78313L209.061 8.71084H209.709L209.781 8.78313H210.285L210.393 8.85542H211.33L211.402 8.71084H212.878L212.95 8.78313H214.211L214.787 8.71084H215.507L216.011 8.78313H217.019L217.524 8.71084L217.812 8.63855L218.028 8.56627L218.388 8.42169L218.784 8.16867L218.892 8.06024L218.928 7.95181L219 7.84337V7.55422L218.928 7.40964L218.856 7.22892L218.676 7.08434L218.316 6.83133L217.956 6.72289L217.488 6.61446L217.127 6.57831L216.263 6.54217L215.831 6.57831L215.651 6.6506H215.435L215.291 6.72289V6.61446L215.219 6.18072L215.075 5.89157L214.931 5.60241L214.607 5.24096L214.247 5.0241L213.85 4.84337H213.094L212.878 4.87952L212.518 4.95181L212.158 5.24096L212.122 5.09639L212.05 4.80723L211.906 4.51807L211.762 4.3012L211.618 4.08434L211.402 3.86747L211.186 3.6506L210.861 3.39759L210.501 3.21687L210.213 3.14458L210.105 3.03614H209.781H209.025L208.665 3.07229L208.521 3.14458L208.377 3.21687V3.07229L208.305 2.63855L208.233 2.3494L208.125 2.06024L207.945 1.77108L207.729 1.40964L207.476 1.08434L207.224 0.831325L206.9 0.578313L206.648 0.39759L206.396 0.253012L206.072 0.144578L205.784 0.0722892L205.496 0H204.235L203.983 0.0361446L203.623 0.144578L203.299 0.325301L202.867 0.542169L202.507 0.831325L202.219 1.12048L201.931 1.40964L201.751 1.66265L201.571 1.98795L201.427 2.3494L201.355 2.6747L200.85 2.74699L200.382 2.81928L199.77 3L199.122 3.28916L198.654 3.6506L198.366 3.86747L198.186 4.04819L198.006 4.22892L197.789 4.51807Z" fill="#F8F8F8"/>
</g>
<g filter="url(#filter1_d_9_35)">
<path d="M615.789 5.51807L615.681 5.69879L615.501 5.55422H614.709L614.493 5.62651L614.205 5.91566L614.097 6.16867L614.061 6.09639L613.845 5.98795L613.593 5.91566H612.693L612.44 5.98795L612.044 6.16867L611.756 6.3494L611.504 6.56626L611.324 6.74699L611.144 6.92771L611.036 7.10843L611 7.28916V8.08434L611.072 8.26506L611.144 8.40964L611.252 8.62651L611.432 8.87952L611.828 9.20482L612.08 9.3494L612.26 9.45783H612.44L612.548 9.53012L613.629 9.56627L613.737 9.45783H614.133H614.277L614.313 9.53012H614.529L614.565 9.60241H614.745L614.853 9.6747H615.213L615.357 9.74699L615.934 9.78313L616.078 9.85542H617.446L617.554 9.78313H618.13L618.238 9.71084L618.598 9.60241H618.994H619.175L619.319 9.6747H619.499L619.607 9.74699H619.967L620.183 9.81928H621.911L622.307 9.92771H622.848L622.992 10H625.44L626.017 9.92771L626.449 9.85542L626.809 9.78313L627.061 9.71084H627.709L627.781 9.78313H628.285L628.393 9.85542H629.33L629.402 9.71084H630.878L630.95 9.78313H632.211L632.787 9.71084H633.507L634.011 9.78313H635.019L635.524 9.71084L635.812 9.63855L636.028 9.56627L636.388 9.42169L636.784 9.16867L636.892 9.06024L636.928 8.95181L637 8.84337V8.55422L636.928 8.40964L636.856 8.22892L636.676 8.08434L636.316 7.83133L635.956 7.72289L635.488 7.61446L635.127 7.57831L634.263 7.54217L633.831 7.57831L633.651 7.6506H633.435L633.291 7.72289V7.61446L633.219 7.18072L633.075 6.89157L632.931 6.60241L632.607 6.24096L632.247 6.0241L631.85 5.84337H631.094L630.878 5.87952L630.518 5.95181L630.158 6.24096L630.122 6.09639L630.05 5.80723L629.906 5.51807L629.762 5.3012L629.618 5.08434L629.402 4.86747L629.186 4.6506L628.861 4.39759L628.501 4.21687L628.213 4.14458L628.105 4.03614H627.781H627.025L626.665 4.07229L626.521 4.14458L626.377 4.21687V4.07229L626.305 3.63855L626.233 3.3494L626.125 3.06024L625.945 2.77108L625.729 2.40964L625.476 2.08434L625.224 1.83133L624.9 1.57831L624.648 1.39759L624.396 1.25301L624.072 1.14458L623.784 1.07229L623.496 1H622.235L621.983 1.03614L621.623 1.14458L621.299 1.3253L620.867 1.54217L620.507 1.83133L620.219 2.12048L619.931 2.40964L619.751 2.66265L619.571 2.98795L619.427 3.3494L619.355 3.6747L618.85 3.74699L618.382 3.81928L617.77 4L617.122 4.28916L616.654 4.6506L616.366 4.86747L616.186 5.04819L616.006 5.22892L615.789 5.51807Z" fill="#F8F8F8"/>
</g>
<g filter="url(#filter2_d_9_35)">
<path d="M17.8587 37.7845L17.4558 38.4558L16.7845 37.9187H13.8304L13.0247 38.1873L11.9505 39.2615L11.5477 40.2014L11.4134 39.9329L10.6078 39.53L9.66784 39.2615H6.31095L5.37102 39.53L3.89399 40.2014L2.81979 40.8728L1.87986 41.6784L1.20848 42.3498L0.537102 43.0212L0.134276 43.6926L0 44.364V47.318L0.268551 47.9894L0.537102 48.5265L0.939929 49.3322L1.61131 50.2721L3.08834 51.4806L4.02827 52.0177L4.69965 52.4205H5.37102L5.77385 52.689L9.80212 52.8233L10.2049 52.4205H11.682H12.2191L12.3534 52.689H13.159L13.2933 52.9576H13.9647L14.3675 53.2261H15.7102L16.2473 53.4947L18.3958 53.629L18.9329 53.8975H24.0353L24.4382 53.629H26.5866L26.9894 53.3604L28.3322 52.9576H29.8092H30.4806L31.0177 53.2261H31.689L32.0919 53.4947H33.4346L34.2403 53.7632H40.6855L42.1625 54.1661H44.1767L44.7138 54.4346H53.8445L55.9929 54.1661L57.6042 53.8975L58.947 53.629L59.8869 53.3604H62.3039L62.5724 53.629H64.4523L64.8551 53.8975H68.3463L68.6148 53.3604H74.1201L74.3887 53.629H79.0883L81.2367 53.3604H83.9223L85.8021 53.629H89.5618L91.4417 53.3604L92.5159 53.0919L93.3216 52.8233L94.6643 52.2862L96.1413 51.3463L96.5442 50.9435L96.6784 50.5406L96.947 50.1378V49.0636L96.6784 48.5265L96.4099 47.8551L95.7385 47.318L94.3958 46.3781L93.053 45.9753L91.3074 45.5724L89.9647 45.4382L86.7421 45.3039L85.1307 45.4382L84.4594 45.7067H83.6537L83.1166 45.9753V45.5724L82.8481 43.9611L82.311 42.8869L81.7738 41.8127L80.5654 40.47L79.2226 39.6643L77.7456 38.9929H74.9258L74.1201 39.1272L72.7774 39.3958L71.4346 40.47L71.3004 39.9329L71.0318 38.8587L70.4947 37.7845L69.9576 36.9788L69.4205 36.1731L68.6148 35.3675L67.8092 34.5618L66.6007 33.6219L65.2579 32.9505L64.1837 32.682L63.7809 32.2792H62.5724H59.7526L58.4099 32.4134L57.8728 32.682L57.3357 32.9505V32.4134L57.0671 30.8021L56.7986 29.7279L56.3958 28.6537L55.7244 27.5795L54.9187 26.2367L53.9788 25.0283L53.0389 24.0883L51.8304 23.1484L50.8905 22.477L49.9505 21.9399L48.7421 21.5371L47.6678 21.2686L46.5936 21H41.894L40.9541 21.1343L39.6113 21.5371L38.4028 22.2085L36.7915 23.0141L35.4488 24.0883L34.3746 25.1625L33.3004 26.2367L32.629 27.1767L31.9576 28.3852L31.4205 29.7279L31.1519 30.9364L29.2721 31.2049L27.5265 31.4735L25.2438 32.1449L22.8269 33.2191L21.0813 34.5618L20.0071 35.3675L19.3357 36.0389L18.6643 36.7102L17.8587 37.7845Z" fill="#F8F8F8" fill-opacity="0.75" shape-rendering="crispEdges"/>
</g>
<g filter="url(#filter3_d_9_35)">
<path d="M435.859 38.7845L435.456 39.4558L434.784 38.9187H431.83L431.025 39.1873L429.951 40.2615L429.548 41.2014L429.413 40.9329L428.608 40.53L427.668 40.2615H424.311L423.371 40.53L421.894 41.2014L420.82 41.8728L419.88 42.6784L419.208 43.3498L418.537 44.0212L418.134 44.6926L418 45.364V48.318L418.269 48.9894L418.537 49.5265L418.94 50.3322L419.611 51.2721L421.088 52.4806L422.028 53.0177L422.7 53.4205H423.371L423.774 53.689L427.802 53.8233L428.205 53.4205H429.682H430.219L430.353 53.689H431.159L431.293 53.9576H431.965L432.367 54.2261H433.71L434.247 54.4947L436.396 54.629L436.933 54.8975H442.035L442.438 54.629H444.587L444.989 54.3604L446.332 53.9576H447.809H448.481L449.018 54.2261H449.689L450.092 54.4947H451.435L452.24 54.7632H458.686L460.163 55.1661H462.177L462.714 55.4346H471.845L473.993 55.1661L475.604 54.8975L476.947 54.629L477.887 54.3604H480.304L480.572 54.629H482.452L482.855 54.8975H486.346L486.615 54.3604H492.12L492.389 54.629H497.088L499.237 54.3604H501.922L503.802 54.629H507.562L509.442 54.3604L510.516 54.0919L511.322 53.8233L512.664 53.2862L514.141 52.3463L514.544 51.9435L514.678 51.5406L514.947 51.1378V50.0636L514.678 49.5265L514.41 48.8551L513.739 48.318L512.396 47.3781L511.053 46.9753L509.307 46.5724L507.965 46.4382L504.742 46.3039L503.131 46.4382L502.459 46.7067H501.654L501.117 46.9753V46.5724L500.848 44.9611L500.311 43.8869L499.774 42.8127L498.565 41.47L497.223 40.6643L495.746 39.9929H492.926L492.12 40.1272L490.777 40.3958L489.435 41.47L489.3 40.9329L489.032 39.8587L488.495 38.7845L487.958 37.9788L487.42 37.1731L486.615 36.3675L485.809 35.5618L484.601 34.6219L483.258 33.9505L482.184 33.682L481.781 33.2792H480.572H477.753L476.41 33.4134L475.873 33.682L475.336 33.9505V33.4134L475.067 31.8021L474.799 30.7279L474.396 29.6537L473.724 28.5795L472.919 27.2367L471.979 26.0283L471.039 25.0883L469.83 24.1484L468.89 23.477L467.951 22.9399L466.742 22.5371L465.668 22.2686L464.594 22H459.894L458.954 22.1343L457.611 22.5371L456.403 23.2085L454.792 24.0141L453.449 25.0883L452.375 26.1625L451.3 27.2367L450.629 28.1767L449.958 29.3852L449.42 30.7279L449.152 31.9364L447.272 32.2049L445.527 32.4735L443.244 33.1449L440.827 34.2191L439.081 35.5618L438.007 36.3675L437.336 37.0389L436.664 37.7102L435.859 38.7845Z" fill="#F8F8F8"/>
</g>
<g filter="url(#filter4_d_9_35)">
<path d="M190.859 84.7845L190.456 85.4558L189.784 84.9187H186.83L186.025 85.1873L184.951 86.2615L184.548 87.2014L184.413 86.9329L183.608 86.53L182.668 86.2615H179.311L178.371 86.53L176.894 87.2014L175.82 87.8728L174.88 88.6784L174.208 89.3498L173.537 90.0212L173.134 90.6926L173 91.364V94.318L173.269 94.9894L173.537 95.5265L173.94 96.3322L174.611 97.2721L176.088 98.4806L177.028 99.0177L177.7 99.4205H178.371L178.774 99.689L182.802 99.8233L183.205 99.4205H184.682H185.219L185.353 99.689H186.159L186.293 99.9576H186.965L187.367 100.226H188.71L189.247 100.495L191.396 100.629L191.933 100.898H197.035L197.438 100.629H199.587L199.989 100.36L201.332 99.9576H202.809H203.481L204.018 100.226H204.689L205.092 100.495H206.435L207.24 100.763H213.686L215.163 101.166H217.177L217.714 101.435H226.845L228.993 101.166L230.604 100.898L231.947 100.629L232.887 100.36H235.304L235.572 100.629H237.452L237.855 100.898H241.346L241.615 100.36H247.12L247.389 100.629H252.088L254.237 100.36H256.922L258.802 100.629H262.562L264.442 100.36L265.516 100.092L266.322 99.8233L267.664 99.2862L269.141 98.3463L269.544 97.9435L269.678 97.5406L269.947 97.1378V96.0636L269.678 95.5265L269.41 94.8551L268.739 94.318L267.396 93.3781L266.053 92.9753L264.307 92.5724L262.965 92.4382L259.742 92.3039L258.131 92.4382L257.459 92.7067H256.654L256.117 92.9753V92.5724L255.848 90.9611L255.311 89.8869L254.774 88.8127L253.565 87.47L252.223 86.6643L250.746 85.9929H247.926L247.12 86.1272L245.777 86.3958L244.435 87.47L244.3 86.9329L244.032 85.8587L243.495 84.7845L242.958 83.9788L242.42 83.1731L241.615 82.3675L240.809 81.5618L239.601 80.6219L238.258 79.9505L237.184 79.682L236.781 79.2792H235.572H232.753L231.41 79.4134L230.873 79.682L230.336 79.9505V79.4134L230.067 77.8021L229.799 76.7279L229.396 75.6537L228.724 74.5795L227.919 73.2367L226.979 72.0283L226.039 71.0883L224.83 70.1484L223.89 69.477L222.951 68.9399L221.742 68.5371L220.668 68.2686L219.594 68H214.894L213.954 68.1343L212.611 68.5371L211.403 69.2085L209.792 70.0141L208.449 71.0883L207.375 72.1625L206.3 73.2367L205.629 74.1767L204.958 75.3852L204.42 76.7279L204.152 77.9364L202.272 78.2049L200.527 78.4735L198.244 79.1449L195.827 80.2191L194.081 81.5618L193.007 82.3675L192.336 83.0389L191.664 83.7102L190.859 84.7845Z" fill="#F8F8F8"/>
</g>
<g filter="url(#filter5_d_9_35)">
<path d="M608.859 85.7845L608.456 86.4558L607.784 85.9187H604.83L604.025 86.1873L602.951 87.2615L602.548 88.2014L602.413 87.9329L601.608 87.53L600.668 87.2615H597.311L596.371 87.53L594.894 88.2014L593.82 88.8728L592.88 89.6784L592.208 90.3498L591.537 91.0212L591.134 91.6926L591 92.364V95.318L591.269 95.9894L591.537 96.5265L591.94 97.3322L592.611 98.2721L594.088 99.4806L595.028 100.018L595.7 100.42H596.371L596.774 100.689L600.802 100.823L601.205 100.42H602.682H603.219L603.353 100.689H604.159L604.293 100.958H604.965L605.367 101.226H606.71L607.247 101.495L609.396 101.629L609.933 101.898H615.035L615.438 101.629H617.587L617.989 101.36L619.332 100.958H620.809H621.481L622.018 101.226H622.689L623.092 101.495H624.435L625.24 101.763H631.686L633.163 102.166H635.177L635.714 102.435H644.845L646.993 102.166L648.604 101.898L649.947 101.629L650.887 101.36H653.304L653.572 101.629H655.452L655.855 101.898H659.346L659.615 101.36H665.12L665.389 101.629H670.088L672.237 101.36H674.922L676.802 101.629H680.562L682.442 101.36L683.516 101.092L684.322 100.823L685.664 100.286L687.141 99.3463L687.544 98.9435L687.678 98.5406L687.947 98.1378V97.0636L687.678 96.5265L687.41 95.8551L686.739 95.318L685.396 94.3781L684.053 93.9753L682.307 93.5724L680.965 93.4382L677.742 93.3039L676.131 93.4382L675.459 93.7067H674.654L674.117 93.9753V93.5724L673.848 91.9611L673.311 90.8869L672.774 89.8127L671.565 88.47L670.223 87.6643L668.746 86.9929H665.926L665.12 87.1272L663.777 87.3958L662.435 88.47L662.3 87.9329L662.032 86.8587L661.495 85.7845L660.958 84.9788L660.42 84.1731L659.615 83.3675L658.809 82.5618L657.601 81.6219L656.258 80.9505L655.184 80.682L654.781 80.2792H653.572H650.753L649.41 80.4134L648.873 80.682L648.336 80.9505V80.4134L648.067 78.8021L647.799 77.7279L647.396 76.6537L646.724 75.5795L645.919 74.2367L644.979 73.0283L644.039 72.0883L642.83 71.1484L641.89 70.477L640.951 69.9399L639.742 69.5371L638.668 69.2686L637.594 69H632.894L631.954 69.1343L630.611 69.5371L629.403 70.2085L627.792 71.0141L626.449 72.0883L625.375 73.1625L624.3 74.2367L623.629 75.1767L622.958 76.3852L622.42 77.7279L622.152 78.9364L620.272 79.2049L618.527 79.4735L616.244 80.1449L613.827 81.2191L612.081 82.5618L611.007 83.3675L610.336 84.0389L609.664 84.7102L608.859 85.7845Z" fill="#F8F8F8" fill-opacity="0.75" shape-rendering="crispEdges"/>
</g>
<g filter="url(#filter6_d_9_35)">
<path d="M301.158 48.0723L300.726 48.7952L300.006 48.2169H296.837L295.972 48.506L294.82 49.6626L294.388 50.6747L294.244 50.3855L293.38 49.9518L292.371 49.6626H288.77L287.762 49.9518L286.177 50.6747L285.025 51.3976L284.017 52.2651L283.296 52.988L282.576 53.7108L282.144 54.4337L282 55.1566V58.3373L282.288 59.0602L282.576 59.6386L283.008 60.506L283.729 61.5181L285.313 62.8193L286.321 63.3976L287.042 63.8313H287.762L288.194 64.1205L292.515 64.2651L292.947 63.8313H294.532H295.108L295.252 64.1205H296.116L296.26 64.4096H296.981L297.413 64.6988H298.853L299.429 64.9879L301.734 65.1325L302.31 65.4217H307.784L308.216 65.1325H310.521L310.953 64.8434L312.393 64.4096H313.978H314.698L315.274 64.6988H315.994L316.427 64.9879H317.867L318.731 65.2771H325.645L327.23 65.7108H329.391L329.967 66H339.762L342.066 65.7108L343.795 65.4217L345.235 65.1325L346.244 64.8434H348.837L349.125 65.1325H351.141L351.573 65.4217H355.319L355.607 64.8434H361.512L361.801 65.1325H366.842L369.147 64.8434H372.028L374.044 65.1325H378.078L380.094 64.8434L381.247 64.5542L382.111 64.2651L383.551 63.6867L385.136 62.6747L385.568 62.241L385.712 61.8072L386 61.3735V60.2169L385.712 59.6386L385.424 58.9157L384.704 58.3373L383.263 57.3253L381.823 56.8916L379.95 56.4578L378.51 56.3133L375.053 56.1687L373.324 56.3133L372.604 56.6024H371.74L371.163 56.8916V56.4578L370.875 54.7229L370.299 53.5663L369.723 52.4096L368.427 50.9639L366.986 50.0964L365.402 49.3735H362.377L361.512 49.5181L360.072 49.8072L358.632 50.9639L358.488 50.3855L358.199 49.2289L357.623 48.0723L357.047 47.2048L356.471 46.3373L355.607 45.4699L354.742 44.6024L353.446 43.5904L352.006 42.8675L350.853 42.5783L350.421 42.1446H349.125H346.1L344.659 42.2892L344.083 42.5783L343.507 42.8675V42.2892L343.219 40.5542L342.931 39.3976L342.499 38.241L341.778 37.0843L340.914 35.6386L339.906 34.3373L338.898 33.3253L337.601 32.3133L336.593 31.5904L335.584 31.012L334.288 30.5783L333.136 30.2892L331.983 30H326.942L325.934 30.1446L324.493 30.5783L323.197 31.3012L321.468 32.1687L320.028 33.3253L318.875 34.4819L317.723 35.6386L317.003 36.6506L316.283 37.9518L315.706 39.3976L315.418 40.6988L313.402 40.988L311.529 41.2771L309.08 42L306.488 43.1566L304.615 44.6024L303.463 45.4699L302.742 46.1928L302.022 46.9157L301.158 48.0723Z" fill="white"/>
</g>
<g filter="url(#filter7_d_9_35)">
<path d="M719.158 49.0723L718.726 49.7952L718.006 49.2169H714.837L713.972 49.506L712.82 50.6626L712.388 51.6747L712.244 51.3855L711.38 50.9518L710.371 50.6626H706.77L705.762 50.9518L704.177 51.6747L703.025 52.3976L702.017 53.2651L701.296 53.988L700.576 54.7108L700.144 55.4337L700 56.1566V59.3373L700.288 60.0602L700.576 60.6386L701.008 61.506L701.729 62.5181L703.313 63.8193L704.321 64.3976L705.042 64.8313H705.762L706.194 65.1205L710.515 65.2651L710.947 64.8313H712.532H713.108L713.252 65.1205H714.116L714.26 65.4096H714.981L715.413 65.6988H716.853L717.429 65.9879L719.734 66.1325L720.31 66.4217H725.784L726.216 66.1325H728.521L728.953 65.8434L730.393 65.4096H731.978H732.698L733.274 65.6988H733.994L734.427 65.9879H735.867L736.731 66.2771H743.645L745.23 66.7108H747.391L747.967 67H757.762L760.066 66.7108L761.795 66.4217L763.235 66.1325L764.244 65.8434H766.837L767.125 66.1325H769.141L769.573 66.4217H773.319L773.607 65.8434H779.512L779.801 66.1325H784.842L787.147 65.8434H790.028L792.044 66.1325H796.078L798.094 65.8434L799.247 65.5542L800.111 65.2651L801.551 64.6867L803.136 63.6747L803.568 63.241L803.712 62.8072L804 62.3735V61.2169L803.712 60.6386L803.424 59.9157L802.704 59.3373L801.263 58.3253L799.823 57.8916L797.95 57.4578L796.51 57.3133L793.053 57.1687L791.324 57.3133L790.604 57.6024H789.74L789.163 57.8916V57.4578L788.875 55.7229L788.299 54.5663L787.723 53.4096L786.427 51.9639L784.986 51.0964L783.402 50.3735H780.377L779.512 50.5181L778.072 50.8072L776.632 51.9639L776.488 51.3855L776.199 50.2289L775.623 49.0723L775.047 48.2048L774.471 47.3373L773.607 46.4699L772.742 45.6024L771.446 44.5904L770.006 43.8675L768.853 43.5783L768.421 43.1446H767.125H764.1L762.659 43.2892L762.083 43.5783L761.507 43.8675V43.2892L761.219 41.5542L760.931 40.3976L760.499 39.241L759.778 38.0843L758.914 36.6386L757.906 35.3373L756.898 34.3253L755.601 33.3133L754.593 32.5904L753.584 32.012L752.288 31.5783L751.136 31.2892L749.983 31H744.942L743.934 31.1446L742.493 31.5783L741.197 32.3012L739.468 33.1687L738.028 34.3253L736.875 35.4819L735.723 36.6386L735.003 37.6506L734.283 38.9518L733.706 40.3976L733.418 41.6988L731.402 41.988L729.529 42.2771L727.08 43L724.488 44.1566L722.615 45.6024L721.463 46.4699L720.742 47.1928L720.022 47.9157L719.158 49.0723Z" fill="white" fill-opacity="0.75" shape-rendering="crispEdges"/>
</g>
<g filter="url(#filter8_d_9_35)">
<path d="M333.579 43.0361L333.363 43.3976L333.003 43.1084H331.418L330.986 43.253L330.41 43.8313L330.194 44.3373L330.122 44.1928L329.69 43.9759L329.186 43.8313H327.385L326.881 43.9759L326.089 44.3373L325.512 44.6988L325.008 45.1325L324.648 45.494L324.288 45.8554L324.072 46.2169L324 46.5783V48.1687L324.144 48.5301L324.288 48.8193L324.504 49.253L324.864 49.759L325.657 50.4096L326.161 50.6988L326.521 50.9157H326.881L327.097 51.0602L329.258 51.1325L329.474 50.9157H330.266H330.554L330.626 51.0602H331.058L331.13 51.2048H331.49L331.706 51.3494H332.427L332.715 51.494L333.867 51.5663L334.155 51.7108H336.892L337.108 51.5663H338.26L338.476 51.4217L339.197 51.2048H339.989H340.349L340.637 51.3494H340.997L341.213 51.494H341.934L342.366 51.6386H345.823L346.615 51.8554H347.695L347.983 52H352.881L354.033 51.8554L354.898 51.7108L355.618 51.5663L356.122 51.4217H357.418L357.562 51.5663H358.571L358.787 51.7108H360.659L360.803 51.4217H363.756L363.9 51.5663H366.421L367.573 51.4217H369.014L370.022 51.5663H372.039L373.047 51.4217L373.623 51.2771L374.055 51.1325L374.776 50.8434L375.568 50.3373L375.784 50.1205L375.856 49.9036L376 49.6867V49.1084L375.856 48.8193L375.712 48.4578L375.352 48.1687L374.632 47.6627L373.911 47.4458L372.975 47.2289L372.255 47.1566L370.526 47.0843L369.662 47.1566L369.302 47.3012H368.87L368.582 47.4458V47.2289L368.438 46.3614L368.15 45.7831L367.861 45.2048L367.213 44.4819L366.493 44.0482L365.701 43.6867H364.188L363.756 43.759L363.036 43.9036L362.316 44.4819L362.244 44.1928L362.1 43.6145L361.812 43.0361L361.524 42.6024L361.235 42.1687L360.803 41.7349L360.371 41.3012L359.723 40.7952L359.003 40.4337L358.427 40.2892L358.211 40.0723H357.562H356.05L355.33 40.1446L355.042 40.2892L354.753 40.4337V40.1446L354.609 39.2771L354.465 38.6988L354.249 38.1205L353.889 37.5422L353.457 36.8193L352.953 36.1687L352.449 35.6627L351.801 35.1566L351.296 34.7952L350.792 34.506L350.144 34.2892L349.568 34.1446L348.992 34H346.471L345.967 34.0723L345.247 34.2892L344.598 34.6506L343.734 35.0843L343.014 35.6627L342.438 36.241L341.861 36.8193L341.501 37.3253L341.141 37.9759L340.853 38.6988L340.709 39.3494L339.701 39.494L338.765 39.6386L337.54 40L336.244 40.5783L335.307 41.3012L334.731 41.7349L334.371 42.0964L334.011 42.4578L333.579 43.0361Z" fill="white"/>
</g>
<g filter="url(#filter9_d_9_35)">
<path d="M751.579 44.0361L751.363 44.3976L751.003 44.1084H749.418L748.986 44.253L748.41 44.8313L748.194 45.3373L748.122 45.1928L747.69 44.9759L747.186 44.8313H745.385L744.881 44.9759L744.089 45.3373L743.512 45.6988L743.008 46.1325L742.648 46.494L742.288 46.8554L742.072 47.2169L742 47.5783V49.1687L742.144 49.5301L742.288 49.8193L742.504 50.253L742.864 50.759L743.657 51.4096L744.161 51.6988L744.521 51.9157H744.881L745.097 52.0602L747.258 52.1325L747.474 51.9157H748.266H748.554L748.626 52.0602H749.058L749.13 52.2048H749.49L749.706 52.3494H750.427L750.715 52.494L751.867 52.5663L752.155 52.7108H754.892L755.108 52.5663H756.26L756.476 52.4217L757.197 52.2048H757.989H758.349L758.637 52.3494H758.997L759.213 52.494H759.934L760.366 52.6386H763.823L764.615 52.8554H765.695L765.983 53H770.881L772.033 52.8554L772.898 52.7108L773.618 52.5663L774.122 52.4217H775.418L775.562 52.5663H776.571L776.787 52.7108H778.659L778.803 52.4217H781.756L781.9 52.5663H784.421L785.573 52.4217H787.014L788.022 52.5663H790.039L791.047 52.4217L791.623 52.2771L792.055 52.1325L792.776 51.8434L793.568 51.3373L793.784 51.1205L793.856 50.9036L794 50.6867V50.1084L793.856 49.8193L793.712 49.4578L793.352 49.1687L792.632 48.6627L791.911 48.4458L790.975 48.2289L790.255 48.1566L788.526 48.0843L787.662 48.1566L787.302 48.3012H786.87L786.582 48.4458V48.2289L786.438 47.3614L786.15 46.7831L785.861 46.2048L785.213 45.4819L784.493 45.0482L783.701 44.6867H782.188L781.756 44.759L781.036 44.9036L780.316 45.4819L780.244 45.1928L780.1 44.6145L779.812 44.0361L779.524 43.6024L779.235 43.1687L778.803 42.7349L778.371 42.3012L777.723 41.7952L777.003 41.4337L776.427 41.2892L776.211 41.0723H775.562H774.05L773.33 41.1446L773.042 41.2892L772.753 41.4337V41.1446L772.609 40.2771L772.465 39.6988L772.249 39.1205L771.889 38.5422L771.457 37.8193L770.953 37.1687L770.449 36.6627L769.801 36.1566L769.296 35.7952L768.792 35.506L768.144 35.2892L767.568 35.1446L766.992 35H764.471L763.967 35.0723L763.247 35.2892L762.598 35.6506L761.734 36.0843L761.014 36.6627L760.438 37.241L759.861 37.8193L759.501 38.3253L759.141 38.9759L758.853 39.6988L758.709 40.3494L757.701 40.494L756.765 40.6386L755.54 41L754.244 41.5783L753.307 42.3012L752.731 42.7349L752.371 43.0964L752.011 43.4578L751.579 44.0361Z" fill="white"/>
</g>
<path d="M70.8587 53.7845L70.4558 54.4558L69.7845 53.9187H66.8304L66.0247 54.1873L64.9505 55.2615L64.5477 56.2014L64.4134 55.9329L63.6078 55.53L62.6678 55.2615H59.311L58.371 55.53L56.894 56.2014L55.8198 56.8728L54.8799 57.6784L54.2085 58.3498L53.5371 59.0212L53.1343 59.6926L53 60.364V63.318L53.2686 63.9894L53.5371 64.5265L53.9399 65.3322L54.6113 66.2721L56.0883 67.4806L57.0283 68.0177L57.6996 68.4205H58.371L58.7739 68.689L62.8021 68.8233L63.2049 68.4205H64.682H65.2191L65.3534 68.689H66.159L66.2933 68.9576H66.9647L67.3675 69.2261H68.7102L69.2473 69.4947L71.3958 69.629L71.9329 69.8975H77.0353L77.4382 69.629H79.5866L79.9894 69.3604L81.3322 68.9576H82.8092H83.4806L84.0177 69.2261H84.689L85.0919 69.4947H86.4346L87.2403 69.7632H93.6855L95.1625 70.1661H97.1767L97.7138 70.4346H106.845L108.993 70.1661L110.604 69.8975L111.947 69.629L112.887 69.3604H115.304L115.572 69.629H117.452L117.855 69.8975H121.346L121.615 69.3604H127.12L127.389 69.629H132.088L134.237 69.3604H136.922L138.802 69.629H142.562L144.442 69.3604L145.516 69.0919L146.322 68.8233L147.664 68.2862L149.141 67.3463L149.544 66.9435L149.678 66.5406L149.947 66.1378V65.0636L149.678 64.5265L149.41 63.8551L148.739 63.318L147.396 62.3781L146.053 61.9753L144.307 61.5724L142.965 61.4382L139.742 61.3039L138.131 61.4382L137.459 61.7067H136.654L136.117 61.9753V61.5724L135.848 59.9611L135.311 58.8869L134.774 57.8127L133.565 56.47L132.223 55.6643L130.746 54.9929H127.926L127.12 55.1272L125.777 55.3958L124.435 56.47L124.3 55.9329L124.032 54.8587L123.495 53.7845L122.958 52.9788L122.42 52.1731L121.615 51.3675L120.809 50.5618L119.601 49.6219L118.258 48.9505L117.184 48.682L116.781 48.2792H115.572H112.753L111.41 48.4134L110.873 48.682L110.336 48.9505V48.4134L110.067 46.8021L109.799 45.7279L109.396 44.6537L108.724 43.5795L107.919 42.2367L106.979 41.0283L106.039 40.0883L104.83 39.1484L103.89 38.477L102.951 37.9399L101.742 37.5371L100.668 37.2686L99.5936 37H94.894L93.9541 37.1343L92.6113 37.5371L91.4028 38.2085L89.7915 39.0141L88.4488 40.0883L87.3746 41.1625L86.3004 42.2367L85.629 43.1767L84.9576 44.3852L84.4205 45.7279L84.1519 46.9364L82.2721 47.2049L80.5265 47.4735L78.2438 48.1449L75.8269 49.2191L74.0813 50.5618L73.0071 51.3675L72.3357 52.0389L71.6643 52.7102L70.8587 53.7845Z" fill="#F8F8F8"/>
<path d="M488.859 54.7845L488.456 55.4558L487.784 54.9187H484.83L484.025 55.1873L482.951 56.2615L482.548 57.2014L482.413 56.9329L481.608 56.53L480.668 56.2615H477.311L476.371 56.53L474.894 57.2014L473.82 57.8728L472.88 58.6784L472.208 59.3498L471.537 60.0212L471.134 60.6926L471 61.364V64.318L471.269 64.9894L471.537 65.5265L471.94 66.3322L472.611 67.2721L474.088 68.4806L475.028 69.0177L475.7 69.4205H476.371L476.774 69.689L480.802 69.8233L481.205 69.4205H482.682H483.219L483.353 69.689H484.159L484.293 69.9576H484.965L485.367 70.2261H486.71L487.247 70.4947L489.396 70.629L489.933 70.8975H495.035L495.438 70.629H497.587L497.989 70.3604L499.332 69.9576H500.809H501.481L502.018 70.2261H502.689L503.092 70.4947H504.435L505.24 70.7632H511.686L513.163 71.1661H515.177L515.714 71.4346H524.845L526.993 71.1661L528.604 70.8975L529.947 70.629L530.887 70.3604H533.304L533.572 70.629H535.452L535.855 70.8975H539.346L539.615 70.3604H545.12L545.389 70.629H550.088L552.237 70.3604H554.922L556.802 70.629H560.562L562.442 70.3604L563.516 70.0919L564.322 69.8233L565.664 69.2862L567.141 68.3463L567.544 67.9435L567.678 67.5406L567.947 67.1378V66.0636L567.678 65.5265L567.41 64.8551L566.739 64.318L565.396 63.3781L564.053 62.9753L562.307 62.5724L560.965 62.4382L557.742 62.3039L556.131 62.4382L555.459 62.7067H554.654L554.117 62.9753V62.5724L553.848 60.9611L553.311 59.8869L552.774 58.8127L551.565 57.47L550.223 56.6643L548.746 55.9929H545.926L545.12 56.1272L543.777 56.3958L542.435 57.47L542.3 56.9329L542.032 55.8587L541.495 54.7845L540.958 53.9788L540.42 53.1731L539.615 52.3675L538.809 51.5618L537.601 50.6219L536.258 49.9505L535.184 49.682L534.781 49.2792H533.572H530.753L529.41 49.4134L528.873 49.682L528.336 49.9505V49.4134L528.067 47.8021L527.799 46.7279L527.396 45.6537L526.724 44.5795L525.919 43.2367L524.979 42.0283L524.039 41.0883L522.83 40.1484L521.89 39.477L520.951 38.9399L519.742 38.5371L518.668 38.2686L517.594 38H512.894L511.954 38.1343L510.611 38.5371L509.403 39.2085L507.792 40.0141L506.449 41.0883L505.375 42.1625L504.3 43.2367L503.629 44.1767L502.958 45.3852L502.42 46.7279L502.152 47.9364L500.272 48.2049L498.527 48.4735L496.244 49.1449L493.827 50.2191L492.081 51.5618L491.007 52.3675L490.336 53.0389L489.664 53.7102L488.859 54.7845Z" fill="#F8F8F8" fill-opacity="0.75"/>
<path d="M64.8304 66.0397L64.615 66.401L64.2561 66.1119H62.6768L62.246 66.2564L61.6717 66.8345L61.4564 67.3404L61.3846 67.1958L60.9539 66.9791L60.4514 66.8345H58.6567L58.1542 66.9791L57.3645 67.3404L56.7902 67.7017L56.2877 68.1352L55.9288 68.4965L55.5698 68.8578L55.3545 69.2191L55.2827 69.5804V71.1702L55.4263 71.5315L55.5698 71.8205L55.7852 72.2541L56.1441 72.7599L56.9338 73.4103L57.4363 73.6993L57.7952 73.9161H58.1542L58.3695 74.0606L60.5232 74.1329L60.7385 73.9161H61.5282H61.8153L61.8871 74.0606H62.3178L62.3896 74.2051H62.7486L62.9639 74.3497H63.6818L63.9689 74.4942L65.1175 74.5664L65.4047 74.711H68.1326L68.348 74.5664H69.4966L69.7119 74.4219L70.4298 74.2051H71.2195H71.5784L71.8655 74.3497H72.2245L72.4398 74.4942H73.1577L73.5884 74.6387H77.0342L77.8239 74.8555H78.9007L79.1878 75H84.0694L85.218 74.8555L86.0794 74.711L86.7973 74.5664L87.2998 74.4219H88.592L88.7355 74.5664H89.7406L89.9559 74.711H91.8224L91.966 74.4219H94.9092L95.0528 74.5664H97.5654L98.714 74.4219H100.15L101.155 74.5664H103.165L104.17 74.4219L104.744 74.2774L105.175 74.1329L105.893 73.8438L106.682 73.338L106.898 73.1212L106.969 72.9044L107.113 72.6877V72.1096L106.969 71.8205L106.826 71.4592L106.467 71.1702L105.749 70.6644L105.031 70.4476L104.098 70.2308L103.38 70.1585L101.657 70.0863L100.796 70.1585L100.437 70.303H100.006L99.719 70.4476V70.2308L99.5754 69.3637L99.2883 68.7856L99.0011 68.2075L98.355 67.4849L97.6372 67.0513L96.8475 66.69H95.34L94.9092 66.7623L94.1914 66.9068L93.4735 67.4849L93.4017 67.1958L93.2581 66.6177L92.971 66.0397L92.6838 65.6061L92.3967 65.1725L91.966 64.739L91.5352 64.3054L90.8892 63.7996L90.1713 63.4383L89.597 63.2938L89.3816 63.077H88.7355H87.228L86.5101 63.1492L86.223 63.2938L85.9358 63.4383V63.1492L85.7923 62.2821L85.6487 61.704L85.4333 61.1259L85.0744 60.5478L84.6437 59.8252L84.1412 59.1749L83.6386 58.6691L82.9926 58.1632L82.49 57.8019L81.9875 57.5129L81.3415 57.2961L80.7672 57.1516L80.1929 57.0071H77.6803L77.1778 57.0793L76.4599 57.2961L75.8138 57.6574L74.9524 58.091L74.2345 58.6691L73.6602 59.2471L73.0859 59.8252L72.727 60.3311L72.368 60.9814L72.0809 61.704L71.9373 62.3544L70.9323 62.4989L69.9991 62.6434L68.7787 63.0047L67.4865 63.5828L66.5533 64.3054L65.979 64.739L65.62 65.1003L65.2611 65.4616L64.8304 66.0397Z" fill="white"/>
<path d="M482.83 67.0397L482.615 67.401L482.256 67.1119H480.677L480.246 67.2564L479.672 67.8345L479.456 68.3404L479.385 68.1958L478.954 67.9791L478.451 67.8345H476.657L476.154 67.9791L475.365 68.3404L474.79 68.7017L474.288 69.1352L473.929 69.4965L473.57 69.8578L473.354 70.2191L473.283 70.5804V72.1702L473.426 72.5315L473.57 72.8205L473.785 73.2541L474.144 73.7599L474.934 74.4103L475.436 74.6993L475.795 74.9161H476.154L476.37 75.0606L478.523 75.1329L478.739 74.9161H479.528H479.815L479.887 75.0606H480.318L480.39 75.2051H480.749L480.964 75.3497H481.682L481.969 75.4942L483.118 75.5664L483.405 75.711H486.133L486.348 75.5664H487.497L487.712 75.4219L488.43 75.2051H489.219H489.578L489.866 75.3497H490.224L490.44 75.4942H491.158L491.588 75.6387H495.034L495.824 75.8555H496.901L497.188 76H502.069L503.218 75.8555L504.079 75.711L504.797 75.5664L505.3 75.4219H506.592L506.736 75.5664H507.741L507.956 75.711H509.822L509.966 75.4219H512.909L513.053 75.5664H515.565L516.714 75.4219H518.15L519.155 75.5664H521.165L522.17 75.4219L522.744 75.2774L523.175 75.1329L523.893 74.8438L524.682 74.338L524.898 74.1212L524.969 73.9044L525.113 73.6877V73.1096L524.969 72.8205L524.826 72.4592L524.467 72.1702L523.749 71.6644L523.031 71.4476L522.098 71.2308L521.38 71.1585L519.657 71.0863L518.796 71.1585L518.437 71.303H518.006L517.719 71.4476V71.2308L517.575 70.3637L517.288 69.7856L517.001 69.2075L516.355 68.4849L515.637 68.0513L514.847 67.69H513.34L512.909 67.7623L512.191 67.9068L511.473 68.4849L511.402 68.1958L511.258 67.6177L510.971 67.0397L510.684 66.6061L510.397 66.1725L509.966 65.739L509.535 65.3054L508.889 64.7996L508.171 64.4383L507.597 64.2938L507.382 64.077H506.736H505.228L504.51 64.1492L504.223 64.2938L503.936 64.4383V64.1492L503.792 63.2821L503.649 62.704L503.433 62.1259L503.074 61.5478L502.644 60.8252L502.141 60.1749L501.639 59.6691L500.993 59.1632L500.49 58.8019L499.988 58.5129L499.341 58.2961L498.767 58.1516L498.193 58.0071H495.68L495.178 58.0793L494.46 58.2961L493.814 58.6574L492.952 59.091L492.235 59.6691L491.66 60.2471L491.086 60.8252L490.727 61.3311L490.368 61.9814L490.081 62.704L489.937 63.3544L488.932 63.4989L487.999 63.6434L486.779 64.0047L485.487 64.5828L484.553 65.3054L483.979 65.739L483.62 66.1003L483.261 66.4616L482.83 67.0397Z" fill="white" fill-opacity="0.75"/>
<defs>
<filter id="filter0_d_9_35" x="193" y="0" width="34" height="17" filterUnits="userSpaceOnUse" color-interpolation-filters="sRGB">
<feFlood flood-opacity="0" result="BackgroundImageFix"/>
<feColorMatrix in="SourceAlpha" type="matrix" values="0 0 0 0 0 0 0 0 0 0 0 0 0 0 0 0 0 0 127 0" result="hardAlpha"/>
<feOffset dx="4" dy="4"/>
<feGaussianBlur stdDeviation="2"/>
<feComposite in2="hardAlpha" operator="out"/>
<feColorMatrix type="matrix" values="0 0 0 0 0 0 0 0 0 0 0 0 0 0 0 0 0 0 0.15 0"/>
<feBlend mode="normal" in2="BackgroundImageFix" result="effect1_dropShadow_9_35"/>
<feBlend mode="normal" in="SourceGraphic" in2="effect1_dropShadow_9_35" result="shape"/>
</filter>
<filter id="filter1_d_9_35" x="611" y="1" width="34" height="17" filterUnits="userSpaceOnUse" color-interpolation-filters="sRGB">
<feFlood flood-opacity="0" result="BackgroundImageFix"/>
<feColorMatrix in="SourceAlpha" type="matrix" values="0 0 0 0 0 0 0 0 0 0 0 0 0 0 0 0 0 0 127 0" result="hardAlpha"/>
<feOffset dx="4" dy="4"/>
<feGaussianBlur stdDeviation="2"/>
<feComposite in2="hardAlpha" operator="out"/>
<feColorMatrix type="matrix" values="0 0 0 0 0 0 0 0 0 0 0 0 0 0 0 0 0 0 0.15 0"/>
<feBlend mode="normal" in2="BackgroundImageFix" result="effect1_dropShadow_9_35"/>
<feBlend mode="normal" in="SourceGraphic" in2="effect1_dropShadow_9_35" result="shape"/>
</filter>
<filter id="filter2_d_9_35" x="0" y="21" width="104.947" height="41.4346" filterUnits="userSpaceOnUse" color-interpolation-filters="sRGB">
<feFlood flood-opacity="0" result="BackgroundImageFix"/>
<feColorMatrix in="SourceAlpha" type="matrix" values="0 0 0 0 0 0 0 0 0 0 0 0 0 0 0 0 0 0 127 0" result="hardAlpha"/>
<feOffset dx="4" dy="4"/>
<feGaussianBlur stdDeviation="2"/>
<feComposite in2="hardAlpha" operator="out"/>
<feColorMatrix type="matrix" values="0 0 0 0 0 0 0 0 0 0 0 0 0 0 0 0 0 0 0.15 0"/>
<feBlend mode="normal" in2="BackgroundImageFix" result="effect1_dropShadow_9_35"/>
<feBlend mode="normal" in="SourceGraphic" in2="effect1_dropShadow_9_35" result="shape"/>
</filter>
<filter id="filter3_d_9_35" x="418" y="22" width="104.947" height="41.4346" filterUnits="userSpaceOnUse" color-interpolation-filters="sRGB">
<feFlood flood-opacity="0" result="BackgroundImageFix"/>
<feColorMatrix in="SourceAlpha" type="matrix" values="0 0 0 0 0 0 0 0 0 0 0 0 0 0 0 0 0 0 127 0" result="hardAlpha"/>
<feOffset dx="4" dy="4"/>
<feGaussianBlur stdDeviation="2"/>
<feComposite in2="hardAlpha" operator="out"/>
<feColorMatrix type="matrix" values="0 0 0 0 0 0 0 0 0 0 0 0 0 0 0 0 0 0 0.15 0"/>
<feBlend mode="normal" in2="BackgroundImageFix" result="effect1_dropShadow_9_35"/>
<feBlend mode="normal" in="SourceGraphic" in2="effect1_dropShadow_9_35" result="shape"/>
</filter>
<filter id="filter4_d_9_35" x="173" y="68" width="104.947" height="41.4346" filterUnits="userSpaceOnUse" color-interpolation-filters="sRGB">
<feFlood flood-opacity="0" result="BackgroundImageFix"/>
<feColorMatrix in="SourceAlpha" type="matrix" values="0 0 0 0 0 0 0 0 0 0 0 0 0 0 0 0 0 0 127 0" result="hardAlpha"/>
<feOffset dx="4" dy="4"/>
<feGaussianBlur stdDeviation="2"/>
<feComposite in2="hardAlpha" operator="out"/>
<feColorMatrix type="matrix" values="0 0 0 0 0 0 0 0 0 0 0 0 0 0 0 0 0 0 0.15 0"/>
<feBlend mode="normal" in2="BackgroundImageFix" result="effect1_dropShadow_9_35"/>
<feBlend mode="normal" in="SourceGraphic" in2="effect1_dropShadow_9_35" result="shape"/>
</filter>
<filter id="filter5_d_9_35" x="591" y="69" width="104.947" height="41.4346" filterUnits="userSpaceOnUse" color-interpolation-filters="sRGB">
<feFlood flood-opacity="0" result="BackgroundImageFix"/>
<feColorMatrix in="SourceAlpha" type="matrix" values="0 0 0 0 0 0 0 0 0 0 0 0 0 0 0 0 0 0 127 0" result="hardAlpha"/>
<feOffset dx="4" dy="4"/>
<feGaussianBlur stdDeviation="2"/>
<feComposite in2="hardAlpha" operator="out"/>
<feColorMatrix type="matrix" values="0 0 0 0 0 0 0 0 0 0 0 0 0 0 0 0 0 0 0.15 0"/>
<feBlend mode="normal" in2="BackgroundImageFix" result="effect1_dropShadow_9_35"/>
<feBlend mode="normal" in="SourceGraphic" in2="effect1_dropShadow_9_35" result="shape"/>
</filter>
<filter id="filter6_d_9_35" x="282" y="30" width="112" height="44" filterUnits="userSpaceOnUse" color-interpolation-filters="sRGB">
<feFlood flood-opacity="0" result="BackgroundImageFix"/>
<feColorMatrix in="SourceAlpha" type="matrix" values="0 0 0 0 0 0 0 0 0 0 0 0 0 0 0 0 0 0 127 0" result="hardAlpha"/>
<feOffset dx="4" dy="4"/>
<feGaussianBlur stdDeviation="2"/>
<feComposite in2="hardAlpha" operator="out"/>
<feColorMatrix type="matrix" values="0 0 0 0 0 0 0 0 0 0 0 0 0 0 0 0 0 0 0.15 0"/>
<feBlend mode="normal" in2="BackgroundImageFix" result="effect1_dropShadow_9_35"/>
<feBlend mode="normal" in="SourceGraphic" in2="effect1_dropShadow_9_35" result="shape"/>
</filter>
<filter id="filter7_d_9_35" x="700" y="31" width="112" height="44" filterUnits="userSpaceOnUse" color-interpolation-filters="sRGB">
<feFlood flood-opacity="0" result="BackgroundImageFix"/>
<feColorMatrix in="SourceAlpha" type="matrix" values="0 0 0 0 0 0 0 0 0 0 0 0 0 0 0 0 0 0 127 0" result="hardAlpha"/>
<feOffset dx="4" dy="4"/>
<feGaussianBlur stdDeviation="2"/>
<feComposite in2="hardAlpha" operator="out"/>
<feColorMatrix type="matrix" values="0 0 0 0 0 0 0 0 0 0 0 0 0 0 0 0 0 0 0.15 0"/>
<feBlend mode="normal" in2="BackgroundImageFix" result="effect1_dropShadow_9_35"/>
<feBlend mode="normal" in="SourceGraphic" in2="effect1_dropShadow_9_35" result="shape"/>
</filter>
<filter id="filter8_d_9_35" x="324" y="34" width="60" height="26" filterUnits="userSpaceOnUse" color-interpolation-filters="sRGB">
<feFlood flood-opacity="0" result="BackgroundImageFix"/>
<feColorMatrix in="SourceAlpha" type="matrix" values="0 0 0 0 0 0 0 0 0 0 0 0 0 0 0 0 0 0 127 0" result="hardAlpha"/>
<feOffset dx="4" dy="4"/>
<feGaussianBlur stdDeviation="2"/>
<feComposite in2="hardAlpha" operator="out"/>
<feColorMatrix type="matrix" values="0 0 0 0 0 0 0 0 0 0 0 0 0 0 0 0 0 0 0.15 0"/>
<feBlend mode="normal" in2="BackgroundImageFix" result="effect1_dropShadow_9_35"/>
<feBlend mode="normal" in="SourceGraphic" in2="effect1_dropShadow_9_35" result="shape"/>
</filter>
<filter id="filter9_d_9_35" x="742" y="35" width="60" height="26" filterUnits="userSpaceOnUse" color-interpolation-filters="sRGB">
<feFlood flood-opacity="0" result="BackgroundImageFix"/>
<feColorMatrix in="SourceAlpha" type="matrix" values="0 0 0 0 0 0 0 0 0 0 0 0 0 0 0 0 0 0 127 0" result="hardAlpha"/>
<feOffset dx="4" dy="4"/>
<feGaussianBlur stdDeviation="2"/>
<feComposite in2="hardAlpha" operator="out"/>
<feColorMatrix type="matrix" values="0 0 0 0 0 0 0 0 0 0 0 0 0 0 0 0 0 0 0.15 0"/>
<feBlend mode="normal" in2="BackgroundImageFix" result="effect1_dropShadow_9_35"/>
<feBlend mode="normal" in="SourceGraphic" in2="effect1_dropShadow_9_35" result="shape"/>
</filter>
</defs>
</svg>
