<svg width="420" height="700" viewBox="0 0 420 700" fill="none" xmlns="http://www.w3.org/2000/svg">
<rect width="420" height="700" rx="20" fill="#313131"/>
<rect x="85.5" y="13.5" width="249" height="59" rx="24.5" fill="black" stroke="#F4CD00"/>
<path d="M141.966 29.8182L146.108 51.858H146.415L157.819 29.8182H161.142L147.182 56H143.909L138.642 29.8182H141.966ZM160.874 56L165.221 29.8182H181.022L180.561 32.6307H167.931L166.448 41.4773H178.26L177.8 44.2898H165.988L164.505 53.1875H177.34L176.88 56H160.874ZM182.39 56L186.736 29.8182H189.907L187.963 41.4773H201.924L203.867 29.8182H207.037L202.691 56H199.52L201.463 44.2898H187.503L185.56 56H182.39ZM216.555 29.8182L212.208 56H209.038L213.385 29.8182H216.555ZM242.599 38H239.48C239.446 37.0881 239.259 36.2869 238.918 35.5966C238.577 34.9062 238.116 34.3267 237.537 33.858C236.966 33.3807 236.31 33.0227 235.568 32.7841C234.827 32.5455 234.034 32.4261 233.19 32.4261C231.571 32.4261 230.037 32.8395 228.588 33.6662C227.139 34.4844 225.899 35.6903 224.868 37.2841C223.837 38.8693 223.134 40.8125 222.759 43.1136C222.384 45.3466 222.439 47.2259 222.925 48.7514C223.411 50.277 224.216 51.4318 225.341 52.2159C226.466 53 227.804 53.392 229.355 53.392C230.25 53.392 231.128 53.2727 231.989 53.0341C232.858 52.7955 233.668 52.4418 234.418 51.973C235.176 51.4957 235.849 50.9119 236.438 50.2216C237.034 49.5227 237.503 48.7216 237.844 47.8182H241.014C240.545 49.1562 239.911 50.3537 239.109 51.4105C238.317 52.4673 237.401 53.3665 236.361 54.108C235.321 54.8409 234.2 55.3991 232.999 55.7827C231.797 56.1662 230.548 56.358 229.253 56.358C226.986 56.358 225.055 55.804 223.462 54.696C221.876 53.5795 220.743 52.0028 220.061 49.9659C219.388 47.9205 219.281 45.5 219.741 42.7045C220.202 39.9773 221.084 37.625 222.388 35.6477C223.692 33.6619 225.29 32.1364 227.182 31.071C229.074 29.9972 231.128 29.4602 233.344 29.4602C234.673 29.4602 235.896 29.652 237.013 30.0355C238.129 30.419 239.101 30.9815 239.928 31.723C240.754 32.456 241.398 33.3509 241.858 34.4077C242.327 35.456 242.574 36.6534 242.599 38ZM244.757 56L249.103 29.8182H252.274L248.387 53.1875H260.558L260.098 56H244.757ZM265.007 56L269.353 29.8182H285.154L284.694 32.6307H272.064L270.581 41.4773H282.393L281.933 44.2898H270.12L268.637 53.1875H281.473L281.012 56H265.007Z" fill="#9C5E00"/>
<rect x="50.5" y="115.5" width="149" height="49" rx="19.5" fill="black" stroke="#F4CD00"/>
<rect x="220.5" y="115.5" width="149" height="49" rx="19.5" fill="black" stroke="#F4CD00"/>
<rect x="50.5" y="185.5" width="149" height="49" rx="19.5" fill="black" stroke="#F4CD00"/>
<rect x="220.5" y="185.5" width="149" height="49" rx="19.5" fill="black" stroke="#F4CD00"/>
<rect x="50" y="89" width="15" height="15" fill="#E9EE00"/>
<path d="M75.8466 101.153C75.4318 101.153 75.0554 101.075 74.7173 100.919C74.3793 100.76 74.1108 100.531 73.9119 100.233C73.7131 99.9318 73.6136 99.5682 73.6136 99.142C73.6136 98.767 73.6875 98.4631 73.8352 98.2301C73.983 97.9943 74.1804 97.8097 74.4276 97.6761C74.6747 97.5426 74.9474 97.4432 75.2457 97.3778C75.5469 97.3097 75.8494 97.2557 76.1534 97.2159C76.5511 97.1648 76.8736 97.1264 77.1207 97.1009C77.3707 97.0724 77.5526 97.0256 77.6662 96.9602C77.7827 96.8949 77.8409 96.7812 77.8409 96.6193V96.5852C77.8409 96.1648 77.7259 95.8381 77.4957 95.6051C77.2685 95.3722 76.9233 95.2557 76.4602 95.2557C75.9801 95.2557 75.6037 95.3608 75.331 95.571C75.0582 95.7812 74.8665 96.0057 74.7557 96.2443L73.8011 95.9034C73.9716 95.5057 74.1989 95.196 74.483 94.9744C74.7699 94.75 75.0824 94.5937 75.4205 94.5057C75.7614 94.4148 76.0966 94.3693 76.4261 94.3693C76.6364 94.3693 76.8778 94.3949 77.1506 94.446C77.4261 94.4943 77.6918 94.5952 77.9474 94.7486C78.206 94.902 78.4205 95.1335 78.5909 95.4432C78.7614 95.7528 78.8466 96.1676 78.8466 96.6875V101H77.8409V100.114H77.7898C77.7216 100.256 77.608 100.408 77.4489 100.57C77.2898 100.732 77.0781 100.869 76.8139 100.983C76.5497 101.097 76.2273 101.153 75.8466 101.153ZM76 100.25C76.3977 100.25 76.733 100.172 77.0057 100.016C77.2813 99.8594 77.4886 99.6577 77.6278 99.4105C77.7699 99.1634 77.8409 98.9034 77.8409 98.6307V97.7102C77.7983 97.7614 77.7045 97.8082 77.5597 97.8509C77.4176 97.8906 77.2528 97.9261 77.0653 97.9574C76.8807 97.9858 76.7003 98.0114 76.5241 98.0341C76.3509 98.054 76.2102 98.071 76.1023 98.0852C75.8409 98.1193 75.5966 98.1747 75.3693 98.2514C75.1449 98.3253 74.9631 98.4375 74.8239 98.5881C74.6875 98.7358 74.6193 98.9375 74.6193 99.1932C74.6193 99.5426 74.7486 99.8068 75.0071 99.9858C75.2685 100.162 75.5994 100.25 76 100.25ZM83.5288 94.4545V95.3068H80.1367V94.4545H83.5288ZM81.1254 92.8864H82.131V99.125C82.131 99.4091 82.1722 99.6222 82.2546 99.7642C82.3398 99.9034 82.4478 99.9972 82.5785 100.045C82.712 100.091 82.8526 100.114 83.0004 100.114C83.1112 100.114 83.2021 100.108 83.2731 100.097C83.3441 100.082 83.4009 100.071 83.4435 100.062L83.6481 100.966C83.5799 100.991 83.4847 101.017 83.3626 101.043C83.2404 101.071 83.0856 101.085 82.8981 101.085C82.614 101.085 82.3356 101.024 82.0629 100.902C81.793 100.78 81.5685 100.594 81.3896 100.344C81.2134 100.094 81.1254 99.7784 81.1254 99.3977V92.8864ZM87.8881 94.4545V95.3068H84.4961V94.4545H87.8881ZM85.4847 92.8864H86.4904V99.125C86.4904 99.4091 86.5316 99.6222 86.614 99.7642C86.6992 99.9034 86.8072 99.9972 86.9379 100.045C87.0714 100.091 87.212 100.114 87.3597 100.114C87.4705 100.114 87.5614 100.108 87.6325 100.097C87.7035 100.082 87.7603 100.071 87.8029 100.062L88.0075 100.966C87.9393 100.991 87.8441 101.017 87.7219 101.043C87.5998 101.071 87.445 101.085 87.2575 101.085C86.9734 101.085 86.695 101.024 86.4222 100.902C86.1523 100.78 85.9279 100.594 85.7489 100.344C85.5728 100.094 85.4847 99.7784 85.4847 99.3977V92.8864ZM89.4009 101V94.4545H90.3725V95.4432H90.4407C90.56 95.1193 90.7759 94.8565 91.0884 94.6548C91.4009 94.4531 91.7532 94.3523 92.1452 94.3523C92.2191 94.3523 92.3114 94.3537 92.4222 94.3565C92.533 94.3594 92.6168 94.3636 92.6737 94.3693V95.392C92.6396 95.3835 92.5614 95.3707 92.4393 95.3537C92.32 95.3338 92.1935 95.3239 92.06 95.3239C91.7418 95.3239 91.4577 95.3906 91.2077 95.5241C90.9606 95.6548 90.7646 95.8366 90.6197 96.0696C90.4776 96.2997 90.4066 96.5625 90.4066 96.858V101H89.4009ZM93.8658 101V94.4545H94.8714V101H93.8658ZM94.3771 93.3636C94.1811 93.3636 94.0121 93.2969 93.87 93.1634C93.7308 93.0298 93.6612 92.8693 93.6612 92.6818C93.6612 92.4943 93.7308 92.3338 93.87 92.2003C94.0121 92.0668 94.1811 92 94.3771 92C94.5732 92 94.7408 92.0668 94.88 92.2003C95.022 92.3338 95.093 92.4943 95.093 92.6818C95.093 92.8693 95.022 93.0298 94.88 93.1634C94.7408 93.2969 94.5732 93.3636 94.3771 93.3636ZM96.8498 101V92.2727H97.8555V95.4943H97.9407C98.0146 95.3807 98.1168 95.2358 98.2475 95.0597C98.381 94.8807 98.5714 94.7216 98.8185 94.5824C99.0685 94.4403 99.4066 94.3693 99.8327 94.3693C100.384 94.3693 100.87 94.5071 101.29 94.7827C101.711 95.0582 102.039 95.4489 102.275 95.9545C102.51 96.4602 102.628 97.0568 102.628 97.7443C102.628 98.4375 102.51 99.0384 102.275 99.5469C102.039 100.053 101.712 100.445 101.294 100.723C100.877 100.999 100.395 101.136 99.8498 101.136C99.4293 101.136 99.0927 101.067 98.8398 100.928C98.587 100.786 98.3924 100.625 98.256 100.446C98.1197 100.264 98.0146 100.114 97.9407 99.9943H97.8214V101H96.8498ZM97.8384 97.7273C97.8384 98.2216 97.9109 98.6577 98.0558 99.0355C98.2006 99.4105 98.4123 99.7045 98.6907 99.9176C98.9691 100.128 99.31 100.233 99.7134 100.233C100.134 100.233 100.485 100.122 100.766 99.9006C101.05 99.6761 101.263 99.375 101.405 98.9972C101.55 98.6165 101.623 98.1932 101.623 97.7273C101.623 97.267 101.551 96.8523 101.409 96.483C101.27 96.1108 101.059 95.8168 100.775 95.6009C100.493 95.3821 100.14 95.2727 99.7134 95.2727C99.3043 95.2727 98.9606 95.3764 98.6822 95.5838C98.4038 95.7884 98.1935 96.0753 98.0515 96.4446C97.9094 96.8111 97.8384 97.2386 97.8384 97.7273ZM108.292 98.3239V94.4545H109.297V101H108.292V99.892H108.223C108.07 100.224 107.831 100.507 107.507 100.74C107.184 100.97 106.775 101.085 106.28 101.085C105.871 101.085 105.507 100.996 105.189 100.817C104.871 100.635 104.621 100.362 104.439 99.9986C104.257 99.6321 104.167 99.1705 104.167 98.6136V94.4545H105.172V98.5455C105.172 99.0227 105.306 99.4034 105.573 99.6875C105.843 99.9716 106.186 100.114 106.604 100.114C106.854 100.114 107.108 100.05 107.367 99.9219C107.628 99.794 107.847 99.598 108.023 99.3338C108.202 99.0696 108.292 98.733 108.292 98.3239ZM113.986 94.4545V95.3068H110.594V94.4545H113.986ZM111.582 92.8864H112.588V99.125C112.588 99.4091 112.629 99.6222 112.712 99.7642C112.797 99.9034 112.905 99.9972 113.036 100.045C113.169 100.091 113.31 100.114 113.457 100.114C113.568 100.114 113.659 100.108 113.73 100.097C113.801 100.082 113.858 100.071 113.901 100.062L114.105 100.966C114.037 100.991 113.942 101.017 113.82 101.043C113.697 101.071 113.543 101.085 113.355 101.085C113.071 101.085 112.793 101.024 112.52 100.902C112.25 100.78 112.026 100.594 111.847 100.344C111.67 100.094 111.582 99.7784 111.582 99.3977V92.8864ZM118.173 101.136C117.542 101.136 116.998 100.997 116.54 100.719C116.086 100.438 115.735 100.045 115.488 99.5426C115.244 99.0369 115.121 98.4489 115.121 97.7784C115.121 97.108 115.244 96.517 115.488 96.0057C115.735 95.4915 116.079 95.0909 116.519 94.804C116.962 94.5142 117.479 94.3693 118.07 94.3693C118.411 94.3693 118.748 94.4261 119.08 94.5398C119.413 94.6534 119.715 94.8381 119.988 95.0938C120.261 95.3466 120.478 95.6818 120.64 96.0994C120.802 96.517 120.883 97.0312 120.883 97.642V98.0682H115.837V97.1989H119.86C119.86 96.8295 119.786 96.5 119.638 96.2102C119.494 95.9205 119.286 95.6918 119.016 95.5241C118.749 95.3565 118.434 95.2727 118.07 95.2727C117.67 95.2727 117.323 95.3722 117.031 95.571C116.741 95.767 116.518 96.0227 116.362 96.3381C116.205 96.6534 116.127 96.9915 116.127 97.3523V97.9318C116.127 98.4261 116.212 98.8452 116.383 99.1889C116.556 99.5298 116.796 99.7898 117.103 99.9688C117.41 100.145 117.766 100.233 118.173 100.233C118.437 100.233 118.675 100.196 118.888 100.122C119.104 100.045 119.29 99.9318 119.447 99.7812C119.603 99.6278 119.724 99.4375 119.809 99.2102L120.781 99.483C120.678 99.8125 120.506 100.102 120.265 100.352C120.023 100.599 119.725 100.793 119.37 100.932C119.015 101.068 118.616 101.136 118.173 101.136ZM127.049 95.9205L126.146 96.1761C126.089 96.0256 126.005 95.8793 125.894 95.7372C125.786 95.5923 125.638 95.473 125.451 95.3793C125.263 95.2855 125.023 95.2386 124.731 95.2386C124.33 95.2386 123.996 95.331 123.729 95.5156C123.465 95.6974 123.333 95.929 123.333 96.2102C123.333 96.4602 123.424 96.6577 123.606 96.8026C123.788 96.9474 124.072 97.0682 124.458 97.1648L125.43 97.4034C126.015 97.5455 126.451 97.7628 126.738 98.0554C127.025 98.3452 127.168 98.7187 127.168 99.1761C127.168 99.5511 127.06 99.8864 126.844 100.182C126.631 100.477 126.333 100.71 125.95 100.881C125.566 101.051 125.12 101.136 124.612 101.136C123.944 101.136 123.391 100.991 122.954 100.702C122.516 100.412 122.239 99.9886 122.123 99.4318L123.077 99.1932C123.168 99.5455 123.34 99.8097 123.593 99.9858C123.849 100.162 124.183 100.25 124.594 100.25C125.063 100.25 125.435 100.151 125.711 99.9517C125.989 99.75 126.129 99.5085 126.129 99.2273C126.129 99 126.049 98.8097 125.89 98.6562C125.731 98.5 125.487 98.3835 125.157 98.3068L124.066 98.0511C123.467 97.9091 123.026 97.6889 122.745 97.3906C122.467 97.0895 122.327 96.7131 122.327 96.2614C122.327 95.892 122.431 95.5653 122.638 95.2812C122.849 94.9972 123.134 94.7741 123.495 94.6122C123.859 94.4503 124.271 94.3693 124.731 94.3693C125.379 94.3693 125.887 94.5114 126.256 94.7955C126.629 95.0795 126.893 95.4545 127.049 95.9205ZM129.415 101.068C129.205 101.068 129.025 100.993 128.874 100.842C128.723 100.692 128.648 100.511 128.648 100.301C128.648 100.091 128.723 99.9105 128.874 99.7599C129.025 99.6094 129.205 99.5341 129.415 99.5341C129.625 99.5341 129.806 99.6094 129.956 99.7599C130.107 99.9105 130.182 100.091 130.182 100.301C130.182 100.44 130.147 100.568 130.076 100.685C130.007 100.801 129.915 100.895 129.799 100.966C129.685 101.034 129.557 101.068 129.415 101.068ZM129.415 96.2102C129.205 96.2102 129.025 96.1349 128.874 95.9844C128.723 95.8338 128.648 95.6534 128.648 95.4432C128.648 95.233 128.723 95.0526 128.874 94.902C129.025 94.7514 129.205 94.6761 129.415 94.6761C129.625 94.6761 129.806 94.7514 129.956 94.902C130.107 95.0526 130.182 95.233 130.182 95.4432C130.182 95.5824 130.147 95.7102 130.076 95.8267C130.007 95.9432 129.915 96.0369 129.799 96.108C129.685 96.1761 129.557 96.2102 129.415 96.2102Z" fill="white"/>
<path d="M30 535H45V550H30V535Z" fill="#E9EE00"/>
<path d="M56.9205 547V540.455H57.892V541.477H57.9773C58.1136 541.128 58.3338 540.857 58.6378 540.663C58.9418 540.467 59.3068 540.369 59.733 540.369C60.1648 540.369 60.5241 540.467 60.8111 540.663C61.1009 540.857 61.3267 541.128 61.4886 541.477H61.5568C61.7244 541.139 61.9759 540.871 62.3111 540.672C62.6463 540.47 63.0483 540.369 63.517 540.369C64.1023 540.369 64.581 540.553 64.9531 540.919C65.3253 541.283 65.5114 541.849 65.5114 542.619V547H64.5057V542.619C64.5057 542.136 64.3736 541.791 64.1094 541.584C63.8452 541.376 63.5341 541.273 63.1761 541.273C62.7159 541.273 62.3594 541.412 62.1065 541.69C61.8537 541.966 61.7273 542.315 61.7273 542.739V547H60.7045V542.517C60.7045 542.145 60.5838 541.845 60.3423 541.618C60.1009 541.388 59.7898 541.273 59.4091 541.273C59.1477 541.273 58.9034 541.342 58.6761 541.482C58.4517 541.621 58.2699 541.814 58.1307 542.061C57.9943 542.305 57.9261 542.588 57.9261 542.909V547H56.9205ZM70.0945 547.136C69.4638 547.136 68.9197 546.997 68.4624 546.719C68.0078 546.438 67.657 546.045 67.4098 545.543C67.1655 545.037 67.0433 544.449 67.0433 543.778C67.0433 543.108 67.1655 542.517 67.4098 542.006C67.657 541.491 68.0007 541.091 68.4411 540.804C68.8842 540.514 69.4013 540.369 69.9922 540.369C70.3331 540.369 70.6697 540.426 71.0021 540.54C71.3345 540.653 71.6371 540.838 71.9098 541.094C72.1825 541.347 72.3999 541.682 72.5618 542.099C72.7237 542.517 72.8047 543.031 72.8047 543.642V544.068H67.7592V543.199H71.782C71.782 542.83 71.7081 542.5 71.5604 542.21C71.4155 541.92 71.2081 541.692 70.9382 541.524C70.6712 541.357 70.3558 541.273 69.9922 541.273C69.5916 541.273 69.245 541.372 68.9524 541.571C68.6626 541.767 68.4396 542.023 68.2834 542.338C68.1271 542.653 68.049 542.991 68.049 543.352V543.932C68.049 544.426 68.1342 544.845 68.3047 545.189C68.478 545.53 68.718 545.79 69.0249 545.969C69.3317 546.145 69.6882 546.233 70.0945 546.233C70.3587 546.233 70.5973 546.196 70.8104 546.122C71.0263 546.045 71.2124 545.932 71.3686 545.781C71.5249 545.628 71.6456 545.437 71.7308 545.21L72.7024 545.483C72.6001 545.812 72.4283 546.102 72.1868 546.352C71.9453 546.599 71.647 546.793 71.2919 546.932C70.9368 547.068 70.5376 547.136 70.0945 547.136ZM77.1811 540.455V541.307H73.7891V540.455H77.1811ZM74.7777 538.886H75.7834V545.125C75.7834 545.409 75.8246 545.622 75.907 545.764C75.9922 545.903 76.1001 545.997 76.2308 546.045C76.3643 546.091 76.505 546.114 76.6527 546.114C76.7635 546.114 76.8544 546.108 76.9254 546.097C76.9964 546.082 77.0533 546.071 77.0959 546.062L77.3004 546.966C77.2322 546.991 77.1371 547.017 77.0149 547.043C76.8928 547.071 76.7379 547.085 76.5504 547.085C76.2663 547.085 75.9879 547.024 75.7152 546.902C75.4453 546.78 75.2209 546.594 75.0419 546.344C74.8658 546.094 74.7777 545.778 74.7777 545.398V538.886ZM79.8402 543.062V547H78.8345V538.273H79.8402V541.477H79.9254C80.0788 541.139 80.3089 540.871 80.6158 540.672C80.9254 540.47 81.3374 540.369 81.8516 540.369C82.2976 540.369 82.6882 540.459 83.0234 540.638C83.3587 540.814 83.6186 541.085 83.8033 541.452C83.9908 541.815 84.0845 542.278 84.0845 542.841V547H83.0788V542.909C83.0788 542.389 82.9439 541.987 82.674 541.703C82.407 541.416 82.0362 541.273 81.5618 541.273C81.2322 541.273 80.9368 541.342 80.6754 541.482C80.4169 541.621 80.2124 541.824 80.0618 542.091C79.9141 542.358 79.8402 542.682 79.8402 543.062ZM88.5835 547.136C87.9925 547.136 87.4741 546.996 87.0281 546.714C86.5849 546.433 86.2383 546.04 85.9883 545.534C85.7411 545.028 85.6175 544.437 85.6175 543.761C85.6175 543.08 85.7411 542.484 85.9883 541.976C86.2383 541.467 86.5849 541.072 87.0281 540.791C87.4741 540.51 87.9925 540.369 88.5835 540.369C89.1744 540.369 89.6914 540.51 90.1346 540.791C90.5806 541.072 90.9272 541.467 91.1744 541.976C91.4244 542.484 91.5494 543.08 91.5494 543.761C91.5494 544.437 91.4244 545.028 91.1744 545.534C90.9272 546.04 90.5806 546.433 90.1346 546.714C89.6914 546.996 89.1744 547.136 88.5835 547.136ZM88.5835 546.233C89.0323 546.233 89.4016 546.118 89.6914 545.888C89.9812 545.658 90.1957 545.355 90.3349 544.98C90.4741 544.605 90.5437 544.199 90.5437 543.761C90.5437 543.324 90.4741 542.916 90.3349 542.538C90.1957 542.161 89.9812 541.855 89.6914 541.622C89.4016 541.389 89.0323 541.273 88.5835 541.273C88.1346 541.273 87.7653 541.389 87.4755 541.622C87.1857 541.855 86.9712 542.161 86.832 542.538C86.6928 542.916 86.6232 543.324 86.6232 543.761C86.6232 544.199 86.6928 544.605 86.832 544.98C86.9712 545.355 87.1857 545.658 87.4755 545.888C87.7653 546.118 88.1346 546.233 88.5835 546.233ZM95.5561 547.136C95.0107 547.136 94.5291 546.999 94.1115 546.723C93.6939 546.445 93.3672 546.053 93.1314 545.547C92.8956 545.038 92.7777 544.438 92.7777 543.744C92.7777 543.057 92.8956 542.46 93.1314 541.955C93.3672 541.449 93.6953 541.058 94.1158 540.783C94.5362 540.507 95.022 540.369 95.5732 540.369C95.9993 540.369 96.3359 540.44 96.5831 540.582C96.8331 540.722 97.0234 540.881 97.1541 541.06C97.2876 541.236 97.3913 541.381 97.4652 541.494H97.5504V538.273H98.5561V547H97.5845V545.994H97.4652C97.3913 546.114 97.2862 546.264 97.1499 546.446C97.0135 546.625 96.8189 546.786 96.5661 546.928C96.3132 547.067 95.9766 547.136 95.5561 547.136ZM95.6925 546.233C96.0959 546.233 96.4368 546.128 96.7152 545.918C96.9936 545.705 97.2053 545.411 97.3501 545.036C97.495 544.658 97.5675 544.222 97.5675 543.727C97.5675 543.239 97.4964 542.811 97.3544 542.445C97.2124 542.075 97.0021 541.788 96.7237 541.584C96.4453 541.376 96.1016 541.273 95.6925 541.273C95.2663 541.273 94.9112 541.382 94.6271 541.601C94.3459 541.817 94.1342 542.111 93.9922 542.483C93.853 542.852 93.7834 543.267 93.7834 543.727C93.7834 544.193 93.8544 544.616 93.9964 544.997C94.1413 545.375 94.3544 545.676 94.6357 545.901C94.9197 546.122 95.272 546.233 95.6925 546.233ZM105.174 541.92L104.271 542.176C104.214 542.026 104.13 541.879 104.019 541.737C103.911 541.592 103.763 541.473 103.576 541.379C103.388 541.286 103.148 541.239 102.856 541.239C102.455 541.239 102.121 541.331 101.854 541.516C101.59 541.697 101.458 541.929 101.458 542.21C101.458 542.46 101.549 542.658 101.731 542.803C101.913 542.947 102.197 543.068 102.583 543.165L103.555 543.403C104.14 543.545 104.576 543.763 104.863 544.055C105.15 544.345 105.293 544.719 105.293 545.176C105.293 545.551 105.185 545.886 104.969 546.182C104.756 546.477 104.458 546.71 104.075 546.881C103.691 547.051 103.245 547.136 102.737 547.136C102.069 547.136 101.516 546.991 101.079 546.702C100.641 546.412 100.364 545.989 100.248 545.432L101.202 545.193C101.293 545.545 101.465 545.81 101.718 545.986C101.974 546.162 102.308 546.25 102.719 546.25C103.188 546.25 103.56 546.151 103.836 545.952C104.114 545.75 104.254 545.509 104.254 545.227C104.254 545 104.174 544.81 104.015 544.656C103.856 544.5 103.612 544.384 103.282 544.307L102.191 544.051C101.592 543.909 101.151 543.689 100.87 543.391C100.592 543.089 100.452 542.713 100.452 542.261C100.452 541.892 100.556 541.565 100.763 541.281C100.974 540.997 101.259 540.774 101.62 540.612C101.984 540.45 102.396 540.369 102.856 540.369C103.504 540.369 104.012 540.511 104.381 540.795C104.754 541.08 105.018 541.455 105.174 541.92ZM107.54 547.068C107.33 547.068 107.15 546.993 106.999 546.842C106.848 546.692 106.773 546.511 106.773 546.301C106.773 546.091 106.848 545.911 106.999 545.76C107.15 545.609 107.33 545.534 107.54 545.534C107.75 545.534 107.931 545.609 108.081 545.76C108.232 545.911 108.307 546.091 108.307 546.301C108.307 546.44 108.272 546.568 108.201 546.685C108.132 546.801 108.04 546.895 107.924 546.966C107.81 547.034 107.682 547.068 107.54 547.068ZM107.54 542.21C107.33 542.21 107.15 542.135 106.999 541.984C106.848 541.834 106.773 541.653 106.773 541.443C106.773 541.233 106.848 541.053 106.999 540.902C107.15 540.751 107.33 540.676 107.54 540.676C107.75 540.676 107.931 540.751 108.081 540.902C108.232 541.053 108.307 541.233 108.307 541.443C108.307 541.582 108.272 541.71 108.201 541.827C108.132 541.943 108.04 542.037 107.924 542.108C107.81 542.176 107.682 542.21 107.54 542.21Z" fill="white"/>
<path d="M66.8303 135L68.7621 123.364H72.8303C73.6409 123.364 74.2867 123.504 74.7678 123.784C75.2488 124.061 75.5784 124.434 75.7564 124.903C75.9344 125.369 75.9742 125.886 75.8757 126.455C75.7924 126.955 75.6352 127.367 75.4041 127.693C75.1768 128.019 74.9041 128.277 74.5859 128.466C74.2715 128.655 73.9439 128.795 73.603 128.886L73.5803 129C73.9287 129.023 74.264 129.148 74.5859 129.375C74.9079 129.602 75.156 129.928 75.3303 130.352C75.5045 130.777 75.5424 131.295 75.4439 131.909C75.3454 132.492 75.1238 133.017 74.7791 133.483C74.4344 133.949 73.9534 134.318 73.3359 134.591C72.7185 134.864 71.9515 135 71.0348 135H66.8303ZM68.4439 133.75H71.2393C72.1598 133.75 72.8435 133.572 73.2905 133.216C73.7412 132.856 74.0121 132.42 74.103 131.909C74.1636 131.515 74.12 131.152 73.9723 130.818C73.8284 130.481 73.5878 130.212 73.2507 130.011C72.9174 129.807 72.4969 129.705 71.9893 129.705H69.1257L68.4439 133.75ZM69.3303 128.477H71.9439C72.3681 128.477 72.7659 128.394 73.1371 128.227C73.5083 128.061 73.8189 127.826 74.0689 127.523C74.3189 127.22 74.4742 126.864 74.5348 126.455C74.6257 125.943 74.5234 125.509 74.228 125.153C73.9325 124.794 73.3984 124.614 72.6257 124.614H69.9666L69.3303 128.477ZM77.0547 135L78.5092 126.273H79.8047L79.5774 127.591H79.6683C79.8956 127.159 80.2422 126.809 80.7081 126.54C81.174 126.271 81.6683 126.136 82.1911 126.136C82.2933 126.136 82.4164 126.138 82.5604 126.142C82.7043 126.142 82.8161 126.148 82.8956 126.159L82.6683 127.523C82.6229 127.511 82.5206 127.494 82.3615 127.472C82.2024 127.445 82.032 127.432 81.8501 127.432C81.4259 127.432 81.0339 127.521 80.674 127.699C80.3142 127.873 80.013 128.116 79.7706 128.426C79.5282 128.733 79.3729 129.083 79.3047 129.477L78.3956 135H77.0547ZM85.5845 135.205C85.0315 135.205 84.5466 135.1 84.13 134.892C83.7133 134.68 83.4046 134.375 83.2038 133.977C83.0031 133.576 82.9482 133.091 83.0391 132.523C83.1262 132.023 83.2947 131.617 83.5447 131.307C83.7947 130.992 84.0978 130.746 84.4538 130.568C84.8137 130.386 85.2 130.252 85.6129 130.165C86.0296 130.074 86.4444 130.004 86.8572 129.955C87.3951 129.886 87.8326 129.833 88.1697 129.795C88.5069 129.758 88.7607 129.695 88.9311 129.608C89.1016 129.521 89.2057 129.371 89.2436 129.159V129.114C89.3345 128.557 89.2607 128.123 89.022 127.812C88.7834 127.498 88.3572 127.341 87.7436 127.341C87.1072 127.341 86.575 127.481 86.147 127.761C85.719 128.042 85.4027 128.341 85.1982 128.659L84.0163 128.205C84.3269 127.674 84.6982 127.261 85.13 126.966C85.5618 126.667 86.0144 126.458 86.4879 126.341C86.9614 126.22 87.4179 126.159 87.8572 126.159C88.1375 126.159 88.4538 126.193 88.8061 126.261C89.1584 126.326 89.4879 126.46 89.7947 126.665C90.1054 126.869 90.3383 127.178 90.4936 127.591C90.6527 128.004 90.6754 128.557 90.5618 129.25L89.6072 135H88.2663L88.4709 133.818H88.4027C88.2815 134.008 88.0959 134.21 87.8459 134.426C87.5997 134.642 87.2872 134.826 86.9084 134.977C86.5334 135.129 86.0921 135.205 85.5845 135.205ZM85.9709 134C86.5012 134 86.9652 133.896 87.3629 133.688C87.7644 133.479 88.0864 133.21 88.3288 132.881C88.575 132.551 88.7285 132.205 88.7891 131.841L88.9936 130.614C88.9254 130.682 88.791 130.744 88.5902 130.801C88.3894 130.854 88.1622 130.902 87.9084 130.943C87.6584 130.981 87.4141 131.015 87.1754 131.045C86.9406 131.072 86.7512 131.095 86.6072 131.114C86.2512 131.159 85.9122 131.233 85.5902 131.335C85.272 131.434 85.0031 131.583 84.7834 131.784C84.5675 131.981 84.433 132.25 84.38 132.591C84.3004 133.057 84.4122 133.409 84.7152 133.648C85.0182 133.883 85.4368 134 85.9709 134ZM94.2592 129.75L93.3956 135H92.0547L93.5092 126.273H94.8047L94.5774 127.636H94.6911C94.9638 127.193 95.3331 126.837 95.799 126.568C96.2649 126.295 96.8274 126.159 97.4865 126.159C98.0698 126.159 98.5623 126.28 98.9638 126.523C99.3691 126.761 99.6551 127.125 99.8217 127.614C99.9922 128.098 100.017 128.712 99.8956 129.455L98.9638 135H97.6229L98.532 129.545C98.6456 128.864 98.5566 128.33 98.2649 127.943C97.977 127.557 97.5206 127.364 96.8956 127.364C96.4638 127.364 96.0642 127.456 95.6967 127.642C95.3331 127.828 95.0244 128.098 94.7706 128.455C94.5206 128.811 94.3501 129.242 94.2592 129.75ZM104.698 135.182C103.967 135.182 103.353 134.998 102.857 134.631C102.361 134.259 102.011 133.737 101.806 133.062C101.605 132.384 101.581 131.583 101.732 130.659C101.888 129.742 102.177 128.947 102.602 128.273C103.03 127.598 103.554 127.078 104.175 126.71C104.797 126.343 105.475 126.159 106.21 126.159C106.778 126.159 107.211 126.254 107.511 126.443C107.814 126.629 108.033 126.841 108.17 127.08C108.306 127.314 108.41 127.508 108.482 127.659H108.596L109.312 123.364H110.653L108.721 135H107.425L107.653 133.659H107.494C107.369 133.818 107.194 134.019 106.971 134.261C106.747 134.5 106.452 134.714 106.085 134.903C105.721 135.089 105.259 135.182 104.698 135.182ZM105.028 133.977C105.566 133.977 106.047 133.837 106.471 133.557C106.899 133.273 107.255 132.881 107.539 132.381C107.823 131.877 108.02 131.295 108.13 130.636C108.24 129.985 108.236 129.415 108.119 128.926C108.001 128.434 107.776 128.051 107.442 127.778C107.109 127.502 106.668 127.364 106.119 127.364C105.554 127.364 105.064 127.509 104.647 127.801C104.23 128.089 103.891 128.481 103.63 128.977C103.369 129.47 103.187 130.023 103.085 130.636C102.982 131.258 102.98 131.822 103.079 132.33C103.177 132.833 103.386 133.235 103.704 133.534C104.026 133.83 104.467 133.977 105.028 133.977Z" fill="white"/>
<path d="M68.6839 190.364H70.3658L72.7294 200.023H72.8658L78.4112 190.364H80.093L78.1612 202H76.843L78.3203 193.159H78.2067L73.093 202H71.8203L69.6612 193.159H69.5476L68.0703 202H66.7521L68.6839 190.364ZM84.407 202.182C83.6039 202.182 82.9316 201.991 82.3899 201.608C81.8482 201.225 81.4657 200.689 81.2422 200C81.0225 199.311 80.9865 198.508 81.1342 197.591C81.2782 196.697 81.5642 195.919 81.9922 195.256C82.424 194.589 82.96 194.074 83.6001 193.71C84.2441 193.343 84.9524 193.159 85.7251 193.159C86.5282 193.159 87.1986 193.352 87.7365 193.739C88.2782 194.121 88.6607 194.659 88.8842 195.352C89.1077 196.042 89.1456 196.848 88.9979 197.773C88.8539 198.659 88.5642 199.434 88.1286 200.097C87.6967 200.756 87.1607 201.269 86.5206 201.636C85.8842 202 85.1797 202.182 84.407 202.182ZM84.4297 200.977C85.0433 200.977 85.5755 200.82 86.0263 200.506C86.4808 200.191 86.8482 199.777 87.1286 199.261C87.4126 198.746 87.6039 198.189 87.7024 197.591C87.7933 197.023 87.7895 196.494 87.6911 196.006C87.5926 195.513 87.3823 195.117 87.0604 194.818C86.7384 194.515 86.2857 194.364 85.7024 194.364C85.0888 194.364 84.5528 194.523 84.0945 194.841C83.6399 195.159 83.2725 195.578 82.9922 196.097C82.7119 196.616 82.5244 197.174 82.4297 197.773C82.3388 198.341 82.3407 198.869 82.4354 199.358C82.5339 199.843 82.7441 200.235 83.0661 200.534C83.3918 200.83 83.8464 200.977 84.4297 200.977ZM93.6357 202.182C92.9046 202.182 92.291 201.998 91.7947 201.631C91.2985 201.259 90.9482 200.737 90.7436 200.062C90.5429 199.384 90.5182 198.583 90.6697 197.659C90.825 196.742 91.1148 195.947 91.5391 195.273C91.9671 194.598 92.4917 194.078 93.1129 193.71C93.7341 193.343 94.4122 193.159 95.147 193.159C95.7152 193.159 96.1489 193.254 96.4482 193.443C96.7512 193.629 96.9709 193.841 97.1072 194.08C97.2436 194.314 97.3478 194.508 97.4197 194.659H97.5334L98.2493 190.364H99.5902L97.6584 202H96.3629L96.5902 200.659H96.4311C96.3061 200.818 96.1319 201.019 95.9084 201.261C95.6849 201.5 95.3894 201.714 95.022 201.903C94.6584 202.089 94.1963 202.182 93.6357 202.182ZM93.9652 200.977C94.5031 200.977 94.9841 200.837 95.4084 200.557C95.8364 200.273 96.1925 199.881 96.4766 199.381C96.7607 198.877 96.9576 198.295 97.0675 197.636C97.1773 196.985 97.1735 196.415 97.0561 195.926C96.9387 195.434 96.7133 195.051 96.38 194.778C96.0466 194.502 95.6054 194.364 95.0561 194.364C94.4917 194.364 94.0012 194.509 93.5845 194.801C93.1679 195.089 92.8288 195.481 92.5675 195.977C92.3061 196.47 92.1243 197.023 92.022 197.636C91.9197 198.258 91.9179 198.822 92.0163 199.33C92.1148 199.833 92.3232 200.235 92.6413 200.534C92.9633 200.83 93.4046 200.977 93.9652 200.977ZM103.925 202.182C103.088 202.182 102.397 201.996 101.852 201.625C101.306 201.25 100.925 200.727 100.71 200.057C100.494 199.383 100.46 198.598 100.607 197.705C100.755 196.811 101.049 196.023 101.488 195.341C101.927 194.655 102.475 194.121 103.13 193.739C103.785 193.352 104.505 193.159 105.289 193.159C105.744 193.159 106.181 193.235 106.602 193.386C107.022 193.538 107.386 193.784 107.692 194.125C107.999 194.462 108.213 194.909 108.335 195.466C108.456 196.023 108.448 196.708 108.312 197.523L108.221 198.091H101.494L101.675 196.932H107.039C107.126 196.439 107.103 196 106.971 195.614C106.842 195.227 106.617 194.922 106.295 194.699C105.977 194.475 105.573 194.364 105.085 194.364C104.581 194.364 104.111 194.5 103.675 194.773C103.24 195.042 102.876 195.383 102.585 195.795C102.293 196.205 102.111 196.621 102.039 197.045L101.88 198.045C101.766 198.769 101.783 199.345 101.931 199.773C102.083 200.201 102.346 200.509 102.721 200.699C103.096 200.884 103.566 200.977 104.13 200.977C104.49 200.977 104.821 200.928 105.124 200.83C105.427 200.727 105.698 200.576 105.937 200.375C106.175 200.17 106.376 199.917 106.539 199.614L107.766 199.977C107.558 200.417 107.264 200.803 106.886 201.136C106.511 201.466 106.071 201.723 105.567 201.909C105.067 202.091 104.52 202.182 103.925 202.182ZM112.906 190.364L110.974 202H109.633L111.565 190.364H112.906Z" fill="white"/>
<path d="M247.606 194H246.219C246.204 193.595 246.121 193.239 245.969 192.932C245.818 192.625 245.613 192.367 245.356 192.159C245.102 191.947 244.81 191.788 244.481 191.682C244.151 191.576 243.799 191.523 243.424 191.523C242.704 191.523 242.022 191.706 241.379 192.074C240.735 192.437 240.183 192.973 239.725 193.682C239.267 194.386 238.954 195.25 238.788 196.273C238.621 197.265 238.646 198.1 238.862 198.778C239.077 199.456 239.435 199.97 239.935 200.318C240.435 200.667 241.03 200.841 241.719 200.841C242.117 200.841 242.507 200.788 242.89 200.682C243.276 200.576 243.636 200.419 243.969 200.21C244.307 199.998 244.606 199.739 244.867 199.432C245.132 199.121 245.341 198.765 245.492 198.364H246.901C246.693 198.958 246.411 199.491 246.055 199.96C245.702 200.43 245.295 200.83 244.833 201.159C244.371 201.485 243.873 201.733 243.339 201.903C242.805 202.074 242.25 202.159 241.674 202.159C240.666 202.159 239.808 201.913 239.1 201.42C238.396 200.924 237.892 200.223 237.589 199.318C237.29 198.409 237.242 197.333 237.447 196.091C237.651 194.879 238.043 193.833 238.623 192.955C239.202 192.072 239.913 191.394 240.754 190.92C241.594 190.443 242.507 190.205 243.492 190.205C244.083 190.205 244.627 190.29 245.123 190.46C245.619 190.631 246.051 190.881 246.418 191.21C246.786 191.536 247.072 191.934 247.276 192.403C247.485 192.869 247.594 193.402 247.606 194ZM251.985 202.182C251.182 202.182 250.51 201.991 249.968 201.608C249.426 201.225 249.044 200.689 248.82 200C248.601 199.311 248.565 198.508 248.712 197.591C248.856 196.697 249.142 195.919 249.57 195.256C250.002 194.589 250.538 194.074 251.178 193.71C251.822 193.343 252.531 193.159 253.303 193.159C254.106 193.159 254.777 193.352 255.315 193.739C255.856 194.121 256.239 194.659 256.462 195.352C256.686 196.042 256.724 196.848 256.576 197.773C256.432 198.659 256.142 199.434 255.707 200.097C255.275 200.756 254.739 201.269 254.099 201.636C253.462 202 252.758 202.182 251.985 202.182ZM252.008 200.977C252.621 200.977 253.154 200.82 253.604 200.506C254.059 200.191 254.426 199.777 254.707 199.261C254.991 198.746 255.182 198.189 255.281 197.591C255.371 197.023 255.368 196.494 255.269 196.006C255.171 195.513 254.96 195.117 254.638 194.818C254.317 194.515 253.864 194.364 253.281 194.364C252.667 194.364 252.131 194.523 251.673 194.841C251.218 195.159 250.851 195.578 250.57 196.097C250.29 196.616 250.103 197.174 250.008 197.773C249.917 198.341 249.919 198.869 250.013 199.358C250.112 199.843 250.322 200.235 250.644 200.534C250.97 200.83 251.424 200.977 252.008 200.977ZM261.202 190.364L259.271 202H257.93L259.862 190.364H261.202ZM265.329 202.182C264.526 202.182 263.853 201.991 263.312 201.608C262.77 201.225 262.388 200.689 262.164 200C261.944 199.311 261.908 198.508 262.056 197.591C262.2 196.697 262.486 195.919 262.914 195.256C263.346 194.589 263.882 194.074 264.522 193.71C265.166 193.343 265.874 193.159 266.647 193.159C267.45 193.159 268.121 193.352 268.658 193.739C269.2 194.121 269.583 194.659 269.806 195.352C270.03 196.042 270.067 196.848 269.92 197.773C269.776 198.659 269.486 199.434 269.05 200.097C268.619 200.756 268.083 201.269 267.442 201.636C266.806 202 266.102 202.182 265.329 202.182ZM265.352 200.977C265.965 200.977 266.497 200.82 266.948 200.506C267.403 200.191 267.77 199.777 268.05 199.261C268.335 198.746 268.526 198.189 268.624 197.591C268.715 197.023 268.711 196.494 268.613 196.006C268.514 195.513 268.304 195.117 267.982 194.818C267.66 194.515 267.208 194.364 266.624 194.364C266.011 194.364 265.475 194.523 265.016 194.841C264.562 195.159 264.194 195.578 263.914 196.097C263.634 196.616 263.446 197.174 263.352 197.773C263.261 198.341 263.263 198.869 263.357 199.358C263.456 199.843 263.666 200.235 263.988 200.534C264.314 200.83 264.768 200.977 265.352 200.977ZM271.273 202L272.728 193.273H274.023L273.796 194.591H273.887C274.114 194.159 274.461 193.809 274.927 193.54C275.393 193.271 275.887 193.136 276.41 193.136C276.512 193.136 276.635 193.138 276.779 193.142C276.923 193.142 277.035 193.148 277.114 193.159L276.887 194.523C276.842 194.511 276.739 194.494 276.58 194.472C276.421 194.445 276.251 194.432 276.069 194.432C275.645 194.432 275.253 194.521 274.893 194.699C274.533 194.873 274.232 195.116 273.989 195.426C273.747 195.733 273.592 196.083 273.523 196.477L272.614 202H271.273Z" fill="white"/>
<path d="M236.713 135L238.645 123.364H242.577C243.486 123.364 244.205 123.517 244.736 123.824C245.27 124.131 245.632 124.553 245.821 125.091C246.014 125.629 246.054 126.242 245.94 126.932C245.827 127.614 245.584 128.22 245.213 128.75C244.846 129.28 244.346 129.697 243.713 130C243.084 130.303 242.319 130.455 241.418 130.455H238.236L238.463 129.182H241.599C242.221 129.182 242.736 129.091 243.145 128.909C243.554 128.727 243.872 128.468 244.099 128.131C244.327 127.794 244.478 127.394 244.554 126.932C244.63 126.462 244.609 126.055 244.491 125.71C244.378 125.362 244.145 125.093 243.793 124.903C243.444 124.71 242.955 124.614 242.327 124.614H239.849L238.122 135H236.713ZM243.054 129.773L245.054 135H243.418L241.463 129.773H243.054ZM250.308 135.182C249.471 135.182 248.78 134.996 248.234 134.625C247.689 134.25 247.308 133.727 247.092 133.057C246.876 132.383 246.842 131.598 246.99 130.705C247.138 129.811 247.431 129.023 247.871 128.341C248.31 127.655 248.857 127.121 249.513 126.739C250.168 126.352 250.888 126.159 251.672 126.159C252.126 126.159 252.564 126.235 252.984 126.386C253.405 126.538 253.768 126.784 254.075 127.125C254.382 127.462 254.596 127.909 254.717 128.466C254.839 129.023 254.831 129.708 254.695 130.523L254.604 131.091H247.876L248.058 129.932H253.422C253.509 129.439 253.486 129 253.354 128.614C253.225 128.227 253 127.922 252.678 127.699C252.359 127.475 251.956 127.364 251.467 127.364C250.964 127.364 250.494 127.5 250.058 127.773C249.623 128.042 249.259 128.383 248.967 128.795C248.676 129.205 248.494 129.621 248.422 130.045L248.263 131.045C248.149 131.769 248.166 132.345 248.314 132.773C248.465 133.201 248.729 133.509 249.104 133.699C249.479 133.884 249.948 133.977 250.513 133.977C250.873 133.977 251.204 133.928 251.507 133.83C251.81 133.727 252.081 133.576 252.32 133.375C252.558 133.17 252.759 132.917 252.922 132.614L254.149 132.977C253.941 133.417 253.647 133.803 253.268 134.136C252.893 134.466 252.454 134.723 251.95 134.909C251.45 135.091 250.903 135.182 250.308 135.182ZM261.357 126.273L261.175 127.409H256.47L256.652 126.273H261.357ZM256.607 135L258.266 125.068C258.341 124.568 258.523 124.152 258.811 123.818C259.103 123.485 259.449 123.235 259.851 123.068C260.256 122.902 260.667 122.818 261.084 122.818C261.413 122.818 261.677 122.845 261.874 122.898C262.074 122.951 262.22 123 262.311 123.045L261.743 124.205C261.675 124.182 261.584 124.153 261.47 124.119C261.36 124.085 261.209 124.068 261.016 124.068C260.572 124.068 260.235 124.18 260.004 124.403C259.773 124.627 259.618 124.955 259.538 125.386L257.947 135H256.607ZM265.058 135.182C264.221 135.182 263.53 134.996 262.984 134.625C262.439 134.25 262.058 133.727 261.842 133.057C261.626 132.383 261.592 131.598 261.74 130.705C261.888 129.811 262.181 129.023 262.621 128.341C263.06 127.655 263.607 127.121 264.263 126.739C264.918 126.352 265.638 126.159 266.422 126.159C266.876 126.159 267.314 126.235 267.734 126.386C268.155 126.538 268.518 126.784 268.825 127.125C269.132 127.462 269.346 127.909 269.467 128.466C269.589 129.023 269.581 129.708 269.445 130.523L269.354 131.091H262.626L262.808 129.932H268.172C268.259 129.439 268.236 129 268.104 128.614C267.975 128.227 267.75 127.922 267.428 127.699C267.109 127.475 266.706 127.364 266.217 127.364C265.714 127.364 265.244 127.5 264.808 127.773C264.373 128.042 264.009 128.383 263.717 128.795C263.426 129.205 263.244 129.621 263.172 130.045L263.013 131.045C262.899 131.769 262.916 132.345 263.064 132.773C263.215 133.201 263.479 133.509 263.854 133.699C264.229 133.884 264.698 133.977 265.263 133.977C265.623 133.977 265.954 133.928 266.257 133.83C266.56 133.727 266.831 133.576 267.07 133.375C267.308 133.17 267.509 132.917 267.672 132.614L268.899 132.977C268.691 133.417 268.397 133.803 268.018 134.136C267.643 134.466 267.204 134.723 266.7 134.909C266.2 135.091 265.653 135.182 265.058 135.182ZM270.766 135L272.22 126.273H273.516L273.288 127.591H273.379C273.607 127.159 273.953 126.809 274.419 126.54C274.885 126.271 275.379 126.136 275.902 126.136C276.004 126.136 276.127 126.138 276.271 126.142C276.415 126.142 276.527 126.148 276.607 126.159L276.379 127.523C276.334 127.511 276.232 127.494 276.072 127.472C275.913 127.445 275.743 127.432 275.561 127.432C275.137 127.432 274.745 127.521 274.385 127.699C274.025 127.873 273.724 128.116 273.482 128.426C273.239 128.733 273.084 129.083 273.016 129.477L272.107 135H270.766ZM280.121 135.182C279.284 135.182 278.592 134.996 278.047 134.625C277.501 134.25 277.121 133.727 276.905 133.057C276.689 132.383 276.655 131.598 276.803 130.705C276.95 129.811 277.244 129.023 277.683 128.341C278.123 127.655 278.67 127.121 279.325 126.739C279.981 126.352 280.7 126.159 281.484 126.159C281.939 126.159 282.376 126.235 282.797 126.386C283.217 126.538 283.581 126.784 283.888 127.125C284.195 127.462 284.409 127.909 284.53 128.466C284.651 129.023 284.643 129.708 284.507 130.523L284.416 131.091H277.689L277.871 129.932H283.234C283.321 129.439 283.299 129 283.166 128.614C283.037 128.227 282.812 127.922 282.49 127.699C282.172 127.475 281.768 127.364 281.28 127.364C280.776 127.364 280.306 127.5 279.871 127.773C279.435 128.042 279.071 128.383 278.78 128.795C278.488 129.205 278.306 129.621 278.234 130.045L278.075 131.045C277.962 131.769 277.979 132.345 278.126 132.773C278.278 133.201 278.541 133.509 278.916 133.699C279.291 133.884 279.761 133.977 280.325 133.977C280.685 133.977 281.017 133.928 281.32 133.83C281.623 133.727 281.893 133.576 282.132 133.375C282.371 133.17 282.571 132.917 282.734 132.614L283.962 132.977C283.753 133.417 283.46 133.803 283.081 134.136C282.706 134.466 282.267 134.723 281.763 134.909C281.263 135.091 280.715 135.182 280.121 135.182ZM288.033 129.75L287.169 135H285.828L287.283 126.273H288.578L288.351 127.636H288.464C288.737 127.193 289.107 126.837 289.572 126.568C290.038 126.295 290.601 126.159 291.26 126.159C291.843 126.159 292.336 126.28 292.737 126.523C293.143 126.761 293.429 127.125 293.595 127.614C293.766 128.098 293.79 128.712 293.669 129.455L292.737 135H291.396L292.305 129.545C292.419 128.864 292.33 128.33 292.038 127.943C291.75 127.557 291.294 127.364 290.669 127.364C290.237 127.364 289.838 127.456 289.47 127.642C289.107 127.828 288.798 128.098 288.544 128.455C288.294 128.811 288.124 129.242 288.033 129.75ZM298.71 135.182C297.888 135.182 297.214 134.989 296.688 134.602C296.165 134.216 295.801 133.684 295.597 133.006C295.392 132.328 295.362 131.553 295.506 130.682C295.65 129.795 295.941 129.013 296.381 128.335C296.82 127.653 297.367 127.121 298.023 126.739C298.678 126.352 299.4 126.159 300.188 126.159C300.801 126.159 301.335 126.273 301.79 126.5C302.244 126.727 302.595 127.045 302.841 127.455C303.087 127.864 303.203 128.341 303.188 128.886H301.847C301.809 128.489 301.638 128.136 301.335 127.83C301.036 127.519 300.593 127.364 300.006 127.364C299.483 127.364 299.002 127.5 298.562 127.773C298.123 128.042 297.754 128.422 297.455 128.915C297.155 129.403 296.953 129.977 296.847 130.636C296.733 131.311 296.742 131.898 296.875 132.398C297.008 132.898 297.248 133.286 297.597 133.562C297.945 133.839 298.384 133.977 298.915 133.977C299.263 133.977 299.589 133.917 299.892 133.795C300.195 133.674 300.464 133.5 300.699 133.273C300.934 133.045 301.119 132.773 301.256 132.455H302.597C302.43 132.97 302.163 133.434 301.795 133.847C301.428 134.256 300.983 134.581 300.46 134.824C299.938 135.062 299.354 135.182 298.71 135.182ZM307.761 135.182C306.924 135.182 306.233 134.996 305.688 134.625C305.142 134.25 304.761 133.727 304.545 133.057C304.33 132.383 304.295 131.598 304.443 130.705C304.591 129.811 304.884 129.023 305.324 128.341C305.763 127.655 306.311 127.121 306.966 126.739C307.621 126.352 308.341 126.159 309.125 126.159C309.58 126.159 310.017 126.235 310.438 126.386C310.858 126.538 311.222 126.784 311.528 127.125C311.835 127.462 312.049 127.909 312.17 128.466C312.292 129.023 312.284 129.708 312.148 130.523L312.057 131.091H305.33L305.511 129.932H310.875C310.962 129.439 310.939 129 310.807 128.614C310.678 128.227 310.453 127.922 310.131 127.699C309.813 127.475 309.409 127.364 308.92 127.364C308.417 127.364 307.947 127.5 307.511 127.773C307.076 128.042 306.712 128.383 306.42 128.795C306.129 129.205 305.947 129.621 305.875 130.045L305.716 131.045C305.602 131.769 305.619 132.345 305.767 132.773C305.919 133.201 306.182 133.509 306.557 133.699C306.932 133.884 307.402 133.977 307.966 133.977C308.326 133.977 308.657 133.928 308.96 133.83C309.263 133.727 309.534 133.576 309.773 133.375C310.011 133.17 310.212 132.917 310.375 132.614L311.602 132.977C311.394 133.417 311.1 133.803 310.722 134.136C310.347 134.466 309.907 134.723 309.403 134.909C308.903 135.091 308.356 135.182 307.761 135.182Z" fill="white"/>
<rect x="30.5" y="246.5" width="359" height="279" stroke="white"/>
</svg>
