<svg width="50" height="50" viewBox="0 0 50 50" fill="none" xmlns="http://www.w3.org/2000/svg">
<g clip-path="url(#clip0_7_152)">
<circle r="25" transform="matrix(-1 0 0 1 25 25)" fill="#FFE600"/>
<path fill-rule="evenodd" clip-rule="evenodd" d="M42.7675 36.7675C43.2362 36.2987 43.4995 35.6629 43.4995 35C43.4995 34.3371 43.2362 33.7013 42.7675 33.2325L34.535 25L42.7675 16.7675C43.2229 16.296 43.4749 15.6645 43.4692 15.009C43.4635 14.3535 43.2006 13.7265 42.737 13.263C42.2735 12.7994 41.6465 12.5365 40.991 12.5308C40.3355 12.5251 39.704 12.7771 39.2325 13.2325L29.2325 23.2325C28.7638 23.7013 28.5005 24.3371 28.5005 25C28.5005 25.6629 28.7638 26.2987 29.2325 26.7675L39.2325 36.7675C39.7013 37.2362 40.3371 37.4995 41 37.4995C41.6629 37.4995 42.2987 37.2362 42.7675 36.7675Z" fill="black"/>
<rect width="50" height="50" transform="matrix(-1 0 0 1 25 0)" fill="#313131"/>
</g>
<defs>
<clipPath id="clip0_7_152">
<rect width="50" height="50" fill="white" transform="matrix(-1 0 0 1 50 0)"/>
</clipPath>
</defs>
</svg>
