<svg width="50" height="50" viewBox="0 0 50 50" fill="none" xmlns="http://www.w3.org/2000/svg">
<g clip-path="url(#clip0_7_147)">
<circle cx="25" cy="25" r="25" fill="#FFE600"/>
<path fill-rule="evenodd" clip-rule="evenodd" d="M7.23252 36.7675C6.76384 36.2987 6.50055 35.6629 6.50055 35C6.50055 34.3371 6.76384 33.7013 7.23252 33.2325L15.465 25L7.23252 16.7675C6.77712 16.296 6.52513 15.6645 6.53083 15.009C6.53653 14.3535 6.79945 13.7265 7.26297 13.263C7.72649 12.7994 8.35352 12.5365 9.00901 12.5308C9.66451 12.5251 10.296 12.7771 10.7675 13.2325L20.7675 23.2325C21.2362 23.7013 21.4995 24.3371 21.4995 25C21.4995 25.6629 21.2362 26.2987 20.7675 26.7675L10.7675 36.7675C10.2987 37.2362 9.66293 37.4995 9.00002 37.4995C8.3371 37.4995 7.70134 37.2362 7.23252 36.7675Z" fill="black"/>
<rect x="25" width="50" height="50" fill="#313131"/>
</g>
<defs>
<clipPath id="clip0_7_147">
<rect width="50" height="50" fill="white"/>
</clipPath>
</defs>
</svg>
