<svg width="50" height="50" viewBox="0 0 50 50" fill="none" xmlns="http://www.w3.org/2000/svg">
<circle cx="25" cy="25" r="24.5" fill="#FFE600" stroke="black"/>
<path fill-rule="evenodd" clip-rule="evenodd" d="M24.5 8C25.0802 8 25.6366 8.23047 26.0468 8.6407C26.457 9.05094 26.6875 9.60734 26.6875 10.1875V12.375C26.6875 12.9552 26.457 13.5116 26.0468 13.9218C25.6366 14.332 25.0802 14.5625 24.5 14.5625C23.9198 14.5625 23.3634 14.332 22.9532 13.9218C22.543 13.5116 22.3125 12.9552 22.3125 12.375V10.1875C22.3125 9.60734 22.543 9.05094 22.9532 8.6407C23.3634 8.23047 23.9198 8 24.5 8ZM33.25 25.5C33.25 27.8206 32.3281 30.0462 30.6872 31.6872C29.0462 33.3281 26.8206 34.25 24.5 34.25C22.1794 34.25 19.9538 33.3281 18.3128 31.6872C16.6719 30.0462 15.75 27.8206 15.75 25.5C15.75 23.1794 16.6719 20.9538 18.3128 19.3128C19.9538 17.6719 22.1794 16.75 24.5 16.75C26.8206 16.75 29.0462 17.6719 30.6872 19.3128C32.3281 20.9538 33.25 23.1794 33.25 25.5ZM32.235 36.3281L33.7816 37.8747C34.1941 38.2732 34.7467 38.4936 35.3203 38.4887C35.8938 38.4837 36.4425 38.2536 36.848 37.848C37.2536 37.4425 37.4837 36.8938 37.4887 36.3203C37.4936 35.7467 37.2732 35.1941 36.8747 34.7816L35.3281 33.235C34.9156 32.8365 34.363 32.616 33.7894 32.621C33.2159 32.626 32.6672 32.8561 32.2616 33.2616C31.8561 33.6672 31.626 34.2159 31.621 34.7894C31.616 35.363 31.8365 35.9156 32.235 36.3281ZM36.8725 13.1253C37.2826 13.5355 37.513 14.0918 37.513 14.6719C37.513 15.2519 37.2826 15.8082 36.8725 16.2184L35.3281 17.765C35.1263 17.9739 34.885 18.1406 34.6181 18.2552C34.3512 18.3699 34.0641 18.4302 33.7737 18.4327C33.4832 18.4353 33.1952 18.3799 32.9264 18.2699C32.6575 18.1599 32.4133 17.9975 32.2079 17.7921C32.0025 17.5867 31.8401 17.3425 31.7301 17.0736C31.6201 16.8048 31.5647 16.5168 31.5673 16.2263C31.5698 15.9359 31.6301 15.6488 31.7448 15.3819C31.8594 15.115 32.0261 14.8737 32.235 14.6719L33.7816 13.1253C34.1918 12.7152 34.7481 12.4848 35.3281 12.4848C35.9082 12.4848 36.4645 12.7152 36.8747 13.1253H36.8725ZM39.8125 27.6875C40.3927 27.6875 40.9491 27.457 41.3593 27.0468C41.7695 26.6366 42 26.0802 42 25.5C42 24.9198 41.7695 24.3634 41.3593 23.9532C40.9491 23.543 40.3927 23.3125 39.8125 23.3125H37.625C37.0448 23.3125 36.4884 23.543 36.0782 23.9532C35.668 24.3634 35.4375 24.9198 35.4375 25.5C35.4375 26.0802 35.668 26.6366 36.0782 27.0468C36.4884 27.457 37.0448 27.6875 37.625 27.6875H39.8125ZM24.5 36.4375C25.0802 36.4375 25.6366 36.668 26.0468 37.0782C26.457 37.4884 26.6875 38.0448 26.6875 38.625V40.8125C26.6875 41.3927 26.457 41.9491 26.0468 42.3593C25.6366 42.7695 25.0802 43 24.5 43C23.9198 43 23.3634 42.7695 22.9532 42.3593C22.543 41.9491 22.3125 41.3927 22.3125 40.8125V38.625C22.3125 38.0448 22.543 37.4884 22.9532 37.0782C23.3634 36.668 23.9198 36.4375 24.5 36.4375ZM13.6719 17.765C13.875 17.9682 14.1161 18.1295 14.3815 18.2395C14.6469 18.3496 14.9314 18.4063 15.2188 18.4064C15.5061 18.4065 15.7906 18.35 16.0561 18.2401C16.3216 18.1303 16.5629 17.9692 16.7661 17.7661C16.9693 17.563 17.1306 17.3219 17.2406 17.0564C17.3507 16.791 17.4074 16.5065 17.4075 16.2192C17.4076 15.9319 17.3511 15.6474 17.2412 15.3819C17.1314 15.1164 16.9703 14.8751 16.7672 14.6719L15.2184 13.1253C14.8059 12.7268 14.2533 12.5064 13.6797 12.5113C13.1062 12.5163 12.5575 12.7464 12.152 13.152C11.7464 13.5575 11.5163 14.1062 11.5113 14.6797C11.5064 15.2533 11.7268 15.8059 12.1253 16.2184L13.6719 17.765ZM16.765 36.3281L15.2184 37.8747C14.8059 38.2732 14.2533 38.4936 13.6797 38.4887C13.1062 38.4837 12.5575 38.2536 12.152 37.848C11.7464 37.4425 11.5163 36.8938 11.5113 36.3203C11.5064 35.7467 11.7268 35.1941 12.1253 34.7816L13.6719 33.235C14.0844 32.8365 14.637 32.616 15.2106 32.621C15.7841 32.626 16.3328 32.8561 16.7384 33.2616C17.1439 33.6672 17.374 34.2159 17.379 34.7894C17.384 35.363 17.1635 35.9156 16.765 36.3281ZM11.375 27.6875C11.9552 27.6875 12.5116 27.457 12.9218 27.0468C13.332 26.6366 13.5625 26.0802 13.5625 25.5C13.5625 24.9198 13.332 24.3634 12.9218 23.9532C12.5116 23.543 11.9552 23.3125 11.375 23.3125H9.1875C8.60734 23.3125 8.05094 23.543 7.6407 23.9532C7.23047 24.3634 7 24.9198 7 25.5C7 26.0802 7.23047 26.6366 7.6407 27.0468C8.05094 27.457 8.60734 27.6875 9.1875 27.6875H11.375Z" fill="#C4C4C4"/>
</svg>
