<svg width="1021" height="190" viewBox="0 0 1021 190" fill="none" xmlns="http://www.w3.org/2000/svg">
<path d="M1020 188.722H1.59277V67.2222L30.6393 71.7222L41.9023 76.2222L59.0931 83.7222L87.5468 95.2222L123.707 110.222L143.269 111.722L171.723 114.222L198.991 116.222L229.816 118.722C235.151 119.722 246.058 122.222 247.006 124.222C247.955 126.222 250.168 125.056 251.156 124.222L263.012 114.222C265.383 109.822 270.323 109.056 272.496 109.222C273.682 109.389 276.764 110.022 279.61 111.222C282.455 112.422 285.933 111.722 287.316 111.222L353.115 70.7222L367.342 62.2222C373.981 56.2222 392.634 59.7222 401.131 62.2222L408.837 63.7222L420.693 66.2222C423.262 66.7222 429.585 68.2222 434.327 70.2222C439.069 72.2222 444.997 70.0556 447.368 68.7222L453.889 63.2222L478.786 44.7222L503.09 27.2222L538.657 1.22223L557.627 12.7222L620.462 49.7222L653.658 69.7222H656.622C657.57 69.7222 659.388 67.3889 660.179 66.2222C661.364 65.0556 663.972 62.7222 664.921 62.7222C665.869 62.7222 667.687 63.7222 668.478 64.2222C677.369 69.8889 697.524 81.2222 707.009 81.2222C716.493 81.2222 730.72 78.2222 736.648 76.7222C736.648 76.7222 805.411 134.048 806.597 133.222C817.504 125.622 826.949 122.722 830.308 122.222L921.005 114.222L995.696 81.2222L1018.81 78.2222L1020 76.7222V188.722Z" fill="#5F0000" fill-opacity="0.95" stroke="black" stroke-width="2"/>
<path d="M999.252 188.722H1V89.5782L29.4717 93.2502L40.5117 96.9222L57.3623 103.042L85.253 112.426L120.697 124.666L139.872 125.89L167.763 127.93L194.491 129.562L224.706 131.602C229.936 132.418 240.627 134.458 241.557 136.09C242.486 137.722 244.656 136.77 245.624 136.09L257.245 127.93C259.569 124.34 264.412 123.714 266.542 123.85C267.704 123.986 270.726 124.503 273.515 125.482C276.304 126.461 279.713 125.89 281.069 125.482L345.566 92.4342L359.511 85.4982C366.019 80.6022 384.303 83.4582 392.631 85.4982L400.185 86.7222L411.806 88.7622C414.324 89.1702 420.522 90.3942 425.17 92.0262C429.819 93.6582 435.629 91.8902 437.953 90.8022L444.345 86.3142L468.749 71.2182L492.573 56.9382L527.436 35.7222L546.03 45.1062L607.621 75.2982L640.16 91.6182H643.066C643.995 91.6182 645.777 89.7142 646.552 88.7622C647.714 87.8102 650.271 85.9062 651.201 85.9062C652.13 85.9062 653.912 86.7222 654.687 87.1302C663.403 91.7542 683.159 101.002 692.455 101.002C701.752 101.002 715.698 98.5542 721.508 97.3302C721.508 97.3302 788.911 144.108 790.073 143.434C800.764 137.233 810.022 134.866 813.315 134.458L902.216 127.93L975.429 101.002L998.09 98.5542L999.252 97.3302V188.722Z" stroke="black" stroke-width="2"/>
<path d="M344.223 122.222C341.852 105.022 358.648 88.7222 367.342 82.7222L279.017 125.722H273.089C266.924 132.522 270.52 135.889 273.089 136.722L317.548 156.222L378.605 160.722L475.822 170.222L595.565 172.222L677.369 162.722L639.431 91.2222L554.07 48.2222C544.98 54.5556 526.802 68.6222 526.802 74.2222C526.802 79.8222 522.455 86.2222 520.281 88.7222C512.219 90.7222 512.97 79.8889 514.353 74.2222C521.664 67.5556 536.049 53.0222 535.101 48.2222C534.152 43.4222 529.173 38.2222 526.802 36.2222L453.889 82.7222C448.554 86.7222 436.58 94.5222 431.363 93.7222C426.146 92.9222 415.358 90.0556 410.615 88.7222L344.223 122.222Z" fill="black" fill-opacity="0.5" stroke="black" stroke-width="2"/>
<path d="M15.2269 92.2222L1 90.2222V170.222L238.115 175.222L171.723 126.722H141.49C147.181 133.922 143.862 139.722 141.49 141.722L75.6911 109.222V126.722L25.3042 92.2222V111.222L15.2269 92.2222Z" fill="black" fill-opacity="0.5"/>
<path d="M766.287 152.222L712.937 99.2222C706.416 99.8889 692.782 101.422 690.411 102.222C688.04 103.022 662.945 91.5556 650.694 85.7222L640.617 92.2222L677.369 161.722L766.287 152.222Z" fill="black" fill-opacity="0.5"/>
<path d="M882.474 130.222L823.195 173.722L998.067 167.722V99.2222L960.721 130.222L956.572 116.222L903.814 142.722L908.556 125.222L901.443 128.222L882.474 130.222Z" fill="black" fill-opacity="0.5"/>
<path d="M15.2269 92.2222L1 90.2222V170.222L238.115 175.222L171.723 126.722H141.49C147.181 133.922 143.862 139.722 141.49 141.722L75.6911 109.222V126.722L25.3042 92.2222V111.222L15.2269 92.2222Z" stroke="black" stroke-width="2"/>
<path d="M766.287 152.222L712.937 99.2222C706.416 99.8889 692.782 101.422 690.411 102.222C688.04 103.022 662.945 91.5556 650.694 85.7222L640.617 92.2222L677.369 161.722L766.287 152.222Z" stroke="black" stroke-width="2"/>
<path d="M882.474 130.222L823.195 173.722L998.067 167.722V99.2222L960.721 130.222L956.572 116.222L903.814 142.722L908.556 125.222L901.443 128.222L882.474 130.222Z" stroke="black" stroke-width="2"/>
</svg>
