<svg width="1019" height="47" viewBox="0 0 1019 47" fill="none" xmlns="http://www.w3.org/2000/svg">
<path d="M1018 0.222229H1V46.2222H1018V0.222229Z" fill="#020202" stroke="black" stroke-width="0.3"/>
<path d="M14 23.7222V20.2222H39V23.7222H14Z" fill="#7D5A00" stroke="black" stroke-width="0.3"/>
<path d="M314 23.7222V20.2222H339V23.7222H314Z" fill="#7D5A00" stroke="black" stroke-width="0.3"/>
<path d="M114 23.7222V20.2222H139V23.7222H114Z" fill="#7D5A00" stroke="black" stroke-width="0.3"/>
<path d="M414 23.7222V20.2222H439V23.7222H414Z" fill="#7D5A00" stroke="black" stroke-width="0.3"/>
<path d="M214 23.7222V20.2222H239V23.7222H214Z" fill="#7D5A00" stroke="black" stroke-width="0.3"/>
<path d="M514 23.7222V20.2222H539V23.7222H514Z" fill="#7D5A00" stroke="black" stroke-width="0.3"/>
<path d="M664 23.7222V20.2222H689V23.7222H664Z" fill="#7D5A00" stroke="black" stroke-width="0.3"/>
<path d="M814 23.7222V20.2222H839V23.7222H814Z" fill="#7D5A00" stroke="black" stroke-width="0.3"/>
<path d="M914 23.7222V20.2222H939V23.7222H914Z" fill="#7D5A00" stroke="black" stroke-width="0.3"/>
<path d="M64 23.7222V20.2222H89V23.7222H64Z" fill="#7D5A00" stroke="black" stroke-width="0.3"/>
<path d="M364 23.7222V20.2222H389V23.7222H364Z" fill="#7D5A00" stroke="black" stroke-width="0.3"/>
<path d="M164 23.7222V20.2222H189V23.7222H164Z" fill="#7D5A00" stroke="black" stroke-width="0.3"/>
<path d="M464 23.7222V20.2222H489V23.7222H464Z" fill="#7D5A00" stroke="black" stroke-width="0.3"/>
<path d="M614 23.7222V20.2222H639V23.7222H614Z" fill="#7D5A00" stroke="black" stroke-width="0.3"/>
<path d="M764 23.7222V20.2222H789V23.7222H764Z" fill="#7D5A00" stroke="black" stroke-width="0.3"/>
<path d="M264 23.7222V20.2222H289V23.7222H264Z" fill="#7D5A00" stroke="black" stroke-width="0.3"/>
<path d="M564 23.7222V20.2222H589V23.7222H564Z" fill="#7D5A00" stroke="black" stroke-width="0.3"/>
<path d="M714 23.7222V20.2222H739V23.7222H714Z" fill="#7D5A00" stroke="black" stroke-width="0.3"/>
<path d="M864 23.7222V20.2222H889V23.7222H864Z" fill="#7D5A00" stroke="black" stroke-width="0.3"/>
<path d="M964 23.7222V20.2222H989V23.7222H964Z" fill="#7D5A00" stroke="black" stroke-width="0.3"/>
</svg>
