<svg width="812" height="111" viewBox="0 0 812 111" fill="none" xmlns="http://www.w3.org/2000/svg">
<g filter="url(#filter0_d_12_16)">
<path d="M197.789 4.7403L197.681 4.92102L197.501 4.77645H196.709L196.493 4.84873L196.205 5.13789L196.097 5.3909L196.061 5.31861L195.845 5.21018L195.593 5.13789H194.693L194.44 5.21018L194.044 5.3909L193.756 5.57163L193.504 5.78849L193.324 5.96922L193.144 6.14994L193.036 6.33066L193 6.51139V7.30657L193.072 7.48729L193.144 7.63187L193.252 7.84873L193.432 8.10175L193.828 8.42705L194.08 8.57163L194.26 8.68006H194.44L194.548 8.75235L195.629 8.78849L195.737 8.68006H196.133H196.277L196.313 8.75235H196.529L196.565 8.82464H196.745L196.853 8.89693H197.213L197.357 8.96922L197.934 9.00536L198.078 9.07765H199.446L199.554 9.00536H200.13L200.238 8.93307L200.598 8.82464H200.994H201.175L201.319 8.89693H201.499L201.607 8.96922H201.967L202.183 9.04151H203.911L204.307 9.14994H204.848L204.992 9.22223H207.44L208.017 9.14994L208.449 9.07765L208.809 9.00536L209.061 8.93307H209.709L209.781 9.00536H210.285L210.393 9.07765H211.33L211.402 8.93307H212.878L212.95 9.00536H214.211L214.787 8.93307H215.507L216.011 9.00536H217.019L217.524 8.93307L217.812 8.86078L218.028 8.78849L218.388 8.64392L218.784 8.3909L218.892 8.28247L218.928 8.17404L219 8.0656V7.77645L218.928 7.63187L218.856 7.45114L218.676 7.30657L218.316 7.05355L217.956 6.94512L217.488 6.83669L217.127 6.80054L216.263 6.7644L215.831 6.80054L215.651 6.87283H215.435L215.291 6.94512V6.83669L215.219 6.40295L215.075 6.1138L214.931 5.82464L214.607 5.46319L214.247 5.24633L213.85 5.0656H213.094L212.878 5.10175L212.518 5.17404L212.158 5.46319L212.122 5.31861L212.05 5.02946L211.906 4.7403L211.762 4.52343L211.618 4.30657L211.402 4.0897L211.186 3.87283L210.861 3.61982L210.501 3.4391L210.213 3.36681L210.105 3.25837H209.781H209.025L208.665 3.29452L208.521 3.36681L208.377 3.4391V3.29452L208.305 2.86078L208.233 2.57163L208.125 2.28247L207.945 1.99331L207.729 1.63187L207.476 1.30657L207.224 1.05355L206.9 0.800542L206.648 0.619819L206.396 0.475241L206.072 0.366807L205.784 0.294518L205.496 0.222229H204.235L203.983 0.258374L203.623 0.366807L203.299 0.54753L202.867 0.764398L202.507 1.05355L202.219 1.34271L201.931 1.63187L201.751 1.88488L201.571 2.21018L201.427 2.57163L201.355 2.89693L200.85 2.96922L200.382 3.04151L199.77 3.22223L199.122 3.51139L198.654 3.87283L198.366 4.0897L198.186 4.27042L198.006 4.45114L197.789 4.7403Z" fill="#F8F8F8" fill-opacity="0.75" shape-rendering="crispEdges"/>
</g>
<g filter="url(#filter1_d_12_16)">
<path d="M615.789 5.7403L615.681 5.92102L615.501 5.77645H614.709L614.493 5.84873L614.205 6.13789L614.097 6.3909L614.061 6.31861L613.845 6.21018L613.593 6.13789H612.693L612.44 6.21018L612.044 6.3909L611.756 6.57163L611.504 6.78849L611.324 6.96922L611.144 7.14994L611.036 7.33066L611 7.51139V8.30657L611.072 8.48729L611.144 8.63187L611.252 8.84873L611.432 9.10175L611.828 9.42705L612.08 9.57163L612.26 9.68006H612.44L612.548 9.75235L613.629 9.78849L613.737 9.68006H614.133H614.277L614.313 9.75235H614.529L614.565 9.82464H614.745L614.853 9.89693H615.213L615.357 9.96922L615.934 10.0054L616.078 10.0777H617.446L617.554 10.0054H618.13L618.238 9.93307L618.598 9.82464H618.994H619.175L619.319 9.89693H619.499L619.607 9.96922H619.967L620.183 10.0415H621.911L622.307 10.1499H622.848L622.992 10.2222H625.44L626.017 10.1499L626.449 10.0777L626.809 10.0054L627.061 9.93307H627.709L627.781 10.0054H628.285L628.393 10.0777H629.33L629.402 9.93307H630.878L630.95 10.0054H632.211L632.787 9.93307H633.507L634.011 10.0054H635.019L635.524 9.93307L635.812 9.86078L636.028 9.78849L636.388 9.64392L636.784 9.3909L636.892 9.28247L636.928 9.17404L637 9.0656V8.77645L636.928 8.63187L636.856 8.45114L636.676 8.30657L636.316 8.05355L635.956 7.94512L635.488 7.83669L635.127 7.80054L634.263 7.7644L633.831 7.80054L633.651 7.87283H633.435L633.291 7.94512V7.83669L633.219 7.40295L633.075 7.1138L632.931 6.82464L632.607 6.46319L632.247 6.24633L631.85 6.0656H631.094L630.878 6.10175L630.518 6.17404L630.158 6.46319L630.122 6.31861L630.05 6.02946L629.906 5.7403L629.762 5.52343L629.618 5.30657L629.402 5.0897L629.186 4.87283L628.861 4.61982L628.501 4.4391L628.213 4.36681L628.105 4.25837H627.781H627.025L626.665 4.29452L626.521 4.36681L626.377 4.4391V4.29452L626.305 3.86078L626.233 3.57163L626.125 3.28247L625.945 2.99331L625.729 2.63187L625.476 2.30657L625.224 2.05355L624.9 1.80054L624.648 1.61982L624.396 1.47524L624.072 1.36681L623.784 1.29452L623.496 1.22223H622.235L621.983 1.25837L621.623 1.36681L621.299 1.54753L620.867 1.7644L620.507 2.05355L620.219 2.34271L619.931 2.63187L619.751 2.88488L619.571 3.21018L619.427 3.57163L619.355 3.89693L618.85 3.96922L618.382 4.04151L617.77 4.22223L617.122 4.51139L616.654 4.87283L616.366 5.0897L616.186 5.27042L616.006 5.45114L615.789 5.7403Z" fill="#F8F8F8" fill-opacity="0.75" shape-rendering="crispEdges"/>
</g>
<g filter="url(#filter2_d_12_16)">
<path d="M17.8587 38.0067L17.4558 38.6781L16.7845 38.141H13.8304L13.0247 38.4095L11.9505 39.4837L11.5477 40.4236L11.4134 40.1551L10.6078 39.7523L9.66784 39.4837H6.31095L5.37102 39.7523L3.89399 40.4236L2.81979 41.095L1.87986 41.9007L1.20848 42.5721L0.537102 43.2434L0.134276 43.9148L0 44.5862V47.5402L0.268551 48.2116L0.537102 48.7487L0.939929 49.5544L1.61131 50.4943L3.08834 51.7028L4.02827 52.2399L4.69965 52.6427H5.37102L5.77385 52.9113L9.80212 53.0455L10.2049 52.6427H11.682H12.2191L12.3534 52.9113H13.159L13.2933 53.1798H13.9647L14.3675 53.4484H15.7102L16.2473 53.7169L18.3958 53.8512L18.9329 54.1198H24.0353L24.4382 53.8512H26.5866L26.9894 53.5827L28.3322 53.1798H29.8092H30.4806L31.0177 53.4484H31.689L32.0919 53.7169H33.4346L34.2403 53.9855H40.6855L42.1625 54.3883H44.1767L44.7138 54.6569H53.8445L55.9929 54.3883L57.6042 54.1198L58.947 53.8512L59.8869 53.5827H62.3039L62.5724 53.8512H64.4523L64.8551 54.1198H68.3463L68.6148 53.5827H74.1201L74.3887 53.8512H79.0883L81.2367 53.5827H83.9223L85.8021 53.8512H89.5618L91.4417 53.5827L92.5159 53.3141L93.3216 53.0455L94.6643 52.5084L96.1413 51.5685L96.5442 51.1657L96.6784 50.7629L96.947 50.36V49.2858L96.6784 48.7487L96.4099 48.0774L95.7385 47.5402L94.3958 46.6003L93.053 46.1975L91.3074 45.7947L89.9647 45.6604L86.7421 45.5261L85.1307 45.6604L84.4594 45.9289H83.6537L83.1166 46.1975V45.7947L82.8481 44.1834L82.311 43.1092L81.7738 42.035L80.5654 40.6922L79.2226 39.8865L77.7456 39.2152H74.9258L74.1201 39.3494L72.7774 39.618L71.4346 40.6922L71.3004 40.1551L71.0318 39.0809L70.4947 38.0067L69.9576 37.201L69.4205 36.3954L68.6148 35.5897L67.8092 34.7841L66.6007 33.8441L65.2579 33.1728L64.1837 32.9042L63.7809 32.5014H62.5724H59.7526L58.4099 32.6357L57.8728 32.9042L57.3357 33.1728V32.6357L57.0671 31.0243L56.7986 29.9501L56.3958 28.8759L55.7244 27.8017L54.9187 26.459L53.9788 25.2505L53.0389 24.3106L51.8304 23.3706L50.8905 22.6993L49.9505 22.1622L48.7421 21.7593L47.6678 21.4908L46.5936 21.2222H41.894L40.9541 21.3565L39.6113 21.7593L38.4028 22.4307L36.7915 23.2364L35.4488 24.3106L34.3746 25.3848L33.3004 26.459L32.629 27.3989L31.9576 28.6074L31.4205 29.9501L31.1519 31.1586L29.2721 31.4272L27.5265 31.6957L25.2438 32.3671L22.8269 33.4413L21.0813 34.7841L20.0071 35.5897L19.3357 36.2611L18.6643 36.9325L17.8587 38.0067Z" fill="#F8F8F8" fill-opacity="0.75" shape-rendering="crispEdges"/>
</g>
<g filter="url(#filter3_d_12_16)">
<path d="M435.859 39.0067L435.456 39.6781L434.784 39.141H431.83L431.025 39.4095L429.951 40.4837L429.548 41.4236L429.413 41.1551L428.608 40.7523L427.668 40.4837H424.311L423.371 40.7523L421.894 41.4236L420.82 42.095L419.88 42.9007L419.208 43.5721L418.537 44.2434L418.134 44.9148L418 45.5862V48.5402L418.269 49.2116L418.537 49.7487L418.94 50.5544L419.611 51.4943L421.088 52.7028L422.028 53.2399L422.7 53.6427H423.371L423.774 53.9113L427.802 54.0455L428.205 53.6427H429.682H430.219L430.353 53.9113H431.159L431.293 54.1798H431.965L432.367 54.4484H433.71L434.247 54.7169L436.396 54.8512L436.933 55.1198H442.035L442.438 54.8512H444.587L444.989 54.5827L446.332 54.1798H447.809H448.481L449.018 54.4484H449.689L450.092 54.7169H451.435L452.24 54.9855H458.686L460.163 55.3883H462.177L462.714 55.6569H471.845L473.993 55.3883L475.604 55.1198L476.947 54.8512L477.887 54.5827H480.304L480.572 54.8512H482.452L482.855 55.1198H486.346L486.615 54.5827H492.12L492.389 54.8512H497.088L499.237 54.5827H501.922L503.802 54.8512H507.562L509.442 54.5827L510.516 54.3141L511.322 54.0455L512.664 53.5084L514.141 52.5685L514.544 52.1657L514.678 51.7629L514.947 51.36V50.2858L514.678 49.7487L514.41 49.0774L513.739 48.5402L512.396 47.6003L511.053 47.1975L509.307 46.7947L507.965 46.6604L504.742 46.5261L503.131 46.6604L502.459 46.9289H501.654L501.117 47.1975V46.7947L500.848 45.1834L500.311 44.1092L499.774 43.035L498.565 41.6922L497.223 40.8865L495.746 40.2152H492.926L492.12 40.3494L490.777 40.618L489.435 41.6922L489.3 41.1551L489.032 40.0809L488.495 39.0067L487.958 38.201L487.42 37.3954L486.615 36.5897L485.809 35.7841L484.601 34.8441L483.258 34.1728L482.184 33.9042L481.781 33.5014H480.572H477.753L476.41 33.6357L475.873 33.9042L475.336 34.1728V33.6357L475.067 32.0243L474.799 30.9501L474.396 29.8759L473.724 28.8017L472.919 27.459L471.979 26.2505L471.039 25.3106L469.83 24.3706L468.89 23.6993L467.951 23.1622L466.742 22.7593L465.668 22.4908L464.594 22.2222H459.894L458.954 22.3565L457.611 22.7593L456.403 23.4307L454.792 24.2364L453.449 25.3106L452.375 26.3848L451.3 27.459L450.629 28.3989L449.958 29.6074L449.42 30.9501L449.152 32.1586L447.272 32.4272L445.527 32.6957L443.244 33.3671L440.827 34.4413L439.081 35.7841L438.007 36.5897L437.336 37.2611L436.664 37.9325L435.859 39.0067Z" fill="#F8F8F8" fill-opacity="0.75" shape-rendering="crispEdges"/>
</g>
<g filter="url(#filter4_d_12_16)">
<path d="M190.859 85.0067L190.456 85.6781L189.784 85.141H186.83L186.025 85.4095L184.951 86.4837L184.548 87.4236L184.413 87.1551L183.608 86.7523L182.668 86.4837H179.311L178.371 86.7523L176.894 87.4236L175.82 88.095L174.88 88.9007L174.208 89.5721L173.537 90.2434L173.134 90.9148L173 91.5862V94.5402L173.269 95.2116L173.537 95.7487L173.94 96.5544L174.611 97.4943L176.088 98.7028L177.028 99.2399L177.7 99.6427H178.371L178.774 99.9113L182.802 100.046L183.205 99.6427H184.682H185.219L185.353 99.9113H186.159L186.293 100.18H186.965L187.367 100.448H188.71L189.247 100.717L191.396 100.851L191.933 101.12H197.035L197.438 100.851H199.587L199.989 100.583L201.332 100.18H202.809H203.481L204.018 100.448H204.689L205.092 100.717H206.435L207.24 100.985H213.686L215.163 101.388H217.177L217.714 101.657H226.845L228.993 101.388L230.604 101.12L231.947 100.851L232.887 100.583H235.304L235.572 100.851H237.452L237.855 101.12H241.346L241.615 100.583H247.12L247.389 100.851H252.088L254.237 100.583H256.922L258.802 100.851H262.562L264.442 100.583L265.516 100.314L266.322 100.046L267.664 99.5084L269.141 98.5685L269.544 98.1657L269.678 97.7629L269.947 97.36V96.2858L269.678 95.7487L269.41 95.0774L268.739 94.5402L267.396 93.6003L266.053 93.1975L264.307 92.7947L262.965 92.6604L259.742 92.5261L258.131 92.6604L257.459 92.9289H256.654L256.117 93.1975V92.7947L255.848 91.1834L255.311 90.1092L254.774 89.035L253.565 87.6922L252.223 86.8865L250.746 86.2152H247.926L247.12 86.3494L245.777 86.618L244.435 87.6922L244.3 87.1551L244.032 86.0809L243.495 85.0067L242.958 84.201L242.42 83.3954L241.615 82.5897L240.809 81.7841L239.601 80.8441L238.258 80.1728L237.184 79.9042L236.781 79.5014H235.572H232.753L231.41 79.6357L230.873 79.9042L230.336 80.1728V79.6357L230.067 78.0243L229.799 76.9501L229.396 75.8759L228.724 74.8017L227.919 73.459L226.979 72.2505L226.039 71.3106L224.83 70.3706L223.89 69.6993L222.951 69.1622L221.742 68.7593L220.668 68.4908L219.594 68.2222H214.894L213.954 68.3565L212.611 68.7593L211.403 69.4307L209.792 70.2364L208.449 71.3106L207.375 72.3848L206.3 73.459L205.629 74.3989L204.958 75.6074L204.42 76.9501L204.152 78.1586L202.272 78.4272L200.527 78.6957L198.244 79.3671L195.827 80.4413L194.081 81.7841L193.007 82.5897L192.336 83.2611L191.664 83.9325L190.859 85.0067Z" fill="#F8F8F8" fill-opacity="0.75" shape-rendering="crispEdges"/>
</g>
<g filter="url(#filter5_d_12_16)">
<path d="M608.859 86.0067L608.456 86.6781L607.784 86.141H604.83L604.025 86.4095L602.951 87.4837L602.548 88.4236L602.413 88.1551L601.608 87.7523L600.668 87.4837H597.311L596.371 87.7523L594.894 88.4236L593.82 89.095L592.88 89.9007L592.208 90.5721L591.537 91.2434L591.134 91.9148L591 92.5862V95.5402L591.269 96.2116L591.537 96.7487L591.94 97.5544L592.611 98.4943L594.088 99.7028L595.028 100.24L595.7 100.643H596.371L596.774 100.911L600.802 101.046L601.205 100.643H602.682H603.219L603.353 100.911H604.159L604.293 101.18H604.965L605.367 101.448H606.71L607.247 101.717L609.396 101.851L609.933 102.12H615.035L615.438 101.851H617.587L617.989 101.583L619.332 101.18H620.809H621.481L622.018 101.448H622.689L623.092 101.717H624.435L625.24 101.985H631.686L633.163 102.388H635.177L635.714 102.657H644.845L646.993 102.388L648.604 102.12L649.947 101.851L650.887 101.583H653.304L653.572 101.851H655.452L655.855 102.12H659.346L659.615 101.583H665.12L665.389 101.851H670.088L672.237 101.583H674.922L676.802 101.851H680.562L682.442 101.583L683.516 101.314L684.322 101.046L685.664 100.508L687.141 99.5685L687.544 99.1657L687.678 98.7629L687.947 98.36V97.2858L687.678 96.7487L687.41 96.0774L686.739 95.5402L685.396 94.6003L684.053 94.1975L682.307 93.7947L680.965 93.6604L677.742 93.5261L676.131 93.6604L675.459 93.9289H674.654L674.117 94.1975V93.7947L673.848 92.1834L673.311 91.1092L672.774 90.035L671.565 88.6922L670.223 87.8865L668.746 87.2152H665.926L665.12 87.3494L663.777 87.618L662.435 88.6922L662.3 88.1551L662.032 87.0809L661.495 86.0067L660.958 85.201L660.42 84.3954L659.615 83.5897L658.809 82.7841L657.601 81.8441L656.258 81.1728L655.184 80.9042L654.781 80.5014H653.572H650.753L649.41 80.6357L648.873 80.9042L648.336 81.1728V80.6357L648.067 79.0243L647.799 77.9501L647.396 76.8759L646.724 75.8017L645.919 74.459L644.979 73.2505L644.039 72.3106L642.83 71.3706L641.89 70.6993L640.951 70.1622L639.742 69.7593L638.668 69.4908L637.594 69.2222H632.894L631.954 69.3565L630.611 69.7593L629.403 70.4307L627.792 71.2364L626.449 72.3106L625.375 73.3848L624.3 74.459L623.629 75.3989L622.958 76.6074L622.42 77.9501L622.152 79.1586L620.272 79.4272L618.527 79.6957L616.244 80.3671L613.827 81.4413L612.081 82.7841L611.007 83.5897L610.336 84.2611L609.664 84.9325L608.859 86.0067Z" fill="#F8F8F8" fill-opacity="0.75" shape-rendering="crispEdges"/>
</g>
<g filter="url(#filter6_d_12_16)">
<path d="M301.158 48.2945L300.726 49.0174L300.006 48.4391H296.837L295.972 48.7283L294.82 49.8849L294.388 50.8969L294.244 50.6078L293.38 50.174L292.371 49.8849H288.77L287.762 50.174L286.177 50.8969L285.025 51.6198L284.017 52.4873L283.296 53.2102L282.576 53.9331L282.144 54.656L282 55.3789V58.5596L282.288 59.2825L282.576 59.8608L283.008 60.7283L283.729 61.7403L285.313 63.0415L286.321 63.6198L287.042 64.0536H287.762L288.194 64.3427L292.515 64.4873L292.947 64.0536H294.532H295.108L295.252 64.3427H296.116L296.26 64.6319H296.981L297.413 64.921H298.853L299.429 65.2102L301.734 65.3548L302.31 65.6439H307.784L308.216 65.3548H310.521L310.953 65.0656L312.393 64.6319H313.978H314.698L315.274 64.921H315.994L316.427 65.2102H317.867L318.731 65.4993H325.645L327.23 65.9331H329.391L329.967 66.2222H339.762L342.066 65.9331L343.795 65.6439L345.235 65.3548L346.244 65.0656H348.837L349.125 65.3548H351.141L351.573 65.6439H355.319L355.607 65.0656H361.512L361.801 65.3548H366.842L369.147 65.0656H372.028L374.044 65.3548H378.078L380.094 65.0656L381.247 64.7764L382.111 64.4873L383.551 63.909L385.136 62.8969L385.568 62.4632L385.712 62.0295L386 61.5957V60.4391L385.712 59.8608L385.424 59.1379L384.704 58.5596L383.263 57.5475L381.823 57.1138L379.95 56.6801L378.51 56.5355L375.053 56.3909L373.324 56.5355L372.604 56.8246H371.74L371.163 57.1138V56.6801L370.875 54.9451L370.299 53.7885L369.723 52.6319L368.427 51.1861L366.986 50.3186L365.402 49.5957H362.377L361.512 49.7403L360.072 50.0295L358.632 51.1861L358.488 50.6078L358.199 49.4511L357.623 48.2945L357.047 47.427L356.471 46.5596L355.607 45.6921L354.742 44.8246L353.446 43.8126L352.006 43.0897L350.853 42.8005L350.421 42.3668H349.125H346.1L344.659 42.5114L344.083 42.8005L343.507 43.0897V42.5114L343.219 40.7764L342.931 39.6198L342.499 38.4632L341.778 37.3066L340.914 35.8608L339.906 34.5596L338.898 33.5475L337.601 32.5355L336.593 31.8126L335.584 31.2343L334.288 30.8005L333.136 30.5114L331.983 30.2222H326.942L325.934 30.3668L324.493 30.8005L323.197 31.5234L321.468 32.3909L320.028 33.5475L318.875 34.7042L317.723 35.8608L317.003 36.8728L316.283 38.174L315.706 39.6198L315.418 40.921L313.402 41.2102L311.529 41.4993L309.08 42.2222L306.488 43.3789L304.615 44.8246L303.463 45.6921L302.742 46.415L302.022 47.1379L301.158 48.2945Z" fill="white" fill-opacity="0.75" shape-rendering="crispEdges"/>
</g>
<g filter="url(#filter7_d_12_16)">
<path d="M719.158 49.2945L718.726 50.0174L718.006 49.4391H714.837L713.972 49.7283L712.82 50.8849L712.388 51.8969L712.244 51.6078L711.38 51.174L710.371 50.8849H706.77L705.762 51.174L704.177 51.8969L703.025 52.6198L702.017 53.4873L701.296 54.2102L700.576 54.9331L700.144 55.656L700 56.3789V59.5596L700.288 60.2825L700.576 60.8608L701.008 61.7283L701.729 62.7403L703.313 64.0415L704.321 64.6198L705.042 65.0536H705.762L706.194 65.3427L710.515 65.4873L710.947 65.0536H712.532H713.108L713.252 65.3427H714.116L714.26 65.6319H714.981L715.413 65.921H716.853L717.429 66.2102L719.734 66.3548L720.31 66.6439H725.784L726.216 66.3548H728.521L728.953 66.0656L730.393 65.6319H731.978H732.698L733.274 65.921H733.994L734.427 66.2102H735.867L736.731 66.4993H743.645L745.23 66.9331H747.391L747.967 67.2222H757.762L760.066 66.9331L761.795 66.6439L763.235 66.3548L764.244 66.0656H766.837L767.125 66.3548H769.141L769.573 66.6439H773.319L773.607 66.0656H779.512L779.801 66.3548H784.842L787.147 66.0656H790.028L792.044 66.3548H796.078L798.094 66.0656L799.247 65.7764L800.111 65.4873L801.551 64.909L803.136 63.8969L803.568 63.4632L803.712 63.0295L804 62.5957V61.4391L803.712 60.8608L803.424 60.1379L802.704 59.5596L801.263 58.5475L799.823 58.1138L797.95 57.6801L796.51 57.5355L793.053 57.3909L791.324 57.5355L790.604 57.8246H789.74L789.163 58.1138V57.6801L788.875 55.9451L788.299 54.7885L787.723 53.6319L786.427 52.1861L784.986 51.3186L783.402 50.5957H780.377L779.512 50.7403L778.072 51.0295L776.632 52.1861L776.488 51.6078L776.199 50.4511L775.623 49.2945L775.047 48.427L774.471 47.5596L773.607 46.6921L772.742 45.8246L771.446 44.8126L770.006 44.0897L768.853 43.8005L768.421 43.3668H767.125H764.1L762.659 43.5114L762.083 43.8005L761.507 44.0897V43.5114L761.219 41.7764L760.931 40.6198L760.499 39.4632L759.778 38.3066L758.914 36.8608L757.906 35.5596L756.898 34.5475L755.601 33.5355L754.593 32.8126L753.584 32.2343L752.288 31.8005L751.136 31.5114L749.983 31.2222H744.942L743.934 31.3668L742.493 31.8005L741.197 32.5234L739.468 33.3909L738.028 34.5475L736.875 35.7042L735.723 36.8608L735.003 37.8728L734.283 39.174L733.706 40.6198L733.418 41.921L731.402 42.2102L729.529 42.4993L727.08 43.2222L724.488 44.3789L722.615 45.8246L721.463 46.6921L720.742 47.415L720.022 48.1379L719.158 49.2945Z" fill="white" fill-opacity="0.75" shape-rendering="crispEdges"/>
</g>
<g filter="url(#filter8_d_12_16)">
<path d="M333.579 43.2584L333.363 43.6198L333.003 43.3307H331.418L330.986 43.4752L330.41 44.0536L330.194 44.5596L330.122 44.415L329.69 44.1981L329.186 44.0536H327.385L326.881 44.1981L326.089 44.5596L325.512 44.921L325.008 45.3548L324.648 45.7162L324.288 46.0777L324.072 46.4391L324 46.8005V48.3909L324.144 48.7523L324.288 49.0415L324.504 49.4752L324.864 49.9813L325.657 50.6319L326.161 50.921L326.521 51.1379H326.881L327.097 51.2825L329.258 51.3548L329.474 51.1379H330.266H330.554L330.626 51.2825H331.058L331.13 51.427H331.49L331.706 51.5716H332.427L332.715 51.7162L333.867 51.7885L334.155 51.9331H336.892L337.108 51.7885H338.26L338.476 51.6439L339.197 51.427H339.989H340.349L340.637 51.5716H340.997L341.213 51.7162H341.934L342.366 51.8608H345.823L346.615 52.0777H347.695L347.983 52.2222H352.881L354.033 52.0777L354.898 51.9331L355.618 51.7885L356.122 51.6439H357.418L357.562 51.7885H358.571L358.787 51.9331H360.659L360.803 51.6439H363.756L363.9 51.7885H366.421L367.573 51.6439H369.014L370.022 51.7885H372.039L373.047 51.6439L373.623 51.4993L374.055 51.3548L374.776 51.0656L375.568 50.5596L375.784 50.3427L375.856 50.1258L376 49.909V49.3307L375.856 49.0415L375.712 48.6801L375.352 48.3909L374.632 47.8849L373.911 47.668L372.975 47.4511L372.255 47.3789L370.526 47.3066L369.662 47.3789L369.302 47.5234H368.87L368.582 47.668V47.4511L368.438 46.5837L368.15 46.0054L367.861 45.427L367.213 44.7042L366.493 44.2704L365.701 43.909H364.188L363.756 43.9813L363.036 44.1258L362.316 44.7042L362.244 44.415L362.1 43.8367L361.812 43.2584L361.524 42.8246L361.235 42.3909L360.803 41.9572L360.371 41.5234L359.723 41.0174L359.003 40.656L358.427 40.5114L358.211 40.2945H357.562H356.05L355.33 40.3668L355.042 40.5114L354.753 40.656V40.3668L354.609 39.4993L354.465 38.921L354.249 38.3427L353.889 37.7644L353.457 37.0415L352.953 36.3909L352.449 35.8849L351.801 35.3789L351.296 35.0174L350.792 34.7283L350.144 34.5114L349.568 34.3668L348.992 34.2222H346.471L345.967 34.2945L345.247 34.5114L344.598 34.8728L343.734 35.3066L343.014 35.8849L342.438 36.4632L341.861 37.0415L341.501 37.5475L341.141 38.1981L340.853 38.921L340.709 39.5716L339.701 39.7162L338.765 39.8608L337.54 40.2222L336.244 40.8005L335.307 41.5234L334.731 41.9572L334.371 42.3186L334.011 42.6801L333.579 43.2584Z" fill="white" fill-opacity="0.75" shape-rendering="crispEdges"/>
</g>
<g filter="url(#filter9_d_12_16)">
<path d="M751.579 44.2584L751.363 44.6198L751.003 44.3307H749.418L748.986 44.4752L748.41 45.0536L748.194 45.5596L748.122 45.415L747.69 45.1981L747.186 45.0536H745.385L744.881 45.1981L744.089 45.5596L743.512 45.921L743.008 46.3548L742.648 46.7162L742.288 47.0777L742.072 47.4391L742 47.8005V49.3909L742.144 49.7523L742.288 50.0415L742.504 50.4752L742.864 50.9813L743.657 51.6319L744.161 51.921L744.521 52.1379H744.881L745.097 52.2825L747.258 52.3548L747.474 52.1379H748.266H748.554L748.626 52.2825H749.058L749.13 52.427H749.49L749.706 52.5716H750.427L750.715 52.7162L751.867 52.7885L752.155 52.9331H754.892L755.108 52.7885H756.26L756.476 52.6439L757.197 52.427H757.989H758.349L758.637 52.5716H758.997L759.213 52.7162H759.934L760.366 52.8608H763.823L764.615 53.0777H765.695L765.983 53.2222H770.881L772.033 53.0777L772.898 52.9331L773.618 52.7885L774.122 52.6439H775.418L775.562 52.7885H776.571L776.787 52.9331H778.659L778.803 52.6439H781.756L781.9 52.7885H784.421L785.573 52.6439H787.014L788.022 52.7885H790.039L791.047 52.6439L791.623 52.4993L792.055 52.3548L792.776 52.0656L793.568 51.5596L793.784 51.3427L793.856 51.1258L794 50.909V50.3307L793.856 50.0415L793.712 49.6801L793.352 49.3909L792.632 48.8849L791.911 48.668L790.975 48.4511L790.255 48.3789L788.526 48.3066L787.662 48.3789L787.302 48.5234H786.87L786.582 48.668V48.4511L786.438 47.5837L786.15 47.0054L785.861 46.427L785.213 45.7042L784.493 45.2704L783.701 44.909H782.188L781.756 44.9813L781.036 45.1258L780.316 45.7042L780.244 45.415L780.1 44.8367L779.812 44.2584L779.524 43.8246L779.235 43.3909L778.803 42.9572L778.371 42.5234L777.723 42.0174L777.003 41.656L776.427 41.5114L776.211 41.2945H775.562H774.05L773.33 41.3668L773.042 41.5114L772.753 41.656V41.3668L772.609 40.4993L772.465 39.921L772.249 39.3427L771.889 38.7644L771.457 38.0415L770.953 37.3909L770.449 36.8849L769.801 36.3789L769.296 36.0174L768.792 35.7283L768.144 35.5114L767.568 35.3668L766.992 35.2222H764.471L763.967 35.2945L763.247 35.5114L762.598 35.8728L761.734 36.3066L761.014 36.8849L760.438 37.4632L759.861 38.0415L759.501 38.5475L759.141 39.1981L758.853 39.921L758.709 40.5716L757.701 40.7162L756.765 40.8608L755.54 41.2222L754.244 41.8005L753.307 42.5234L752.731 42.9572L752.371 43.3186L752.011 43.6801L751.579 44.2584Z" fill="white" fill-opacity="0.75" shape-rendering="crispEdges"/>
</g>
<path d="M70.8587 54.0067L70.4558 54.6781L69.7845 54.141H66.8304L66.0247 54.4095L64.9505 55.4837L64.5477 56.4236L64.4134 56.1551L63.6078 55.7523L62.6678 55.4837H59.311L58.371 55.7523L56.894 56.4236L55.8198 57.095L54.8799 57.9007L54.2085 58.5721L53.5371 59.2434L53.1343 59.9148L53 60.5862V63.5402L53.2686 64.2116L53.5371 64.7487L53.9399 65.5544L54.6113 66.4943L56.0883 67.7028L57.0283 68.2399L57.6996 68.6427H58.371L58.7739 68.9113L62.8021 69.0455L63.2049 68.6427H64.682H65.2191L65.3534 68.9113H66.159L66.2933 69.1798H66.9647L67.3675 69.4484H68.7102L69.2473 69.7169L71.3958 69.8512L71.9329 70.1198H77.0353L77.4382 69.8512H79.5866L79.9894 69.5827L81.3322 69.1798H82.8092H83.4806L84.0177 69.4484H84.689L85.0919 69.7169H86.4346L87.2403 69.9855H93.6855L95.1625 70.3883H97.1767L97.7138 70.6569H106.845L108.993 70.3883L110.604 70.1198L111.947 69.8512L112.887 69.5827H115.304L115.572 69.8512H117.452L117.855 70.1198H121.346L121.615 69.5827H127.12L127.389 69.8512H132.088L134.237 69.5827H136.922L138.802 69.8512H142.562L144.442 69.5827L145.516 69.3141L146.322 69.0455L147.664 68.5084L149.141 67.5685L149.544 67.1657L149.678 66.7629L149.947 66.36V65.2858L149.678 64.7487L149.41 64.0774L148.739 63.5402L147.396 62.6003L146.053 62.1975L144.307 61.7947L142.965 61.6604L139.742 61.5261L138.131 61.6604L137.459 61.9289H136.654L136.117 62.1975V61.7947L135.848 60.1834L135.311 59.1092L134.774 58.035L133.565 56.6922L132.223 55.8865L130.746 55.2152H127.926L127.12 55.3494L125.777 55.618L124.435 56.6922L124.3 56.1551L124.032 55.0809L123.495 54.0067L122.958 53.201L122.42 52.3954L121.615 51.5897L120.809 50.7841L119.601 49.8441L118.258 49.1728L117.184 48.9042L116.781 48.5014H115.572H112.753L111.41 48.6357L110.873 48.9042L110.336 49.1728V48.6357L110.067 47.0243L109.799 45.9501L109.396 44.8759L108.724 43.8017L107.919 42.459L106.979 41.2505L106.039 40.3106L104.83 39.3706L103.89 38.6993L102.951 38.1622L101.742 37.7593L100.668 37.4908L99.5936 37.2222H94.894L93.9541 37.3565L92.6113 37.7593L91.4028 38.4307L89.7915 39.2364L88.4488 40.3106L87.3746 41.3848L86.3004 42.459L85.629 43.3989L84.9576 44.6074L84.4205 45.9501L84.1519 47.1586L82.2721 47.4272L80.5265 47.6957L78.2438 48.3671L75.8269 49.4413L74.0813 50.7841L73.0071 51.5897L72.3357 52.2611L71.6643 52.9325L70.8587 54.0067Z" fill="#F8F8F8" fill-opacity="0.75"/>
<path d="M488.859 55.0067L488.456 55.6781L487.784 55.141H484.83L484.025 55.4095L482.951 56.4837L482.548 57.4236L482.413 57.1551L481.608 56.7523L480.668 56.4837H477.311L476.371 56.7523L474.894 57.4236L473.82 58.095L472.88 58.9007L472.208 59.5721L471.537 60.2434L471.134 60.9148L471 61.5862V64.5402L471.269 65.2116L471.537 65.7487L471.94 66.5544L472.611 67.4943L474.088 68.7028L475.028 69.2399L475.7 69.6427H476.371L476.774 69.9113L480.802 70.0455L481.205 69.6427H482.682H483.219L483.353 69.9113H484.159L484.293 70.1798H484.965L485.367 70.4484H486.71L487.247 70.7169L489.396 70.8512L489.933 71.1198H495.035L495.438 70.8512H497.587L497.989 70.5827L499.332 70.1798H500.809H501.481L502.018 70.4484H502.689L503.092 70.7169H504.435L505.24 70.9855H511.686L513.163 71.3883H515.177L515.714 71.6569H524.845L526.993 71.3883L528.604 71.1198L529.947 70.8512L530.887 70.5827H533.304L533.572 70.8512H535.452L535.855 71.1198H539.346L539.615 70.5827H545.12L545.389 70.8512H550.088L552.237 70.5827H554.922L556.802 70.8512H560.562L562.442 70.5827L563.516 70.3141L564.322 70.0455L565.664 69.5084L567.141 68.5685L567.544 68.1657L567.678 67.7629L567.947 67.36V66.2858L567.678 65.7487L567.41 65.0774L566.739 64.5402L565.396 63.6003L564.053 63.1975L562.307 62.7947L560.965 62.6604L557.742 62.5261L556.131 62.6604L555.459 62.9289H554.654L554.117 63.1975V62.7947L553.848 61.1834L553.311 60.1092L552.774 59.035L551.565 57.6922L550.223 56.8865L548.746 56.2152H545.926L545.12 56.3494L543.777 56.618L542.435 57.6922L542.3 57.1551L542.032 56.0809L541.495 55.0067L540.958 54.201L540.42 53.3954L539.615 52.5897L538.809 51.7841L537.601 50.8441L536.258 50.1728L535.184 49.9042L534.781 49.5014H533.572H530.753L529.41 49.6357L528.873 49.9042L528.336 50.1728V49.6357L528.067 48.0243L527.799 46.9501L527.396 45.8759L526.724 44.8017L525.919 43.459L524.979 42.2505L524.039 41.3106L522.83 40.3706L521.89 39.6993L520.951 39.1622L519.742 38.7593L518.668 38.4908L517.594 38.2222H512.894L511.954 38.3565L510.611 38.7593L509.403 39.4307L507.792 40.2364L506.449 41.3106L505.375 42.3848L504.3 43.459L503.629 44.3989L502.958 45.6074L502.42 46.9501L502.152 48.1586L500.272 48.4272L498.527 48.6957L496.244 49.3671L493.827 50.4413L492.081 51.7841L491.007 52.5897L490.336 53.2611L489.664 53.9325L488.859 55.0067Z" fill="#F8F8F8" fill-opacity="0.75"/>
<path d="M64.8304 66.2619L64.615 66.6232L64.2561 66.3342H62.6768L62.246 66.4787L61.6717 67.0568L61.4564 67.5626L61.3846 67.4181L60.9539 67.2013L60.4514 67.0568H58.6567L58.1542 67.2013L57.3645 67.5626L56.7902 67.9239L56.2877 68.3575L55.9288 68.7188L55.5698 69.0801L55.3545 69.4414L55.2827 69.8027V71.3924L55.4263 71.7537L55.5698 72.0428L55.7852 72.4763L56.1441 72.9821L56.9338 73.6325L57.4363 73.9215L57.7952 74.1383H58.1542L58.3695 74.2828L60.5232 74.3551L60.7385 74.1383H61.5282H61.8153L61.8871 74.2828H62.3178L62.3896 74.4274H62.7486L62.9639 74.5719H63.6818L63.9689 74.7164L65.1175 74.7887L65.4047 74.9332H68.1326L68.348 74.7887H69.4966L69.7119 74.6441L70.4298 74.4274H71.2195H71.5784L71.8655 74.5719H72.2245L72.4398 74.7164H73.1577L73.5884 74.8609H77.0342L77.8239 75.0777H78.9007L79.1878 75.2222H84.0694L85.218 75.0777L86.0794 74.9332L86.7973 74.7887L87.2998 74.6441H88.592L88.7355 74.7887H89.7406L89.9559 74.9332H91.8224L91.966 74.6441H94.9092L95.0528 74.7887H97.5654L98.714 74.6441H100.15L101.155 74.7887H103.165L104.17 74.6441L104.744 74.4996L105.175 74.3551L105.893 74.0661L106.682 73.5602L106.898 73.3434L106.969 73.1267L107.113 72.9099V72.3318L106.969 72.0428L106.826 71.6814L106.467 71.3924L105.749 70.8866L105.031 70.6698L104.098 70.453L103.38 70.3808L101.657 70.3085L100.796 70.3808L100.437 70.5253H100.006L99.719 70.6698V70.453L99.5754 69.5859L99.2883 69.0078L99.0011 68.4297L98.355 67.7071L97.6372 67.2735L96.8475 66.9122H95.34L94.9092 66.9845L94.1914 67.129L93.4735 67.7071L93.4017 67.4181L93.2581 66.84L92.971 66.2619L92.6838 65.8283L92.3967 65.3948L91.966 64.9612L91.5352 64.5276L90.8892 64.0218L90.1713 63.6605L89.597 63.516L89.3816 63.2992H88.7355H87.228L86.5101 63.3715L86.223 63.516L85.9358 63.6605V63.3715L85.7923 62.5043L85.6487 61.9262L85.4333 61.3482L85.0744 60.7701L84.6437 60.0475L84.1412 59.3971L83.6386 58.8913L82.9926 58.3855L82.49 58.0242L81.9875 57.7351L81.3415 57.5183L80.7672 57.3738L80.1929 57.2293H77.6803L77.1778 57.3016L76.4599 57.5183L75.8138 57.8796L74.9524 58.3132L74.2345 58.8913L73.6602 59.4694L73.0859 60.0475L72.727 60.5533L72.368 61.2036L72.0809 61.9262L71.9373 62.5766L70.9323 62.7211L69.9991 62.8656L68.7787 63.2269L67.4865 63.805L66.5533 64.5276L65.979 64.9612L65.62 65.3225L65.2611 65.6838L64.8304 66.2619Z" fill="white" fill-opacity="0.75"/>
<path d="M482.83 67.2619L482.615 67.6232L482.256 67.3342H480.677L480.246 67.4787L479.672 68.0568L479.456 68.5626L479.385 68.4181L478.954 68.2013L478.451 68.0568H476.657L476.154 68.2013L475.365 68.5626L474.79 68.9239L474.288 69.3575L473.929 69.7188L473.57 70.0801L473.354 70.4414L473.283 70.8027V72.3924L473.426 72.7537L473.57 73.0428L473.785 73.4763L474.144 73.9821L474.934 74.6325L475.436 74.9215L475.795 75.1383H476.154L476.37 75.2828L478.523 75.3551L478.739 75.1383H479.528H479.815L479.887 75.2828H480.318L480.39 75.4274H480.749L480.964 75.5719H481.682L481.969 75.7164L483.118 75.7887L483.405 75.9332H486.133L486.348 75.7887H487.497L487.712 75.6441L488.43 75.4274H489.219H489.578L489.866 75.5719H490.224L490.44 75.7164H491.158L491.588 75.8609H495.034L495.824 76.0777H496.901L497.188 76.2222H502.069L503.218 76.0777L504.079 75.9332L504.797 75.7887L505.3 75.6441H506.592L506.736 75.7887H507.741L507.956 75.9332H509.822L509.966 75.6441H512.909L513.053 75.7887H515.565L516.714 75.6441H518.15L519.155 75.7887H521.165L522.17 75.6441L522.744 75.4996L523.175 75.3551L523.893 75.0661L524.682 74.5602L524.898 74.3434L524.969 74.1267L525.113 73.9099V73.3318L524.969 73.0428L524.826 72.6814L524.467 72.3924L523.749 71.8866L523.031 71.6698L522.098 71.453L521.38 71.3808L519.657 71.3085L518.796 71.3808L518.437 71.5253H518.006L517.719 71.6698V71.453L517.575 70.5859L517.288 70.0078L517.001 69.4297L516.355 68.7071L515.637 68.2735L514.847 67.9122H513.34L512.909 67.9845L512.191 68.129L511.473 68.7071L511.402 68.4181L511.258 67.84L510.971 67.2619L510.684 66.8283L510.397 66.3948L509.966 65.9612L509.535 65.5276L508.889 65.0218L508.171 64.6605L507.597 64.516L507.382 64.2992H506.736H505.228L504.51 64.3715L504.223 64.516L503.936 64.6605V64.3715L503.792 63.5043L503.649 62.9262L503.433 62.3482L503.074 61.7701L502.644 61.0475L502.141 60.3971L501.639 59.8913L500.993 59.3855L500.49 59.0242L499.988 58.7351L499.341 58.5183L498.767 58.3738L498.193 58.2293H495.68L495.178 58.3016L494.46 58.5183L493.814 58.8796L492.952 59.3132L492.235 59.8913L491.66 60.4694L491.086 61.0475L490.727 61.5533L490.368 62.2036L490.081 62.9262L489.937 63.5766L488.932 63.7211L487.999 63.8656L486.779 64.2269L485.487 64.805L484.553 65.5276L483.979 65.9612L483.62 66.3225L483.261 66.6838L482.83 67.2619Z" fill="white" fill-opacity="0.75"/>
<defs>
<filter id="filter0_d_12_16" x="193" y="0.222229" width="34" height="17" filterUnits="userSpaceOnUse" color-interpolation-filters="sRGB">
<feFlood flood-opacity="0" result="BackgroundImageFix"/>
<feColorMatrix in="SourceAlpha" type="matrix" values="0 0 0 0 0 0 0 0 0 0 0 0 0 0 0 0 0 0 127 0" result="hardAlpha"/>
<feOffset dx="4" dy="4"/>
<feGaussianBlur stdDeviation="2"/>
<feComposite in2="hardAlpha" operator="out"/>
<feColorMatrix type="matrix" values="0 0 0 0 0 0 0 0 0 0 0 0 0 0 0 0 0 0 0.15 0"/>
<feBlend mode="normal" in2="BackgroundImageFix" result="effect1_dropShadow_12_16"/>
<feBlend mode="normal" in="SourceGraphic" in2="effect1_dropShadow_12_16" result="shape"/>
</filter>
<filter id="filter1_d_12_16" x="611" y="1.22223" width="34" height="17" filterUnits="userSpaceOnUse" color-interpolation-filters="sRGB">
<feFlood flood-opacity="0" result="BackgroundImageFix"/>
<feColorMatrix in="SourceAlpha" type="matrix" values="0 0 0 0 0 0 0 0 0 0 0 0 0 0 0 0 0 0 127 0" result="hardAlpha"/>
<feOffset dx="4" dy="4"/>
<feGaussianBlur stdDeviation="2"/>
<feComposite in2="hardAlpha" operator="out"/>
<feColorMatrix type="matrix" values="0 0 0 0 0 0 0 0 0 0 0 0 0 0 0 0 0 0 0.15 0"/>
<feBlend mode="normal" in2="BackgroundImageFix" result="effect1_dropShadow_12_16"/>
<feBlend mode="normal" in="SourceGraphic" in2="effect1_dropShadow_12_16" result="shape"/>
</filter>
<filter id="filter2_d_12_16" x="0" y="21.2222" width="104.947" height="41.4346" filterUnits="userSpaceOnUse" color-interpolation-filters="sRGB">
<feFlood flood-opacity="0" result="BackgroundImageFix"/>
<feColorMatrix in="SourceAlpha" type="matrix" values="0 0 0 0 0 0 0 0 0 0 0 0 0 0 0 0 0 0 127 0" result="hardAlpha"/>
<feOffset dx="4" dy="4"/>
<feGaussianBlur stdDeviation="2"/>
<feComposite in2="hardAlpha" operator="out"/>
<feColorMatrix type="matrix" values="0 0 0 0 0 0 0 0 0 0 0 0 0 0 0 0 0 0 0.15 0"/>
<feBlend mode="normal" in2="BackgroundImageFix" result="effect1_dropShadow_12_16"/>
<feBlend mode="normal" in="SourceGraphic" in2="effect1_dropShadow_12_16" result="shape"/>
</filter>
<filter id="filter3_d_12_16" x="418" y="22.2222" width="104.947" height="41.4346" filterUnits="userSpaceOnUse" color-interpolation-filters="sRGB">
<feFlood flood-opacity="0" result="BackgroundImageFix"/>
<feColorMatrix in="SourceAlpha" type="matrix" values="0 0 0 0 0 0 0 0 0 0 0 0 0 0 0 0 0 0 127 0" result="hardAlpha"/>
<feOffset dx="4" dy="4"/>
<feGaussianBlur stdDeviation="2"/>
<feComposite in2="hardAlpha" operator="out"/>
<feColorMatrix type="matrix" values="0 0 0 0 0 0 0 0 0 0 0 0 0 0 0 0 0 0 0.15 0"/>
<feBlend mode="normal" in2="BackgroundImageFix" result="effect1_dropShadow_12_16"/>
<feBlend mode="normal" in="SourceGraphic" in2="effect1_dropShadow_12_16" result="shape"/>
</filter>
<filter id="filter4_d_12_16" x="173" y="68.2222" width="104.947" height="41.4346" filterUnits="userSpaceOnUse" color-interpolation-filters="sRGB">
<feFlood flood-opacity="0" result="BackgroundImageFix"/>
<feColorMatrix in="SourceAlpha" type="matrix" values="0 0 0 0 0 0 0 0 0 0 0 0 0 0 0 0 0 0 127 0" result="hardAlpha"/>
<feOffset dx="4" dy="4"/>
<feGaussianBlur stdDeviation="2"/>
<feComposite in2="hardAlpha" operator="out"/>
<feColorMatrix type="matrix" values="0 0 0 0 0 0 0 0 0 0 0 0 0 0 0 0 0 0 0.15 0"/>
<feBlend mode="normal" in2="BackgroundImageFix" result="effect1_dropShadow_12_16"/>
<feBlend mode="normal" in="SourceGraphic" in2="effect1_dropShadow_12_16" result="shape"/>
</filter>
<filter id="filter5_d_12_16" x="591" y="69.2222" width="104.947" height="41.4346" filterUnits="userSpaceOnUse" color-interpolation-filters="sRGB">
<feFlood flood-opacity="0" result="BackgroundImageFix"/>
<feColorMatrix in="SourceAlpha" type="matrix" values="0 0 0 0 0 0 0 0 0 0 0 0 0 0 0 0 0 0 127 0" result="hardAlpha"/>
<feOffset dx="4" dy="4"/>
<feGaussianBlur stdDeviation="2"/>
<feComposite in2="hardAlpha" operator="out"/>
<feColorMatrix type="matrix" values="0 0 0 0 0 0 0 0 0 0 0 0 0 0 0 0 0 0 0.15 0"/>
<feBlend mode="normal" in2="BackgroundImageFix" result="effect1_dropShadow_12_16"/>
<feBlend mode="normal" in="SourceGraphic" in2="effect1_dropShadow_12_16" result="shape"/>
</filter>
<filter id="filter6_d_12_16" x="282" y="30.2222" width="112" height="44" filterUnits="userSpaceOnUse" color-interpolation-filters="sRGB">
<feFlood flood-opacity="0" result="BackgroundImageFix"/>
<feColorMatrix in="SourceAlpha" type="matrix" values="0 0 0 0 0 0 0 0 0 0 0 0 0 0 0 0 0 0 127 0" result="hardAlpha"/>
<feOffset dx="4" dy="4"/>
<feGaussianBlur stdDeviation="2"/>
<feComposite in2="hardAlpha" operator="out"/>
<feColorMatrix type="matrix" values="0 0 0 0 0 0 0 0 0 0 0 0 0 0 0 0 0 0 0.15 0"/>
<feBlend mode="normal" in2="BackgroundImageFix" result="effect1_dropShadow_12_16"/>
<feBlend mode="normal" in="SourceGraphic" in2="effect1_dropShadow_12_16" result="shape"/>
</filter>
<filter id="filter7_d_12_16" x="700" y="31.2222" width="112" height="44" filterUnits="userSpaceOnUse" color-interpolation-filters="sRGB">
<feFlood flood-opacity="0" result="BackgroundImageFix"/>
<feColorMatrix in="SourceAlpha" type="matrix" values="0 0 0 0 0 0 0 0 0 0 0 0 0 0 0 0 0 0 127 0" result="hardAlpha"/>
<feOffset dx="4" dy="4"/>
<feGaussianBlur stdDeviation="2"/>
<feComposite in2="hardAlpha" operator="out"/>
<feColorMatrix type="matrix" values="0 0 0 0 0 0 0 0 0 0 0 0 0 0 0 0 0 0 0.15 0"/>
<feBlend mode="normal" in2="BackgroundImageFix" result="effect1_dropShadow_12_16"/>
<feBlend mode="normal" in="SourceGraphic" in2="effect1_dropShadow_12_16" result="shape"/>
</filter>
<filter id="filter8_d_12_16" x="324" y="34.2222" width="60" height="26" filterUnits="userSpaceOnUse" color-interpolation-filters="sRGB">
<feFlood flood-opacity="0" result="BackgroundImageFix"/>
<feColorMatrix in="SourceAlpha" type="matrix" values="0 0 0 0 0 0 0 0 0 0 0 0 0 0 0 0 0 0 127 0" result="hardAlpha"/>
<feOffset dx="4" dy="4"/>
<feGaussianBlur stdDeviation="2"/>
<feComposite in2="hardAlpha" operator="out"/>
<feColorMatrix type="matrix" values="0 0 0 0 0 0 0 0 0 0 0 0 0 0 0 0 0 0 0.15 0"/>
<feBlend mode="normal" in2="BackgroundImageFix" result="effect1_dropShadow_12_16"/>
<feBlend mode="normal" in="SourceGraphic" in2="effect1_dropShadow_12_16" result="shape"/>
</filter>
<filter id="filter9_d_12_16" x="742" y="35.2222" width="60" height="26" filterUnits="userSpaceOnUse" color-interpolation-filters="sRGB">
<feFlood flood-opacity="0" result="BackgroundImageFix"/>
<feColorMatrix in="SourceAlpha" type="matrix" values="0 0 0 0 0 0 0 0 0 0 0 0 0 0 0 0 0 0 127 0" result="hardAlpha"/>
<feOffset dx="4" dy="4"/>
<feGaussianBlur stdDeviation="2"/>
<feComposite in2="hardAlpha" operator="out"/>
<feColorMatrix type="matrix" values="0 0 0 0 0 0 0 0 0 0 0 0 0 0 0 0 0 0 0.15 0"/>
<feBlend mode="normal" in2="BackgroundImageFix" result="effect1_dropShadow_12_16"/>
<feBlend mode="normal" in="SourceGraphic" in2="effect1_dropShadow_12_16" result="shape"/>
</filter>
</defs>
</svg>
